<svg width="150" height="150" viewBox="0 0 150 150" fill="none" xmlns="http://www.w3.org/2000/svg">
<path d="M34.5834 32.9247C40.8782 32.9247 45.9832 27.8221 45.9832 21.527C45.9832 15.23 40.8782 10.125 34.5834 10.125C28.2864 10.125 23.1814 15.23 23.1814 21.527C23.1814 27.8221 28.2861 32.9247 34.5834 32.9247Z" fill="#4B4B4B"/>
<path d="M66.5565 10.8961H140.799V71.3227H66.5565V66.2771C65.5862 66.261 64.6139 66.1764 63.6597 66.0026L63.3485 65.9455L60.2158 65.0783V77.6634H147.142V74.4917V4.55566H60.2158V34.9201L66.5565 37.1373V10.8961Z" fill="#4B4B4B"/>
<path d="M68.4736 105.083C68.4736 111.378 73.5763 116.483 79.8757 116.483C86.1704 116.483 91.2754 111.378 91.2754 105.083C91.2754 98.7857 86.1704 93.6831 79.8757 93.6831C73.5763 93.6831 68.4736 98.7857 68.4736 105.083Z" fill="#4B4B4B"/>
<path d="M79.8759 122.18C69.1831 122.18 59.6848 125.745 57.3164 137.6L57.5065 145.444H102.245L102.433 137.6C100.064 125.745 90.5663 122.18 79.8759 122.18Z" fill="#4B4B4B"/>
<path d="M116.039 105.083C116.039 111.378 121.144 116.483 127.441 116.483C133.736 116.483 138.841 111.378 138.841 105.083C138.841 98.7857 133.736 93.6831 127.441 93.6831C121.144 93.6831 116.039 98.7857 116.039 105.083Z" fill="#4B4B4B"/>
<path d="M127.44 122.18C116.748 122.18 107.249 125.745 104.881 137.6L105.071 145.444H149.81L150 137.6C147.629 125.745 138.133 122.18 127.44 122.18Z" fill="#4B4B4B"/>
<path d="M107.824 48.8871C105.243 48.8871 103.149 50.9762 103.14 53.5552L84.4063 60.4792C83.5479 59.4861 82.2942 58.8454 80.8777 58.8454C78.2896 58.8454 76.1914 60.9436 76.1914 63.5317C76.1914 66.1198 78.2896 68.218 80.8777 68.218C83.4608 68.218 85.5523 66.1289 85.5617 63.5475L104.295 56.6258C105.153 57.619 106.407 58.2597 107.824 58.2597C110.412 58.2597 112.51 56.1615 112.51 53.5734C112.51 52.5755 112.194 51.658 111.663 50.8986L123.676 33.5015C124.04 33.5932 124.417 33.6571 124.811 33.6571C127.399 33.6571 129.497 31.5588 129.497 28.9708C129.497 26.3827 127.399 24.2844 124.811 24.2844C122.223 24.2844 120.125 26.3827 120.125 28.9708C120.125 29.9683 120.441 30.8859 120.971 31.6456L108.958 49.0426C108.595 48.9509 108.218 48.8871 107.824 48.8871Z" fill="#FF7300"/>
<path d="M72.0047 57.9508L90.4019 49.1479C92.8845 48.0977 94.047 45.2374 92.9967 42.7524C91.9488 40.2698 89.0862 39.1097 86.6036 40.1576L70.062 45.8096L55.0948 40.5766C52.9119 39.8125 50.6466 39.318 48.3515 39.0962L38.2629 54.649V46.3223H32.1123V54.7085L20.8131 41.0708C14.7381 43.583 10.1341 48.3379 8.49343 56.546L0.118623 91.5071C-0.469658 94.1409 1.18737 96.7472 3.82087 97.3352C6.44997 97.9229 9.05622 96.2641 9.64421 93.635L18.4538 70.3413L20.7331 139.662C20.7331 142.856 23.3209 145.444 26.5151 145.444C29.7117 145.444 32.2998 142.856 32.2998 139.662L34.5993 98.3236L36.8921 139.662C36.8921 142.856 39.4848 145.444 42.6767 145.444C45.8713 145.444 48.4611 142.856 48.4611 139.662L51.7148 55.4289L64.9201 59.0878C67.3412 59.5296 69.842 59.1268 72.0047 57.9508Z" fill="#4B4B4B"/>
<path d="M38.2629 39.3154H32.1123V43.6265H38.2629V39.3154Z" fill="#4B4B4B"/>
</svg>
