<svg width="150" height="150" viewBox="0 0 150 150" fill="none" xmlns="http://www.w3.org/2000/svg">
<path d="M25.1696 75.671C36.1103 75.671 45.0095 66.7697 45.0095 55.8291C45.0095 44.8884 36.1103 35.9895 25.1696 35.9895C14.229 35.9895 5.33008 44.8887 5.33008 55.8291C5.33008 66.7697 14.229 75.671 25.1696 75.671ZM25.1696 42.2661C32.6485 42.2661 38.7326 48.3504 38.7326 55.8291C38.7326 63.3077 32.6482 69.392 25.1696 69.392C17.691 69.392 11.6066 63.3077 11.6066 55.8291C11.6066 48.3504 17.691 42.2661 25.1696 42.2661Z" fill="#4B4B4B"/>
<path d="M124.83 75.671C135.771 75.671 144.67 66.7697 144.67 55.8291C144.67 44.8884 135.771 35.9895 124.83 35.9895C113.89 35.9895 104.99 44.8887 104.99 55.8291C104.99 66.7697 113.89 75.671 124.83 75.671ZM124.83 42.2661C132.309 42.2661 138.393 48.3504 138.393 55.8291C138.393 63.3077 132.309 69.392 124.83 69.392C117.351 69.392 111.267 63.3077 111.267 55.8291C111.267 48.3504 117.351 42.2661 124.83 42.2661Z" fill="#4B4B4B"/>
<path d="M149.989 96.7084L149.93 96.4263C149.532 94.597 148.728 92.7132 147.539 90.8273C146.123 88.5937 143.525 85.4051 139.178 82.9005C134.997 80.4835 130.174 79.2571 124.83 79.2571C121.15 79.2615 117.284 80.0241 113.647 81.4623C111.376 82.3647 109.276 83.5318 107.396 84.9369C102.785 76.3591 91.9518 67.377 75.0012 67.377C58.0506 67.377 47.2151 76.3591 42.6035 84.9369C40.7306 83.5362 38.6282 82.3693 36.351 81.4623C32.7164 80.0241 28.8504 79.2615 25.1306 79.2571C16.4675 79.2571 10.6913 82.5396 7.36934 85.2911C5.41992 86.9065 3.76787 88.7684 2.46094 90.8294C1.27207 92.7132 0.467871 94.5973 0.0703125 96.4286L0 96.8001V132.303H40.4707V140.621H109.529V132.303H150L149.989 96.7084ZM40.4707 126.026H6.27686L6.26397 97.5363C6.4125 96.9311 6.80566 95.6941 7.76543 94.1839C8.80107 92.5468 10.718 90.2019 13.9567 88.3377C17.1826 86.48 20.9569 85.5381 25.1704 85.5357L25.2012 85.0898V85.5357C28.0468 85.5357 31.1851 86.1609 34.0415 87.2971C36.5525 88.2873 38.8274 89.7208 40.471 91.3424L40.4707 126.026ZM103.253 134.344H46.7473L46.732 91.2926C48.5481 84.4717 57.8297 73.6535 75.0012 73.6535C92.1703 73.6535 101.452 84.4717 103.253 91.1766V134.344ZM143.723 126.026H109.529V91.343C111.173 89.7214 113.448 88.2879 115.961 87.2953C118.816 86.1612 121.954 85.536 124.799 85.536V85.0901L124.83 85.536C130.287 85.5425 134.931 87.0899 138.631 90.1298C140.054 91.3058 141.299 92.7088 142.235 94.1859C143.194 95.6941 143.588 96.9311 143.723 97.4294V126.026Z" fill="#4B4B4B"/>
<path d="M75.0014 62.2938C89.5895 62.2938 101.456 50.4244 101.456 35.8363C101.456 21.2482 89.5895 9.37891 75.0014 9.37891C60.4133 9.37891 48.5439 21.2482 48.5439 35.8363C48.5439 50.4244 60.4133 62.2938 75.0014 62.2938ZM75.0014 15.6558C86.1277 15.6558 95.1799 24.7079 95.1799 35.8366C95.1799 46.963 86.1277 56.0151 75.0014 56.0151C63.8727 56.0151 54.8205 46.963 54.8205 35.8366C54.8205 24.7079 63.8727 15.6558 75.0014 15.6558Z" fill="#FF7300"/>
</svg>
