<svg width="150" height="150" viewBox="0 0 150 150" fill="none" xmlns="http://www.w3.org/2000/svg">
<g clip-path="url(#clip0_27_417)">
<path d="M95.728 37.7518C94.2884 35.0022 92.6349 32.5234 91.0054 30.7642C93.0242 27.7252 94.2069 24.0851 94.2069 20.1555C94.2046 9.54941 85.6065 0.951367 75.0005 0.94873C64.3944 0.951367 55.7964 9.54941 55.7964 20.1552C55.7964 24.0792 56.9791 27.7249 58.998 30.7639C57.3658 32.5231 55.7149 35.002 54.2753 37.7515C52.8301 40.5391 51.6313 43.5241 51.1792 46.3331C51.0304 47.2668 50.9601 48.1788 50.9601 49.0612C50.9492 51.9977 51.7965 54.6496 53.2792 56.7877C55.5064 60.0162 58.9461 62.0541 62.7433 63.3259C66.5536 64.5927 70.8081 65.1203 74.9999 65.1229C80.5912 65.1095 86.2877 64.2054 90.9023 61.7834C93.2053 60.5682 95.2458 58.939 96.7235 56.7877C98.2039 54.6496 99.0509 52 99.0427 49.0612C99.0427 48.1759 98.9724 47.2668 98.8206 46.3331C98.3721 43.5241 97.1732 40.5394 95.728 37.7518ZM65.155 10.31C67.6827 7.78223 71.1468 6.22891 75.0005 6.22891C78.8542 6.22891 82.3212 7.78252 84.8486 10.31C87.3711 12.8377 88.93 16.3044 88.93 20.1555C88.9271 24.0092 87.3737 27.4706 84.8486 30.001C82.3209 32.5231 78.8542 34.0791 75.0005 34.0791C71.1468 34.0768 67.6827 32.5231 65.155 30.001C62.6296 27.4732 61.0736 24.0092 61.0736 20.1555C61.0739 16.3044 62.6299 12.8377 65.155 10.31ZM92.3724 53.8056C91.0596 55.7298 88.6971 57.286 85.5875 58.3196C82.4943 59.3535 78.7461 59.846 75.0005 59.8404C70.0101 59.8539 65.0088 58.9527 61.5638 57.1126C59.837 56.2032 58.5137 55.0882 57.6313 53.7997C56.7518 52.506 56.2455 51.0285 56.2376 49.0612C56.2376 48.4741 56.2862 47.8352 56.392 47.1531C56.6815 45.2667 57.6857 42.6118 58.9549 40.1925C60.0887 38.0058 61.4445 35.9978 62.5353 34.7447C65.8909 37.6158 70.2397 39.359 75.0005 39.359C79.7636 39.359 84.1127 37.6161 87.4684 34.7474C88.5565 35.9978 89.9147 38.0058 91.0487 40.1925C92.3179 42.6118 93.3222 45.2667 93.6087 47.1531C93.7171 47.8352 93.7657 48.4683 93.7657 49.0612C93.7581 51.0288 93.2519 52.5065 92.3724 53.8056Z" fill="#4B4B4B"/>
<path d="M44.7707 117.204C43.3284 114.454 41.6775 111.975 40.0427 110.216C42.0671 107.179 43.2499 103.531 43.2499 99.6044C43.2469 88.9955 34.6492 80.4003 24.0431 80.3977C13.4371 80.4006 4.84195 88.9957 4.83902 99.6044C4.83902 103.528 6.02174 107.174 8.04351 110.216C6.41431 111.969 4.75523 114.448 3.31558 117.204C1.87037 119.991 0.674176 122.973 0.219489 125.783C0.0732973 126.719 5.50852e-05 127.628 5.50852e-05 128.51C-0.00785507 131.444 0.836481 134.102 2.31949 136.24C4.54693 139.466 7.98902 141.506 11.7836 142.778C15.5968 144.048 19.8481 144.57 24.0431 144.575C29.6344 144.564 35.3335 143.658 39.9481 141.236C42.2456 140.018 44.2914 138.389 45.7638 136.243C47.2442 134.102 48.0938 131.45 48.0859 128.516C48.0859 127.628 48.0126 126.719 47.8638 125.783C47.4118 122.973 46.2129 119.991 44.7707 117.204ZM14.1976 89.7563C16.728 87.2338 20.192 85.6805 24.0431 85.675C27.8968 85.6805 31.3609 87.2338 33.8886 89.7563C36.4167 92.284 37.967 95.7481 37.9697 99.6044C37.967 103.455 36.4164 106.92 33.8886 109.453C31.3609 111.975 27.8968 113.528 24.0431 113.528C20.192 113.528 16.7253 111.975 14.1947 109.453C11.6722 106.92 10.1189 103.455 10.1189 99.6044C10.1192 95.7481 11.6725 92.284 14.1976 89.7563ZM41.415 133.255C40.1022 135.184 37.7371 136.738 34.6301 137.772C31.5396 138.805 27.7858 139.298 24.0431 139.298C19.0527 139.309 14.0488 138.405 10.6064 136.567C8.8773 135.652 7.5563 134.54 6.67154 133.249C5.79205 131.956 5.2858 130.475 5.28052 128.51C5.28052 127.92 5.32916 127.284 5.43756 126.605C5.72466 124.716 6.72603 122.064 7.99781 119.645C9.1316 117.455 10.4904 115.45 11.5808 114.194C14.9341 117.068 19.283 118.811 24.0434 118.811C28.8039 118.811 33.1501 117.068 36.506 114.2C37.5964 115.447 38.9552 117.456 40.089 119.645C41.3611 122.065 42.3625 124.717 42.6493 126.606C42.7574 127.282 42.8063 127.921 42.8063 128.516C42.7978 130.481 42.2919 131.961 41.415 133.255Z" fill="#4B4B4B"/>
<path d="M149.781 125.783C149.327 122.973 148.13 119.991 146.685 117.204C145.245 114.449 143.586 111.969 141.957 110.216C143.979 107.174 145.162 103.528 145.162 99.6044C145.159 88.9955 136.564 80.4003 125.958 80.3977C115.352 80.4006 106.753 88.9958 106.751 99.6044C106.751 103.528 107.934 107.174 109.955 110.216C108.326 111.969 106.67 114.454 105.227 117.206C103.788 119.991 102.589 122.973 102.134 125.782C101.988 126.718 101.915 127.628 101.915 128.516C101.907 131.45 102.754 134.102 104.234 136.242C106.464 139.465 109.901 141.509 113.698 142.778C117.511 144.047 121.766 144.57 125.958 144.575C131.549 144.564 137.249 143.657 141.863 141.235C144.163 140.018 146.206 138.388 147.681 136.24C149.159 134.102 150.009 131.45 150.001 128.51C150 127.628 149.924 126.719 149.781 125.783ZM116.112 89.7563C118.64 87.2338 122.104 85.6805 125.958 85.6779C129.808 85.6808 133.272 87.2341 135.803 89.7563C138.328 92.284 139.882 95.7481 139.882 99.6044C139.882 103.455 138.328 106.92 135.803 109.453C133.275 111.975 129.809 113.528 125.958 113.528C122.104 113.528 118.64 111.975 116.112 109.453C113.584 106.92 112.031 103.455 112.031 99.6044C112.031 95.7481 113.584 92.284 116.112 89.7563ZM143.329 133.255C142.017 135.184 139.654 136.738 136.545 137.772C133.454 138.805 129.701 139.298 125.958 139.298C120.964 139.309 115.961 138.405 112.521 136.57C110.794 135.655 109.468 134.54 108.586 133.255C107.709 131.958 107.203 130.481 107.195 128.516C107.195 127.923 107.244 127.287 107.349 126.605C107.639 124.716 108.64 122.064 109.912 119.645C111.043 117.455 112.402 115.45 113.493 114.194C116.848 117.068 121.197 118.811 125.958 118.811C130.718 118.811 135.065 117.068 138.42 114.2C139.511 115.447 140.87 117.456 142.003 119.645C143.276 122.065 144.277 124.717 144.564 126.606C144.672 127.285 144.721 127.921 144.721 128.511C144.712 130.481 144.209 131.958 143.329 133.255Z" fill="#4B4B4B"/>
<path d="M30.0669 61.8187L24.354 60.5332C25.5801 56.5603 27.5828 52.8366 30.2729 49.5996C31.6691 47.9165 33.255 46.3632 35.0195 44.9774C36.7384 43.6269 38.6055 42.4307 40.6352 41.4375L38.3052 36.6987C35.9315 37.865 33.7478 39.2619 31.7585 40.8261C29.6989 42.4474 27.8453 44.2629 26.2105 46.2249C22.9791 50.1141 20.6195 54.5982 19.2013 59.3722L12.6631 57.9026L19.1904 72.2625L30.0669 61.8187Z" fill="#FF7300"/>
<path d="M82.6018 137.929C80.2606 138.467 77.8551 138.746 75.441 138.746C73.6551 138.746 71.8633 138.594 70.0826 138.291C67.9281 137.92 65.7906 137.325 63.7094 136.489C61.6823 135.682 59.7121 134.656 57.8312 133.398L54.8975 137.793C57.095 139.26 59.3928 140.451 61.7471 141.39C64.1772 142.364 66.6754 143.062 69.192 143.493C71.2677 143.85 73.3598 144.023 75.441 144.023C78.3906 144.023 81.3191 143.655 84.1715 142.967L86.0685 149.051L95.2401 136.223L80.7616 132.023L82.6018 137.929Z" fill="#FF7300"/>
<path d="M119.04 48.7882C122.001 51.9004 124.342 55.5971 125.849 59.6808C126.609 61.7295 127.162 63.8837 127.478 66.103C127.695 67.5995 127.806 69.1206 127.806 70.666C127.806 71.3506 127.784 72.0406 127.738 72.7387L133.007 73.0797C133.059 72.2706 133.086 71.4667 133.086 70.6657C133.086 68.8633 132.953 67.0879 132.707 65.3503C132.333 62.7579 131.69 60.2433 130.802 57.8512C129.002 52.9745 126.185 48.5875 122.621 44.907L127.11 40.0381L111.414 38.5144L115.016 53.1502L119.04 48.7882Z" fill="#FF7300"/>
</g>
<defs>
<clipPath id="clip0_27_417">
<rect width="150" height="150" fill="white"/>
</clipPath>
</defs>
</svg>
