<svg width="142" height="95" viewBox="0 0 142 95" fill="none" xmlns="http://www.w3.org/2000/svg">
<path d="M7.008 19.4H8.928V22.04H7.008V19.4ZM1.248 21.08H14.928V24.12H13.056V22.376H3.024V24.12H1.248V21.08ZM5.568 24.04V24.712H10.448V24.04H5.568ZM3.792 22.984H12.352V25.768H3.792V22.984ZM2.688 19.928L4.4 19.48C4.61333 19.7147 4.816 19.976 5.008 20.264C5.2 20.552 5.35467 20.8027 5.472 21.016L3.712 21.592C3.616 21.368 3.472 21.1013 3.28 20.792C3.088 20.472 2.89067 20.184 2.688 19.928ZM11.68 19.432L13.68 19.896C13.424 20.2373 13.168 20.552 12.912 20.84C12.656 21.128 12.4267 21.3787 12.224 21.592L10.64 21.144C10.8213 20.8987 11.0133 20.616 11.216 20.296C11.4187 19.9653 11.5733 19.6773 11.68 19.432ZM4.688 28.904V29.496H11.472V28.904H4.688ZM4.688 30.472V31.064H11.472V30.472H4.688ZM4.688 27.352V27.928H11.472V27.352H4.688ZM2.88 26.328H13.36V32.088H2.88V26.328ZM5.312 32.024L7.152 32.728C6.74667 32.9947 6.26667 33.2453 5.712 33.48C5.15733 33.7147 4.576 33.9173 3.968 34.088C3.36 34.2693 2.77867 34.4187 2.224 34.536C2.11733 34.408 1.97333 34.248 1.792 34.056C1.62133 33.8747 1.45067 33.6987 1.28 33.528C1.10933 33.3573 0.949333 33.2187 0.8 33.112C1.36533 33.0373 1.93067 32.952 2.496 32.856C3.072 32.7493 3.60533 32.6267 4.096 32.488C4.59733 32.3493 5.00267 32.1947 5.312 32.024ZM8.864 32.952L10.336 31.912C10.9013 32.0613 11.4827 32.2267 12.08 32.408C12.688 32.5787 13.2587 32.7547 13.792 32.936C14.336 33.1173 14.8 33.2827 15.184 33.432L13.184 34.456C12.864 34.3173 12.4693 34.1627 12 33.992C11.5413 33.8213 11.04 33.64 10.496 33.448C9.96267 33.2667 9.41867 33.1013 8.864 32.952ZM21.632 25.016H28.624V26.792H21.632V25.016ZM22.32 21.432H30.8V23.272H22.32V21.432ZM18.048 28.488H32.56V30.328H18.048V28.488ZM27.968 25.016H29.936C29.936 25.016 29.9307 25.0693 29.92 25.176C29.92 25.272 29.9147 25.3893 29.904 25.528C29.904 25.656 29.8987 25.768 29.888 25.864C29.76 27.5067 29.6213 28.856 29.472 29.912C29.3333 30.9573 29.1733 31.7733 28.992 32.36C28.8213 32.936 28.6133 33.352 28.368 33.608C28.1227 33.8853 27.8667 34.072 27.6 34.168C27.344 34.264 27.0293 34.3387 26.656 34.392C26.3573 34.424 25.9573 34.4347 25.456 34.424C24.9653 34.424 24.4587 34.4133 23.936 34.392C23.9147 34.1147 23.84 33.7893 23.712 33.416C23.5947 33.0533 23.44 32.7387 23.248 32.472C23.8027 32.5147 24.32 32.5467 24.8 32.568C25.2907 32.5787 25.6533 32.584 25.888 32.584C26.0693 32.584 26.2187 32.5733 26.336 32.552C26.464 32.52 26.5813 32.456 26.688 32.36C26.88 32.2 27.0507 31.8533 27.2 31.32C27.3493 30.7867 27.488 30.0293 27.616 29.048C27.744 28.0667 27.8613 26.8293 27.968 25.336V25.016ZM21.68 19.384L23.68 19.576C23.5733 20.2373 23.4507 20.9253 23.312 21.64C23.184 22.344 23.0507 23.048 22.912 23.752C22.7733 24.456 22.6347 25.128 22.496 25.768C22.368 26.408 22.2453 26.9787 22.128 27.48L20.096 27.304C20.2347 26.8027 20.3733 26.2267 20.512 25.576C20.6613 24.9253 20.8053 24.248 20.944 23.544C21.0933 22.8293 21.2267 22.12 21.344 21.416C21.472 20.7013 21.584 20.024 21.68 19.384ZM38.56 24.744C38.1333 24.744 37.7707 24.6 37.472 24.312C37.184 24.024 37.04 23.672 37.04 23.256C37.04 22.808 37.184 22.4453 37.472 22.168C37.7707 21.88 38.1333 21.736 38.56 21.736C38.9867 21.736 39.344 21.88 39.632 22.168C39.9307 22.4453 40.08 22.808 40.08 23.256C40.08 23.672 39.9307 24.024 39.632 24.312C39.344 24.6 38.9867 24.744 38.56 24.744ZM38.56 32.376C38.1333 32.376 37.7707 32.232 37.472 31.944C37.184 31.656 37.04 31.304 37.04 30.888C37.04 30.44 37.184 30.0773 37.472 29.8C37.7707 29.512 38.1333 29.368 38.56 29.368C38.9867 29.368 39.344 29.512 39.632 29.8C39.9307 30.0773 40.08 30.44 40.08 30.888C40.08 31.304 39.9307 31.656 39.632 31.944C39.344 32.232 38.9867 32.376 38.56 32.376ZM47.808 19.336L49.776 19.848C49.488 20.6373 49.1467 21.4107 48.752 22.168C48.368 22.9253 47.9467 23.6293 47.488 24.28C47.04 24.92 46.576 25.48 46.096 25.96C45.968 25.8533 45.8027 25.72 45.6 25.56C45.3973 25.3893 45.1893 25.2293 44.976 25.08C44.7733 24.9307 44.592 24.808 44.432 24.712C44.9227 24.296 45.3813 23.8053 45.808 23.24C46.2347 22.664 46.6187 22.0453 46.96 21.384C47.3013 20.712 47.584 20.0293 47.808 19.336ZM48.16 21.16H58.336V23.016H47.232L48.16 21.16ZM47.024 24.952H57.952V26.744H48.944V30.104H47.024V24.952ZM44.48 29.16H59.2V31H44.48V29.16ZM51.728 22.12H53.712V34.44H51.728V22.12ZM62.1512 33V29.9219L71.0419 18.7969C71.3856 18.349 71.62 17.9323 71.745 17.5469C71.8283 17.1823 71.87 16.8385 71.87 16.5156C71.87 15.6615 71.6044 14.9167 71.0731 14.2812C70.521 13.6458 69.7398 13.3177 68.7294 13.2969C67.8335 13.2969 67.0887 13.5833 66.495 14.1562C65.8804 14.7292 65.5158 15.5365 65.4012 16.5781H62.1512C62.2346 14.6823 62.87 13.1146 64.0575 11.875C65.2554 10.6667 66.7294 10.0521 68.4794 10.0312C70.4377 10.0521 72.0262 10.6771 73.245 11.9062C74.4846 13.125 75.1148 14.6719 75.1356 16.5469C75.1356 18.0469 74.6773 19.3802 73.7606 20.5469L66.4325 29.7344H75.1356V33H62.1512ZM85.535 25.464V28.248H88.351V25.464H85.535ZM83.727 23.784H90.287V29.912H83.727V23.784ZM80.191 19.944H93.935V34.424H91.839V21.912H82.191V34.424H80.191V19.944ZM81.327 31.768H93.023V33.56H81.327V31.768ZM3.31113 48.92C3.31113 47.7787 3.45513 46.7333 3.74313 45.784C4.03113 44.8347 4.41513 43.9813 4.89513 43.224C5.37513 42.4667 5.89779 41.8053 6.46313 41.24L7.98313 41.912C7.44979 42.4773 6.96446 43.112 6.52713 43.816C6.10046 44.5093 5.75913 45.2773 5.50313 46.12C5.24713 46.9627 5.11913 47.896 5.11913 48.92C5.11913 49.9333 5.24713 50.8667 5.50313 51.72C5.75913 52.5627 6.10046 53.3307 6.52713 54.024C6.96446 54.7173 7.44979 55.352 7.98313 55.928L6.46313 56.6C5.89779 56.0347 5.37513 55.3733 4.89513 54.616C4.41513 53.8587 4.03113 53.0053 3.74313 52.056C3.45513 51.1067 3.31113 50.0613 3.31113 48.92ZM9.968 55V53.64C11.0453 52.68 11.9627 51.7893 12.72 50.968C13.488 50.1467 14.0747 49.384 14.48 48.68C14.8853 47.9653 15.088 47.304 15.088 46.696C15.088 46.312 15.0187 45.976 14.88 45.688C14.7413 45.4 14.5387 45.1813 14.272 45.032C14.016 44.872 13.696 44.792 13.312 44.792C12.8853 44.792 12.4907 44.9147 12.128 45.16C11.776 45.3947 11.4507 45.6773 11.152 46.008L9.84 44.744C10.3947 44.1467 10.96 43.6987 11.536 43.4C12.1227 43.0907 12.816 42.936 13.616 42.936C14.3627 42.936 15.0133 43.0907 15.568 43.4C16.1333 43.6987 16.5707 44.12 16.88 44.664C17.1893 45.208 17.344 45.848 17.344 46.584C17.344 47.2987 17.1627 48.0293 16.8 48.776C16.448 49.512 15.9733 50.248 15.376 50.984C14.7787 51.72 14.1173 52.4453 13.392 53.16C13.7013 53.1173 14.032 53.0853 14.384 53.064C14.7467 53.032 15.0667 53.016 15.344 53.016H17.904V55H9.968ZM23.9655 41.336L25.9335 41.848C25.6455 42.6373 25.3042 43.4107 24.9095 44.168C24.5255 44.9253 24.1042 45.6293 23.6455 46.28C23.1975 46.92 22.7335 47.48 22.2535 47.96C22.1255 47.8533 21.9602 47.72 21.7575 47.56C21.5548 47.3893 21.3468 47.2293 21.1335 47.08C20.9308 46.9307 20.7495 46.808 20.5895 46.712C21.0802 46.296 21.5388 45.8053 21.9655 45.24C22.3922 44.664 22.7762 44.0453 23.1175 43.384C23.4588 42.712 23.7415 42.0293 23.9655 41.336ZM24.3175 43.16H34.4935V45.016H23.3895L24.3175 43.16ZM23.1815 46.952H34.1095V48.744H25.1015V52.104H23.1815V46.952ZM20.6375 51.16H35.3575V53H20.6375V51.16ZM27.8855 44.12H29.8695V56.44H27.8855V44.12ZM40.9095 45.976H49.5975V47.8H40.9095V45.976ZM40.9095 49.688H49.5975V51.512H40.9095V49.688ZM40.9095 53.384H49.5975V55.256H40.9095V53.384ZM39.5335 42.28H50.9415V56.264H48.8935V44.152H41.4695V56.264H39.5335V42.28ZM61.8375 49.608C61.4855 49.2453 61.1388 48.9627 60.7975 48.76C60.4562 48.5573 60.0082 48.456 59.4535 48.456C58.9415 48.456 58.4615 48.6373 58.0135 49C57.5762 49.352 57.2082 49.8107 56.9095 50.376L55.1495 49.416C55.6935 48.424 56.3388 47.688 57.0855 47.208C57.8322 46.7173 58.6375 46.472 59.5015 46.472C60.2695 46.472 60.9522 46.616 61.5495 46.904C62.1575 47.192 62.7335 47.6347 63.2775 48.232C63.6295 48.5947 63.9762 48.8773 64.3175 49.08C64.6695 49.2827 65.1175 49.384 65.6615 49.384C66.1735 49.384 66.6482 49.208 67.0855 48.856C67.5335 48.4933 67.9068 48.0293 68.2055 47.464L69.9655 48.424C69.4215 49.416 68.7762 50.1573 68.0295 50.648C67.2828 51.128 66.4775 51.368 65.6135 51.368C64.8562 51.368 64.1735 51.224 63.5655 50.936C62.9575 50.648 62.3815 50.2053 61.8375 49.608ZM76.5264 48.92C76.5264 50.0613 76.3824 51.1067 76.0944 52.056C75.8064 53.0053 75.4224 53.8587 74.9424 54.616C74.473 55.3733 73.9504 56.0347 73.3744 56.6L71.8544 55.928C72.3877 55.352 72.8677 54.7173 73.2944 54.024C73.7317 53.3307 74.0784 52.5627 74.3344 51.72C74.5904 50.8667 74.7184 49.9333 74.7184 48.92C74.7184 47.896 74.5904 46.9627 74.3344 46.12C74.0784 45.2773 73.7317 44.5093 73.2944 43.816C72.8677 43.112 72.3877 42.4773 71.8544 41.912L73.3744 41.24C73.9504 41.8053 74.473 42.4667 74.9424 43.224C75.4224 43.9813 75.8064 44.8347 76.0944 45.784C76.3824 46.7333 76.5264 47.7787 76.5264 48.92Z" fill="#333333"/>
<path d="M4.16 75.72V76.552H11.728V75.72H4.16ZM4.16 73.512V74.328H11.728V73.512H4.16ZM2.272 72.008H13.712V78.04H2.272V72.008ZM0.688 81.16H15.328V82.84H0.688V81.16ZM10.24 78.408H12.208V86.408H10.24V78.408ZM4.784 79.496H6.672V81.432C6.672 81.912 6.61867 82.392 6.512 82.872C6.416 83.3413 6.21867 83.8 5.92 84.248C5.632 84.6853 5.20533 85.0907 4.64 85.464C4.07467 85.8373 3.328 86.1627 2.4 86.44C2.32533 86.2907 2.224 86.1147 2.096 85.912C1.968 85.72 1.82933 85.528 1.68 85.336C1.53067 85.1547 1.392 85.0053 1.264 84.888C2.04267 84.6747 2.66667 84.4347 3.136 84.168C3.60533 83.8907 3.95733 83.6027 4.192 83.304C4.42667 82.9947 4.58133 82.6747 4.656 82.344C4.74133 82.0133 4.784 81.688 4.784 81.368V79.496ZM7.728 78.04L9.152 79.352C8.50133 79.576 7.776 79.7733 6.976 79.944C6.176 80.104 5.35467 80.2373 4.512 80.344C3.68 80.4507 2.86933 80.536 2.08 80.6C2.048 80.3973 1.97867 80.1573 1.872 79.88C1.776 79.6027 1.68 79.368 1.584 79.176C2.33067 79.1013 3.08267 79.0107 3.84 78.904C4.59733 78.7973 5.312 78.6693 5.984 78.52C6.66667 78.3707 7.248 78.2107 7.728 78.04ZM25.456 76.536H30.736V78.28H25.456V76.536ZM25.616 83.88H30.96V85.576H25.616V83.88ZM27.984 73.576C27.7067 74.0453 27.36 74.552 26.944 75.096C26.528 75.64 26.0747 76.1733 25.584 76.696C25.0933 77.2187 24.5813 77.688 24.048 78.104C23.9307 77.848 23.7653 77.56 23.552 77.24C23.3493 76.9093 23.152 76.6373 22.96 76.424C23.504 76.04 24.0373 75.5707 24.56 75.016C25.0827 74.4507 25.5573 73.8747 25.984 73.288C26.4107 72.6907 26.752 72.1413 27.008 71.64H28.832C29.1947 72.1947 29.6053 72.7653 30.064 73.352C30.5333 73.9387 31.024 74.4827 31.536 74.984C32.0587 75.4853 32.576 75.896 33.088 76.216C32.896 76.4613 32.6933 76.744 32.48 77.064C32.2667 77.384 32.08 77.6987 31.92 78.008C31.4507 77.6347 30.9653 77.192 30.464 76.68C29.9733 76.1573 29.5093 75.624 29.072 75.08C28.6453 74.536 28.2827 74.0347 27.984 73.576ZM24.624 79.704H31.76V86.36H29.92V81.384H26.384V86.424H24.624V79.704ZM20.16 71.416L21.824 72.04C21.6107 72.4453 21.3867 72.8667 21.152 73.304C20.9173 73.7413 20.688 74.1573 20.464 74.552C20.24 74.9467 20.0267 75.288 19.824 75.576L18.544 75.032C18.736 74.7013 18.9333 74.328 19.136 73.912C19.3387 73.496 19.5307 73.0693 19.712 72.632C19.8933 72.1947 20.0427 71.7893 20.16 71.416ZM22 73.32L23.568 74.024C23.184 74.632 22.7627 75.272 22.304 75.944C21.8453 76.6053 21.3867 77.2453 20.928 77.864C20.4693 78.472 20.0373 79.0053 19.632 79.464L18.512 78.84C18.8107 78.4773 19.12 78.072 19.44 77.624C19.76 77.1653 20.0747 76.6907 20.384 76.2C20.704 75.6987 21.0027 75.2027 21.28 74.712C21.5573 74.2107 21.7973 73.7467 22 73.32ZM17.696 75.208L18.624 73.896C18.9013 74.1413 19.184 74.4133 19.472 74.712C19.7707 75 20.0427 75.2933 20.288 75.592C20.544 75.88 20.736 76.1413 20.864 76.376L19.888 77.864C19.76 77.608 19.5733 77.3253 19.328 77.016C19.0933 76.7067 18.832 76.392 18.544 76.072C18.256 75.752 17.9733 75.464 17.696 75.208ZM21.536 77.128L22.8 76.6C23.0027 76.9627 23.2 77.352 23.392 77.768C23.5947 78.1733 23.7653 78.5733 23.904 78.968C24.0533 79.352 24.1547 79.6987 24.208 80.008L22.848 80.616C22.7947 80.3067 22.6987 79.9547 22.56 79.56C22.432 79.1547 22.2773 78.7387 22.096 78.312C21.9147 77.8853 21.728 77.4907 21.536 77.128ZM17.68 78.456C18.416 78.4347 19.296 78.4027 20.32 78.36C21.344 78.3173 22.384 78.2747 23.44 78.232L23.424 79.752C22.432 79.8267 21.4453 79.896 20.464 79.96C19.4933 80.024 18.6187 80.0827 17.84 80.136L17.68 78.456ZM21.872 81.112L23.216 80.68C23.4187 81.1387 23.6107 81.64 23.792 82.184C23.984 82.7173 24.128 83.1867 24.224 83.592L22.8 84.104C22.7253 83.6987 22.5973 83.2187 22.416 82.664C22.2347 82.0987 22.0533 81.5813 21.872 81.112ZM18.384 80.808L19.968 81.096C19.8827 81.864 19.7547 82.6213 19.584 83.368C19.4133 84.1147 19.216 84.744 18.992 85.256C18.8853 85.1813 18.7413 85.096 18.56 85C18.3787 84.9147 18.192 84.8293 18 84.744C17.8187 84.6587 17.6587 84.5947 17.52 84.552C17.7547 84.072 17.9413 83.5013 18.08 82.84C18.2187 82.168 18.32 81.4907 18.384 80.808ZM20.176 79.304H21.856V86.44H20.176V79.304ZM38.56 76.744C38.1333 76.744 37.7707 76.6 37.472 76.312C37.184 76.024 37.04 75.672 37.04 75.256C37.04 74.808 37.184 74.4453 37.472 74.168C37.7707 73.88 38.1333 73.736 38.56 73.736C38.9867 73.736 39.344 73.88 39.632 74.168C39.9307 74.4453 40.08 74.808 40.08 75.256C40.08 75.672 39.9307 76.024 39.632 76.312C39.344 76.6 38.9867 76.744 38.56 76.744ZM38.56 84.376C38.1333 84.376 37.7707 84.232 37.472 83.944C37.184 83.656 37.04 83.304 37.04 82.888C37.04 82.44 37.184 82.0773 37.472 81.8C37.7707 81.512 38.1333 81.368 38.56 81.368C38.9867 81.368 39.344 81.512 39.632 81.8C39.9307 82.0773 40.08 82.44 40.08 82.888C40.08 83.304 39.9307 83.656 39.632 83.944C39.344 84.232 38.9867 84.376 38.56 84.376ZM47.808 71.336L49.776 71.848C49.488 72.6373 49.1467 73.4107 48.752 74.168C48.368 74.9253 47.9467 75.6293 47.488 76.28C47.04 76.92 46.576 77.48 46.096 77.96C45.968 77.8533 45.8027 77.72 45.6 77.56C45.3973 77.3893 45.1893 77.2293 44.976 77.08C44.7733 76.9307 44.592 76.808 44.432 76.712C44.9227 76.296 45.3813 75.8053 45.808 75.24C46.2347 74.664 46.6187 74.0453 46.96 73.384C47.3013 72.712 47.584 72.0293 47.808 71.336ZM48.16 73.16H58.336V75.016H47.232L48.16 73.16ZM47.024 76.952H57.952V78.744H48.944V82.104H47.024V76.952ZM44.48 81.16H59.2V83H44.48V81.16ZM51.728 74.12H53.712V86.44H51.728V74.12ZM67.3231 65.6719L64.0887 68.0469V64.5781L67.3231 62.2188H70.5887V85H67.3231V65.6719ZM85.535 77.464V80.248H88.351V77.464H85.535ZM83.727 75.784H90.287V81.912H83.727V75.784ZM80.191 71.944H93.935V86.424H91.839V73.912H82.191V86.424H80.191V71.944ZM81.327 83.768H93.023V85.56H81.327V83.768ZM99.6461 78.92C99.6461 77.7787 99.7901 76.7333 100.078 75.784C100.366 74.8347 100.75 73.9813 101.23 73.224C101.71 72.4667 102.233 71.8053 102.798 71.24L104.318 71.912C103.785 72.4773 103.299 73.112 102.862 73.816C102.435 74.5093 102.094 75.2773 101.838 76.12C101.582 76.9627 101.454 77.896 101.454 78.92C101.454 79.9333 101.582 80.8667 101.838 81.72C102.094 82.5627 102.435 83.3307 102.862 84.024C103.299 84.7173 103.785 85.352 104.318 85.928L102.798 86.6C102.233 86.0347 101.71 85.3733 101.23 84.616C100.75 83.8587 100.366 83.0053 100.078 82.056C99.7901 81.1067 99.6461 80.0613 99.6461 78.92ZM108.591 85C108.644 83.976 108.735 83.032 108.863 82.168C108.991 81.2933 109.172 80.472 109.407 79.704C109.642 78.9253 109.946 78.1627 110.319 77.416C110.703 76.6693 111.178 75.9067 111.743 75.128H106.415V73.144H114.287V74.584C113.604 75.416 113.05 76.216 112.623 76.984C112.207 77.752 111.887 78.5307 111.663 79.32C111.45 80.1093 111.29 80.9627 111.183 81.88C111.087 82.7973 111.012 83.8373 110.959 85H108.591ZM120.652 72.168H128.636V74.04H120.652V72.168ZM120.668 75.992H128.716V77.816H120.668V75.992ZM120.572 79.768H128.604V81.64H120.572V79.768ZM119.324 72.168H121.308V77.464C121.308 78.1573 121.266 78.904 121.18 79.704C121.106 80.504 120.962 81.3147 120.748 82.136C120.535 82.9573 120.22 83.736 119.804 84.472C119.388 85.208 118.839 85.864 118.156 86.44C118.06 86.3013 117.922 86.1413 117.74 85.96C117.57 85.7787 117.383 85.6027 117.18 85.432C116.988 85.2613 116.818 85.1333 116.668 85.048C117.276 84.536 117.756 83.9707 118.108 83.352C118.471 82.7227 118.738 82.072 118.908 81.4C119.09 80.728 119.202 80.056 119.244 79.384C119.298 78.712 119.324 78.0667 119.324 77.448V72.168ZM127.74 72.168H129.788V83.992C129.788 84.568 129.708 85.0107 129.548 85.32C129.399 85.6293 129.138 85.864 128.764 86.024C128.38 86.1947 127.9 86.296 127.324 86.328C126.748 86.3707 126.044 86.392 125.212 86.392C125.17 86.2 125.106 85.9813 125.02 85.736C124.935 85.4907 124.839 85.2453 124.732 85C124.626 84.7547 124.519 84.5467 124.412 84.376C124.786 84.3973 125.164 84.4133 125.548 84.424C125.943 84.424 126.29 84.424 126.588 84.424C126.898 84.424 127.116 84.424 127.244 84.424C127.426 84.424 127.554 84.392 127.628 84.328C127.703 84.2533 127.74 84.1307 127.74 83.96V72.168ZM138.301 78.92C138.301 80.0613 138.157 81.1067 137.869 82.056C137.581 83.0053 137.197 83.8587 136.717 84.616C136.248 85.3733 135.725 86.0347 135.149 86.6L133.629 85.928C134.163 85.352 134.643 84.7173 135.069 84.024C135.507 83.3307 135.853 82.5627 136.109 81.72C136.365 80.8667 136.493 79.9333 136.493 78.92C136.493 77.896 136.365 76.9627 136.109 76.12C135.853 75.2773 135.507 74.5093 135.069 73.816C134.643 73.112 134.163 72.4773 133.629 71.912L135.149 71.24C135.725 71.8053 136.248 72.4667 136.717 73.224C137.197 73.9813 137.581 74.8347 137.869 75.784C138.157 76.7333 138.301 77.7787 138.301 78.92Z" fill="#333333"/>
</svg>
