<svg width="140" height="65" viewBox="0 0 140 65" fill="none" xmlns="http://www.w3.org/2000/svg">
<path d="M1.03125 33V29.9219L9.92188 18.7969C10.2656 18.349 10.5 17.9323 10.625 17.5469C10.7083 17.1823 10.75 16.8385 10.75 16.5156C10.75 15.6615 10.4844 14.9167 9.95312 14.2812C9.40104 13.6458 8.61979 13.3177 7.60938 13.2969C6.71354 13.2969 5.96875 13.5833 5.375 14.1562C4.76042 14.7292 4.39583 15.5365 4.28125 16.5781H1.03125C1.11458 14.6823 1.75 13.1146 2.9375 11.875C4.13542 10.6667 5.60938 10.0521 7.35938 10.0312C9.31771 10.0521 10.9062 10.6771 12.125 11.9062C13.3646 13.125 13.9948 14.6719 14.0156 16.5469C14.0156 18.0469 13.5573 19.3802 12.6406 20.5469L5.3125 29.7344H14.0156V33H1.03125ZM22.5381 13.6719L19.3037 16.0469V12.5781L22.5381 10.2188H25.8037V33H22.5381V13.6719ZM33.0606 29.6094V26.5312L40.67 10.2188H44.3106L36.6075 26.5312H42.5606V19.9844H45.8262V26.5312H47.6387V29.6094H45.8262V33H42.5606V29.6094H33.0606ZM51.2081 35.375V29.7344H54.4738V33L51.2081 35.375ZM68.5275 26.4375V16.7812C68.465 14.5 67.3973 13.3385 65.3244 13.2969C63.241 13.3385 62.1785 14.5 62.1369 16.7812V26.4375C62.1785 28.7396 63.241 29.901 65.3244 29.9219C67.3973 29.901 68.465 28.7396 68.5275 26.4375ZM58.8713 26.625V16.5781C58.8921 14.474 59.564 12.8542 60.8869 11.7188C62.1265 10.5938 63.6056 10.0312 65.3244 10.0312C67.0952 10.0312 68.6004 10.5938 69.84 11.7188C71.1004 12.8542 71.7515 14.474 71.7931 16.5781V26.625C71.7515 28.7188 71.1004 30.3333 69.84 31.4688C68.6004 32.5938 67.0952 33.1667 65.3244 33.1875C63.6056 33.1667 62.1265 32.5938 60.8869 31.4688C59.564 30.3333 58.8921 28.7188 58.8713 26.625ZM84.8625 26.4375V16.7812C84.8 14.5 83.7323 13.3385 81.6594 13.2969C79.576 13.3385 78.5135 14.5 78.4719 16.7812V26.4375C78.5135 28.7396 79.576 29.901 81.6594 29.9219C83.7323 29.901 84.8 28.7396 84.8625 26.4375ZM75.2063 26.625V16.5781C75.2271 14.474 75.899 12.8542 77.2219 11.7188C78.4615 10.5938 79.9406 10.0312 81.6594 10.0312C83.4302 10.0312 84.9354 10.5938 86.175 11.7188C87.4354 12.8542 88.0865 14.474 88.1281 16.5781V26.625C88.0865 28.7188 87.4354 30.3333 86.175 31.4688C84.9354 32.5938 83.4302 33.1667 81.6594 33.1875C79.9406 33.1667 78.4615 32.5938 77.2219 31.4688C75.899 30.3333 75.2271 28.7188 75.2063 26.625ZM101.198 26.4375V16.7812C101.135 14.5 100.067 13.3385 97.9944 13.2969C95.911 13.3385 94.8485 14.5 94.8069 16.7812V26.4375C94.8485 28.7396 95.911 29.901 97.9944 29.9219C100.067 29.901 101.135 28.7396 101.198 26.4375ZM91.5413 26.625V16.5781C91.5621 14.474 92.234 12.8542 93.5569 11.7188C94.7965 10.5938 96.2756 10.0312 97.9944 10.0312C99.7652 10.0312 101.27 10.5938 102.51 11.7188C103.77 12.8542 104.421 14.474 104.463 16.5781V26.625C104.421 28.7188 103.77 30.3333 102.51 31.4688C101.27 32.5938 99.7652 33.1667 97.9944 33.1875C96.2756 33.1667 94.7965 32.5938 93.5569 31.4688C92.234 30.3333 91.5621 28.7188 91.5413 26.625ZM107.938 20.424H120.482V22.328H109.858V34.424H107.938V20.424ZM119.57 20.424H121.506V32.184C121.506 32.696 121.442 33.096 121.314 33.384C121.186 33.6827 120.956 33.912 120.626 34.072C120.295 34.232 119.879 34.328 119.378 34.36C118.887 34.4027 118.284 34.424 117.57 34.424C117.538 34.2427 117.484 34.0347 117.41 33.8C117.335 33.5653 117.25 33.3307 117.154 33.096C117.058 32.872 116.962 32.6747 116.866 32.504C117.175 32.5253 117.484 32.5413 117.794 32.552C118.114 32.552 118.396 32.552 118.642 32.552C118.887 32.552 119.058 32.552 119.154 32.552C119.303 32.5413 119.41 32.5093 119.474 32.456C119.538 32.392 119.57 32.2907 119.57 32.152V20.424ZM108.978 26.376H120.514V28.264H108.978V26.376ZM113.65 21.464H115.57V27.32H113.65V21.464ZM130.737 27.608C130.385 27.2453 130.039 26.9627 129.697 26.76C129.356 26.5573 128.908 26.456 128.353 26.456C127.841 26.456 127.361 26.6373 126.913 27C126.476 27.352 126.108 27.8107 125.809 28.376L124.049 27.416C124.593 26.424 125.239 25.688 125.985 25.208C126.732 24.7173 127.537 24.472 128.401 24.472C129.169 24.472 129.852 24.616 130.449 24.904C131.057 25.192 131.633 25.6347 132.177 26.232C132.529 26.5947 132.876 26.8773 133.217 27.08C133.569 27.2827 134.017 27.384 134.561 27.384C135.073 27.384 135.548 27.208 135.985 26.856C136.433 26.4933 136.807 26.0293 137.105 25.464L138.865 26.424C138.321 27.416 137.676 28.1573 136.929 28.648C136.183 29.128 135.377 29.368 134.513 29.368C133.756 29.368 133.073 29.224 132.465 28.936C131.857 28.648 131.281 28.2053 130.737 27.608Z" fill="#333333"/>
<path d="M3.31113 53.92C3.31113 52.7787 3.45513 51.7333 3.74313 50.784C4.03113 49.8347 4.41513 48.9813 4.89513 48.224C5.37513 47.4667 5.89779 46.8053 6.46313 46.24L7.98313 46.912C7.44979 47.4773 6.96446 48.112 6.52713 48.816C6.10046 49.5093 5.75913 50.2773 5.50313 51.12C5.24713 51.9627 5.11913 52.896 5.11913 53.92C5.11913 54.9333 5.24713 55.8667 5.50313 56.72C5.75913 57.5627 6.10046 58.3307 6.52713 59.024C6.96446 59.7173 7.44979 60.352 7.98313 60.928L6.46313 61.6C5.89779 61.0347 5.37513 60.3733 4.89513 59.616C4.41513 58.8587 4.03113 58.0053 3.74313 57.056C3.45513 56.1067 3.31113 55.0613 3.31113 53.92ZM21.328 46.368L22.72 47.968C21.8987 48.1813 21.0027 48.368 20.032 48.528C19.072 48.6773 18.0747 48.8107 17.04 48.928C16.0053 49.0347 14.9653 49.1253 13.92 49.2C12.8747 49.264 11.8667 49.312 10.896 49.344C10.864 49.0987 10.8 48.8107 10.704 48.48C10.608 48.1387 10.512 47.8613 10.416 47.648C11.376 47.616 12.3573 47.5627 13.36 47.488C14.3733 47.4133 15.36 47.3227 16.32 47.216C17.2907 47.1093 18.2027 46.9867 19.056 46.848C19.9093 46.7093 20.6667 46.5493 21.328 46.368ZM10.576 50.912H23.216V52.752H10.576V50.912ZM9.472 54.64H24.176V56.528H9.472V54.64ZM15.824 48.64H17.824V59.136C17.824 59.712 17.744 60.1387 17.584 60.416C17.4347 60.704 17.1627 60.928 16.768 61.088C16.3947 61.2267 15.9093 61.3173 15.312 61.36C14.7253 61.4027 14.0213 61.4187 13.2 61.408C13.168 61.2267 13.104 61.0187 13.008 60.784C12.9227 60.56 12.8267 60.3307 12.72 60.096C12.6133 59.872 12.512 59.6747 12.416 59.504C12.8213 59.5147 13.2213 59.5253 13.616 59.536C14.0107 59.5467 14.3627 59.552 14.672 59.552C14.9813 59.552 15.2 59.552 15.328 59.552C15.5093 59.5413 15.6373 59.504 15.712 59.44C15.7867 59.376 15.824 59.264 15.824 59.104V48.64ZM32.544 46.4H34.656V52.96H32.544V46.4ZM27.296 47.712L29.04 47.04C29.328 47.4027 29.6 47.8027 29.856 48.24C30.112 48.6667 30.3413 49.0933 30.544 49.52C30.7467 49.936 30.9067 50.3147 31.024 50.656L29.168 51.44C29.072 51.0987 28.9227 50.7093 28.72 50.272C28.528 49.8347 28.3093 49.392 28.064 48.944C27.8187 48.496 27.5627 48.0853 27.296 47.712ZM37.92 46.88L40.064 47.52C39.8293 47.9893 39.584 48.4693 39.328 48.96C39.072 49.44 38.816 49.8987 38.56 50.336C38.3147 50.7733 38.0747 51.1627 37.84 51.504L36.144 50.896C36.3573 50.5333 36.576 50.1227 36.8 49.664C37.024 49.2053 37.232 48.736 37.424 48.256C37.6267 47.7653 37.792 47.3067 37.92 46.88ZM27.664 51.952H39.792V61.424H37.744V53.888H27.664V51.952ZM28.224 55.36H38.48V57.2H28.224V55.36ZM27.312 58.864H38.8V60.768H27.312V58.864ZM47.312 49.616H53.536V51.184H47.312V49.616ZM44.992 52.144H53.952V53.808H44.992V52.144ZM46.256 59.264H54.496V60.912H46.256V59.264ZM45.232 55.616H55.728V61.456H53.76V57.28H47.12V61.456H45.232V55.616ZM50.336 47.952C49.8667 48.4427 49.28 48.9387 48.576 49.44C47.8827 49.9413 47.12 50.416 46.288 50.864C45.4667 51.3013 44.6347 51.68 43.792 52C43.7173 51.8507 43.6213 51.6853 43.504 51.504C43.3867 51.312 43.2587 51.1253 43.12 50.944C42.992 50.752 42.864 50.592 42.736 50.464C43.6213 50.1653 44.4853 49.7973 45.328 49.36C46.1707 48.912 46.9387 48.432 47.632 47.92C48.3253 47.3973 48.8853 46.88 49.312 46.368H51.2C51.808 46.9867 52.4853 47.552 53.232 48.064C53.9893 48.5653 54.784 49.008 55.616 49.392C56.448 49.7653 57.28 50.0693 58.112 50.304C57.8987 50.528 57.6907 50.7947 57.488 51.104C57.2853 51.4027 57.1093 51.6853 56.96 51.952C56.384 51.7493 55.7867 51.4987 55.168 51.2C54.5493 50.9013 53.9413 50.576 53.344 50.224C52.7573 49.8613 52.2027 49.488 51.68 49.104C51.168 48.7093 50.72 48.3253 50.336 47.952ZM53.328 52.144H53.616L53.952 52.048L55.44 52.576C55.12 53.216 54.768 53.8613 54.384 54.512C54 55.152 53.6213 55.7547 53.248 56.32L51.376 55.696C51.6213 55.3227 51.8667 54.9333 52.112 54.528C52.3573 54.112 52.5867 53.712 52.8 53.328C53.0133 52.944 53.1893 52.6133 53.328 52.336V52.144ZM65.4594 47.056C65.4167 47.2907 65.3794 47.568 65.3474 47.888C65.3154 48.1973 65.2994 48.592 65.2994 49.072C65.2994 49.264 65.2994 49.5733 65.2994 50C65.2994 50.416 65.2994 50.8747 65.2994 51.376C65.2994 51.8667 65.2994 52.3467 65.2994 52.816C65.2994 53.2747 65.2994 53.6373 65.2994 53.904L63.3794 53.152C63.3794 52.8747 63.3794 52.5493 63.3794 52.176C63.3794 51.8027 63.3794 51.4187 63.3794 51.024C63.3794 50.6187 63.3794 50.2453 63.3794 49.904C63.3794 49.552 63.3794 49.2747 63.3794 49.072C63.3794 48.5707 63.3687 48.1707 63.3474 47.872C63.326 47.5627 63.2834 47.2907 63.2194 47.056H65.4594ZM70.8354 48.528C71.0807 48.688 71.358 48.896 71.6674 49.152C71.9874 49.408 72.3074 49.6853 72.6274 49.984C72.958 50.272 73.262 50.56 73.5394 50.848C73.8167 51.1253 74.046 51.3707 74.2274 51.584L72.7874 53.056C72.4994 52.6933 72.1527 52.3093 71.7474 51.904C71.3527 51.4987 70.9527 51.1147 70.5474 50.752C70.1527 50.3787 69.8007 50.08 69.4914 49.856L70.8354 48.528ZM60.3234 48.992C60.7607 49.0453 61.2034 49.0933 61.6514 49.136C62.11 49.1787 62.526 49.2 62.8994 49.2C63.6994 49.2 64.5474 49.1467 65.4434 49.04C66.3394 48.9227 67.246 48.7413 68.1634 48.496V50.416C67.5447 50.5547 66.91 50.6667 66.2594 50.752C65.6194 50.8373 65.0167 50.9013 64.4514 50.944C63.8967 50.976 63.4274 50.992 63.0434 50.992C62.702 50.992 62.3127 50.9813 61.8754 50.96C61.438 50.9387 60.958 50.9067 60.4354 50.864L60.3234 48.992ZM64.9474 56.416C64.9474 56.5227 64.942 56.6667 64.9314 56.848C64.9314 57.0187 64.9314 57.2 64.9314 57.392C64.9314 57.584 64.9314 57.76 64.9314 57.92C64.9314 58.0907 64.9474 58.2453 64.9794 58.384C65.022 58.512 65.1074 58.6187 65.2354 58.704C65.374 58.7893 65.582 58.8533 65.8594 58.896C66.1474 58.9387 66.526 58.96 66.9954 58.96C67.2727 58.96 67.5607 58.9493 67.8594 58.928C68.158 58.9067 68.446 58.8747 68.7234 58.832C69.0114 58.7893 69.2514 58.736 69.4434 58.672C69.8594 58.5547 70.158 58.3627 70.3394 58.096C70.5314 57.8187 70.6274 57.4773 70.6274 57.072C70.6274 56.752 70.6167 56.4373 70.5954 56.128C70.5847 55.808 70.5527 55.4613 70.4994 55.088L72.7234 55.76C72.7234 56.0373 72.7234 56.2773 72.7234 56.48C72.7234 56.672 72.7234 56.8587 72.7234 57.04C72.7234 57.2107 72.7127 57.408 72.6914 57.632C72.67 58.112 72.59 58.5387 72.4514 58.912C72.3127 59.2747 72.078 59.5893 71.7474 59.856C71.4167 60.1227 70.942 60.352 70.3234 60.544C70.0887 60.6187 69.7634 60.6827 69.3474 60.736C68.942 60.7893 68.5154 60.8267 68.0674 60.848C67.63 60.88 67.2247 60.896 66.8514 60.896C66.1047 60.896 65.4914 60.8533 65.0114 60.768C64.5314 60.6827 64.1474 60.56 63.8594 60.4C63.582 60.2507 63.3794 60.08 63.2514 59.888C63.134 59.6853 63.054 59.4773 63.0114 59.264C62.9794 59.04 62.9634 58.816 62.9634 58.592C62.9634 58.3147 62.9634 58.0373 62.9634 57.76C62.974 57.472 62.9847 57.216 62.9954 56.992L64.9474 56.416ZM65.7634 54.576C65.7634 55.0453 65.7047 55.504 65.5874 55.952C65.4807 56.3893 65.3047 56.784 65.0594 57.136C64.814 57.4773 64.4994 57.7547 64.1154 57.968C63.7314 58.1707 63.262 58.272 62.7074 58.272C62.3234 58.272 61.95 58.176 61.5874 57.984C61.2247 57.7813 60.926 57.472 60.6914 57.056C60.4674 56.6293 60.3554 56.0747 60.3554 55.392C60.3554 54.7627 60.478 54.1973 60.7234 53.696C60.9794 53.1947 61.3314 52.8 61.7794 52.512C62.2274 52.224 62.7394 52.08 63.3154 52.08C64.1367 52.08 64.75 52.3147 65.1554 52.784C65.5607 53.2427 65.7634 53.84 65.7634 54.576ZM62.9154 56.352C63.1607 56.352 63.358 56.2773 63.5074 56.128C63.6567 55.968 63.7634 55.76 63.8274 55.504C63.902 55.2373 63.9394 54.96 63.9394 54.672C63.9394 54.352 63.87 54.1067 63.7314 53.936C63.5927 53.7653 63.4114 53.68 63.1874 53.68C62.9847 53.68 62.7927 53.744 62.6114 53.872C62.43 54 62.286 54.1813 62.1794 54.416C62.0834 54.6507 62.0354 54.928 62.0354 55.248C62.0354 55.6 62.1207 55.872 62.2914 56.064C62.4727 56.256 62.6807 56.352 62.9154 56.352ZM79.9076 53.92C79.9076 55.0613 79.7636 56.1067 79.4756 57.056C79.1876 58.0053 78.8036 58.8587 78.3236 59.616C77.8543 60.3733 77.3316 61.0347 76.7556 61.6L75.2356 60.928C75.769 60.352 76.249 59.7173 76.6756 59.024C77.113 58.3307 77.4596 57.5627 77.7156 56.72C77.9716 55.8667 78.0996 54.9333 78.0996 53.92C78.0996 52.896 77.9716 51.9627 77.7156 51.12C77.4596 50.2773 77.113 49.5093 76.6756 48.816C76.249 48.112 75.769 47.4773 75.2356 46.912L76.7556 46.24C77.3316 46.8053 77.8543 47.4667 78.3236 48.224C78.8036 48.9813 79.1876 49.8347 79.4756 50.784C79.7636 51.7333 79.9076 52.7787 79.9076 53.92Z" fill="#333333"/>
</svg>
