<svg width="205" height="90" viewBox="0 0 205 90" fill="none" xmlns="http://www.w3.org/2000/svg">
<path d="M4.21875 42C4.20573 42 4.31641 41.7656 4.55078 41.2969C4.78516 40.8151 5.09115 40.1966 5.46875 39.4414C5.84635 38.6862 6.26953 37.8464 6.73828 36.9219C7.20703 35.9974 7.66927 35.0859 8.125 34.1875C8.58073 33.2891 9.00391 32.4622 9.39453 31.707C9.79818 30.9518 10.1237 30.3594 10.3711 29.9297C9.99349 30.151 9.5638 30.2878 9.08203 30.3398C8.61328 30.3789 8.06641 30.3854 7.44141 30.3594C6.58203 30.3333 5.82682 30.1771 5.17578 29.8906C4.53776 29.6042 3.98438 29.2461 3.51562 28.8164C3.04688 28.3867 2.65625 27.9115 2.34375 27.3906C2.03125 26.8568 1.77734 26.3424 1.58203 25.8477C1.39974 25.3398 1.26302 24.8711 1.17188 24.4414C1.09375 23.9987 1.05469 23.6536 1.05469 23.4062C1.05469 23.3281 1.04818 23.1849 1.03516 22.9766C1.03516 22.7682 1.03516 22.5404 1.03516 22.293C1.03516 22.0326 1.03516 21.7721 1.03516 21.5117C1.04818 21.2513 1.06771 21.0299 1.09375 20.8477C1.10677 20.7565 1.14583 20.5286 1.21094 20.1641C1.28906 19.7865 1.42578 19.3372 1.62109 18.8164C1.81641 18.2956 2.08984 17.7422 2.44141 17.1562C2.79297 16.5573 3.2487 15.9974 3.80859 15.4766C4.38151 14.9557 5.07812 14.5065 5.89844 14.1289C6.73177 13.7513 7.71484 13.5104 8.84766 13.4062C10.0326 13.3021 11.0742 13.3737 11.9727 13.6211C12.8841 13.8685 13.6654 14.2266 14.3164 14.6953C14.9674 15.1641 15.5078 15.7109 15.9375 16.3359C16.3672 16.9609 16.6992 17.599 16.9336 18.25C17.181 18.888 17.3438 19.513 17.4219 20.125C17.5 20.724 17.513 21.2383 17.4609 21.668C17.3828 22.306 17.2982 22.8789 17.207 23.3867C17.1159 23.8815 17.0052 24.3568 16.875 24.8125C16.7578 25.2682 16.6211 25.7174 16.4648 26.1602C16.3086 26.6029 16.1263 27.0846 15.918 27.6055C15.8659 27.7487 15.7227 28.0612 15.4883 28.543C15.2669 29.0247 14.9805 29.6172 14.6289 30.3203C14.2904 31.0104 13.9128 31.7852 13.4961 32.6445C13.0924 33.4909 12.6758 34.3438 12.2461 35.2031C11.2435 37.2344 10.1237 39.5 8.88672 42H4.21875ZM5.09766 21.375C5.09766 21.8828 5.1237 22.4427 5.17578 23.0547C5.22786 23.6667 5.3776 24.2461 5.625 24.793C5.88542 25.3268 6.28906 25.7891 6.83594 26.1797C7.38281 26.5573 8.15104 26.7721 9.14062 26.8242C9.63542 26.8503 10.0846 26.7917 10.4883 26.6484C10.8919 26.4922 11.25 26.2904 11.5625 26.043C11.875 25.7956 12.1419 25.5156 12.3633 25.2031C12.5977 24.8906 12.7865 24.5846 12.9297 24.2852C13.0859 23.9727 13.1966 23.6862 13.2617 23.4258C13.3268 23.1654 13.3594 22.957 13.3594 22.8008C13.3464 22.4753 13.3333 22.1107 13.3203 21.707C13.3203 21.3034 13.2812 20.8932 13.2031 20.4766C13.138 20.0599 13.0208 19.6628 12.8516 19.2852C12.6823 18.8945 12.4414 18.556 12.1289 18.2695C11.8164 17.9831 11.4128 17.7617 10.918 17.6055C10.4362 17.4362 9.83073 17.3711 9.10156 17.4102C8.29427 17.4492 7.63021 17.651 7.10938 18.0156C6.60156 18.3802 6.19792 18.7839 5.89844 19.2266C5.59896 19.6693 5.39062 20.099 5.27344 20.5156C5.15625 20.9323 5.09766 21.2188 5.09766 21.375ZM23.1727 32.918V28.8359H27.2547V32.918H23.1727ZM23.1727 42V37.918H27.2547V42H23.1727ZM44.8219 33.7969V21.7266C44.7437 18.875 43.4091 17.4232 40.818 17.3711C38.2138 17.4232 36.8857 18.875 36.8336 21.7266V33.7969C36.8857 36.6745 38.2138 38.1263 40.818 38.1523C43.4091 38.1263 44.7437 36.6745 44.8219 33.7969ZM32.7516 34.0312V21.4727C32.7776 18.8424 33.6174 16.8177 35.2711 15.3984C36.8206 13.9922 38.6695 13.2891 40.818 13.2891C43.0315 13.2891 44.913 13.9922 46.4625 15.3984C48.038 16.8177 48.8518 18.8424 48.9039 21.4727V34.0312C48.8518 36.6484 48.038 38.6667 46.4625 40.0859C44.913 41.4922 43.0315 42.2083 40.818 42.2344C38.6695 42.2083 36.8206 41.4922 35.2711 40.0859C33.6174 38.6667 32.7776 36.6484 32.7516 34.0312ZM65.2406 33.7969V21.7266C65.1625 18.875 63.8279 17.4232 61.2367 17.3711C58.6326 17.4232 57.3044 18.875 57.2523 21.7266V33.7969C57.3044 36.6745 58.6326 38.1263 61.2367 38.1523C63.8279 38.1263 65.1625 36.6745 65.2406 33.7969ZM53.1703 34.0312V21.4727C53.1964 18.8424 54.0362 16.8177 55.6898 15.3984C57.2393 13.9922 59.0883 13.2891 61.2367 13.2891C63.4503 13.2891 65.3318 13.9922 66.8812 15.3984C68.4568 16.8177 69.2706 18.8424 69.3227 21.4727V34.0312C69.2706 36.6484 68.4568 38.6667 66.8812 40.0859C65.3318 41.4922 63.4503 42.2083 61.2367 42.2344C59.0883 42.2083 57.2393 41.4922 55.6898 40.0859C54.0362 38.6667 53.1964 36.6484 53.1703 34.0312ZM90.6256 28.2C89.6656 27.2133 88.7056 26.4533 87.7456 25.92C86.8123 25.36 85.639 25.08 84.2256 25.08C82.759 25.08 81.4123 25.5467 80.1856 26.48C78.9856 27.4133 77.9856 28.64 77.1856 30.16L73.6656 28.24C74.9723 25.8667 76.5323 24.08 78.3456 22.88C80.1856 21.68 82.159 21.08 84.2656 21.08C86.1323 21.08 87.7856 21.4533 89.2256 22.2C90.6923 22.92 92.119 23.9867 93.5056 25.4C94.4656 26.3867 95.4123 27.16 96.3456 27.72C97.3056 28.2533 98.4923 28.52 99.9056 28.52C101.372 28.52 102.706 28.0533 103.906 27.12C105.132 26.1867 106.146 24.96 106.946 23.44L110.466 25.36C109.159 27.7333 107.586 29.52 105.746 30.72C103.932 31.92 101.972 32.52 99.8656 32.52C98.0256 32.52 96.3723 32.16 94.9056 31.44C93.439 30.6933 92.0123 29.6133 90.6256 28.2ZM121.02 17.8398L116.977 20.8086V16.4727L121.02 13.5234H125.102V42H121.02V17.8398ZM139.212 21.4336C139.238 22.7487 139.661 23.7513 140.481 24.4414C141.289 25.1576 142.22 25.5156 143.274 25.5156C144.368 25.5156 145.318 25.1576 146.126 24.4414C146.92 23.7513 147.33 22.7487 147.356 21.4336C147.33 20.0794 146.92 19.0573 146.126 18.3672C145.318 17.7031 144.368 17.3711 143.274 17.3711C142.22 17.3711 141.289 17.7031 140.481 18.3672C139.661 19.0573 139.238 20.0794 139.212 21.4336ZM134.602 33.6797C134.628 30.9323 135.748 28.7969 137.962 27.2734C137.115 26.5312 136.451 25.6784 135.97 24.7148C135.41 23.8164 135.13 22.7487 135.13 21.5117C135.156 19.1419 135.957 17.1823 137.532 15.6328C139.016 14.0964 140.93 13.3151 143.274 13.2891C145.657 13.3151 147.604 14.0964 149.114 15.6328C150.637 17.1823 151.412 19.1419 151.438 21.5117C151.438 22.7487 151.184 23.8164 150.677 24.7148C150.143 25.6784 149.453 26.5312 148.606 27.2734C150.82 28.7969 151.94 30.9323 151.966 33.6797C151.94 36.2448 151.1 38.2956 149.446 39.832C147.766 41.4076 145.709 42.2083 143.274 42.2344C140.852 42.2083 138.828 41.4076 137.2 39.832C135.494 38.2956 134.628 36.2448 134.602 33.6797ZM138.684 33.6406C138.71 34.9427 139.179 36.0104 140.091 36.8438C140.963 37.7161 142.024 38.1523 143.274 38.1523C144.563 38.1523 145.644 37.7161 146.516 36.8438C147.402 36.0104 147.858 34.9427 147.884 33.6406C147.858 32.3125 147.402 31.2318 146.516 30.3984C145.644 29.5781 144.563 29.1549 143.274 29.1289C142.024 29.1549 140.963 29.5781 140.091 30.3984C139.179 31.2318 138.71 32.3125 138.684 33.6406ZM156.857 32.918V28.8359H160.939V32.918H156.857ZM156.857 42V37.918H160.939V42H156.857ZM178.506 33.7969V21.7266C178.428 18.875 177.093 17.4232 174.502 17.3711C171.898 17.4232 170.57 18.875 170.518 21.7266V33.7969C170.57 36.6745 171.898 38.1263 174.502 38.1523C177.093 38.1263 178.428 36.6745 178.506 33.7969ZM166.436 34.0312V21.4727C166.462 18.8424 167.302 16.8177 168.955 15.3984C170.505 13.9922 172.354 13.2891 174.502 13.2891C176.716 13.2891 178.597 13.9922 180.147 15.3984C181.722 16.8177 182.536 18.8424 182.588 21.4727V34.0312C182.536 36.6484 181.722 38.6667 180.147 40.0859C178.597 41.4922 176.716 42.2083 174.502 42.2344C172.354 42.2083 170.505 41.4922 168.955 40.0859C167.302 38.6667 166.462 36.6484 166.436 34.0312ZM198.925 33.7969V21.7266C198.847 18.875 197.512 17.4232 194.921 17.3711C192.317 17.4232 190.989 18.875 190.937 21.7266V33.7969C190.989 36.6745 192.317 38.1263 194.921 38.1523C197.512 38.1263 198.847 36.6745 198.925 33.7969ZM186.855 34.0312V21.4727C186.881 18.8424 187.721 16.8177 189.374 15.3984C190.924 13.9922 192.773 13.2891 194.921 13.2891C197.135 13.2891 199.016 13.9922 200.566 15.3984C202.141 16.8177 202.955 18.8424 203.007 21.4727V34.0312C202.955 36.6484 202.141 38.6667 200.566 40.0859C199.016 41.4922 197.135 42.2083 194.921 42.2344C192.773 42.2083 190.924 41.4922 189.374 40.0859C187.721 38.6667 186.881 36.6484 186.855 34.0312Z" fill="#333333"/>
<path d="M4.96669 74.88C4.96669 73.168 5.18269 71.6 5.61469 70.176C6.04669 68.752 6.62269 67.472 7.34269 66.336C8.06269 65.2 8.84669 64.208 9.69469 63.36L11.9747 64.368C11.1747 65.216 10.4467 66.168 9.79069 67.224C9.15069 68.264 8.63869 69.416 8.25469 70.68C7.87069 71.944 7.67869 73.344 7.67869 74.88C7.67869 76.4 7.87069 77.8 8.25469 79.08C8.63869 80.344 9.15069 81.496 9.79069 82.536C10.4467 83.576 11.1747 84.528 11.9747 85.392L9.69469 86.4C8.84669 85.552 8.06269 84.56 7.34269 83.424C6.62269 82.288 6.04669 81.008 5.61469 79.584C5.18269 78.16 4.96669 76.592 4.96669 74.88ZM23.688 63.648H26.664V67.464H23.688V63.648ZM14.904 65.712H35.472V70.872H32.496V68.232H17.76V70.872H14.904V65.712ZM17.064 70.152H33.552V72.48H17.064V70.152ZM14.712 77.736H35.808V80.232H14.712V77.736ZM17.448 73.92H33.048V76.224H17.448V73.92ZM26.616 78.24C27.336 79.824 28.48 81.064 30.048 81.96C31.616 82.856 33.648 83.432 36.144 83.688C35.856 83.992 35.544 84.392 35.208 84.888C34.888 85.384 34.632 85.824 34.44 86.208C32.616 85.92 31.04 85.464 29.712 84.84C28.384 84.232 27.256 83.432 26.328 82.44C25.416 81.432 24.656 80.216 24.048 78.792L26.616 78.24ZM23.616 68.784H26.52V75.456C26.52 76.288 26.432 77.12 26.256 77.952C26.096 78.784 25.792 79.592 25.344 80.376C24.912 81.144 24.296 81.88 23.496 82.584C22.712 83.288 21.712 83.936 20.496 84.528C19.28 85.136 17.8 85.68 16.056 86.16C15.944 85.936 15.784 85.68 15.576 85.392C15.384 85.12 15.168 84.84 14.928 84.552C14.704 84.264 14.48 84.024 14.256 83.832C15.92 83.448 17.312 83.016 18.432 82.536C19.568 82.056 20.472 81.536 21.144 80.976C21.832 80.416 22.352 79.832 22.704 79.224C23.056 78.6 23.296 77.976 23.424 77.352C23.552 76.712 23.616 76.064 23.616 75.408V68.784ZM48.336 65.544H50.76V72.12H48.336V65.544ZM44.976 67.968H54.216V70.056H44.976V67.968ZM54.12 69.096H59.928V71.568H54.12V69.096ZM45.192 79.392H54.024V81.48H45.192V79.392ZM52.824 64.248L54.24 66.288C53.408 66.464 52.488 66.624 51.48 66.768C50.488 66.896 49.48 67.008 48.456 67.104C47.432 67.184 46.448 67.248 45.504 67.296C45.456 67.008 45.368 66.68 45.24 66.312C45.128 65.928 45.008 65.6 44.88 65.328C45.792 65.248 46.728 65.16 47.688 65.064C48.664 64.952 49.6 64.824 50.496 64.68C51.392 64.536 52.168 64.392 52.824 64.248ZM44.664 83.208C45.464 83.16 46.368 83.096 47.376 83.016C48.4 82.936 49.48 82.848 50.616 82.752C51.768 82.656 52.912 82.56 54.048 82.464L54.072 84.552C52.488 84.744 50.896 84.928 49.296 85.104C47.712 85.28 46.296 85.432 45.048 85.56L44.664 83.208ZM59.064 69.096H61.464C61.464 69.096 61.464 69.168 61.464 69.312C61.464 69.456 61.464 69.624 61.464 69.816C61.464 69.992 61.464 70.136 61.464 70.248C61.4 72.76 61.344 74.888 61.296 76.632C61.264 78.376 61.208 79.808 61.128 80.928C61.064 82.048 60.984 82.92 60.888 83.544C60.792 84.152 60.656 84.576 60.48 84.816C60.256 85.184 60.024 85.44 59.784 85.584C59.544 85.744 59.256 85.856 58.92 85.92C58.616 85.968 58.256 86 57.84 86.016C57.44 86.032 57.008 86.032 56.544 86.016C56.528 85.648 56.456 85.224 56.328 84.744C56.216 84.264 56.064 83.856 55.872 83.52C56.24 83.552 56.576 83.576 56.88 83.592C57.184 83.608 57.432 83.616 57.624 83.616C57.768 83.616 57.896 83.584 58.008 83.52C58.12 83.456 58.224 83.344 58.32 83.184C58.416 83.008 58.504 82.656 58.584 82.128C58.664 81.584 58.728 80.8 58.776 79.776C58.84 78.736 58.888 77.392 58.92 75.744C58.968 74.096 59.016 72.072 59.064 69.672V69.096ZM47.088 75.456V76.536H52.056V75.456H47.088ZM47.088 72.816V73.896H52.056V72.816H47.088ZM45.24 71.088H53.976V78.264H45.24V71.088ZM48.576 71.688H50.496V77.616H50.736V83.52H48.336V77.616H48.576V71.688ZM55.368 63.696H57.792V72.024C57.792 73.176 57.744 74.384 57.648 75.648C57.568 76.912 57.4 78.176 57.144 79.44C56.904 80.704 56.536 81.92 56.04 83.088C55.544 84.256 54.88 85.312 54.048 86.256C53.904 86.096 53.712 85.92 53.472 85.728C53.232 85.536 52.984 85.344 52.728 85.152C52.472 84.976 52.24 84.832 52.032 84.72C52.784 83.856 53.384 82.896 53.832 81.84C54.28 80.784 54.608 79.688 54.816 78.552C55.04 77.416 55.184 76.296 55.248 75.192C55.328 74.072 55.368 73.024 55.368 72.048V63.696ZM42.936 63.696L45.504 64.416C45.104 65.792 44.616 67.184 44.04 68.592C43.48 70 42.856 71.336 42.168 72.6C41.496 73.864 40.784 74.976 40.032 75.936C39.968 75.696 39.856 75.384 39.696 75C39.552 74.6 39.392 74.2 39.216 73.8C39.04 73.384 38.88 73.056 38.736 72.816C39.312 72.048 39.864 71.176 40.392 70.2C40.92 69.224 41.4 68.184 41.832 67.08C42.28 65.96 42.648 64.832 42.936 63.696ZM41.352 70.296L43.896 67.752V67.776V86.208H41.352V70.296ZM70.68 84.336C69.544 84.336 68.528 84.136 67.632 83.736C66.736 83.336 66.024 82.776 65.496 82.056C64.984 81.336 64.728 80.512 64.728 79.584C64.728 78.816 64.864 78.144 65.136 77.568C65.424 76.976 65.8 76.464 66.264 76.032C66.728 75.6 67.232 75.24 67.776 74.952V74.832C67.104 74.352 66.544 73.768 66.096 73.08C65.648 72.376 65.424 71.56 65.424 70.632C65.424 69.672 65.656 68.84 66.12 68.136C66.584 67.432 67.216 66.888 68.016 66.504C68.832 66.12 69.752 65.928 70.776 65.928C71.832 65.928 72.744 66.128 73.512 66.528C74.28 66.912 74.872 67.456 75.288 68.16C75.72 68.864 75.936 69.696 75.936 70.656C75.936 71.232 75.824 71.776 75.6 72.288C75.392 72.8 75.112 73.264 74.76 73.68C74.424 74.08 74.056 74.424 73.656 74.712V74.832C74.216 75.12 74.72 75.48 75.168 75.912C75.616 76.344 75.976 76.864 76.248 77.472C76.52 78.064 76.656 78.768 76.656 79.584C76.656 80.48 76.4 81.288 75.888 82.008C75.392 82.728 74.696 83.296 73.8 83.712C72.904 84.128 71.864 84.336 70.68 84.336ZM71.784 73.848C72.216 73.384 72.536 72.904 72.744 72.408C72.952 71.912 73.056 71.4 73.056 70.872C73.056 70.392 72.96 69.968 72.768 69.6C72.592 69.216 72.328 68.92 71.976 68.712C71.624 68.504 71.2 68.4 70.704 68.4C70.096 68.4 69.584 68.592 69.168 68.976C68.752 69.36 68.544 69.912 68.544 70.632C68.544 71.176 68.68 71.648 68.952 72.048C69.24 72.432 69.632 72.768 70.128 73.056C70.624 73.328 71.176 73.592 71.784 73.848ZM70.752 81.84C71.264 81.84 71.712 81.752 72.096 81.576C72.496 81.384 72.808 81.112 73.032 80.76C73.256 80.392 73.368 79.96 73.368 79.464C73.368 79 73.264 78.6 73.056 78.264C72.864 77.912 72.592 77.608 72.24 77.352C71.888 77.08 71.472 76.832 70.992 76.608C70.512 76.384 69.984 76.144 69.408 75.888C68.928 76.288 68.536 76.776 68.232 77.352C67.928 77.912 67.776 78.528 67.776 79.2C67.776 79.728 67.904 80.192 68.16 80.592C68.432 80.976 68.792 81.28 69.24 81.504C69.688 81.728 70.192 81.84 70.752 81.84ZM89.2283 66.168H101.516V68.664H89.2283V66.168ZM88.4363 70.776H102.212V73.296H88.4363V70.776ZM88.4843 75.336H102.044V77.856H88.4843V75.336ZM93.8603 63.576H96.7163V72.408H93.8603V63.576ZM96.9083 73.176H99.7403V83.112C99.7403 83.8 99.6523 84.336 99.4763 84.72C99.3003 85.12 98.9803 85.432 98.5163 85.656C98.0523 85.864 97.4843 85.992 96.8123 86.04C96.1563 86.104 95.3803 86.136 94.4843 86.136C94.4203 85.736 94.3003 85.272 94.1243 84.744C93.9483 84.232 93.7643 83.792 93.5723 83.424C94.1643 83.44 94.7403 83.456 95.3003 83.472C95.8603 83.472 96.2363 83.472 96.4283 83.472C96.6043 83.472 96.7243 83.448 96.7883 83.4C96.8683 83.336 96.9083 83.216 96.9083 83.04V73.176ZM89.4443 79.488L91.7243 78.168C92.1083 78.536 92.4923 78.952 92.8763 79.416C93.2603 79.88 93.6123 80.344 93.9323 80.808C94.2523 81.272 94.5003 81.696 94.6763 82.08L92.1803 83.544C92.0523 83.16 91.8363 82.736 91.5323 82.272C91.2283 81.792 90.8923 81.312 90.5243 80.832C90.1723 80.336 89.8123 79.888 89.4443 79.488ZM81.8363 65.088H88.0043V81.504H81.8363V78.936H85.3403V67.656H81.8363V65.088ZM81.9803 71.904H86.6363V74.424H81.9803V71.904ZM80.4683 65.088H83.1323V83.64H80.4683V65.088ZM112.868 78.264H119.42V80.304H112.868V78.264ZM112.7 74.688H120.788V83.928H112.7V81.792H118.076V76.824H112.7V74.688ZM111.5 74.688H114.116V85.152H111.5V74.688ZM107.492 67.872H113.492V69.816H107.492V67.872ZM118.628 67.872H124.676V69.816H118.628V67.872ZM123.5 64.536H126.404V82.752C126.404 83.52 126.316 84.128 126.14 84.576C125.964 85.024 125.636 85.368 125.156 85.608C124.66 85.848 124.052 86 123.332 86.064C122.628 86.128 121.756 86.16 120.716 86.16C120.684 85.872 120.62 85.552 120.524 85.2C120.428 84.848 120.316 84.488 120.188 84.12C120.06 83.768 119.924 83.464 119.78 83.208C120.212 83.24 120.636 83.264 121.052 83.28C121.484 83.28 121.868 83.28 122.204 83.28C122.556 83.264 122.796 83.256 122.924 83.256C123.148 83.256 123.3 83.216 123.38 83.136C123.46 83.056 123.5 82.912 123.5 82.704V64.536ZM107.708 64.536H115.316V73.248H107.708V71.184H112.604V66.624H107.708V64.536ZM125.036 64.536V66.624H119.66V71.232H125.036V73.296H116.924V64.536H125.036ZM106.052 64.536H108.908V86.16H106.052V64.536ZM136.39 74.88C136.39 76.592 136.174 78.16 135.742 79.584C135.31 81.008 134.734 82.288 134.014 83.424C133.31 84.56 132.526 85.552 131.662 86.4L129.382 85.392C130.182 84.528 130.902 83.576 131.542 82.536C132.198 81.496 132.718 80.344 133.102 79.08C133.486 77.8 133.678 76.4 133.678 74.88C133.678 73.344 133.486 71.944 133.102 70.68C132.718 69.416 132.198 68.264 131.542 67.224C130.902 66.168 130.182 65.216 129.382 64.368L131.662 63.36C132.526 64.208 133.31 65.2 134.014 66.336C134.734 67.472 135.31 68.752 135.742 70.176C136.174 71.6 136.39 73.168 136.39 74.88Z" fill="#333333"/>
</svg>
