<svg width="227" height="79" viewBox="0 0 227 79" fill="none" xmlns="http://www.w3.org/2000/svg">
<path d="M2.912 34V10.288H7.648V34H2.912ZM19.7785 34V14.256H13.1225V10.288H31.2025V14.256H24.5145V34H19.7785ZM37.6168 11.664C38.0434 11.7067 38.5448 11.7493 39.1208 11.792C39.6968 11.8347 40.2088 11.856 40.6568 11.856H58.0648C58.5554 11.856 59.0674 11.8347 59.6008 11.792C60.1341 11.7493 60.6248 11.7067 61.0728 11.664V16.048C60.6034 16.0053 60.1021 15.9733 59.5688 15.952C59.0354 15.9307 58.5341 15.92 58.0648 15.92H40.6568C40.2301 15.92 39.7181 15.9307 39.1208 15.952C38.5234 15.9733 38.0221 16.0053 37.6168 16.048V11.664ZM46.8328 31.344V14.128H51.3128V31.344H46.8328ZM35.5368 28.72C36.0488 28.8053 36.5821 28.8693 37.1368 28.912C37.6914 28.9547 38.2141 28.976 38.7048 28.976H59.7928C60.3688 28.976 60.9128 28.9547 61.4248 28.912C61.9368 28.848 62.3954 28.784 62.8008 28.72V33.36C62.3314 33.296 61.8088 33.2533 61.2328 33.232C60.6568 33.2107 60.1768 33.2 59.7928 33.2H38.7048C38.2354 33.2 37.7234 33.2107 37.1688 33.232C36.6141 33.2533 36.0701 33.296 35.5368 33.36V28.72ZM72.387 9.68C72.9417 10.064 73.5923 10.5333 74.339 11.088C75.0857 11.6427 75.8537 12.2507 76.643 12.912C77.4537 13.552 78.211 14.1813 78.915 14.8C79.619 15.4187 80.195 15.9733 80.643 16.464L77.379 19.792C76.9737 19.344 76.4403 18.8107 75.779 18.192C75.1177 17.5733 74.403 16.9333 73.635 16.272C72.867 15.6107 72.1097 14.9813 71.363 14.384C70.6163 13.7867 69.955 13.2853 69.379 12.88L72.387 9.68ZM68.387 30.992C70.051 30.7573 71.619 30.4267 73.091 30C74.563 29.5733 75.9283 29.0827 77.187 28.528C78.4457 27.9733 79.5977 27.3973 80.643 26.8C82.4563 25.712 84.1203 24.4747 85.635 23.088C87.1497 21.7013 88.4723 20.2613 89.603 18.768C90.7337 17.2533 91.6297 15.7813 92.291 14.352L94.787 18.864C93.9763 20.2933 92.9737 21.7227 91.779 23.152C90.6057 24.5813 89.2723 25.9467 87.779 27.248C86.2857 28.528 84.675 29.68 82.947 30.704C81.859 31.3653 80.6857 31.9947 79.427 32.592C78.1683 33.168 76.835 33.68 75.427 34.128C74.0403 34.5973 72.5897 34.96 71.075 35.216L68.387 30.992ZM120.229 9.424C120.527 9.872 120.847 10.3947 121.189 10.992C121.551 11.568 121.903 12.1547 122.245 12.752C122.586 13.328 122.885 13.872 123.141 14.384L120.357 15.568C120.037 14.8853 119.738 14.2773 119.461 13.744C119.183 13.1893 118.885 12.656 118.565 12.144C118.266 11.6107 117.925 11.0773 117.541 10.544L120.229 9.424ZM124.613 7.888C124.954 8.29333 125.306 8.784 125.669 9.36C126.031 9.936 126.383 10.512 126.725 11.088C127.066 11.664 127.365 12.1867 127.621 12.656L124.901 13.872C124.559 13.2107 124.229 12.6133 123.909 12.08C123.61 11.5467 123.301 11.0347 122.981 10.544C122.661 10.0533 122.298 9.54133 121.893 9.008L124.613 7.888ZM106.309 8.816C106.842 9.09333 107.439 9.43467 108.101 9.84C108.762 10.2453 109.434 10.672 110.117 11.12C110.799 11.5467 111.45 11.9627 112.069 12.368C112.687 12.752 113.199 13.0933 113.605 13.392L111.237 16.912C110.789 16.6133 110.255 16.2613 109.637 15.856C109.039 15.4507 108.399 15.0347 107.717 14.608C107.055 14.1813 106.394 13.776 105.733 13.392C105.093 12.9867 104.517 12.6347 104.005 12.336L106.309 8.816ZM100.389 31.536C101.583 31.3227 102.799 31.056 104.037 30.736C105.274 30.416 106.501 30.032 107.717 29.584C108.933 29.1147 110.117 28.56 111.269 27.92C113.082 26.896 114.767 25.744 116.325 24.464C117.903 23.184 119.322 21.8293 120.581 20.4C121.839 18.9493 122.885 17.456 123.717 15.92L126.181 20.272C124.709 22.4907 122.874 24.592 120.677 26.576C118.501 28.5387 116.101 30.2773 113.477 31.792C112.389 32.3893 111.194 32.9653 109.893 33.52C108.591 34.0533 107.311 34.512 106.053 34.896C104.815 35.28 103.727 35.5573 102.789 35.728L100.389 31.536ZM101.381 16.112C101.914 16.3893 102.522 16.7307 103.205 17.136C103.887 17.5413 104.57 17.9573 105.253 18.384C105.935 18.7893 106.575 19.1947 107.173 19.6C107.791 19.984 108.303 20.3253 108.709 20.624L106.373 24.208C105.903 23.888 105.359 23.5253 104.741 23.12C104.143 22.7147 103.503 22.2987 102.821 21.872C102.159 21.4453 101.498 21.04 100.837 20.656C100.197 20.2507 99.6101 19.9093 99.0768 19.632L101.381 16.112ZM135.253 12.272C135.829 12.336 136.458 12.3893 137.141 12.432C137.845 12.4533 138.463 12.464 138.997 12.464C139.445 12.464 140.042 12.464 140.789 12.464C141.535 12.464 142.357 12.464 143.253 12.464C144.149 12.464 145.055 12.464 145.972 12.464C146.911 12.464 147.797 12.464 148.628 12.464C149.482 12.464 150.229 12.464 150.869 12.464C151.509 12.464 151.967 12.464 152.245 12.464C152.885 12.464 153.525 12.4427 154.165 12.4C154.805 12.3573 155.349 12.3147 155.797 12.272V16.912C155.349 16.8907 154.783 16.8693 154.101 16.848C153.418 16.8053 152.799 16.784 152.245 16.784C151.967 16.784 151.487 16.784 150.805 16.784C150.143 16.784 149.365 16.784 148.469 16.784C147.573 16.784 146.634 16.784 145.653 16.784C144.693 16.784 143.765 16.784 142.869 16.784C141.973 16.784 141.183 16.784 140.501 16.784C139.818 16.784 139.327 16.784 139.029 16.784C138.41 16.784 137.759 16.7947 137.077 16.816C136.394 16.8373 135.786 16.8693 135.253 16.912V12.272ZM132.565 27.92C133.205 27.9627 133.866 28.0053 134.549 28.048C135.253 28.0907 135.925 28.112 136.565 28.112C136.842 28.112 137.354 28.112 138.101 28.112C138.847 28.112 139.722 28.112 140.725 28.112C141.749 28.112 142.847 28.112 144.021 28.112C145.194 28.112 146.357 28.112 147.509 28.112C148.682 28.112 149.77 28.112 150.773 28.112C151.797 28.112 152.671 28.112 153.397 28.112C154.143 28.112 154.655 28.112 154.933 28.112C155.487 28.112 156.074 28.1013 156.693 28.08C157.333 28.0373 157.919 27.984 158.453 27.92V32.816C157.898 32.752 157.29 32.7093 156.629 32.688C155.967 32.6453 155.402 32.624 154.933 32.624C154.655 32.624 154.143 32.624 153.397 32.624C152.671 32.624 151.797 32.624 150.773 32.624C149.77 32.624 148.682 32.624 147.509 32.624C146.357 32.624 145.194 32.624 144.021 32.624C142.847 32.624 141.749 32.624 140.725 32.624C139.722 32.624 138.847 32.624 138.101 32.624C137.354 32.624 136.842 32.624 136.565 32.624C135.925 32.624 135.242 32.6453 134.516 32.688C133.813 32.7093 133.162 32.752 132.565 32.816V27.92ZM192.223 12.336C192.052 12.5493 191.839 12.8267 191.583 13.168C191.327 13.488 191.124 13.7653 190.975 14C190.484 14.832 189.833 15.792 189.023 16.88C188.212 17.9467 187.316 19.0133 186.335 20.08C185.353 21.1253 184.34 22.0213 183.295 22.768L179.967 20.112C180.607 19.728 181.236 19.28 181.855 18.768C182.473 18.256 183.039 17.7227 183.551 17.168C184.084 16.592 184.543 16.048 184.927 15.536C185.332 15.024 185.641 14.5653 185.855 14.16C185.577 14.16 185.108 14.16 184.447 14.16C183.785 14.16 182.996 14.16 182.079 14.16C181.161 14.16 180.169 14.16 179.103 14.16C178.057 14.16 177.012 14.16 175.967 14.16C174.921 14.16 173.929 14.16 172.991 14.16C172.073 14.16 171.273 14.16 170.591 14.16C169.929 14.16 169.46 14.16 169.183 14.16C168.521 14.16 167.892 14.1813 167.295 14.224C166.697 14.2667 166.025 14.32 165.279 14.384V9.936C165.897 10.0213 166.537 10.096 167.199 10.16C167.86 10.224 168.521 10.256 169.183 10.256C169.46 10.256 169.951 10.256 170.655 10.256C171.359 10.256 172.191 10.256 173.151 10.256C174.132 10.256 175.167 10.256 176.255 10.256C177.364 10.256 178.463 10.256 179.551 10.256C180.66 10.256 181.684 10.256 182.623 10.256C183.583 10.256 184.393 10.256 185.055 10.256C185.737 10.256 186.196 10.256 186.431 10.256C186.729 10.256 187.092 10.2453 187.519 10.224C187.945 10.2027 188.361 10.1707 188.767 10.128C189.193 10.0853 189.503 10.032 189.695 9.968L192.223 12.336ZM179.167 16.656C179.167 18.2347 179.135 19.76 179.071 21.232C179.007 22.704 178.825 24.1227 178.527 25.488C178.249 26.832 177.791 28.112 177.151 29.328C176.532 30.544 175.668 31.696 174.559 32.784C173.449 33.872 172.031 34.8747 170.303 35.792L166.559 32.752C167.071 32.5813 167.615 32.3573 168.191 32.08C168.767 31.7813 169.343 31.4187 169.919 30.992C170.943 30.288 171.764 29.5413 172.383 28.752C173.023 27.9627 173.513 27.1093 173.855 26.192C174.196 25.2533 174.431 24.24 174.559 23.152C174.687 22.0427 174.751 20.8373 174.751 19.536C174.751 19.0453 174.74 18.576 174.719 18.128C174.697 17.6587 174.633 17.168 174.527 16.656H179.167ZM208.536 25.776H214.296V28.272H208.536V25.776ZM206.52 9.776H216.344V12.56H206.52V9.776ZM205.88 16.848H225.272V19.824H205.88V16.848ZM209.336 21.232H215.96V32.848H209.336V30.224H212.984V23.888H209.336V21.232ZM207.096 21.232H210.008V34.704H207.096V21.232ZM209.816 6.896H213.08V11.664H209.816V6.896ZM221.88 21.008L224.952 21.68C224.013 25.0507 222.68 28.0267 220.952 30.608C219.224 33.168 217.155 35.2693 214.744 36.912C214.616 36.72 214.413 36.464 214.136 36.144C213.88 35.824 213.603 35.504 213.304 35.184C213.027 34.864 212.781 34.608 212.568 34.416C214.872 33.0507 216.803 31.216 218.36 28.912C219.939 26.608 221.112 23.9733 221.88 21.008ZM207.192 13.04L209.656 12.432C209.891 13.072 210.083 13.776 210.232 14.544C210.403 15.2907 210.499 15.952 210.52 16.528L207.928 17.168C207.907 16.6133 207.821 15.952 207.672 15.184C207.544 14.3947 207.384 13.68 207.192 13.04ZM219.768 9.488L222.264 8.176C222.925 8.944 223.544 9.808 224.12 10.768C224.696 11.7067 225.133 12.5493 225.432 13.296L222.744 14.768C222.509 14.0427 222.104 13.1787 221.528 12.176C220.952 11.1733 220.365 10.2773 219.768 9.488ZM212.888 12.432L215.8 12.976C215.544 13.7227 215.299 14.4587 215.064 15.184C214.829 15.888 214.616 16.5067 214.424 17.04L212.024 16.496C212.195 15.92 212.355 15.248 212.504 14.48C212.675 13.712 212.803 13.0293 212.888 12.432ZM195.608 8.016H206.648V11.408H195.608V8.016ZM198.392 14.864H203.992V17.968H198.392V14.864ZM198.392 21.392H203.992V24.528H198.392V21.392ZM196.888 9.84H199.992V29.936H196.888V9.84ZM202.072 9.84H205.304V36.88H202.072V9.84ZM194.968 29.232C196.12 29.0613 197.475 28.8373 199.032 28.56C200.611 28.2827 202.221 27.9947 203.864 27.696L204.12 30.928C202.648 31.248 201.176 31.568 199.704 31.888C198.232 32.1867 196.867 32.464 195.608 32.72L194.968 29.232ZM216.824 6.832H220.216C220.195 9.54133 220.205 12.1547 220.248 14.672C220.312 17.1893 220.408 19.5253 220.536 21.68C220.664 23.8133 220.813 25.68 220.984 27.28C221.176 28.88 221.389 30.1387 221.624 31.056C221.859 31.952 222.115 32.4 222.392 32.4C222.605 32.4 222.765 32.048 222.872 31.344C223 30.64 223.096 29.648 223.16 28.368C223.352 28.6027 223.608 28.8693 223.928 29.168C224.248 29.4667 224.568 29.7333 224.888 29.968C225.208 30.2027 225.464 30.384 225.656 30.512C225.379 32.24 225.037 33.5627 224.632 34.48C224.248 35.3973 223.843 36.016 223.416 36.336C222.989 36.6773 222.595 36.848 222.232 36.848C221.336 36.8267 220.579 36.3467 219.96 35.408C219.341 34.4693 218.829 33.1253 218.424 31.376C218.04 29.6267 217.731 27.5253 217.496 25.072C217.283 22.5973 217.123 19.824 217.016 16.752C216.931 13.68 216.867 10.3733 216.824 6.832Z" fill="#333333"/>
<path d="M4.96669 63.88C4.96669 62.168 5.18269 60.6 5.61469 59.176C6.04669 57.752 6.62269 56.472 7.34269 55.336C8.06269 54.2 8.84669 53.208 9.69469 52.36L11.9747 53.368C11.1747 54.216 10.4467 55.168 9.79069 56.224C9.15069 57.264 8.63869 58.416 8.25469 59.68C7.87069 60.944 7.67869 62.344 7.67869 63.88C7.67869 65.4 7.87069 66.8 8.25469 68.08C8.63869 69.344 9.15069 70.496 9.79069 71.536C10.4467 72.576 11.1747 73.528 11.9747 74.392L9.69469 75.4C8.84669 74.552 8.06269 73.56 7.34269 72.424C6.62269 71.288 6.04669 70.008 5.61469 68.584C5.18269 67.16 4.96669 65.592 4.96669 63.88ZM14.496 62.152H36V65.008H14.496V62.152ZM16.296 56.224H34.248V59.08H16.296V56.224ZM23.64 52.624H26.712V75.16H23.64V52.624ZM23.136 63.808L25.632 64.84C25.056 65.784 24.4 66.712 23.664 67.624C22.928 68.52 22.128 69.368 21.264 70.168C20.416 70.968 19.528 71.704 18.6 72.376C17.688 73.032 16.76 73.608 15.816 74.104C15.656 73.848 15.448 73.568 15.192 73.264C14.952 72.96 14.696 72.664 14.424 72.376C14.168 72.072 13.92 71.816 13.68 71.608C14.608 71.208 15.528 70.728 16.44 70.168C17.368 69.592 18.248 68.96 19.08 68.272C19.912 67.584 20.672 66.864 21.36 66.112C22.048 65.344 22.64 64.576 23.136 63.808ZM27.24 63.832C27.72 64.6 28.304 65.368 28.992 66.136C29.696 66.888 30.464 67.608 31.296 68.296C32.128 68.984 32.992 69.616 33.888 70.192C34.8 70.752 35.712 71.232 36.624 71.632C36.4 71.808 36.152 72.048 35.88 72.352C35.624 72.64 35.376 72.944 35.136 73.264C34.896 73.584 34.696 73.872 34.536 74.128C33.608 73.632 32.688 73.048 31.776 72.376C30.864 71.704 29.984 70.968 29.136 70.168C28.288 69.352 27.496 68.496 26.76 67.6C26.04 66.704 25.392 65.784 24.816 64.84L27.24 63.832ZM48.528 53.728H58.8V56.2H48.528V53.728ZM49.416 66.616H60.624V69.136H49.416V66.616ZM47.976 71.968H61.632V74.488H47.976V71.968ZM57.984 53.728H58.512L59.04 53.608L60.96 54.448C60.336 56.336 59.456 57.968 58.32 59.344C57.184 60.72 55.856 61.872 54.336 62.8C52.816 63.712 51.152 64.448 49.344 65.008C49.184 64.656 48.944 64.248 48.624 63.784C48.32 63.304 48.032 62.912 47.76 62.608C49.376 62.192 50.864 61.6 52.224 60.832C53.6 60.048 54.784 59.096 55.776 57.976C56.784 56.856 57.52 55.584 57.984 54.16V53.728ZM52.248 55.888C53.08 57.52 54.336 58.92 56.016 60.088C57.712 61.24 59.696 62.064 61.968 62.56C61.68 62.832 61.36 63.2 61.008 63.664C60.672 64.128 60.408 64.536 60.216 64.888C57.8 64.232 55.712 63.216 53.952 61.84C52.208 60.464 50.808 58.752 49.752 56.704L52.248 55.888ZM53.496 63.736H56.328V73.576H53.496V63.736ZM42.72 52.624L45.216 53.56C44.896 54.168 44.56 54.8 44.208 55.456C43.856 56.112 43.512 56.736 43.176 57.328C42.84 57.92 42.52 58.432 42.216 58.864L40.296 58.048C40.584 57.552 40.88 56.992 41.184 56.368C41.488 55.744 41.776 55.104 42.048 54.448C42.32 53.792 42.544 53.184 42.72 52.624ZM45.48 55.48L47.832 56.536C47.256 57.448 46.624 58.408 45.936 59.416C45.248 60.408 44.56 61.368 43.872 62.296C43.184 63.208 42.536 64.008 41.928 64.696L40.248 63.76C40.696 63.216 41.16 62.608 41.64 61.936C42.12 61.248 42.592 60.536 43.056 59.8C43.536 59.048 43.984 58.304 44.4 57.568C44.816 56.816 45.176 56.12 45.48 55.48ZM39.024 58.312L40.416 56.344C40.832 56.712 41.256 57.12 41.688 57.568C42.136 58 42.544 58.44 42.912 58.888C43.296 59.32 43.584 59.712 43.776 60.064L42.312 62.296C42.12 61.912 41.84 61.488 41.472 61.024C41.12 60.56 40.728 60.088 40.296 59.608C39.864 59.128 39.44 58.696 39.024 58.312ZM44.784 61.192L46.68 60.4C46.984 60.944 47.28 61.528 47.568 62.152C47.872 62.76 48.128 63.36 48.336 63.952C48.56 64.528 48.712 65.048 48.792 65.512L46.752 66.424C46.672 65.96 46.528 65.432 46.32 64.84C46.128 64.232 45.896 63.608 45.624 62.968C45.352 62.328 45.072 61.736 44.784 61.192ZM39 63.184C40.104 63.152 41.424 63.104 42.96 63.04C44.496 62.976 46.056 62.912 47.64 62.848L47.616 65.128C46.128 65.24 44.648 65.344 43.176 65.44C41.72 65.536 40.408 65.624 39.24 65.704L39 63.184ZM45.288 67.168L47.304 66.52C47.608 67.208 47.896 67.96 48.168 68.776C48.456 69.576 48.672 70.28 48.816 70.888L46.68 71.656C46.568 71.048 46.376 70.328 46.104 69.496C45.832 68.648 45.56 67.872 45.288 67.168ZM40.056 66.712L42.432 67.144C42.304 68.296 42.112 69.432 41.856 70.552C41.6 71.672 41.304 72.616 40.968 73.384C40.808 73.272 40.592 73.144 40.32 73C40.048 72.872 39.768 72.744 39.48 72.616C39.208 72.488 38.968 72.392 38.76 72.328C39.112 71.608 39.392 70.752 39.6 69.76C39.808 68.752 39.96 67.736 40.056 66.712ZM42.744 64.456H45.264V75.16H42.744V64.456ZM77.568 64.12V66.328H83.712V64.12H77.568ZM75.216 62.032H86.16V68.416H75.216V62.032ZM80.448 55.12C80.096 55.76 79.64 56.432 79.08 57.136C78.52 57.84 77.888 58.512 77.184 59.152C76.496 59.792 75.768 60.352 75 60.832C74.872 60.48 74.68 60.08 74.424 59.632C74.168 59.168 73.92 58.792 73.68 58.504C74.448 58.072 75.176 57.528 75.864 56.872C76.568 56.216 77.2 55.52 77.76 54.784C78.32 54.032 78.768 53.312 79.104 52.624H81.624C82.088 53.344 82.624 54.064 83.232 54.784C83.84 55.488 84.488 56.128 85.176 56.704C85.864 57.264 86.56 57.72 87.264 58.072C87.008 58.392 86.744 58.792 86.472 59.272C86.216 59.736 86 60.16 85.824 60.544C85.136 60.128 84.456 59.624 83.784 59.032C83.112 58.424 82.488 57.784 81.912 57.112C81.336 56.44 80.848 55.776 80.448 55.12ZM79.32 59.512H81.864V64.216C81.864 65.176 81.792 66.16 81.648 67.168C81.52 68.16 81.232 69.144 80.784 70.12C80.352 71.08 79.712 71.992 78.864 72.856C78.016 73.72 76.88 74.504 75.456 75.208C75.328 75 75.16 74.768 74.952 74.512C74.76 74.272 74.552 74.024 74.328 73.768C74.104 73.528 73.896 73.336 73.704 73.192C74.968 72.6 75.968 71.952 76.704 71.248C77.456 70.528 78.016 69.776 78.384 68.992C78.768 68.192 79.016 67.384 79.128 66.568C79.256 65.752 79.32 64.952 79.32 64.168V59.512ZM82.104 67.168C82.536 68.416 83.176 69.552 84.024 70.576C84.888 71.584 85.936 72.344 87.168 72.856C86.96 73.032 86.736 73.248 86.496 73.504C86.272 73.776 86.056 74.056 85.848 74.344C85.64 74.632 85.464 74.896 85.32 75.136C83.976 74.416 82.864 73.408 81.984 72.112C81.12 70.816 80.432 69.352 79.92 67.72L82.104 67.168ZM76.872 58.528H84.288V60.76H76.872V58.528ZM66.84 57.136H73.848V59.32H66.84V57.136ZM66.84 60.784H73.848V62.944H66.84V60.784ZM65.472 64.432H73.704V66.664H65.472V64.432ZM69.48 54.856H71.76V65.656H69.48V54.856ZM70.272 67.744L71.4 67.384C71.64 67.848 71.864 68.368 72.072 68.944C72.296 69.52 72.448 70.016 72.528 70.432L71.352 70.864C71.272 70.448 71.128 69.944 70.92 69.352C70.728 68.76 70.512 68.224 70.272 67.744ZM68.712 68.08L69.936 67.864C70.144 68.472 70.32 69.144 70.464 69.88C70.608 70.6 70.696 71.216 70.728 71.728L69.456 71.992C69.424 71.464 69.336 70.84 69.192 70.12C69.064 69.384 68.904 68.704 68.712 68.08ZM67.056 68.2L68.304 68.08C68.432 68.784 68.512 69.552 68.544 70.384C68.576 71.2 68.584 71.904 68.568 72.496L67.248 72.688C67.296 72.08 67.296 71.36 67.248 70.528C67.216 69.696 67.152 68.92 67.056 68.2ZM65.28 67.696L66.864 68.008C66.832 68.744 66.768 69.472 66.672 70.192C66.592 70.912 66.456 71.584 66.264 72.208C66.088 72.816 65.84 73.344 65.52 73.792L64.056 73C64.344 72.584 64.568 72.104 64.728 71.56C64.888 71 65.008 70.392 65.088 69.736C65.184 69.064 65.248 68.384 65.28 67.696ZM65.472 53.512H74.328V55.84H67.848V65.968H65.472V53.512ZM72.456 64.432H74.808C74.808 64.432 74.808 64.552 74.808 64.792C74.808 65.032 74.8 65.232 74.784 65.392C74.72 67.328 74.64 68.896 74.544 70.096C74.448 71.296 74.336 72.224 74.208 72.88C74.08 73.52 73.92 73.96 73.728 74.2C73.536 74.472 73.328 74.664 73.104 74.776C72.88 74.904 72.616 74.992 72.312 75.04C72.072 75.088 71.76 75.112 71.376 75.112C71.008 75.128 70.616 75.128 70.2 75.112C70.184 74.76 70.12 74.376 70.008 73.96C69.896 73.544 69.752 73.184 69.576 72.88C69.896 72.912 70.184 72.936 70.44 72.952C70.696 72.968 70.904 72.976 71.064 72.976C71.192 72.976 71.304 72.952 71.4 72.904C71.496 72.856 71.592 72.776 71.688 72.664C71.816 72.504 71.92 72.16 72 71.632C72.096 71.104 72.176 70.296 72.24 69.208C72.32 68.12 72.392 66.664 72.456 64.84V64.432ZM93.072 65.8H100.608V67.72H93.072V65.8ZM93.072 68.752H100.608V70.696H93.072V68.752ZM92.52 54.616H100.968V56.848H92.52V54.616ZM89.616 58.576H101.28V60.88H89.616V58.576ZM93.072 71.728H101.328V73.864H93.072V71.728ZM95.832 63.832H98.328V72.688H95.832V63.832ZM94.056 62.704H100.848V64.792H94.056V75.136H91.536V65.032L93.72 62.704H94.056ZM96.624 60.808L99.216 61.264C98.96 61.824 98.704 62.36 98.448 62.872C98.208 63.384 97.984 63.824 97.776 64.192L95.592 63.736C95.768 63.32 95.952 62.84 96.144 62.296C96.352 61.736 96.512 61.24 96.624 60.808ZM92.088 52.576L94.632 53.176C94.312 54.248 93.888 55.296 93.36 56.32C92.832 57.344 92.28 58.2 91.704 58.888C91.544 58.744 91.328 58.584 91.056 58.408C90.8 58.216 90.528 58.04 90.24 57.88C89.952 57.704 89.704 57.56 89.496 57.448C90.072 56.856 90.584 56.128 91.032 55.264C91.48 54.384 91.832 53.488 92.088 52.576ZM94.296 55.96L96.768 56.536C96.368 58.008 95.864 59.432 95.256 60.808C94.664 62.168 93.984 63.44 93.216 64.624C92.448 65.808 91.608 66.832 90.696 67.696C90.616 67.504 90.48 67.264 90.288 66.976C90.096 66.672 89.904 66.368 89.712 66.064C89.52 65.76 89.336 65.52 89.16 65.344C90.344 64.272 91.376 62.912 92.256 61.264C93.136 59.6 93.816 57.832 94.296 55.96ZM103.344 56.896H110.088V59.512H103.344V56.896ZM106.248 57.976H107.616V62.08C107.616 62.56 107.656 63.136 107.736 63.808C107.816 64.464 107.952 65.184 108.144 65.968C108.352 66.752 108.624 67.544 108.96 68.344C109.312 69.128 109.76 69.888 110.304 70.624C110.848 71.36 111.504 72.016 112.272 72.592C112.096 72.816 111.896 73.072 111.672 73.36C111.464 73.664 111.256 73.976 111.048 74.296C110.84 74.616 110.664 74.896 110.52 75.136C109.848 74.624 109.256 74.008 108.744 73.288C108.232 72.568 107.8 71.824 107.448 71.056C107.112 70.272 106.84 69.528 106.632 68.824C106.44 68.104 106.304 67.488 106.224 66.976C106.144 67.488 105.992 68.104 105.768 68.824C105.544 69.528 105.232 70.264 104.832 71.032C104.448 71.8 103.968 72.544 103.392 73.264C102.832 73.984 102.168 74.608 101.4 75.136C101.304 74.928 101.16 74.664 100.968 74.344C100.776 74.04 100.576 73.736 100.368 73.432C100.16 73.144 99.976 72.912 99.816 72.736C100.648 72.16 101.352 71.504 101.928 70.768C102.52 70.016 103 69.24 103.368 68.44C103.752 67.624 104.048 66.824 104.256 66.04C104.48 65.256 104.632 64.528 104.712 63.856C104.792 63.168 104.832 62.576 104.832 62.08V57.976H106.248ZM102.936 52.576L105.648 52.96C105.488 54.368 105.256 55.744 104.952 57.088C104.664 58.416 104.32 59.656 103.92 60.808C103.52 61.96 103.064 62.968 102.552 63.832C102.376 63.704 102.136 63.552 101.832 63.376C101.528 63.184 101.216 63.008 100.896 62.848C100.592 62.688 100.328 62.56 100.104 62.464C100.616 61.696 101.056 60.792 101.424 59.752C101.808 58.696 102.12 57.56 102.36 56.344C102.6 55.112 102.792 53.856 102.936 52.576ZM109.32 56.896H109.704L110.136 56.8L112.032 57.304C111.936 58.072 111.824 58.864 111.696 59.68C111.584 60.496 111.456 61.28 111.312 62.032C111.168 62.784 111.016 63.456 110.856 64.048L108.6 63.4C108.696 62.872 108.784 62.264 108.864 61.576C108.96 60.888 109.048 60.176 109.128 59.44C109.224 58.688 109.288 57.984 109.32 57.328V56.896ZM120.072 61.96V70.816H117.384V64.624H114.888V61.96H120.072ZM120.072 69.688C120.536 70.504 121.2 71.104 122.064 71.488C122.944 71.872 124 72.088 125.232 72.136C125.984 72.168 126.88 72.192 127.92 72.208C128.96 72.208 130.056 72.2 131.208 72.184C132.36 72.168 133.48 72.144 134.568 72.112C135.672 72.064 136.648 72 137.496 71.92C137.4 72.144 137.288 72.416 137.16 72.736C137.048 73.04 136.944 73.36 136.848 73.696C136.752 74.048 136.68 74.36 136.632 74.632C135.864 74.664 134.984 74.688 133.992 74.704C133 74.736 131.968 74.752 130.896 74.752C129.84 74.768 128.824 74.768 127.848 74.752C126.872 74.736 126 74.712 125.232 74.68C123.776 74.616 122.536 74.384 121.512 73.984C120.504 73.584 119.632 72.912 118.896 71.968C118.448 72.448 117.976 72.928 117.48 73.408C117 73.888 116.472 74.392 115.896 74.92L114.528 72.184C115.024 71.832 115.544 71.44 116.088 71.008C116.632 70.576 117.152 70.136 117.648 69.688H120.072ZM114.72 54.568L117 53.128C117.432 53.512 117.864 53.936 118.296 54.4C118.744 54.864 119.152 55.328 119.52 55.792C119.888 56.256 120.176 56.688 120.384 57.088L117.936 58.696C117.76 58.312 117.496 57.88 117.144 57.4C116.792 56.904 116.4 56.408 115.968 55.912C115.552 55.416 115.136 54.968 114.72 54.568ZM128.52 54.088H135.168V56.512H131.136V71.416H128.52V54.088ZM122.04 54.304L124.68 54.976V67.36H122.04V54.304ZM133.704 54.088H136.344V66.328C136.344 66.904 136.28 67.376 136.152 67.744C136.024 68.096 135.768 68.376 135.384 68.584C135.032 68.792 134.592 68.92 134.064 68.968C133.552 69.016 132.944 69.04 132.24 69.04C132.192 68.688 132.088 68.28 131.928 67.816C131.784 67.336 131.624 66.936 131.448 66.616C131.848 66.632 132.232 66.64 132.6 66.64C132.968 66.64 133.216 66.64 133.344 66.64C133.584 66.64 133.704 66.512 133.704 66.256V54.088ZM126.6 52.6L128.592 54.76C127.824 55.208 127 55.624 126.12 56.008C125.256 56.392 124.424 56.72 123.624 56.992C123.56 56.72 123.44 56.384 123.264 55.984C123.104 55.584 122.944 55.248 122.784 54.976C123.232 54.752 123.688 54.512 124.152 54.256C124.632 54 125.08 53.728 125.496 53.44C125.928 53.152 126.296 52.872 126.6 52.6ZM120.648 66.64C121.56 66.432 122.64 66.184 123.888 65.896C125.152 65.592 126.424 65.28 127.704 64.96L128.016 67.408C126.896 67.712 125.752 68.024 124.584 68.344C123.416 68.648 122.352 68.928 121.392 69.184L120.648 66.64ZM146.233 63.88C146.233 65.592 146.017 67.16 145.585 68.584C145.153 70.008 144.577 71.288 143.857 72.424C143.153 73.56 142.369 74.552 141.505 75.4L139.225 74.392C140.025 73.528 140.745 72.576 141.385 71.536C142.041 70.496 142.561 69.344 142.945 68.08C143.329 66.8 143.521 65.4 143.521 63.88C143.521 62.344 143.329 60.944 142.945 59.68C142.561 58.416 142.041 57.264 141.385 56.224C140.745 55.168 140.025 54.216 139.225 53.368L141.505 52.36C142.369 53.208 143.153 54.2 143.857 55.336C144.577 56.472 145.153 57.752 145.585 59.176C146.017 60.6 146.233 62.168 146.233 63.88Z" fill="#333333"/>
</svg>
