<svg width="142" height="53" viewBox="0 0 142 53" fill="none" xmlns="http://www.w3.org/2000/svg">
<path d="M1.82 22V7.18H4.78V22H1.82ZM12.3616 22V9.66H8.20156V7.18H19.5016V9.66H15.3216V22H12.3616ZM23.5105 8.04C23.7771 8.06667 24.0905 8.09333 24.4505 8.12C24.8105 8.14667 25.1305 8.16 25.4105 8.16H36.2905C36.5971 8.16 36.9171 8.14667 37.2505 8.12C37.5838 8.09333 37.8905 8.06667 38.1705 8.04V10.78C37.8771 10.7533 37.5638 10.7333 37.2305 10.72C36.8971 10.7067 36.5838 10.7 36.2905 10.7H25.4105C25.1438 10.7 24.8238 10.7067 24.4505 10.72C24.0771 10.7333 23.7638 10.7533 23.5105 10.78V8.04ZM29.2705 20.34V9.58H32.0705V20.34H29.2705ZM22.2105 18.7C22.5305 18.7533 22.8638 18.7933 23.2105 18.82C23.5571 18.8467 23.8838 18.86 24.1905 18.86H37.3705C37.7305 18.86 38.0705 18.8467 38.3905 18.82C38.7105 18.78 38.9971 18.74 39.2505 18.7V21.6C38.9571 21.56 38.6305 21.5333 38.2705 21.52C37.9105 21.5067 37.6105 21.5 37.3705 21.5H24.1905C23.8971 21.5 23.5771 21.5067 23.2305 21.52C22.8838 21.5333 22.5438 21.56 22.2105 21.6V18.7ZM45.2419 6.8C45.5885 7.04 45.9952 7.33333 46.4619 7.68C46.9285 8.02667 47.4085 8.40667 47.9019 8.82C48.4085 9.22 48.8819 9.61333 49.3219 10C49.7619 10.3867 50.1219 10.7333 50.4019 11.04L48.3619 13.12C48.1085 12.84 47.7752 12.5067 47.3619 12.12C46.9485 11.7333 46.5019 11.3333 46.0219 10.92C45.5419 10.5067 45.0685 10.1133 44.6019 9.74C44.1352 9.36667 43.7219 9.05333 43.3619 8.8L45.2419 6.8ZM42.7419 20.12C43.7819 19.9733 44.7619 19.7667 45.6819 19.5C46.6019 19.2333 47.4552 18.9267 48.2419 18.58C49.0285 18.2333 49.7485 17.8733 50.4019 17.5C51.5352 16.82 52.5752 16.0467 53.5219 15.18C54.4685 14.3133 55.2952 13.4133 56.0019 12.48C56.7085 11.5333 57.2685 10.6133 57.6819 9.72L59.2419 12.54C58.7352 13.4333 58.1085 14.3267 57.3619 15.22C56.6285 16.1133 55.7952 16.9667 54.8619 17.78C53.9285 18.58 52.9219 19.3 51.8419 19.94C51.1619 20.3533 50.4285 20.7467 49.6419 21.12C48.8552 21.48 48.0219 21.8 47.1419 22.08C46.2752 22.3733 45.3685 22.6 44.4219 22.76L42.7419 20.12ZM75.143 6.64C75.3296 6.92 75.5296 7.24667 75.743 7.62C75.9696 7.98 76.1896 8.34667 76.403 8.72C76.6163 9.08 76.803 9.42 76.963 9.74L75.223 10.48C75.023 10.0533 74.8363 9.67333 74.663 9.34C74.4896 8.99333 74.303 8.66 74.103 8.34C73.9163 8.00667 73.703 7.67333 73.463 7.34L75.143 6.64ZM77.883 5.68C78.0963 5.93333 78.3163 6.24 78.543 6.6C78.7696 6.96 78.9896 7.32 79.203 7.68C79.4163 8.04 79.603 8.36667 79.763 8.66L78.063 9.42C77.8496 9.00667 77.643 8.63333 77.443 8.3C77.2563 7.96667 77.063 7.64667 76.863 7.34C76.663 7.03333 76.4363 6.71333 76.183 6.38L77.883 5.68ZM66.443 6.26C66.7763 6.43333 67.1496 6.64667 67.563 6.9C67.9763 7.15333 68.3963 7.42 68.823 7.7C69.2496 7.96667 69.6563 8.22667 70.043 8.48C70.4296 8.72 70.7496 8.93333 71.003 9.12L69.523 11.32C69.243 11.1333 68.9096 10.9133 68.523 10.66C68.1496 10.4067 67.7496 10.1467 67.323 9.88C66.9096 9.61333 66.4963 9.36 66.083 9.12C65.683 8.86667 65.323 8.64667 65.003 8.46L66.443 6.26ZM62.743 20.46C63.4896 20.3267 64.2496 20.16 65.023 19.96C65.7963 19.76 66.563 19.52 67.323 19.24C68.083 18.9467 68.823 18.6 69.543 18.2C70.6763 17.56 71.7296 16.84 72.703 16.04C73.6896 15.24 74.5763 14.3933 75.363 13.5C76.1496 12.5933 76.803 11.66 77.323 10.7L78.863 13.42C77.943 14.8067 76.7963 16.12 75.423 17.36C74.063 18.5867 72.563 19.6733 70.923 20.62C70.243 20.9933 69.4963 21.3533 68.683 21.7C67.8696 22.0333 67.0696 22.32 66.283 22.56C65.5096 22.8 64.8296 22.9733 64.243 23.08L62.743 20.46ZM63.363 10.82C63.6963 10.9933 64.0763 11.2067 64.503 11.46C64.9296 11.7133 65.3563 11.9733 65.783 12.24C66.2096 12.4933 66.6096 12.7467 66.983 13C67.3696 13.24 67.6896 13.4533 67.943 13.64L66.483 15.88C66.1896 15.68 65.8496 15.4533 65.463 15.2C65.0896 14.9467 64.6896 14.6867 64.263 14.42C63.8496 14.1533 63.4363 13.9 63.023 13.66C62.623 13.4067 62.2563 13.1933 61.923 13.02L63.363 10.82ZM84.5328 8.42C84.8928 8.46 85.2861 8.49333 85.7128 8.52C86.1528 8.53333 86.5395 8.54 86.8728 8.54C87.1528 8.54 87.5261 8.54 87.9928 8.54C88.4595 8.54 88.9728 8.54 89.5328 8.54C90.0928 8.54 90.6595 8.54 91.2328 8.54C91.8195 8.54 92.3728 8.54 92.8928 8.54C93.4261 8.54 93.8928 8.54 94.2928 8.54C94.6928 8.54 94.9795 8.54 95.1528 8.54C95.5528 8.54 95.9528 8.52667 96.3528 8.5C96.7528 8.47333 97.0928 8.44667 97.3728 8.42V11.32C97.0928 11.3067 96.7395 11.2933 96.3128 11.28C95.8861 11.2533 95.4995 11.24 95.1528 11.24C94.9795 11.24 94.6795 11.24 94.2528 11.24C93.8395 11.24 93.3528 11.24 92.7928 11.24C92.2328 11.24 91.6461 11.24 91.0328 11.24C90.4328 11.24 89.8528 11.24 89.2928 11.24C88.7328 11.24 88.2395 11.24 87.8128 11.24C87.3861 11.24 87.0795 11.24 86.8928 11.24C86.5061 11.24 86.0995 11.2467 85.6728 11.26C85.2461 11.2733 84.8661 11.2933 84.5328 11.32V8.42ZM82.8528 18.2C83.2528 18.2267 83.6661 18.2533 84.0928 18.28C84.5328 18.3067 84.9528 18.32 85.3528 18.32C85.5261 18.32 85.8461 18.32 86.3128 18.32C86.7795 18.32 87.3261 18.32 87.9528 18.32C88.5928 18.32 89.2795 18.32 90.0128 18.32C90.7461 18.32 91.4728 18.32 92.1928 18.32C92.9261 18.32 93.6061 18.32 94.2328 18.32C94.8728 18.32 95.4195 18.32 95.8728 18.32C96.3395 18.32 96.6595 18.32 96.8328 18.32C97.1795 18.32 97.5461 18.3133 97.9328 18.3C98.3328 18.2733 98.6995 18.24 99.0328 18.2V21.26C98.6861 21.22 98.3061 21.1933 97.8928 21.18C97.4795 21.1533 97.1261 21.14 96.8328 21.14C96.6595 21.14 96.3395 21.14 95.8728 21.14C95.4195 21.14 94.8728 21.14 94.2328 21.14C93.6061 21.14 92.9261 21.14 92.1928 21.14C91.4728 21.14 90.7461 21.14 90.0128 21.14C89.2795 21.14 88.5928 21.14 87.9528 21.14C87.3261 21.14 86.7795 21.14 86.3128 21.14C85.8461 21.14 85.5261 21.14 85.3528 21.14C84.9528 21.14 84.5261 21.1533 84.0728 21.18C83.6328 21.1933 83.2261 21.22 82.8528 21.26V18.2ZM120.139 8.46C120.032 8.59333 119.899 8.76667 119.739 8.98C119.579 9.18 119.452 9.35333 119.359 9.5C119.052 10.02 118.646 10.62 118.139 11.3C117.632 11.9667 117.072 12.6333 116.459 13.3C115.846 13.9533 115.212 14.5133 114.559 14.98L112.479 13.32C112.879 13.08 113.272 12.8 113.659 12.48C114.046 12.16 114.399 11.8267 114.719 11.48C115.052 11.12 115.339 10.78 115.579 10.46C115.832 10.14 116.026 9.85333 116.159 9.6C115.986 9.6 115.692 9.6 115.279 9.6C114.866 9.6 114.372 9.6 113.799 9.6C113.226 9.6 112.606 9.6 111.939 9.6C111.286 9.6 110.632 9.6 109.979 9.6C109.326 9.6 108.706 9.6 108.119 9.6C107.546 9.6 107.046 9.6 106.619 9.6C106.206 9.6 105.912 9.6 105.739 9.6C105.326 9.6 104.932 9.61333 104.559 9.64C104.186 9.66667 103.766 9.7 103.299 9.74V6.96C103.686 7.01333 104.086 7.06 104.499 7.1C104.912 7.14 105.326 7.16 105.739 7.16C105.912 7.16 106.219 7.16 106.659 7.16C107.099 7.16 107.619 7.16 108.219 7.16C108.832 7.16 109.479 7.16 110.159 7.16C110.852 7.16 111.539 7.16 112.219 7.16C112.912 7.16 113.552 7.16 114.139 7.16C114.739 7.16 115.246 7.16 115.659 7.16C116.086 7.16 116.372 7.16 116.519 7.16C116.706 7.16 116.932 7.15333 117.199 7.14C117.466 7.12667 117.726 7.10667 117.979 7.08C118.246 7.05333 118.439 7.02 118.559 6.98L120.139 8.46ZM111.979 11.16C111.979 12.1467 111.959 13.1 111.919 14.02C111.879 14.94 111.766 15.8267 111.579 16.68C111.406 17.52 111.119 18.32 110.719 19.08C110.332 19.84 109.792 20.56 109.099 21.24C108.406 21.92 107.519 22.5467 106.439 23.12L104.099 21.22C104.419 21.1133 104.759 20.9733 105.119 20.8C105.479 20.6133 105.839 20.3867 106.199 20.12C106.839 19.68 107.352 19.2133 107.739 18.72C108.139 18.2267 108.446 17.6933 108.659 17.12C108.872 16.5333 109.019 15.9 109.099 15.22C109.179 14.5267 109.219 13.7733 109.219 12.96C109.219 12.6533 109.212 12.36 109.199 12.08C109.186 11.7867 109.146 11.48 109.079 11.16H111.979ZM130.335 16.86H133.935V18.42H130.335V16.86ZM129.075 6.86H135.215V8.6H129.075V6.86ZM128.675 11.28H140.795V13.14H128.675V11.28ZM130.835 14.02H134.975V21.28H130.835V19.64H133.115V15.68H130.835V14.02ZM129.435 14.02H131.255V22.44H129.435V14.02ZM131.135 5.06H133.175V8.04H131.135V5.06ZM138.675 13.88L140.595 14.3C140.008 16.4067 139.175 18.2667 138.095 19.88C137.015 21.48 135.722 22.7933 134.215 23.82C134.135 23.7 134.008 23.54 133.835 23.34C133.675 23.14 133.502 22.94 133.315 22.74C133.142 22.54 132.988 22.38 132.855 22.26C134.295 21.4067 135.502 20.26 136.475 18.82C137.462 17.38 138.195 15.7333 138.675 13.88ZM129.495 8.9L131.035 8.52C131.182 8.92 131.302 9.36 131.395 9.84C131.502 10.3067 131.562 10.72 131.575 11.08L129.955 11.48C129.942 11.1333 129.888 10.72 129.795 10.24C129.715 9.74667 129.615 9.3 129.495 8.9ZM137.355 6.68L138.915 5.86C139.328 6.34 139.715 6.88 140.075 7.48C140.435 8.06667 140.708 8.59333 140.895 9.06L139.215 9.98C139.068 9.52667 138.815 8.98667 138.455 8.36C138.095 7.73333 137.728 7.17333 137.355 6.68ZM133.055 8.52L134.875 8.86C134.715 9.32667 134.562 9.78667 134.415 10.24C134.268 10.68 134.135 11.0667 134.015 11.4L132.515 11.06C132.622 10.7 132.722 10.28 132.815 9.8C132.922 9.32 133.002 8.89333 133.055 8.52ZM122.255 5.76H129.155V7.88H122.255V5.76ZM123.995 10.04H127.495V11.98H123.995V10.04ZM123.995 14.12H127.495V16.08H123.995V14.12ZM123.055 6.9H124.995V19.46H123.055V6.9ZM126.295 6.9H128.315V23.8H126.295V6.9ZM121.855 19.02C122.575 18.9133 123.422 18.7733 124.395 18.6C125.382 18.4267 126.388 18.2467 127.415 18.06L127.575 20.08C126.655 20.28 125.735 20.48 124.815 20.68C123.895 20.8667 123.042 21.04 122.255 21.2L121.855 19.02ZM135.515 5.02H137.635C137.622 6.71333 137.628 8.34667 137.655 9.92C137.695 11.4933 137.755 12.9533 137.835 14.3C137.915 15.6333 138.008 16.8 138.115 17.8C138.235 18.8 138.368 19.5867 138.515 20.16C138.662 20.72 138.822 21 138.995 21C139.128 21 139.228 20.78 139.295 20.34C139.375 19.9 139.435 19.28 139.475 18.48C139.595 18.6267 139.755 18.7933 139.955 18.98C140.155 19.1667 140.355 19.3333 140.555 19.48C140.755 19.6267 140.915 19.74 141.035 19.82C140.862 20.9 140.648 21.7267 140.395 22.3C140.155 22.8733 139.902 23.26 139.635 23.46C139.368 23.6733 139.122 23.78 138.895 23.78C138.335 23.7667 137.862 23.4667 137.475 22.88C137.088 22.2933 136.768 21.4533 136.515 20.36C136.275 19.2667 136.082 17.9533 135.935 16.42C135.802 14.8733 135.702 13.14 135.635 11.22C135.582 9.3 135.542 7.23333 135.515 5.02Z" fill="#333333"/>
<path d="M3.31113 41.92C3.31113 40.7787 3.45513 39.7333 3.74313 38.784C4.03113 37.8347 4.41513 36.9813 4.89513 36.224C5.37513 35.4667 5.89779 34.8053 6.46313 34.24L7.98313 34.912C7.44979 35.4773 6.96446 36.112 6.52713 36.816C6.10046 37.5093 5.75913 38.2773 5.50313 39.12C5.24713 39.9627 5.11913 40.896 5.11913 41.92C5.11913 42.9333 5.24713 43.8667 5.50313 44.72C5.75913 45.5627 6.10046 46.3307 6.52713 47.024C6.96446 47.7173 7.44979 48.352 7.98313 48.928L6.46313 49.6C5.89779 49.0347 5.37513 48.3733 4.89513 47.616C4.41513 46.8587 4.03113 46.0053 3.74313 45.056C3.45513 44.1067 3.31113 43.0613 3.31113 41.92ZM9.664 40.768H24V42.672H9.664V40.768ZM10.864 36.816H22.832V38.72H10.864V36.816ZM15.76 34.416H17.808V49.44H15.76V34.416ZM15.424 41.872L17.088 42.56C16.704 43.1893 16.2667 43.808 15.776 44.416C15.2853 45.0133 14.752 45.5787 14.176 46.112C13.6107 46.6453 13.0187 47.136 12.4 47.584C11.792 48.0213 11.1733 48.4053 10.544 48.736C10.4373 48.5653 10.2987 48.3787 10.128 48.176C9.968 47.9733 9.79733 47.776 9.616 47.584C9.44533 47.3813 9.28 47.2107 9.12 47.072C9.73867 46.8053 10.352 46.4853 10.96 46.112C11.5787 45.728 12.1653 45.3067 12.72 44.848C13.2747 44.3893 13.7813 43.9093 14.24 43.408C14.6987 42.896 15.0933 42.384 15.424 41.872ZM18.16 41.888C18.48 42.4 18.8693 42.912 19.328 43.424C19.7973 43.9253 20.3093 44.4053 20.864 44.864C21.4187 45.3227 21.9947 45.744 22.592 46.128C23.2 46.5013 23.808 46.8213 24.416 47.088C24.2667 47.2053 24.1013 47.3653 23.92 47.568C23.7493 47.76 23.584 47.9627 23.424 48.176C23.264 48.3893 23.1307 48.5813 23.024 48.752C22.4053 48.4213 21.792 48.032 21.184 47.584C20.576 47.136 19.9893 46.6453 19.424 46.112C18.8587 45.568 18.3307 44.9973 17.84 44.4C17.36 43.8027 16.928 43.1893 16.544 42.56L18.16 41.888ZM32.352 35.152H39.2V36.8H32.352V35.152ZM32.944 43.744H40.416V45.424H32.944V43.744ZM31.984 47.312H41.088V48.992H31.984V47.312ZM38.656 35.152H39.008L39.36 35.072L40.64 35.632C40.224 36.8907 39.6373 37.9787 38.88 38.896C38.1227 39.8133 37.2373 40.5813 36.224 41.2C35.2107 41.808 34.1013 42.2987 32.896 42.672C32.7893 42.4373 32.6293 42.1653 32.416 41.856C32.2133 41.536 32.0213 41.2747 31.84 41.072C32.9173 40.7947 33.9093 40.4 34.816 39.888C35.7333 39.3653 36.5227 38.7307 37.184 37.984C37.856 37.2373 38.3467 36.3893 38.656 35.44V35.152ZM34.832 36.592C35.3867 37.68 36.224 38.6133 37.344 39.392C38.4747 40.16 39.7973 40.7093 41.312 41.04C41.12 41.2213 40.9067 41.4667 40.672 41.776C40.448 42.0853 40.272 42.3573 40.144 42.592C38.5333 42.1547 37.1413 41.4773 35.968 40.56C34.8053 39.6427 33.872 38.5013 33.168 37.136L34.832 36.592ZM35.664 41.824H37.552V48.384H35.664V41.824ZM28.48 34.416L30.144 35.04C29.9307 35.4453 29.7067 35.8667 29.472 36.304C29.2373 36.7413 29.008 37.1573 28.784 37.552C28.56 37.9467 28.3467 38.288 28.144 38.576L26.864 38.032C27.056 37.7013 27.2533 37.328 27.456 36.912C27.6587 36.496 27.8507 36.0693 28.032 35.632C28.2133 35.1947 28.3627 34.7893 28.48 34.416ZM30.32 36.32L31.888 37.024C31.504 37.632 31.0827 38.272 30.624 38.944C30.1653 39.6053 29.7067 40.2453 29.248 40.864C28.7893 41.472 28.3573 42.0053 27.952 42.464L26.832 41.84C27.1307 41.4773 27.44 41.072 27.76 40.624C28.08 40.1653 28.3947 39.6907 28.704 39.2C29.024 38.6987 29.3227 38.2027 29.6 37.712C29.8773 37.2107 30.1173 36.7467 30.32 36.32ZM26.016 38.208L26.944 36.896C27.2213 37.1413 27.504 37.4133 27.792 37.712C28.0907 38 28.3627 38.2933 28.608 38.592C28.864 38.88 29.056 39.1413 29.184 39.376L28.208 40.864C28.08 40.608 27.8933 40.3253 27.648 40.016C27.4133 39.7067 27.152 39.392 26.864 39.072C26.576 38.752 26.2933 38.464 26.016 38.208ZM29.856 40.128L31.12 39.6C31.3227 39.9627 31.52 40.352 31.712 40.768C31.9147 41.1733 32.0853 41.5733 32.224 41.968C32.3733 42.352 32.4747 42.6987 32.528 43.008L31.168 43.616C31.1147 43.3067 31.0187 42.9547 30.88 42.56C30.752 42.1547 30.5973 41.7387 30.416 41.312C30.2347 40.8853 30.048 40.4907 29.856 40.128ZM26 41.456C26.736 41.4347 27.616 41.4027 28.64 41.36C29.664 41.3173 30.704 41.2747 31.76 41.232L31.744 42.752C30.752 42.8267 29.7653 42.896 28.784 42.96C27.8133 43.024 26.9387 43.0827 26.16 43.136L26 41.456ZM30.192 44.112L31.536 43.68C31.7387 44.1387 31.9307 44.64 32.112 45.184C32.304 45.7173 32.448 46.1867 32.544 46.592L31.12 47.104C31.0453 46.6987 30.9173 46.2187 30.736 45.664C30.5547 45.0987 30.3733 44.5813 30.192 44.112ZM26.704 43.808L28.288 44.096C28.2027 44.864 28.0747 45.6213 27.904 46.368C27.7333 47.1147 27.536 47.744 27.312 48.256C27.2053 48.1813 27.0613 48.096 26.88 48C26.6987 47.9147 26.512 47.8293 26.32 47.744C26.1387 47.6587 25.9787 47.5947 25.84 47.552C26.0747 47.072 26.2613 46.5013 26.4 45.84C26.5387 45.168 26.64 44.4907 26.704 43.808ZM28.496 42.304H30.176V49.44H28.496V42.304ZM51.712 42.08V43.552H55.808V42.08H51.712ZM50.144 40.688H57.44V44.944H50.144V40.688ZM53.632 36.08C53.3973 36.5067 53.0933 36.9547 52.72 37.424C52.3467 37.8933 51.9253 38.3413 51.456 38.768C50.9973 39.1947 50.512 39.568 50 39.888C49.9147 39.6533 49.7867 39.3867 49.616 39.088C49.4453 38.7787 49.28 38.528 49.12 38.336C49.632 38.048 50.1173 37.6853 50.576 37.248C51.0453 36.8107 51.4667 36.3467 51.84 35.856C52.2133 35.3547 52.512 34.8747 52.736 34.416H54.416C54.7253 34.896 55.0827 35.376 55.488 35.856C55.8933 36.3253 56.3253 36.752 56.784 37.136C57.2427 37.5093 57.7067 37.8133 58.176 38.048C58.0053 38.2613 57.8293 38.528 57.648 38.848C57.4773 39.1573 57.3333 39.44 57.216 39.696C56.7573 39.4187 56.304 39.0827 55.856 38.688C55.408 38.2827 54.992 37.856 54.608 37.408C54.224 36.96 53.8987 36.5173 53.632 36.08ZM52.88 39.008H54.576V42.144C54.576 42.784 54.528 43.44 54.432 44.112C54.3467 44.7733 54.1547 45.4293 53.856 46.08C53.568 46.72 53.1413 47.328 52.576 47.904C52.0107 48.48 51.2533 49.0027 50.304 49.472C50.2187 49.3333 50.1067 49.1787 49.968 49.008C49.84 48.848 49.7013 48.6827 49.552 48.512C49.4027 48.352 49.264 48.224 49.136 48.128C49.9787 47.7333 50.6453 47.3013 51.136 46.832C51.6373 46.352 52.0107 45.8507 52.256 45.328C52.512 44.7947 52.6773 44.256 52.752 43.712C52.8373 43.168 52.88 42.6347 52.88 42.112V39.008ZM54.736 44.112C55.024 44.944 55.4507 45.7013 56.016 46.384C56.592 47.056 57.2907 47.5627 58.112 47.904C57.9733 48.0213 57.824 48.1653 57.664 48.336C57.5147 48.5173 57.3707 48.704 57.232 48.896C57.0933 49.088 56.976 49.264 56.88 49.424C55.984 48.944 55.2427 48.272 54.656 47.408C54.08 46.544 53.6213 45.568 53.28 44.48L54.736 44.112ZM51.248 38.352H56.192V39.84H51.248V38.352ZM44.56 37.424H49.232V38.88H44.56V37.424ZM44.56 39.856H49.232V41.296H44.56V39.856ZM43.648 42.288H49.136V43.776H43.648V42.288ZM46.32 35.904H47.84V43.104H46.32V35.904ZM46.848 44.496L47.6 44.256C47.76 44.5653 47.9093 44.912 48.048 45.296C48.1973 45.68 48.2987 46.0107 48.352 46.288L47.568 46.576C47.5147 46.2987 47.4187 45.9627 47.28 45.568C47.152 45.1733 47.008 44.816 46.848 44.496ZM45.808 44.72L46.624 44.576C46.7627 44.9813 46.88 45.4293 46.976 45.92C47.072 46.4 47.1307 46.8107 47.152 47.152L46.304 47.328C46.2827 46.976 46.224 46.56 46.128 46.08C46.0427 45.5893 45.936 45.136 45.808 44.72ZM44.704 44.8L45.536 44.72C45.6213 45.1893 45.6747 45.7013 45.696 46.256C45.7173 46.8 45.7227 47.2693 45.712 47.664L44.832 47.792C44.864 47.3867 44.864 46.9067 44.832 46.352C44.8107 45.7973 44.768 45.28 44.704 44.8ZM43.52 44.464L44.576 44.672C44.5547 45.1627 44.512 45.648 44.448 46.128C44.3947 46.608 44.304 47.056 44.176 47.472C44.0587 47.8773 43.8933 48.2293 43.68 48.528L42.704 48C42.896 47.7227 43.0453 47.4027 43.152 47.04C43.2587 46.6667 43.3387 46.2613 43.392 45.824C43.456 45.376 43.4987 44.9227 43.52 44.464ZM43.648 35.008H49.552V36.56H45.232V43.312H43.648V35.008ZM48.304 42.288H49.872C49.872 42.288 49.872 42.368 49.872 42.528C49.872 42.688 49.8667 42.8213 49.856 42.928C49.8133 44.2187 49.76 45.264 49.696 46.064C49.632 46.864 49.5573 47.4827 49.472 47.92C49.3867 48.3467 49.28 48.64 49.152 48.8C49.024 48.9813 48.8853 49.1093 48.736 49.184C48.5867 49.2693 48.4107 49.328 48.208 49.36C48.048 49.392 47.84 49.408 47.584 49.408C47.3387 49.4187 47.0773 49.4187 46.8 49.408C46.7893 49.1733 46.7467 48.9173 46.672 48.64C46.5973 48.3627 46.5013 48.1227 46.384 47.92C46.5973 47.9413 46.7893 47.9573 46.96 47.968C47.1307 47.9787 47.2693 47.984 47.376 47.984C47.4613 47.984 47.536 47.968 47.6 47.936C47.664 47.904 47.728 47.8507 47.792 47.776C47.8773 47.6693 47.9467 47.44 48 47.088C48.064 46.736 48.1173 46.1973 48.16 45.472C48.2133 44.7467 48.2613 43.776 48.304 42.56V42.288ZM62.048 43.2H67.072V44.48H62.048V43.2ZM62.048 45.168H67.072V46.464H62.048V45.168ZM61.68 35.744H67.312V37.232H61.68V35.744ZM59.744 38.384H67.52V39.92H59.744V38.384ZM62.048 47.152H67.552V48.576H62.048V47.152ZM63.888 41.888H65.552V47.792H63.888V41.888ZM62.704 41.136H67.232V42.528H62.704V49.424H61.024V42.688L62.48 41.136H62.704ZM64.416 39.872L66.144 40.176C65.9733 40.5493 65.8027 40.9067 65.632 41.248C65.472 41.5893 65.3227 41.8827 65.184 42.128L63.728 41.824C63.8453 41.5467 63.968 41.2267 64.096 40.864C64.2347 40.4907 64.3413 40.16 64.416 39.872ZM61.392 34.384L63.088 34.784C62.8747 35.4987 62.592 36.1973 62.24 36.88C61.888 37.5627 61.52 38.1333 61.136 38.592C61.0293 38.496 60.8853 38.3893 60.704 38.272C60.5333 38.144 60.352 38.0267 60.16 37.92C59.968 37.8027 59.8027 37.7067 59.664 37.632C60.048 37.2373 60.3893 36.752 60.688 36.176C60.9867 35.5893 61.2213 34.992 61.392 34.384ZM62.864 36.64L64.512 37.024C64.2453 38.0053 63.9093 38.9547 63.504 39.872C63.1093 40.7787 62.656 41.6267 62.144 42.416C61.632 43.2053 61.072 43.888 60.464 44.464C60.4107 44.336 60.32 44.176 60.192 43.984C60.064 43.7813 59.936 43.5787 59.808 43.376C59.68 43.1733 59.5573 43.0133 59.44 42.896C60.2293 42.1813 60.9173 41.2747 61.504 40.176C62.0907 39.0667 62.544 37.888 62.864 36.64ZM68.896 37.264H73.392V39.008H68.896V37.264ZM70.832 37.984H71.744V40.72C71.744 41.04 71.7707 41.424 71.824 41.872C71.8773 42.3093 71.968 42.7893 72.096 43.312C72.2347 43.8347 72.416 44.3627 72.64 44.896C72.8747 45.4187 73.1733 45.9253 73.536 46.416C73.8987 46.9067 74.336 47.344 74.848 47.728C74.7307 47.8773 74.5973 48.048 74.448 48.24C74.3093 48.4427 74.1707 48.6507 74.032 48.864C73.8933 49.0773 73.776 49.264 73.68 49.424C73.232 49.0827 72.8373 48.672 72.496 48.192C72.1547 47.712 71.8667 47.216 71.632 46.704C71.408 46.1813 71.2267 45.6853 71.088 45.216C70.96 44.736 70.8693 44.3253 70.816 43.984C70.7627 44.3253 70.6613 44.736 70.512 45.216C70.3627 45.6853 70.1547 46.176 69.888 46.688C69.632 47.2 69.312 47.696 68.928 48.176C68.5547 48.656 68.112 49.072 67.6 49.424C67.536 49.2853 67.44 49.1093 67.312 48.896C67.184 48.6933 67.0507 48.4907 66.912 48.288C66.7733 48.096 66.6507 47.9413 66.544 47.824C67.0987 47.44 67.568 47.0027 67.952 46.512C68.3467 46.0107 68.6667 45.4933 68.912 44.96C69.168 44.416 69.3653 43.8827 69.504 43.36C69.6533 42.8373 69.7547 42.352 69.808 41.904C69.8613 41.4453 69.888 41.0507 69.888 40.72V37.984H70.832ZM68.624 34.384L70.432 34.64C70.3253 35.5787 70.1707 36.496 69.968 37.392C69.776 38.2773 69.5467 39.104 69.28 39.872C69.0133 40.64 68.7093 41.312 68.368 41.888C68.2507 41.8027 68.0907 41.7013 67.888 41.584C67.6853 41.456 67.4773 41.3387 67.264 41.232C67.0613 41.1253 66.8853 41.04 66.736 40.976C67.0773 40.464 67.3707 39.8613 67.616 39.168C67.872 38.464 68.08 37.7067 68.24 36.896C68.4 36.0747 68.528 35.2373 68.624 34.384ZM72.88 37.264H73.136L73.424 37.2L74.688 37.536C74.624 38.048 74.5493 38.576 74.464 39.12C74.3893 39.664 74.304 40.1867 74.208 40.688C74.112 41.1893 74.0107 41.6373 73.904 42.032L72.4 41.6C72.464 41.248 72.5227 40.8427 72.576 40.384C72.64 39.9253 72.6987 39.4507 72.752 38.96C72.816 38.4587 72.8587 37.9893 72.88 37.552V37.264ZM80.048 40.64V46.544H78.256V42.416H76.592V40.64H80.048ZM80.048 45.792C80.3573 46.336 80.8 46.736 81.376 46.992C81.9627 47.248 82.6667 47.392 83.488 47.424C83.9893 47.4453 84.5867 47.4613 85.28 47.472C85.9733 47.472 86.704 47.4667 87.472 47.456C88.24 47.4453 88.9867 47.4293 89.712 47.408C90.448 47.376 91.0987 47.3333 91.664 47.28C91.6 47.4293 91.5253 47.6107 91.44 47.824C91.3653 48.0267 91.296 48.24 91.232 48.464C91.168 48.6987 91.12 48.9067 91.088 49.088C90.576 49.1093 89.9893 49.1253 89.328 49.136C88.6667 49.1573 87.9787 49.168 87.264 49.168C86.56 49.1787 85.8827 49.1787 85.232 49.168C84.5813 49.1573 84 49.1413 83.488 49.12C82.5173 49.0773 81.6907 48.9227 81.008 48.656C80.336 48.3893 79.7547 47.9413 79.264 47.312C78.9653 47.632 78.6507 47.952 78.32 48.272C78 48.592 77.648 48.928 77.264 49.28L76.352 47.456C76.6827 47.2213 77.0293 46.96 77.392 46.672C77.7547 46.384 78.1013 46.0907 78.432 45.792H80.048ZM76.48 35.712L78 34.752C78.288 35.008 78.576 35.2907 78.864 35.6C79.1627 35.9093 79.4347 36.2187 79.68 36.528C79.9253 36.8373 80.1173 37.1253 80.256 37.392L78.624 38.464C78.5067 38.208 78.3307 37.92 78.096 37.6C77.8613 37.2693 77.6 36.9387 77.312 36.608C77.0347 36.2773 76.7573 35.9787 76.48 35.712ZM85.68 35.392H90.112V37.008H87.424V46.944H85.68V35.392ZM81.36 35.536L83.12 35.984V44.24H81.36V35.536ZM89.136 35.392H90.896V43.552C90.896 43.936 90.8533 44.2507 90.768 44.496C90.6827 44.7307 90.512 44.9173 90.256 45.056C90.0213 45.1947 89.728 45.28 89.376 45.312C89.0347 45.344 88.6293 45.36 88.16 45.36C88.128 45.1253 88.0587 44.8533 87.952 44.544C87.856 44.224 87.7493 43.9573 87.632 43.744C87.8987 43.7547 88.1547 43.76 88.4 43.76C88.6453 43.76 88.8107 43.76 88.896 43.76C89.056 43.76 89.136 43.6747 89.136 43.504V35.392ZM84.4 34.4L85.728 35.84C85.216 36.1387 84.6667 36.416 84.08 36.672C83.504 36.928 82.9493 37.1467 82.416 37.328C82.3733 37.1467 82.2933 36.9227 82.176 36.656C82.0693 36.3893 81.9627 36.1653 81.856 35.984C82.1547 35.8347 82.4587 35.6747 82.768 35.504C83.088 35.3333 83.3867 35.152 83.664 34.96C83.952 34.768 84.1973 34.5813 84.4 34.4ZM80.432 43.76C81.04 43.6213 81.76 43.456 82.592 43.264C83.4347 43.0613 84.2827 42.8533 85.136 42.64L85.344 44.272C84.5973 44.4747 83.8347 44.6827 83.056 44.896C82.2773 45.0987 81.568 45.2853 80.928 45.456L80.432 43.76ZM97.4889 41.92C97.4889 43.0613 97.3449 44.1067 97.0569 45.056C96.7689 46.0053 96.3849 46.8587 95.9049 47.616C95.4355 48.3733 94.9129 49.0347 94.3369 49.6L92.8169 48.928C93.3502 48.352 93.8302 47.7173 94.2569 47.024C94.6942 46.3307 95.0409 45.5627 95.2969 44.72C95.5529 43.8667 95.6809 42.9333 95.6809 41.92C95.6809 40.896 95.5529 39.9627 95.2969 39.12C95.0409 38.2773 94.6942 37.5093 94.2569 36.816C93.8302 36.112 93.3502 35.4773 92.8169 34.912L94.3369 34.24C94.9129 34.8053 95.4355 35.4667 95.9049 36.224C96.3849 36.9813 96.7689 37.8347 97.0569 38.784C97.3449 39.7333 97.4889 40.7787 97.4889 41.92Z" fill="#333333"/>
</svg>
