<svg width="139" height="78" viewBox="0 0 139 78" fill="none" xmlns="http://www.w3.org/2000/svg">
<path d="M3.968 19.336L5.936 19.848C5.648 20.6373 5.30667 21.4107 4.912 22.168C4.528 22.9253 4.10667 23.6293 3.648 24.28C3.2 24.92 2.736 25.48 2.256 25.96C2.128 25.8533 1.96267 25.72 1.76 25.56C1.55733 25.3893 1.34933 25.2293 1.136 25.08C0.933333 24.9307 0.752 24.808 0.592 24.712C1.08267 24.296 1.54133 23.8053 1.968 23.24C2.39467 22.664 2.77867 22.0453 3.12 21.384C3.46133 20.712 3.744 20.0293 3.968 19.336ZM4.32 21.16H14.496V23.016H3.392L4.32 21.16ZM3.184 24.952H14.112V26.744H5.104V30.104H3.184V24.952ZM0.64 29.16H15.36V31H0.64V29.16ZM7.888 22.12H9.872V34.44H7.888V22.12ZM23.088 29.176H27.456V30.536H23.088V29.176ZM22.976 26.792H28.368V32.952H22.976V31.528H26.56V28.216H22.976V26.792ZM22.176 26.792H23.92V33.768H22.176V26.792ZM19.504 22.248H23.504V23.544H19.504V22.248ZM26.928 22.248H30.96V23.544H26.928V22.248ZM30.176 20.024H32.112V32.168C32.112 32.68 32.0533 33.0853 31.936 33.384C31.8187 33.6827 31.6 33.912 31.28 34.072C30.9493 34.232 30.544 34.3333 30.064 34.376C29.5947 34.4187 29.0133 34.44 28.32 34.44C28.2987 34.248 28.256 34.0347 28.192 33.8C28.128 33.5653 28.0533 33.3253 27.968 33.08C27.8827 32.8453 27.792 32.6427 27.696 32.472C27.984 32.4933 28.2667 32.5093 28.544 32.52C28.832 32.52 29.088 32.52 29.312 32.52C29.5467 32.5093 29.7067 32.504 29.792 32.504C29.9413 32.504 30.0427 32.4773 30.096 32.424C30.1493 32.3707 30.176 32.2747 30.176 32.136V20.024ZM19.648 20.024H24.72V25.832H19.648V24.456H22.912V21.416H19.648V20.024ZM31.2 20.024V21.416H27.616V24.488H31.2V25.864H25.792V20.024H31.2ZM18.544 20.024H20.448V34.44H18.544V20.024ZM43.792 19.672H45.68V34.44H43.792V19.672ZM39.696 23.304H49.888V25.16H39.696V23.304ZM46.08 23.896C46.2933 24.568 46.5493 25.24 46.848 25.912C47.1467 26.584 47.4827 27.2347 47.856 27.864C48.2293 28.4933 48.6293 29.0747 49.056 29.608C49.4827 30.1413 49.92 30.6 50.368 30.984C50.2187 31.1013 50.048 31.2507 49.856 31.432C49.6747 31.6027 49.4987 31.784 49.328 31.976C49.168 32.168 49.0347 32.3547 48.928 32.536C48.4693 32.0667 48.0267 31.528 47.6 30.92C47.1733 30.3013 46.7733 29.6347 46.4 28.92C46.0267 28.1947 45.6853 27.4427 45.376 26.664C45.0773 25.8853 44.8053 25.1013 44.56 24.312L46.08 23.896ZM43.472 23.96L45.12 24.44C44.7787 25.5067 44.3627 26.552 43.872 27.576C43.392 28.5893 42.8533 29.528 42.256 30.392C41.6693 31.256 41.04 31.9973 40.368 32.616C40.2613 32.456 40.1227 32.28 39.952 32.088C39.7813 31.896 39.6053 31.7147 39.424 31.544C39.2533 31.3627 39.0933 31.2133 38.944 31.096C39.584 30.584 40.192 29.944 40.768 29.176C41.344 28.3973 41.8667 27.56 42.336 26.664C42.8053 25.7573 43.184 24.856 43.472 23.96ZM38.816 19.496L40.72 20.104C40.3467 21.0427 39.904 21.9813 39.392 22.92C38.88 23.848 38.32 24.7227 37.712 25.544C37.1147 26.3547 36.496 27.0693 35.856 27.688C35.792 27.528 35.6907 27.32 35.552 27.064C35.424 26.808 35.2853 26.552 35.136 26.296C34.9867 26.0293 34.8533 25.816 34.736 25.656C35.28 25.1653 35.8027 24.5947 36.304 23.944C36.816 23.2827 37.2853 22.5733 37.712 21.816C38.1493 21.0587 38.5173 20.2853 38.816 19.496ZM37.168 24.104L39.04 22.232L39.072 22.264V34.408H37.168V24.104ZM54.304 20.376H65.472V34.216H63.408V22.312H56.272V34.248H54.304V20.376ZM55.648 25.752H64.256V27.64H55.648V25.752ZM55.648 31.256H64.272V33.192H55.648V31.256ZM75.3231 13.6719L72.0888 16.0469V12.5781L75.3231 10.2188H78.5888V33H75.3231V13.6719ZM88.0863 33V29.9219L96.9769 18.7969C97.3206 18.349 97.555 17.9323 97.68 17.5469C97.7633 17.1823 97.805 16.8385 97.805 16.5156C97.805 15.6615 97.5394 14.9167 97.0081 14.2812C96.456 13.6458 95.6748 13.3177 94.6644 13.2969C93.7685 13.2969 93.0238 13.5833 92.43 14.1562C91.8154 14.7292 91.4508 15.5365 91.3363 16.5781H88.0863C88.1696 14.6823 88.805 13.1146 89.9925 11.875C91.1904 10.6667 92.6644 10.0521 94.4144 10.0312C96.3727 10.0521 97.9613 10.6771 99.18 11.9062C100.42 13.125 101.05 14.6719 101.071 16.5469C101.071 18.0469 100.612 19.3802 99.6956 20.5469L92.3675 29.7344H101.071V33H88.0863ZM106.021 33V29.9219L114.912 18.7969C115.256 18.349 115.49 17.9323 115.615 17.5469C115.698 17.1823 115.74 16.8385 115.74 16.5156C115.74 15.6615 115.474 14.9167 114.943 14.2812C114.391 13.6458 113.61 13.3177 112.599 13.2969C111.704 13.2969 110.959 13.5833 110.365 14.1562C109.75 14.7292 109.386 15.5365 109.271 16.5781H106.021C106.105 14.6823 106.74 13.1146 107.927 11.875C109.125 10.6667 110.599 10.0521 112.349 10.0312C114.308 10.0521 115.896 10.6771 117.115 11.9062C118.355 13.125 118.985 14.6719 119.006 16.5469C119.006 18.0469 118.547 19.3802 117.631 20.5469L110.302 29.7344H119.006V33H106.021ZM125.389 20.376H136.557V34.216H134.493V22.312H127.357V34.248H125.389V20.376ZM126.733 25.752H135.341V27.64H126.733V25.752ZM126.733 31.256H135.357V33.192H126.733V31.256Z" fill="#333333"/>
<path d="M3.808 58.944H12.112V60.688H3.808V58.944ZM0.832 61.84H15.168V63.632H0.832V61.84ZM4.704 63.28H6.784C6.70933 64.016 6.58667 64.704 6.416 65.344C6.24533 65.9733 5.97333 66.5493 5.6 67.072C5.23733 67.584 4.72533 68.0427 4.064 68.448C3.40267 68.8533 2.54933 69.1947 1.504 69.472C1.44 69.3013 1.344 69.1093 1.216 68.896C1.09867 68.6827 0.965333 68.4693 0.816 68.256C0.666667 68.0533 0.522667 67.888 0.384 67.76C1.30133 67.5573 2.032 67.312 2.576 67.024C3.13067 66.736 3.54667 66.4107 3.824 66.048C4.112 65.6747 4.31467 65.2587 4.432 64.8C4.56 64.3307 4.65067 63.824 4.704 63.28ZM8.832 62.96H10.768V66.864C10.768 67.12 10.8053 67.2853 10.88 67.36C10.9653 67.424 11.152 67.456 11.44 67.456C11.504 67.456 11.6053 67.456 11.744 67.456C11.8827 67.456 12.0373 67.456 12.208 67.456C12.3787 67.456 12.5387 67.456 12.688 67.456C12.8373 67.456 12.9547 67.456 13.04 67.456C13.2107 67.456 13.3387 67.4133 13.424 67.328C13.52 67.2427 13.584 67.0613 13.616 66.784C13.6587 66.496 13.6907 66.0747 13.712 65.52C13.8507 65.616 14.0213 65.712 14.224 65.808C14.4267 65.904 14.6347 65.9893 14.848 66.064C15.072 66.1387 15.2693 66.2027 15.44 66.256C15.376 67.024 15.264 67.6213 15.104 68.048C14.944 68.4853 14.7147 68.784 14.416 68.944C14.128 69.1147 13.728 69.2 13.216 69.2C13.12 69.2 12.976 69.2 12.784 69.2C12.6027 69.2 12.4 69.2 12.176 69.2C11.9627 69.2 11.76 69.2 11.568 69.2C11.3867 69.2 11.248 69.2 11.152 69.2C10.5333 69.2 10.0533 69.1307 9.712 68.992C9.38133 68.8533 9.152 68.6133 9.024 68.272C8.896 67.9307 8.832 67.472 8.832 66.896V62.96ZM6.928 54.416H8.976V57.328H6.928V54.416ZM1.12 55.952H14.864V59.76H12.816V57.776H3.072V59.76H1.12V55.952ZM25.216 56.224C24.8853 56.6933 24.4907 57.1787 24.032 57.68C23.5733 58.1707 23.0667 58.6613 22.512 59.152C21.9573 59.632 21.3653 60.0907 20.736 60.528C20.1173 60.9653 19.4773 61.3653 18.816 61.728C18.6987 61.504 18.5173 61.2427 18.272 60.944C18.0373 60.6347 17.8133 60.384 17.6 60.192C18.528 59.712 19.4133 59.1467 20.256 58.496C21.0987 57.8347 21.856 57.1413 22.528 56.416C23.2 55.6907 23.7333 55.0027 24.128 54.352H26.128C26.5547 54.96 27.0347 55.5467 27.568 56.112C28.1013 56.6773 28.6613 57.2053 29.248 57.696C29.8453 58.176 30.4587 58.6133 31.088 59.008C31.728 59.392 32.368 59.7227 33.008 60C32.7627 60.2453 32.5333 60.5173 32.32 60.816C32.1067 61.1147 31.9093 61.4133 31.728 61.712C31.12 61.3707 30.5013 60.9867 29.872 60.56C29.2427 60.1227 28.64 59.664 28.064 59.184C27.488 58.6933 26.9547 58.1973 26.464 57.696C25.9733 57.1947 25.5573 56.704 25.216 56.224ZM19.792 63.744H30.736V65.408H19.792V63.744ZM20.608 60.192H30V61.888H20.608V60.192ZM18.496 67.344H32.176V69.056H18.496V67.344ZM24.224 60.944H26.24V68.288H24.224V60.944ZM44.384 54.416H46.256V56.736H44.384V54.416ZM41.392 58.592H49.248V60.064H41.392V58.592ZM40.672 56.144H49.936V58.816H48.16V57.6H42.368V58.816H40.672V56.144ZM44.576 59.008L46 59.504C45.6373 59.984 45.1947 60.4373 44.672 60.864C44.16 61.2907 43.6107 61.6853 43.024 62.048C42.4373 62.4 41.856 62.6987 41.28 62.944C41.2267 62.8373 41.1413 62.704 41.024 62.544C40.9067 62.384 40.784 62.224 40.656 62.064C40.528 61.904 40.416 61.7707 40.32 61.664C40.8747 61.472 41.4187 61.2427 41.952 60.976C42.4853 60.7093 42.976 60.4053 43.424 60.064C43.8827 59.7227 44.2667 59.3707 44.576 59.008ZM42.672 61.344L44.016 60.624C44.6773 61.1253 45.2107 61.6853 45.616 62.304C46.0213 62.9227 46.3147 63.5627 46.496 64.224C46.688 64.8747 46.7787 65.4987 46.768 66.096C46.768 66.6933 46.6933 67.2267 46.544 67.696C46.3947 68.1653 46.1813 68.5173 45.904 68.752C45.6693 68.9973 45.4187 69.1627 45.152 69.248C44.8853 69.344 44.576 69.3973 44.224 69.408C44.064 69.4187 43.888 69.4187 43.696 69.408C43.5147 69.408 43.328 69.4027 43.136 69.392C43.1253 69.1573 43.088 68.8853 43.024 68.576C42.96 68.2773 42.8533 68.0053 42.704 67.76C42.9387 67.792 43.152 67.8133 43.344 67.824C43.536 67.8347 43.7173 67.84 43.888 67.84C44.048 67.84 44.192 67.8187 44.32 67.776C44.4587 67.7333 44.576 67.6373 44.672 67.488C44.8107 67.3387 44.9173 67.0987 44.992 66.768C45.0667 66.4373 45.088 66.0533 45.056 65.616C45.024 65.168 44.9227 64.6933 44.752 64.192C44.592 63.6907 44.3413 63.1947 44 62.704C43.6587 62.2133 43.216 61.76 42.672 61.344ZM47.216 59.168C47.3973 60.1707 47.632 61.168 47.92 62.16C48.208 63.1413 48.5493 64.048 48.944 64.88C49.3387 65.712 49.776 66.4107 50.256 66.976C50.0533 67.1253 49.824 67.3387 49.568 67.616C49.312 67.8827 49.104 68.1333 48.944 68.368C48.432 67.6853 47.9733 66.8747 47.568 65.936C47.1627 64.9973 46.816 63.9733 46.528 62.864C46.24 61.7547 46 60.6187 45.808 59.456L47.216 59.168ZM48.928 60.576L50.192 61.68C49.776 62.064 49.3547 62.448 48.928 62.832C48.5013 63.216 48.112 63.536 47.76 63.792L46.832 62.896C47.0453 62.704 47.28 62.4747 47.536 62.208C47.8027 61.9307 48.0587 61.6533 48.304 61.376C48.5493 61.088 48.7573 60.8213 48.928 60.576ZM44.384 61.776L45.472 62.512C45.1093 62.8747 44.6613 63.2533 44.128 63.648C43.6053 64.0427 43.056 64.4107 42.48 64.752C41.904 65.0933 41.3547 65.3867 40.832 65.632C40.736 65.44 40.6027 65.2213 40.432 64.976C40.2613 64.7307 40.096 64.5333 39.936 64.384C40.4373 64.2027 40.9707 63.9733 41.536 63.696C42.1013 63.408 42.6347 63.0987 43.136 62.768C43.6373 62.4267 44.0533 62.096 44.384 61.776ZM45.056 63.6L46.224 64.384C45.7867 64.928 45.248 65.472 44.608 66.016C43.968 66.56 43.28 67.0613 42.544 67.52C41.808 67.968 41.088 68.3413 40.384 68.64C40.288 68.4373 40.1547 68.2027 39.984 67.936C39.8133 67.6693 39.648 67.4453 39.488 67.264C40 67.0933 40.5227 66.88 41.056 66.624C41.5893 66.3573 42.1067 66.064 42.608 65.744C43.12 65.4133 43.584 65.0667 44 64.704C44.416 64.3307 44.768 63.9627 45.056 63.6ZM37.216 55.92H39.024V69.44H37.216V55.92ZM35.12 59.008H40.64V60.736H35.12V59.008ZM37.2 59.712L38.304 60.16C38.176 60.7253 38.0213 61.3173 37.84 61.936C37.6587 62.5547 37.456 63.1733 37.232 63.792C37.0187 64.4 36.784 64.9707 36.528 65.504C36.2827 66.0373 36.0213 66.5067 35.744 66.912C35.6587 66.6347 35.5253 66.3253 35.344 65.984C35.1733 65.632 35.0133 65.3333 34.864 65.088C35.1947 64.6507 35.5093 64.128 35.808 63.52C36.1173 62.9013 36.3893 62.256 36.624 61.584C36.8693 60.912 37.0613 60.288 37.2 59.712ZM39.536 54.688L40.896 56.048C40.384 56.2507 39.8187 56.4373 39.2 56.608C38.592 56.768 37.9733 56.912 37.344 57.04C36.7147 57.1573 36.1013 57.2533 35.504 57.328C35.472 57.136 35.4027 56.9013 35.296 56.624C35.1893 56.3467 35.0827 56.1173 34.976 55.936C35.5307 55.84 36.0853 55.728 36.64 55.6C37.2053 55.472 37.7387 55.3333 38.24 55.184C38.7413 55.024 39.1733 54.8587 39.536 54.688ZM38.928 60.896C39.0133 60.9707 39.1467 61.0987 39.328 61.28C39.52 61.4507 39.7173 61.6427 39.92 61.856C40.1333 62.0693 40.32 62.2667 40.48 62.448C40.6507 62.6187 40.7733 62.7467 40.848 62.832L39.84 64.208C39.7547 64.048 39.6373 63.8507 39.488 63.616C39.3493 63.3707 39.2 63.12 39.04 62.864C38.88 62.608 38.72 62.368 38.56 62.144C38.4 61.9093 38.2667 61.7227 38.16 61.584L38.928 60.896ZM58.464 55.696H60.08V60.08H58.464V55.696ZM56.224 57.312H62.384V58.704H56.224V57.312ZM62.32 58.064H66.192V59.712H62.32V58.064ZM56.368 64.928H62.256V66.32H56.368V64.928ZM61.456 54.832L62.4 56.192C61.8453 56.3093 61.232 56.416 60.56 56.512C59.8987 56.5973 59.2267 56.672 58.544 56.736C57.8613 56.7893 57.2053 56.832 56.576 56.864C56.544 56.672 56.4853 56.4533 56.4 56.208C56.3253 55.952 56.2453 55.7333 56.16 55.552C56.768 55.4987 57.392 55.44 58.032 55.376C58.6827 55.3013 59.3067 55.216 59.904 55.12C60.5013 55.024 61.0187 54.928 61.456 54.832ZM56.016 67.472C56.5493 67.44 57.152 67.3973 57.824 67.344C58.5067 67.2907 59.2267 67.232 59.984 67.168C60.752 67.104 61.5147 67.04 62.272 66.976L62.288 68.368C61.232 68.496 60.1707 68.6187 59.104 68.736C58.048 68.8533 57.104 68.9547 56.272 69.04L56.016 67.472ZM65.616 58.064H67.216C67.216 58.064 67.216 58.112 67.216 58.208C67.216 58.304 67.216 58.416 67.216 58.544C67.216 58.6613 67.216 58.7573 67.216 58.832C67.1733 60.5067 67.136 61.9253 67.104 63.088C67.0827 64.2507 67.0453 65.2053 66.992 65.952C66.9493 66.6987 66.896 67.28 66.832 67.696C66.768 68.1013 66.6773 68.384 66.56 68.544C66.4107 68.7893 66.256 68.96 66.096 69.056C65.936 69.1627 65.744 69.2373 65.52 69.28C65.3173 69.312 65.0773 69.3333 64.8 69.344C64.5333 69.3547 64.2453 69.3547 63.936 69.344C63.9253 69.0987 63.8773 68.816 63.792 68.496C63.7173 68.176 63.616 67.904 63.488 67.68C63.7333 67.7013 63.9573 67.7173 64.16 67.728C64.3627 67.7387 64.528 67.744 64.656 67.744C64.752 67.744 64.8373 67.7227 64.912 67.68C64.9867 67.6373 65.056 67.5627 65.12 67.456C65.184 67.3387 65.2427 67.104 65.296 66.752C65.3493 66.3893 65.392 65.8667 65.424 65.184C65.4667 64.4907 65.4987 63.5947 65.52 62.496C65.552 61.3973 65.584 60.048 65.616 58.448V58.064ZM57.632 62.304V63.024H60.944V62.304H57.632ZM57.632 60.544V61.264H60.944V60.544H57.632ZM56.4 59.392H62.224V64.176H56.4V59.392ZM58.624 59.792H59.904V63.744H60.064V67.68H58.464V63.744H58.624V59.792ZM63.152 54.464H64.768V60.016C64.768 60.784 64.736 61.5893 64.672 62.432C64.6187 63.2747 64.5067 64.1173 64.336 64.96C64.176 65.8027 63.9307 66.6133 63.6 67.392C63.2693 68.1707 62.8267 68.8747 62.272 69.504C62.176 69.3973 62.048 69.28 61.888 69.152C61.728 69.024 61.5627 68.896 61.392 68.768C61.2213 68.6507 61.0667 68.5547 60.928 68.48C61.4293 67.904 61.8293 67.264 62.128 66.56C62.4267 65.856 62.6453 65.1253 62.784 64.368C62.9333 63.6107 63.0293 62.864 63.072 62.128C63.1253 61.3813 63.152 60.6827 63.152 60.032V54.464ZM54.864 54.464L56.576 54.944C56.3093 55.8613 55.984 56.7893 55.6 57.728C55.2267 58.6667 54.8107 59.5573 54.352 60.4C53.904 61.2427 53.4293 61.984 52.928 62.624C52.8853 62.464 52.8107 62.256 52.704 62C52.608 61.7333 52.5013 61.4667 52.384 61.2C52.2667 60.9227 52.16 60.704 52.064 60.544C52.448 60.032 52.816 59.4507 53.168 58.8C53.52 58.1493 53.84 57.456 54.128 56.72C54.4267 55.9733 54.672 55.2213 54.864 54.464ZM53.808 58.864L55.504 57.168V57.184V69.472H53.808V58.864ZM71.4313 68V64.9219L80.3219 53.7969C80.6656 53.349 80.9 52.9323 81.025 52.5469C81.1083 52.1823 81.15 51.8385 81.15 51.5156C81.15 50.6615 80.8844 49.9167 80.3531 49.2812C79.801 48.6458 79.0198 48.3177 78.0094 48.2969C77.1135 48.2969 76.3688 48.5833 75.775 49.1562C75.1604 49.7292 74.7958 50.5365 74.6813 51.5781H71.4313C71.5146 49.6823 72.15 48.1146 73.3375 46.875C74.5354 45.6667 76.0094 45.0521 77.7594 45.0312C79.7177 45.0521 81.3063 45.6771 82.525 46.9062C83.7646 48.125 84.3948 49.6719 84.4156 51.5469C84.4156 53.0469 83.9573 54.3802 83.0406 55.5469L75.7125 64.7344H84.4156V68H71.4313ZM90.799 55.376H101.967V69.216H99.903V57.312H92.767V69.248H90.799V55.376ZM92.143 60.752H100.751V62.64H92.143V60.752ZM92.143 66.256H100.767V68.192H92.143V66.256ZM115.903 55.728H117.695V64.784H115.903V55.728ZM118.783 54.688H120.623V67.168C120.623 67.68 120.564 68.08 120.447 68.368C120.33 68.656 120.127 68.88 119.839 69.04C119.54 69.1893 119.156 69.2853 118.687 69.328C118.228 69.3813 117.69 69.408 117.071 69.408C117.028 69.1413 116.948 68.8213 116.831 68.448C116.724 68.0747 116.612 67.7493 116.495 67.472C116.911 67.4827 117.3 67.4933 117.663 67.504C118.036 67.504 118.292 67.504 118.431 67.504C118.559 67.4933 118.65 67.4667 118.703 67.424C118.756 67.3813 118.783 67.2907 118.783 67.152V54.688ZM109.855 54.512H111.679V69.424H109.855V54.512ZM113.087 62.368H114.815V66.464C114.815 66.8373 114.778 67.1413 114.703 67.376C114.628 67.6107 114.474 67.8027 114.239 67.952C114.004 68.08 113.732 68.16 113.423 68.192C113.114 68.224 112.762 68.2347 112.367 68.224C112.346 67.9893 112.287 67.7173 112.191 67.408C112.095 67.0987 111.994 66.832 111.887 66.608C112.111 66.6187 112.314 66.624 112.495 66.624C112.687 66.624 112.82 66.624 112.895 66.624C113.023 66.624 113.087 66.56 113.087 66.432V62.368ZM106.831 62.368H113.759V64.08H108.543V68.144H106.831V62.368ZM106.207 59.472H115.183V61.216H106.207V59.472ZM107.871 56.544H114.559V58.272H107.519L107.871 56.544ZM107.423 54.704L109.199 55.072C109.018 55.904 108.783 56.7253 108.495 57.536C108.218 58.3467 107.924 59.0347 107.615 59.6C107.498 59.5147 107.332 59.4293 107.119 59.344C106.916 59.248 106.708 59.1627 106.495 59.088C106.292 59.0027 106.111 58.9333 105.951 58.88C106.282 58.368 106.575 57.7333 106.831 56.976C107.087 56.2187 107.284 55.4613 107.423 54.704Z" fill="#333333"/>
</svg>
