<svg width="195" height="108" viewBox="0 0 195 108" fill="none" xmlns="http://www.w3.org/2000/svg">
<path d="M5.952 20.504L8.904 21.272C8.472 22.456 7.96 23.616 7.368 24.752C6.792 25.888 6.16 26.944 5.472 27.92C4.8 28.88 4.104 29.72 3.384 30.44C3.192 30.28 2.944 30.08 2.64 29.84C2.336 29.584 2.024 29.344 1.704 29.12C1.4 28.896 1.128 28.712 0.888 28.568C1.624 27.944 2.312 27.208 2.952 26.36C3.592 25.496 4.168 24.568 4.68 23.576C5.192 22.568 5.616 21.544 5.952 20.504ZM6.48 23.24H21.744V26.024H5.088L6.48 23.24ZM4.776 28.928H21.168V31.616H7.656V36.656H4.776V28.928ZM0.96 35.24H23.04V38H0.96V35.24ZM11.832 24.68H14.808V43.16H11.832V24.68ZM34.632 35.264H41.184V37.304H34.632V35.264ZM34.464 31.688H42.552V40.928H34.464V38.792H39.84V33.824H34.464V31.688ZM33.264 31.688H35.88V42.152H33.264V31.688ZM29.256 24.872H35.256V26.816H29.256V24.872ZM40.392 24.872H46.44V26.816H40.392V24.872ZM45.264 21.536H48.168V39.752C48.168 40.52 48.08 41.128 47.904 41.576C47.728 42.024 47.4 42.368 46.92 42.608C46.424 42.848 45.816 43 45.096 43.064C44.392 43.128 43.52 43.16 42.48 43.16C42.448 42.872 42.384 42.552 42.288 42.2C42.192 41.848 42.08 41.488 41.952 41.12C41.824 40.768 41.688 40.464 41.544 40.208C41.976 40.24 42.4 40.264 42.816 40.28C43.248 40.28 43.632 40.28 43.968 40.28C44.32 40.264 44.56 40.256 44.688 40.256C44.912 40.256 45.064 40.216 45.144 40.136C45.224 40.056 45.264 39.912 45.264 39.704V21.536ZM29.472 21.536H37.08V30.248H29.472V28.184H34.368V23.624H29.472V21.536ZM46.8 21.536V23.624H41.424V28.232H46.8V30.296H38.688V21.536H46.8ZM27.816 21.536H30.672V43.16H27.816V21.536ZM65.688 21.008H68.52V43.16H65.688V21.008ZM59.544 26.456H74.832V29.24H59.544V26.456ZM69.12 27.344C69.44 28.352 69.824 29.36 70.272 30.368C70.72 31.376 71.224 32.352 71.784 33.296C72.344 34.24 72.944 35.112 73.584 35.912C74.224 36.712 74.88 37.4 75.552 37.976C75.328 38.152 75.072 38.376 74.784 38.648C74.512 38.904 74.248 39.176 73.992 39.464C73.752 39.752 73.552 40.032 73.392 40.304C72.704 39.6 72.04 38.792 71.4 37.88C70.76 36.952 70.16 35.952 69.6 34.88C69.04 33.792 68.528 32.664 68.064 31.496C67.616 30.328 67.208 29.152 66.84 27.968L69.12 27.344ZM65.208 27.44L67.68 28.16C67.168 29.76 66.544 31.328 65.808 32.864C65.088 34.384 64.28 35.792 63.384 37.088C62.504 38.384 61.56 39.496 60.552 40.424C60.392 40.184 60.184 39.92 59.928 39.632C59.672 39.344 59.408 39.072 59.136 38.816C58.88 38.544 58.64 38.32 58.416 38.144C59.376 37.376 60.288 36.416 61.152 35.264C62.016 34.096 62.8 32.84 63.504 31.496C64.208 30.136 64.776 28.784 65.208 27.44ZM58.224 20.744L61.08 21.656C60.52 23.064 59.856 24.472 59.088 25.88C58.32 27.272 57.48 28.584 56.568 29.816C55.672 31.032 54.744 32.104 53.784 33.032C53.688 32.792 53.536 32.48 53.328 32.096C53.136 31.712 52.928 31.328 52.704 30.944C52.48 30.544 52.28 30.224 52.104 29.984C52.92 29.248 53.704 28.392 54.456 27.416C55.224 26.424 55.928 25.36 56.568 24.224C57.224 23.088 57.776 21.928 58.224 20.744ZM55.752 27.656L58.56 24.848L58.608 24.896V43.112H55.752V27.656ZM81.456 22.064H98.208V42.824H95.112V24.968H84.408V42.872H81.456V22.064ZM83.472 30.128H96.384V32.96H83.472V30.128ZM83.472 38.384H96.408V41.288H83.472V38.384ZM111.434 16.8398L107.391 19.8086V15.4727L111.434 12.5234H115.516V41H111.434V16.8398ZM127.388 41V37.1523L138.501 23.2461C138.931 22.6862 139.224 22.1654 139.38 21.6836C139.484 21.2279 139.536 20.7982 139.536 20.3945C139.536 19.3268 139.204 18.3958 138.54 17.6016C137.85 16.8073 136.873 16.3971 135.61 16.3711C134.491 16.3711 133.56 16.7292 132.817 17.4453C132.049 18.1615 131.594 19.1706 131.45 20.4727H127.388C127.492 18.1029 128.286 16.1432 129.771 14.5938C131.268 13.0833 133.11 12.3151 135.298 12.2891C137.746 12.3151 139.732 13.0964 141.255 14.6328C142.804 16.1562 143.592 18.0898 143.618 20.4336C143.618 22.3086 143.045 23.9753 141.9 25.4336L132.739 36.918H143.618V41H127.388ZM149.807 41V37.1523L160.92 23.2461C161.35 22.6862 161.643 22.1654 161.799 21.6836C161.903 21.2279 161.955 20.7982 161.955 20.3945C161.955 19.3268 161.623 18.3958 160.959 17.6016C160.269 16.8073 159.292 16.3971 158.029 16.3711C156.909 16.3711 155.978 16.7292 155.236 17.4453C154.468 18.1615 154.012 19.1706 153.869 20.4727H149.807C149.911 18.1029 150.705 16.1432 152.189 14.5938C153.687 13.0833 155.529 12.3151 157.717 12.2891C160.165 12.3151 162.15 13.0964 163.674 14.6328C165.223 16.1562 166.011 18.0898 166.037 20.4336C166.037 22.3086 165.464 23.9753 164.318 25.4336L155.158 36.918H166.037V41H149.807ZM174.632 22.064H191.384V42.824H188.288V24.968H177.584V42.872H174.632V22.064ZM176.648 30.128H189.56V32.96H176.648V30.128ZM176.648 38.384H189.584V41.288H176.648V38.384Z" fill="#333333"/>
<path d="M5.712 81.416H18.168V84.032H5.712V81.416ZM1.248 85.76H22.752V88.448H1.248V85.76ZM7.056 87.92H10.176C10.064 89.024 9.88 90.056 9.624 91.016C9.368 91.96 8.96 92.824 8.4 93.608C7.856 94.376 7.088 95.064 6.096 95.672C5.104 96.28 3.824 96.792 2.256 97.208C2.16 96.952 2.016 96.664 1.824 96.344C1.648 96.024 1.448 95.704 1.224 95.384C1 95.08 0.784 94.832 0.576 94.64C1.952 94.336 3.048 93.968 3.864 93.536C4.696 93.104 5.32 92.616 5.736 92.072C6.168 91.512 6.472 90.888 6.648 90.2C6.84 89.496 6.976 88.736 7.056 87.92ZM13.248 87.44H16.152V93.296C16.152 93.68 16.208 93.928 16.32 94.04C16.448 94.136 16.728 94.184 17.16 94.184C17.256 94.184 17.408 94.184 17.616 94.184C17.824 94.184 18.056 94.184 18.312 94.184C18.568 94.184 18.808 94.184 19.032 94.184C19.256 94.184 19.432 94.184 19.56 94.184C19.816 94.184 20.008 94.12 20.136 93.992C20.28 93.864 20.376 93.592 20.424 93.176C20.488 92.744 20.536 92.112 20.568 91.28C20.776 91.424 21.032 91.568 21.336 91.712C21.64 91.856 21.952 91.984 22.272 92.096C22.608 92.208 22.904 92.304 23.16 92.384C23.064 93.536 22.896 94.432 22.656 95.072C22.416 95.728 22.072 96.176 21.624 96.416C21.192 96.672 20.592 96.8 19.824 96.8C19.68 96.8 19.464 96.8 19.176 96.8C18.904 96.8 18.6 96.8 18.264 96.8C17.944 96.8 17.64 96.8 17.352 96.8C17.08 96.8 16.872 96.8 16.728 96.8C15.8 96.8 15.08 96.696 14.568 96.488C14.072 96.28 13.728 95.92 13.536 95.408C13.344 94.896 13.248 94.208 13.248 93.344V87.44ZM10.392 74.624H13.464V78.992H10.392V74.624ZM1.68 76.928H22.296V82.64H19.224V79.664H4.608V82.64H1.68V76.928ZM37.824 77.336C37.328 78.04 36.736 78.768 36.048 79.52C35.36 80.256 34.6 80.992 33.768 81.728C32.936 82.448 32.048 83.136 31.104 83.792C30.176 84.448 29.216 85.048 28.224 85.592C28.048 85.256 27.776 84.864 27.408 84.416C27.056 83.952 26.72 83.576 26.4 83.288C27.792 82.568 29.12 81.72 30.384 80.744C31.648 79.752 32.784 78.712 33.792 77.624C34.8 76.536 35.6 75.504 36.192 74.528H39.192C39.832 75.44 40.552 76.32 41.352 77.168C42.152 78.016 42.992 78.808 43.872 79.544C44.768 80.264 45.688 80.92 46.632 81.512C47.592 82.088 48.552 82.584 49.512 83C49.144 83.368 48.8 83.776 48.48 84.224C48.16 84.672 47.864 85.12 47.592 85.568C46.68 85.056 45.752 84.48 44.808 83.84C43.864 83.184 42.96 82.496 42.096 81.776C41.232 81.04 40.432 80.296 39.696 79.544C38.96 78.792 38.336 78.056 37.824 77.336ZM29.688 88.616H46.104V91.112H29.688V88.616ZM30.912 83.288H45V85.832H30.912V83.288ZM27.744 94.016H48.264V96.584H27.744V94.016ZM36.336 84.416H39.36V95.432H36.336V84.416ZM66.576 74.624H69.384V78.104H66.576V74.624ZM62.088 80.888H73.872V83.096H62.088V80.888ZM61.008 77.216H74.904V81.224H72.24V79.4H63.552V81.224H61.008V77.216ZM66.864 81.512L69 82.256C68.456 82.976 67.792 83.656 67.008 84.296C66.24 84.936 65.416 85.528 64.536 86.072C63.656 86.6 62.784 87.048 61.92 87.416C61.84 87.256 61.712 87.056 61.536 86.816C61.36 86.576 61.176 86.336 60.984 86.096C60.792 85.856 60.624 85.656 60.48 85.496C61.312 85.208 62.128 84.864 62.928 84.464C63.728 84.064 64.464 83.608 65.136 83.096C65.824 82.584 66.4 82.056 66.864 81.512ZM64.008 85.016L66.024 83.936C67.016 84.688 67.816 85.528 68.424 86.456C69.032 87.384 69.472 88.344 69.744 89.336C70.032 90.312 70.168 91.248 70.152 92.144C70.152 93.04 70.04 93.84 69.816 94.544C69.592 95.248 69.272 95.776 68.856 96.128C68.504 96.496 68.128 96.744 67.728 96.872C67.328 97.016 66.864 97.096 66.336 97.112C66.096 97.128 65.832 97.128 65.544 97.112C65.272 97.112 64.992 97.104 64.704 97.088C64.688 96.736 64.632 96.328 64.536 95.864C64.44 95.416 64.28 95.008 64.056 94.64C64.408 94.688 64.728 94.72 65.016 94.736C65.304 94.752 65.576 94.76 65.832 94.76C66.072 94.76 66.288 94.728 66.48 94.664C66.688 94.6 66.864 94.456 67.008 94.232C67.216 94.008 67.376 93.648 67.488 93.152C67.6 92.656 67.632 92.08 67.584 91.424C67.536 90.752 67.384 90.04 67.128 89.288C66.888 88.536 66.512 87.792 66 87.056C65.488 86.32 64.824 85.64 64.008 85.016ZM70.824 81.752C71.096 83.256 71.448 84.752 71.88 86.24C72.312 87.712 72.824 89.072 73.416 90.32C74.008 91.568 74.664 92.616 75.384 93.464C75.08 93.688 74.736 94.008 74.352 94.424C73.968 94.824 73.656 95.2 73.416 95.552C72.648 94.528 71.96 93.312 71.352 91.904C70.744 90.496 70.224 88.96 69.792 87.296C69.36 85.632 69 83.928 68.712 82.184L70.824 81.752ZM73.392 83.864L75.288 85.52C74.664 86.096 74.032 86.672 73.392 87.248C72.752 87.824 72.168 88.304 71.64 88.688L70.248 87.344C70.568 87.056 70.92 86.712 71.304 86.312C71.704 85.896 72.088 85.48 72.456 85.064C72.824 84.632 73.136 84.232 73.392 83.864ZM66.576 85.664L68.208 86.768C67.664 87.312 66.992 87.88 66.192 88.472C65.408 89.064 64.584 89.616 63.72 90.128C62.856 90.64 62.032 91.08 61.248 91.448C61.104 91.16 60.904 90.832 60.648 90.464C60.392 90.096 60.144 89.8 59.904 89.576C60.656 89.304 61.456 88.96 62.304 88.544C63.152 88.112 63.952 87.648 64.704 87.152C65.456 86.64 66.08 86.144 66.576 85.664ZM67.584 88.4L69.336 89.576C68.68 90.392 67.872 91.208 66.912 92.024C65.952 92.84 64.92 93.592 63.816 94.28C62.712 94.952 61.632 95.512 60.576 95.96C60.432 95.656 60.232 95.304 59.976 94.904C59.72 94.504 59.472 94.168 59.232 93.896C60 93.64 60.784 93.32 61.584 92.936C62.384 92.536 63.16 92.096 63.912 91.616C64.68 91.12 65.376 90.6 66 90.056C66.624 89.496 67.152 88.944 67.584 88.4ZM55.824 76.88H58.536V97.16H55.824V76.88ZM52.68 81.512H60.96V84.104H52.68V81.512ZM55.8 82.568L57.456 83.24C57.264 84.088 57.032 84.976 56.76 85.904C56.488 86.832 56.184 87.76 55.848 88.688C55.528 89.6 55.176 90.456 54.792 91.256C54.424 92.056 54.032 92.76 53.616 93.368C53.488 92.952 53.288 92.488 53.016 91.976C52.76 91.448 52.52 91 52.296 90.632C52.792 89.976 53.264 89.192 53.712 88.28C54.176 87.352 54.584 86.384 54.936 85.376C55.304 84.368 55.592 83.432 55.8 82.568ZM59.304 75.032L61.344 77.072C60.576 77.376 59.728 77.656 58.8 77.912C57.888 78.152 56.96 78.368 56.016 78.56C55.072 78.736 54.152 78.88 53.256 78.992C53.208 78.704 53.104 78.352 52.944 77.936C52.784 77.52 52.624 77.176 52.464 76.904C53.296 76.76 54.128 76.592 54.96 76.4C55.808 76.208 56.608 76 57.36 75.776C58.112 75.536 58.76 75.288 59.304 75.032ZM58.392 84.344C58.52 84.456 58.72 84.648 58.992 84.92C59.28 85.176 59.576 85.464 59.88 85.784C60.2 86.104 60.48 86.4 60.72 86.672C60.976 86.928 61.16 87.12 61.272 87.248L59.76 89.312C59.632 89.072 59.456 88.776 59.232 88.424C59.024 88.056 58.8 87.68 58.56 87.296C58.32 86.912 58.08 86.552 57.84 86.216C57.6 85.864 57.4 85.584 57.24 85.376L58.392 84.344ZM87.696 76.544H90.12V83.12H87.696V76.544ZM84.336 78.968H93.576V81.056H84.336V78.968ZM93.48 80.096H99.288V82.568H93.48V80.096ZM84.552 90.392H93.384V92.48H84.552V90.392ZM92.184 75.248L93.6 77.288C92.768 77.464 91.848 77.624 90.84 77.768C89.848 77.896 88.84 78.008 87.816 78.104C86.792 78.184 85.808 78.248 84.864 78.296C84.816 78.008 84.728 77.68 84.6 77.312C84.488 76.928 84.368 76.6 84.24 76.328C85.152 76.248 86.088 76.16 87.048 76.064C88.024 75.952 88.96 75.824 89.856 75.68C90.752 75.536 91.528 75.392 92.184 75.248ZM84.024 94.208C84.824 94.16 85.728 94.096 86.736 94.016C87.76 93.936 88.84 93.848 89.976 93.752C91.128 93.656 92.272 93.56 93.408 93.464L93.432 95.552C91.848 95.744 90.256 95.928 88.656 96.104C87.072 96.28 85.656 96.432 84.408 96.56L84.024 94.208ZM98.424 80.096H100.824C100.824 80.096 100.824 80.168 100.824 80.312C100.824 80.456 100.824 80.624 100.824 80.816C100.824 80.992 100.824 81.136 100.824 81.248C100.76 83.76 100.704 85.888 100.656 87.632C100.624 89.376 100.568 90.808 100.488 91.928C100.424 93.048 100.344 93.92 100.248 94.544C100.152 95.152 100.016 95.576 99.84 95.816C99.616 96.184 99.384 96.44 99.144 96.584C98.904 96.744 98.616 96.856 98.28 96.92C97.976 96.968 97.616 97 97.2 97.016C96.8 97.032 96.368 97.032 95.904 97.016C95.888 96.648 95.816 96.224 95.688 95.744C95.576 95.264 95.424 94.856 95.232 94.52C95.6 94.552 95.936 94.576 96.24 94.592C96.544 94.608 96.792 94.616 96.984 94.616C97.128 94.616 97.256 94.584 97.368 94.52C97.48 94.456 97.584 94.344 97.68 94.184C97.776 94.008 97.864 93.656 97.944 93.128C98.024 92.584 98.088 91.8 98.136 90.776C98.2 89.736 98.248 88.392 98.28 86.744C98.328 85.096 98.376 83.072 98.424 80.672V80.096ZM86.448 86.456V87.536H91.416V86.456H86.448ZM86.448 83.816V84.896H91.416V83.816H86.448ZM84.6 82.088H93.336V89.264H84.6V82.088ZM87.936 82.688H89.856V88.616H90.096V94.52H87.696V88.616H87.936V82.688ZM94.728 74.696H97.152V83.024C97.152 84.176 97.104 85.384 97.008 86.648C96.928 87.912 96.76 89.176 96.504 90.44C96.264 91.704 95.896 92.92 95.4 94.088C94.904 95.256 94.24 96.312 93.408 97.256C93.264 97.096 93.072 96.92 92.832 96.728C92.592 96.536 92.344 96.344 92.088 96.152C91.832 95.976 91.6 95.832 91.392 95.72C92.144 94.856 92.744 93.896 93.192 92.84C93.64 91.784 93.968 90.688 94.176 89.552C94.4 88.416 94.544 87.296 94.608 86.192C94.688 85.072 94.728 84.024 94.728 83.048V74.696ZM82.296 74.696L84.864 75.416C84.464 76.792 83.976 78.184 83.4 79.592C82.84 81 82.216 82.336 81.528 83.6C80.856 84.864 80.144 85.976 79.392 86.936C79.328 86.696 79.216 86.384 79.056 86C78.912 85.6 78.752 85.2 78.576 84.8C78.4 84.384 78.24 84.056 78.096 83.816C78.672 83.048 79.224 82.176 79.752 81.2C80.28 80.224 80.76 79.184 81.192 78.08C81.64 76.96 82.008 75.832 82.296 74.696ZM80.712 81.296L83.256 78.752V78.776V97.208H80.712V81.296ZM106.889 95V91.1523L118.002 77.2461C118.432 76.6862 118.725 76.1654 118.881 75.6836C118.985 75.2279 119.037 74.7982 119.037 74.3945C119.037 73.3268 118.705 72.3958 118.041 71.6016C117.351 70.8073 116.375 70.3971 115.112 70.3711C113.992 70.3711 113.061 70.7292 112.319 71.4453C111.551 72.1615 111.095 73.1706 110.952 74.4727H106.889C106.993 72.1029 107.787 70.1432 109.272 68.5938C110.769 67.0833 112.612 66.3151 114.799 66.2891C117.247 66.3151 119.233 67.0964 120.756 68.6328C122.306 70.1562 123.093 72.0898 123.12 74.4336C123.12 76.3086 122.547 77.9753 121.401 79.4336L112.241 90.918H123.12V95H106.889ZM131.715 76.064H148.467V96.824H145.371V78.968H134.667V96.872H131.715V76.064ZM133.731 84.128H146.643V86.96H133.731V84.128ZM133.731 92.384H146.667V95.288H133.731V92.384ZM169.371 76.592H172.059V90.176H169.371V76.592ZM173.691 75.032H176.451V93.752C176.451 94.52 176.363 95.12 176.187 95.552C176.011 95.984 175.707 96.32 175.275 96.56C174.827 96.784 174.251 96.928 173.547 96.992C172.859 97.072 172.051 97.112 171.123 97.112C171.059 96.712 170.939 96.232 170.763 95.672C170.603 95.112 170.435 94.624 170.259 94.208C170.883 94.224 171.467 94.24 172.011 94.256C172.571 94.256 172.955 94.256 173.163 94.256C173.355 94.24 173.491 94.2 173.571 94.136C173.651 94.072 173.691 93.936 173.691 93.728V75.032ZM160.299 74.768H163.035V97.136H160.299V74.768ZM165.147 86.552H167.739V92.696C167.739 93.256 167.683 93.712 167.571 94.064C167.459 94.416 167.227 94.704 166.875 94.928C166.523 95.12 166.115 95.24 165.651 95.288C165.187 95.336 164.659 95.352 164.067 95.336C164.035 94.984 163.947 94.576 163.803 94.112C163.659 93.648 163.507 93.248 163.347 92.912C163.683 92.928 163.987 92.936 164.259 92.936C164.547 92.936 164.747 92.936 164.859 92.936C165.051 92.936 165.147 92.84 165.147 92.648V86.552ZM155.763 86.552H166.155V89.12H158.331V95.216H155.763V86.552ZM154.827 82.208H168.291V84.824H154.827V82.208ZM157.323 77.816H167.355V80.408H156.795L157.323 77.816ZM156.651 75.056L159.315 75.608C159.043 76.856 158.691 78.088 158.259 79.304C157.843 80.52 157.403 81.552 156.939 82.4C156.763 82.272 156.515 82.144 156.195 82.016C155.891 81.872 155.579 81.744 155.259 81.632C154.955 81.504 154.683 81.4 154.443 81.32C154.939 80.552 155.379 79.6 155.763 78.464C156.147 77.328 156.443 76.192 156.651 75.056Z" fill="#333333"/>
</svg>
