<svg width="84" height="53" viewBox="0 0 84 53" fill="none" xmlns="http://www.w3.org/2000/svg">
<path d="M1.56 6.3H18.6V8.64H1.56V6.3ZM10.5 13.06H17.58V15.4H10.5V13.06ZM0.88 20.7H19.16V23.04H0.88V20.7ZM9.34 7.24H11.88V21.84H9.34V7.24ZM3.36 11.76H5.86V21.94H3.36V11.76ZM22.1 8.08H29.46V10.2H22.1V8.08ZM21.78 12.72H29.76V14.9H21.78V12.72ZM24.7 5.2H26.94V12.44C26.94 13.3733 26.8933 14.3467 26.8 15.36C26.72 16.3733 26.5467 17.38 26.28 18.38C26.0267 19.3667 25.6467 20.3 25.14 21.18C24.6467 22.06 23.98 22.8467 23.14 23.54C23.0333 23.38 22.8867 23.1867 22.7 22.96C22.5133 22.7467 22.3133 22.5333 22.1 22.32C21.8867 22.12 21.6867 21.9533 21.5 21.82C22.2467 21.2733 22.8333 20.62 23.26 19.86C23.7 19.1 24.02 18.2933 24.22 17.44C24.42 16.5867 24.5467 15.7333 24.6 14.88C24.6667 14.0133 24.7 13.2 24.7 12.44V5.2ZM26.62 15.22C26.7667 15.34 26.96 15.5333 27.2 15.8C27.44 16.0533 27.7 16.34 27.98 16.66C28.26 16.98 28.54 17.3 28.82 17.62C29.1 17.94 29.3533 18.2267 29.58 18.48C29.8067 18.7333 29.9667 18.92 30.06 19.04L28.44 20.76C28.24 20.4533 28 20.1 27.72 19.7C27.44 19.3 27.14 18.8933 26.82 18.48C26.5133 18.0533 26.2133 17.6533 25.92 17.28C25.6267 16.9067 25.3733 16.5933 25.16 16.34L26.62 15.22ZM32.6 10.9V12.08H36.98V10.9H32.6ZM32.6 13.96V15.16H36.98V13.96H32.6ZM32.6 7.84V9H36.98V7.84H32.6ZM30.38 5.72H39.3V17.28H30.38V5.72ZM34.94 16.52H37.16V20.72C37.16 20.9867 37.18 21.1533 37.22 21.22C37.26 21.2867 37.3533 21.32 37.5 21.32C37.5267 21.32 37.5867 21.32 37.68 21.32C37.7733 21.32 37.8667 21.32 37.96 21.32C38.0667 21.32 38.14 21.32 38.18 21.32C38.3 21.32 38.3867 21.2733 38.44 21.18C38.4933 21.0733 38.5333 20.8533 38.56 20.52C38.5867 20.1733 38.6067 19.64 38.62 18.92C38.7667 19.04 38.9533 19.16 39.18 19.28C39.42 19.4 39.6667 19.5067 39.92 19.6C40.1867 19.68 40.4133 19.7533 40.6 19.82C40.5333 20.7667 40.42 21.5 40.26 22.02C40.1 22.54 39.8733 22.9 39.58 23.1C39.2867 23.3 38.9 23.4 38.42 23.4C38.34 23.4 38.24 23.4 38.12 23.4C38 23.4 37.8733 23.4 37.74 23.4C37.62 23.4 37.5 23.4 37.38 23.4C37.2733 23.4 37.18 23.4 37.1 23.4C36.5133 23.4 36.06 23.3133 35.74 23.14C35.42 22.98 35.2067 22.7 35.1 22.3C34.9933 21.9133 34.94 21.3933 34.94 20.74V16.52ZM31.7 16.92H33.96C33.8667 17.7067 33.7333 18.4467 33.56 19.14C33.4 19.82 33.1467 20.4467 32.8 21.02C32.4533 21.5933 31.9867 22.1133 31.4 22.58C30.8133 23.06 30.06 23.4667 29.14 23.8C29.02 23.5333 28.8267 23.22 28.56 22.86C28.3067 22.5 28.06 22.22 27.82 22.02C28.86 21.6733 29.64 21.2533 30.16 20.76C30.6933 20.2533 31.06 19.68 31.26 19.04C31.4733 18.4 31.62 17.6933 31.7 16.92Z" fill="#333333"/>
<path d="M3.31113 41.92C3.31113 40.7787 3.45513 39.7333 3.74313 38.784C4.03113 37.8347 4.41513 36.9813 4.89513 36.224C5.37513 35.4667 5.89779 34.8053 6.46313 34.24L7.98313 34.912C7.44979 35.4773 6.96446 36.112 6.52713 36.816C6.10046 37.5093 5.75913 38.2773 5.50313 39.12C5.24713 39.9627 5.11913 40.896 5.11913 41.92C5.11913 42.9333 5.24713 43.8667 5.50313 44.72C5.75913 45.5627 6.10046 46.3307 6.52713 47.024C6.96446 47.7173 7.44979 48.352 7.98313 48.928L6.46313 49.6C5.89779 49.0347 5.37513 48.3733 4.89513 47.616C4.41513 46.8587 4.03113 46.0053 3.74313 45.056C3.45513 44.1067 3.31113 43.0613 3.31113 41.92ZM14.768 37.408L16.816 37.824C16.208 38.6773 15.4773 39.4667 14.624 40.192C13.7707 40.9067 12.7253 41.5467 11.488 42.112C11.4133 41.9627 11.3013 41.7973 11.152 41.616C11.0027 41.4347 10.848 41.2587 10.688 41.088C10.528 40.9173 10.3733 40.784 10.224 40.688C11.3547 40.2613 12.2933 39.76 13.04 39.184C13.7973 38.5973 14.3733 38.0053 14.768 37.408ZM15.2 38.496H19.984V39.92H13.904L15.2 38.496ZM19.408 38.496H19.776L20.112 38.4L21.408 39.184C20.8747 40.0693 20.208 40.8587 19.408 41.552C18.608 42.2347 17.7067 42.832 16.704 43.344C15.712 43.856 14.656 44.2933 13.536 44.656C12.4267 45.008 11.296 45.296 10.144 45.52C10.0587 45.2747 9.93067 44.9867 9.76 44.656C9.58933 44.3147 9.41867 44.0373 9.248 43.824C10.3147 43.664 11.3653 43.4347 12.4 43.136C13.4453 42.8373 14.4213 42.48 15.328 42.064C16.2453 41.6373 17.056 41.1467 17.76 40.592C18.464 40.0373 19.0133 39.4293 19.408 38.768V38.496ZM14.448 39.568C15.0667 40.2613 15.872 40.864 16.864 41.376C17.8667 41.888 19.0027 42.3147 20.272 42.656C21.552 42.9867 22.9067 43.2213 24.336 43.36C24.1973 43.5093 24.048 43.696 23.888 43.92C23.7387 44.1333 23.5947 44.3573 23.456 44.592C23.3173 44.816 23.2053 45.0187 23.12 45.2C21.648 44.9973 20.2667 44.688 18.976 44.272C17.696 43.8453 16.5333 43.3067 15.488 42.656C14.4427 41.9947 13.5413 41.2107 12.784 40.304L14.448 39.568ZM12.272 44.416H21.488V49.408H19.504V46H14.16V49.44H12.272V44.416ZM13.216 47.36H20.464V48.944H13.216V47.36ZM15.76 34.416H17.744V36.688H15.76V34.416ZM9.904 35.712H23.696V39.264H21.728V37.456H11.792V39.264H9.904V35.712ZM34.624 42.448H36.56V46.768C36.56 47.0347 36.592 47.2053 36.656 47.28C36.7307 47.344 36.8907 47.376 37.136 47.376C37.2 47.376 37.2907 47.376 37.408 47.376C37.536 47.376 37.6747 47.376 37.824 47.376C37.9733 47.376 38.112 47.376 38.24 47.376C38.368 47.376 38.4693 47.376 38.544 47.376C38.704 47.376 38.8213 47.328 38.896 47.232C38.9813 47.1253 39.04 46.9173 39.072 46.608C39.1147 46.288 39.1467 45.8133 39.168 45.184C39.296 45.28 39.4613 45.3813 39.664 45.488C39.8773 45.5947 40.096 45.6853 40.32 45.76C40.5547 45.8347 40.752 45.8987 40.912 45.952C40.848 46.7947 40.7413 47.456 40.592 47.936C40.4427 48.4053 40.2187 48.7307 39.92 48.912C39.6213 49.0933 39.2213 49.184 38.72 49.184C38.624 49.184 38.4907 49.184 38.32 49.184C38.1493 49.184 37.968 49.184 37.776 49.184C37.584 49.184 37.4027 49.184 37.232 49.184C37.072 49.184 36.9493 49.184 36.864 49.184C36.256 49.184 35.792 49.1093 35.472 48.96C35.152 48.8107 34.928 48.56 34.8 48.208C34.6827 47.856 34.624 47.3813 34.624 46.784V42.448ZM26.48 41.024H40.768V42.88H26.48V41.024ZM29.12 36.576H39.504V38.416H29.12V36.576ZM30.32 42.464H32.336C32.2613 43.2213 32.1387 43.9467 31.968 44.64C31.808 45.3333 31.552 45.984 31.2 46.592C30.8587 47.1893 30.384 47.7333 29.776 48.224C29.1787 48.7253 28.3947 49.1573 27.424 49.52C27.36 49.3387 27.2587 49.1413 27.12 48.928C26.9813 48.7253 26.832 48.5227 26.672 48.32C26.5227 48.128 26.3733 47.9627 26.224 47.824C27.0773 47.5467 27.76 47.2213 28.272 46.848C28.7947 46.4747 29.1893 46.0587 29.456 45.6C29.7333 45.1307 29.9307 44.6347 30.048 44.112C30.176 43.5893 30.2667 43.04 30.32 42.464ZM29.088 34.64L31.04 35.024C30.88 35.6533 30.6773 36.3093 30.432 36.992C30.1973 37.6747 29.9307 38.3307 29.632 38.96C29.3333 39.5893 29.0027 40.144 28.64 40.624C28.4907 40.5173 28.3147 40.4107 28.112 40.304C27.9093 40.1867 27.7013 40.08 27.488 39.984C27.2747 39.888 27.0933 39.8133 26.944 39.76C27.2853 39.312 27.5947 38.7947 27.872 38.208C28.16 37.6213 28.4053 37.0187 28.608 36.4C28.8213 35.7707 28.9813 35.184 29.088 34.64ZM32.64 34.4H34.592V41.584H32.64V34.4ZM49.584 42.336H51.568V49.44H49.584V42.336ZM47.968 40.368V41.376H52.752V40.368H47.968ZM46.128 39.024H54.704V42.72H46.128V39.024ZM44.592 43.68H55.36V45.392H46.544V48.72H44.592V43.68ZM54.448 43.68H56.432V46.976C56.432 47.4133 56.3733 47.76 56.256 48.016C56.1493 48.272 55.936 48.4747 55.616 48.624C55.2853 48.752 54.9013 48.8267 54.464 48.848C54.0267 48.88 53.5253 48.896 52.96 48.896C52.9173 48.64 52.832 48.3467 52.704 48.016C52.5867 47.6853 52.464 47.3973 52.336 47.152C52.5707 47.1627 52.8107 47.1733 53.056 47.184C53.312 47.184 53.536 47.184 53.728 47.184C53.9307 47.184 54.064 47.184 54.128 47.184C54.256 47.184 54.3413 47.168 54.384 47.136C54.4267 47.104 54.448 47.04 54.448 46.944V43.68ZM49.392 34.384H51.376V37.344H49.392V34.384ZM43.536 36.592H57.344V40.464H55.424V38.256H45.376V40.464H43.536V36.592ZM44.8 35.184L46.56 34.496C46.784 34.752 47.0027 35.04 47.216 35.36C47.44 35.68 47.6053 35.968 47.712 36.224L45.888 37.024C45.792 36.768 45.6427 36.4693 45.44 36.128C45.2373 35.776 45.024 35.4613 44.8 35.184ZM54.16 34.528L56.24 35.136C55.952 35.4773 55.6693 35.7973 55.392 36.096C55.1147 36.3947 54.864 36.6507 54.64 36.864L53.008 36.288C53.1467 36.1173 53.2853 35.9307 53.424 35.728C53.5733 35.5147 53.712 35.3067 53.84 35.104C53.9787 34.8907 54.0853 34.6987 54.16 34.528ZM67.024 37.36H74.512V39.136H67.024V37.36ZM67.424 41.968H74.208V43.696H67.424V41.968ZM69.84 38.048H71.712V48.192H69.84V38.048ZM68.08 35.68L69.2 34.304C69.616 34.4747 70.0533 34.6827 70.512 34.928C70.9707 35.1733 71.408 35.4293 71.824 35.696C72.24 35.952 72.576 36.2027 72.832 36.448L71.632 37.984C71.3867 37.7387 71.0667 37.4773 70.672 37.2C70.2773 36.912 69.8507 36.6347 69.392 36.368C68.944 36.1013 68.5067 35.872 68.08 35.68ZM61.344 37.456H66.288V38.896H61.344V37.456ZM61.344 39.856H66.288V41.312H61.344V39.856ZM60.416 42.272H65.888V43.76H60.416V42.272ZM63.04 35.904H64.592V43.12H63.04V35.904ZM63.76 44.448L64.512 44.192C64.6827 44.512 64.8373 44.8587 64.976 45.232C65.1253 45.6053 65.232 45.9307 65.296 46.208L64.496 46.528C64.4427 46.24 64.3467 45.904 64.208 45.52C64.0693 45.1253 63.92 44.768 63.76 44.448ZM62.656 44.656L63.472 44.496C63.6107 44.9013 63.728 45.3493 63.824 45.84C63.92 46.32 63.984 46.736 64.016 47.088L63.152 47.264C63.1307 46.912 63.072 46.4907 62.976 46C62.8907 45.5093 62.784 45.0613 62.656 44.656ZM61.536 44.768L62.384 44.672C62.448 45.1413 62.496 45.6533 62.528 46.208C62.56 46.752 62.5707 47.2213 62.56 47.616L61.664 47.744C61.696 47.3387 61.696 46.8587 61.664 46.304C61.6427 45.7493 61.6 45.2373 61.536 44.768ZM60.336 44.624L61.392 44.832C61.36 45.3227 61.312 45.808 61.248 46.288C61.1947 46.7573 61.104 47.2 60.976 47.616C60.8587 48.032 60.688 48.3947 60.464 48.704L59.472 48.16C59.6747 47.8827 59.8347 47.5573 59.952 47.184C60.0693 46.8107 60.1547 46.4053 60.208 45.968C60.272 45.52 60.3147 45.072 60.336 44.624ZM60.416 34.992H66.56V36.544H62.016V43.328H60.416V34.992ZM65.216 42.272H66.832C66.832 42.272 66.8267 42.3573 66.816 42.528C66.816 42.6987 66.8107 42.832 66.8 42.928C66.736 44.2187 66.672 45.2693 66.608 46.08C66.544 46.88 66.4693 47.4933 66.384 47.92C66.2987 48.3467 66.1867 48.6453 66.048 48.816C65.9093 48.9973 65.76 49.1253 65.6 49.2C65.4507 49.2853 65.2747 49.344 65.072 49.376C64.912 49.408 64.704 49.424 64.448 49.424C64.192 49.4347 63.92 49.4347 63.632 49.424C63.6213 49.1893 63.5787 48.928 63.504 48.64C63.44 48.352 63.3547 48.112 63.248 47.92C63.4613 47.9413 63.6533 47.9573 63.824 47.968C63.9947 47.968 64.1333 47.968 64.24 47.968C64.336 47.968 64.416 47.9573 64.48 47.936C64.544 47.904 64.608 47.8507 64.672 47.776C64.7573 47.6693 64.832 47.4347 64.896 47.072C64.96 46.7093 65.0187 46.1653 65.072 45.44C65.136 44.7147 65.184 43.7493 65.216 42.544V42.272ZM66.576 47.12H74.816V48.896H66.576V47.12ZM80.6889 41.92C80.6889 43.0613 80.5449 44.1067 80.2569 45.056C79.9689 46.0053 79.5849 46.8587 79.1049 47.616C78.6355 48.3733 78.1129 49.0347 77.5369 49.6L76.0169 48.928C76.5502 48.352 77.0302 47.7173 77.4569 47.024C77.8942 46.3307 78.2409 45.5627 78.4969 44.72C78.7529 43.8667 78.8809 42.9333 78.8809 41.92C78.8809 40.896 78.7529 39.9627 78.4969 39.12C78.2409 38.2773 77.8942 37.5093 77.4569 36.816C77.0302 36.112 76.5502 35.4773 76.0169 34.912L77.5369 34.24C78.1129 34.8053 78.6355 35.4667 79.1049 36.224C79.5849 36.9813 79.9689 37.8347 80.2569 38.784C80.5449 39.7333 80.6889 40.7787 80.6889 41.92Z" fill="#333333"/>
</svg>
