<svg width="240" height="108" viewBox="0 0 240 108" fill="none" xmlns="http://www.w3.org/2000/svg">
<path d="M10.512 20.6H13.392V24.56H10.512V20.6ZM1.872 23.12H22.392V27.68H19.584V25.064H4.536V27.68H1.872V23.12ZM8.352 27.56V28.568H15.672V27.56H8.352ZM5.688 25.976H18.528V30.152H5.688V25.976ZM4.032 21.392L6.6 20.72C6.92 21.072 7.224 21.464 7.512 21.896C7.8 22.328 8.032 22.704 8.208 23.024L5.568 23.888C5.424 23.552 5.208 23.152 4.92 22.688C4.632 22.208 4.336 21.776 4.032 21.392ZM17.52 20.648L20.52 21.344C20.136 21.856 19.752 22.328 19.368 22.76C18.984 23.192 18.64 23.568 18.336 23.888L15.96 23.216C16.232 22.848 16.52 22.424 16.824 21.944C17.128 21.448 17.36 21.016 17.52 20.648ZM7.032 34.856V35.744H17.208V34.856H7.032ZM7.032 37.208V38.096H17.208V37.208H7.032ZM7.032 32.528V33.392H17.208V32.528H7.032ZM4.32 30.992H20.04V39.632H4.32V30.992ZM7.968 39.536L10.728 40.592C10.12 40.992 9.4 41.368 8.568 41.72C7.736 42.072 6.864 42.376 5.952 42.632C5.04 42.904 4.168 43.128 3.336 43.304C3.176 43.112 2.96 42.872 2.688 42.584C2.432 42.312 2.176 42.048 1.92 41.792C1.664 41.536 1.424 41.328 1.2 41.168C2.048 41.056 2.896 40.928 3.744 40.784C4.608 40.624 5.408 40.44 6.144 40.232C6.896 40.024 7.504 39.792 7.968 39.536ZM13.296 40.928L15.504 39.368C16.352 39.592 17.224 39.84 18.12 40.112C19.032 40.368 19.888 40.632 20.688 40.904C21.504 41.176 22.2 41.424 22.776 41.648L19.776 43.184C19.296 42.976 18.704 42.744 18 42.488C17.312 42.232 16.56 41.96 15.744 41.672C14.944 41.4 14.128 41.152 13.296 40.928ZM32.448 29.024H42.936V31.688H32.448V29.024ZM33.48 23.648H46.2V26.408H33.48V23.648ZM27.072 34.232H48.84V36.992H27.072V34.232ZM41.952 29.024H44.904C44.904 29.024 44.896 29.104 44.88 29.264C44.88 29.408 44.872 29.584 44.856 29.792C44.856 29.984 44.848 30.152 44.832 30.296C44.64 32.76 44.432 34.784 44.208 36.368C44 37.936 43.76 39.16 43.488 40.04C43.232 40.904 42.92 41.528 42.552 41.912C42.184 42.328 41.8 42.608 41.4 42.752C41.016 42.896 40.544 43.008 39.984 43.088C39.536 43.136 38.936 43.152 38.184 43.136C37.448 43.136 36.688 43.12 35.904 43.088C35.872 42.672 35.76 42.184 35.568 41.624C35.392 41.08 35.16 40.608 34.872 40.208C35.704 40.272 36.48 40.32 37.2 40.352C37.936 40.368 38.48 40.376 38.832 40.376C39.104 40.376 39.328 40.36 39.504 40.328C39.696 40.28 39.872 40.184 40.032 40.04C40.32 39.8 40.576 39.28 40.8 38.48C41.024 37.68 41.232 36.544 41.424 35.072C41.616 33.6 41.792 31.744 41.952 29.504V29.024ZM32.52 20.576L35.52 20.864C35.36 21.856 35.176 22.888 34.968 23.96C34.776 25.016 34.576 26.072 34.368 27.128C34.16 28.184 33.952 29.192 33.744 30.152C33.552 31.112 33.368 31.968 33.192 32.72L30.144 32.456C30.352 31.704 30.56 30.84 30.768 29.864C30.992 28.888 31.208 27.872 31.416 26.816C31.64 25.744 31.84 24.68 32.016 23.624C32.208 22.552 32.376 21.536 32.52 20.576ZM57.84 28.616C57.2 28.616 56.656 28.4 56.208 27.968C55.776 27.536 55.56 27.008 55.56 26.384C55.56 25.712 55.776 25.168 56.208 24.752C56.656 24.32 57.2 24.104 57.84 24.104C58.48 24.104 59.016 24.32 59.448 24.752C59.896 25.168 60.12 25.712 60.12 26.384C60.12 27.008 59.896 27.536 59.448 27.968C59.016 28.4 58.48 28.616 57.84 28.616ZM57.84 40.064C57.2 40.064 56.656 39.848 56.208 39.416C55.776 38.984 55.56 38.456 55.56 37.832C55.56 37.16 55.776 36.616 56.208 36.2C56.656 35.768 57.2 35.552 57.84 35.552C58.48 35.552 59.016 35.768 59.448 36.2C59.896 36.616 60.12 37.16 60.12 37.832C60.12 38.456 59.896 38.984 59.448 39.416C59.016 39.848 58.48 40.064 57.84 40.064ZM71.712 20.504L74.664 21.272C74.232 22.456 73.72 23.616 73.128 24.752C72.552 25.888 71.92 26.944 71.232 27.92C70.56 28.88 69.864 29.72 69.144 30.44C68.952 30.28 68.704 30.08 68.4 29.84C68.096 29.584 67.784 29.344 67.464 29.12C67.16 28.896 66.888 28.712 66.648 28.568C67.384 27.944 68.072 27.208 68.712 26.36C69.352 25.496 69.928 24.568 70.44 23.576C70.952 22.568 71.376 21.544 71.712 20.504ZM72.24 23.24H87.504V26.024H70.848L72.24 23.24ZM70.536 28.928H86.928V31.616H73.416V36.656H70.536V28.928ZM66.72 35.24H88.8V38H66.72V35.24ZM77.592 24.68H80.568V43.16H77.592V24.68ZM92.9691 41V37.1523L104.082 23.2461C104.512 22.6862 104.805 22.1654 104.961 21.6836C105.065 21.2279 105.118 20.7982 105.118 20.3945C105.118 19.3268 104.785 18.3958 104.121 17.6016C103.431 16.8073 102.455 16.3971 101.192 16.3711C100.072 16.3711 99.1409 16.7292 98.3988 17.4453C97.6305 18.1615 97.1748 19.1706 97.0316 20.4727H92.9691C93.0732 18.1029 93.8675 16.1432 95.3519 14.5938C96.8493 13.0833 98.6917 12.3151 100.879 12.2891C103.327 12.3151 105.313 13.0964 106.836 14.6328C108.386 16.1562 109.173 18.0898 109.2 20.4336C109.2 22.3086 108.627 23.9753 107.481 25.4336L98.3206 36.918H109.2V41H92.9691ZM123.819 29.696V33.872H128.043V29.696H123.819ZM121.107 27.176H130.947V36.368H121.107V27.176ZM115.803 21.416H136.419V43.136H133.275V24.368H118.803V43.136H115.803V21.416ZM117.507 39.152H135.051V41.84H117.507V39.152ZM144.158 33.4C144.158 31.9733 144.338 30.6667 144.698 29.48C145.058 28.2933 145.538 27.2267 146.138 26.28C146.738 25.3333 147.391 24.5067 148.098 23.8L149.998 24.64C149.331 25.3467 148.724 26.14 148.178 27.02C147.644 27.8867 147.218 28.8467 146.898 29.9C146.578 30.9533 146.418 32.12 146.418 33.4C146.418 34.6667 146.578 35.8333 146.898 36.9C147.218 37.9533 147.644 38.9133 148.178 39.78C148.724 40.6467 149.331 41.44 149.998 42.16L148.098 43C147.391 42.2933 146.738 41.4667 146.138 40.52C145.538 39.5733 145.058 38.5067 144.698 37.32C144.338 36.1333 144.158 34.8267 144.158 33.4ZM152.479 41V39.3C153.825 38.1 154.972 36.9867 155.919 35.96C156.879 34.9333 157.612 33.98 158.119 33.1C158.625 32.2067 158.879 31.38 158.879 30.62C158.879 30.14 158.792 29.72 158.619 29.36C158.445 29 158.192 28.7267 157.859 28.54C157.539 28.34 157.139 28.24 156.659 28.24C156.125 28.24 155.632 28.3933 155.179 28.7C154.739 28.9933 154.332 29.3467 153.959 29.76L152.319 28.18C153.012 27.4333 153.719 26.8733 154.439 26.5C155.172 26.1133 156.039 25.92 157.039 25.92C157.972 25.92 158.785 26.1133 159.479 26.5C160.185 26.8733 160.732 27.4 161.119 28.08C161.505 28.76 161.699 29.56 161.699 30.48C161.699 31.3733 161.472 32.2867 161.019 33.22C160.579 34.14 159.985 35.06 159.239 35.98C158.492 36.9 157.665 37.8067 156.759 38.7C157.145 38.6467 157.559 38.6067 157.999 38.58C158.452 38.54 158.852 38.52 159.199 38.52H162.399V41H152.479ZM169.976 23.92L172.436 24.56C172.076 25.5467 171.649 26.5133 171.156 27.46C170.676 28.4067 170.149 29.2867 169.576 30.1C169.016 30.9 168.436 31.6 167.836 32.2C167.676 32.0667 167.469 31.9 167.216 31.7C166.962 31.4867 166.702 31.2867 166.436 31.1C166.182 30.9133 165.956 30.76 165.756 30.64C166.369 30.12 166.942 29.5067 167.476 28.8C168.009 28.08 168.489 27.3067 168.916 26.48C169.342 25.64 169.696 24.7867 169.976 23.92ZM170.416 26.2H183.136V28.52H169.256L170.416 26.2ZM168.996 30.94H182.656V33.18H171.396V37.38H168.996V30.94ZM165.816 36.2H184.216V38.5H165.816V36.2ZM174.876 27.4H177.356V42.8H174.876V27.4ZM191.156 29.72H202.016V32H191.156V29.72ZM191.156 34.36H202.016V36.64H191.156V34.36ZM191.156 38.98H202.016V41.32H191.156V38.98ZM189.436 25.1H203.696V42.58H201.136V27.44H191.856V42.58H189.436V25.1ZM217.316 34.26C216.876 33.8067 216.442 33.4533 216.016 33.2C215.589 32.9467 215.029 32.82 214.336 32.82C213.696 32.82 213.096 33.0467 212.536 33.5C211.989 33.94 211.529 34.5133 211.156 35.22L208.956 34.02C209.636 32.78 210.442 31.86 211.376 31.26C212.309 30.6467 213.316 30.34 214.396 30.34C215.356 30.34 216.209 30.52 216.956 30.88C217.716 31.24 218.436 31.7933 219.116 32.54C219.556 32.9933 219.989 33.3467 220.416 33.6C220.856 33.8533 221.416 33.98 222.096 33.98C222.736 33.98 223.329 33.76 223.876 33.32C224.436 32.8667 224.902 32.2867 225.276 31.58L227.476 32.78C226.796 34.02 225.989 34.9467 225.056 35.56C224.122 36.16 223.116 36.46 222.036 36.46C221.089 36.46 220.236 36.28 219.476 35.92C218.716 35.56 217.996 35.0067 217.316 34.26ZM235.677 33.4C235.677 34.8267 235.497 36.1333 235.137 37.32C234.777 38.5067 234.297 39.5733 233.697 40.52C233.11 41.4667 232.457 42.2933 231.737 43L229.837 42.16C230.503 41.44 231.103 40.6467 231.637 39.78C232.183 38.9133 232.617 37.9533 232.937 36.9C233.257 35.8333 233.417 34.6667 233.417 33.4C233.417 32.12 233.257 30.9533 232.937 29.9C232.617 28.8467 232.183 27.8867 231.637 27.02C231.103 26.14 230.503 25.3467 229.837 24.64L231.737 23.8C232.457 24.5067 233.11 25.3333 233.697 26.28C234.297 27.2267 234.777 28.2933 235.137 29.48C235.497 30.6667 235.677 31.9733 235.677 33.4Z" fill="#333333"/>
<path d="M6.24 81.08V82.328H17.592V81.08H6.24ZM6.24 77.768V78.992H17.592V77.768H6.24ZM3.408 75.512H20.568V84.56H3.408V75.512ZM1.032 89.24H22.992V91.76H1.032V89.24ZM15.36 85.112H18.312V97.112H15.36V85.112ZM7.176 86.744H10.008V89.648C10.008 90.368 9.928 91.088 9.768 91.808C9.624 92.512 9.328 93.2 8.88 93.872C8.448 94.528 7.808 95.136 6.96 95.696C6.112 96.256 4.992 96.744 3.6 97.16C3.488 96.936 3.336 96.672 3.144 96.368C2.952 96.08 2.744 95.792 2.52 95.504C2.296 95.232 2.088 95.008 1.896 94.832C3.064 94.512 4 94.152 4.704 93.752C5.408 93.336 5.936 92.904 6.288 92.456C6.64 91.992 6.872 91.512 6.984 91.016C7.112 90.52 7.176 90.032 7.176 89.552V86.744ZM11.592 84.56L13.728 86.528C12.752 86.864 11.664 87.16 10.464 87.416C9.264 87.656 8.032 87.856 6.768 88.016C5.52 88.176 4.304 88.304 3.12 88.4C3.072 88.096 2.968 87.736 2.808 87.32C2.664 86.904 2.52 86.552 2.376 86.264C3.496 86.152 4.624 86.016 5.76 85.856C6.896 85.696 7.968 85.504 8.976 85.28C10 85.056 10.872 84.816 11.592 84.56ZM38.184 82.304H46.104V84.92H38.184V82.304ZM38.424 93.32H46.44V95.864H38.424V93.32ZM41.976 77.864C41.56 78.568 41.04 79.328 40.416 80.144C39.792 80.96 39.112 81.76 38.376 82.544C37.64 83.328 36.872 84.032 36.072 84.656C35.896 84.272 35.648 83.84 35.328 83.36C35.024 82.864 34.728 82.456 34.44 82.136C35.256 81.56 36.056 80.856 36.84 80.024C37.624 79.176 38.336 78.312 38.976 77.432C39.616 76.536 40.128 75.712 40.512 74.96H43.248C43.792 75.792 44.408 76.648 45.096 77.528C45.8 78.408 46.536 79.224 47.304 79.976C48.088 80.728 48.864 81.344 49.632 81.824C49.344 82.192 49.04 82.616 48.72 83.096C48.4 83.576 48.12 84.048 47.88 84.512C47.176 83.952 46.448 83.288 45.696 82.52C44.96 81.736 44.264 80.936 43.608 80.12C42.968 79.304 42.424 78.552 41.976 77.864ZM36.936 87.056H47.64V97.04H44.88V89.576H39.576V97.136H36.936V87.056ZM30.24 74.624L32.736 75.56C32.416 76.168 32.08 76.8 31.728 77.456C31.376 78.112 31.032 78.736 30.696 79.328C30.36 79.92 30.04 80.432 29.736 80.864L27.816 80.048C28.104 79.552 28.4 78.992 28.704 78.368C29.008 77.744 29.296 77.104 29.568 76.448C29.84 75.792 30.064 75.184 30.24 74.624ZM33 77.48L35.352 78.536C34.776 79.448 34.144 80.408 33.456 81.416C32.768 82.408 32.08 83.368 31.392 84.296C30.704 85.208 30.056 86.008 29.448 86.696L27.768 85.76C28.216 85.216 28.68 84.608 29.16 83.936C29.64 83.248 30.112 82.536 30.576 81.8C31.056 81.048 31.504 80.304 31.92 79.568C32.336 78.816 32.696 78.12 33 77.48ZM26.544 80.312L27.936 78.344C28.352 78.712 28.776 79.12 29.208 79.568C29.656 80 30.064 80.44 30.432 80.888C30.816 81.32 31.104 81.712 31.296 82.064L29.832 84.296C29.64 83.912 29.36 83.488 28.992 83.024C28.64 82.56 28.248 82.088 27.816 81.608C27.384 81.128 26.96 80.696 26.544 80.312ZM32.304 83.192L34.2 82.4C34.504 82.944 34.8 83.528 35.088 84.152C35.392 84.76 35.648 85.36 35.856 85.952C36.08 86.528 36.232 87.048 36.312 87.512L34.272 88.424C34.192 87.96 34.048 87.432 33.84 86.84C33.648 86.232 33.416 85.608 33.144 84.968C32.872 84.328 32.592 83.736 32.304 83.192ZM26.52 85.184C27.624 85.152 28.944 85.104 30.48 85.04C32.016 84.976 33.576 84.912 35.16 84.848L35.136 87.128C33.648 87.24 32.168 87.344 30.696 87.44C29.24 87.536 27.928 87.624 26.76 87.704L26.52 85.184ZM32.808 89.168L34.824 88.52C35.128 89.208 35.416 89.96 35.688 90.776C35.976 91.576 36.192 92.28 36.336 92.888L34.2 93.656C34.088 93.048 33.896 92.328 33.624 91.496C33.352 90.648 33.08 89.872 32.808 89.168ZM27.576 88.712L29.952 89.144C29.824 90.296 29.632 91.432 29.376 92.552C29.12 93.672 28.824 94.616 28.488 95.384C28.328 95.272 28.112 95.144 27.84 95C27.568 94.872 27.288 94.744 27 94.616C26.728 94.488 26.488 94.392 26.28 94.328C26.632 93.608 26.912 92.752 27.12 91.76C27.328 90.752 27.48 89.736 27.576 88.712ZM30.264 86.456H32.784V97.16H30.264V86.456ZM57.84 82.616C57.2 82.616 56.656 82.4 56.208 81.968C55.776 81.536 55.56 81.008 55.56 80.384C55.56 79.712 55.776 79.168 56.208 78.752C56.656 78.32 57.2 78.104 57.84 78.104C58.48 78.104 59.016 78.32 59.448 78.752C59.896 79.168 60.12 79.712 60.12 80.384C60.12 81.008 59.896 81.536 59.448 81.968C59.016 82.4 58.48 82.616 57.84 82.616ZM57.84 94.064C57.2 94.064 56.656 93.848 56.208 93.416C55.776 92.984 55.56 92.456 55.56 91.832C55.56 91.16 55.776 90.616 56.208 90.2C56.656 89.768 57.2 89.552 57.84 89.552C58.48 89.552 59.016 89.768 59.448 90.2C59.896 90.616 60.12 91.16 60.12 91.832C60.12 92.456 59.896 92.984 59.448 93.416C59.016 93.848 58.48 94.064 57.84 94.064ZM71.712 74.504L74.664 75.272C74.232 76.456 73.72 77.616 73.128 78.752C72.552 79.888 71.92 80.944 71.232 81.92C70.56 82.88 69.864 83.72 69.144 84.44C68.952 84.28 68.704 84.08 68.4 83.84C68.096 83.584 67.784 83.344 67.464 83.12C67.16 82.896 66.888 82.712 66.648 82.568C67.384 81.944 68.072 81.208 68.712 80.36C69.352 79.496 69.928 78.568 70.44 77.576C70.952 76.568 71.376 75.544 71.712 74.504ZM72.24 77.24H87.504V80.024H70.848L72.24 77.24ZM70.536 82.928H86.928V85.616H73.416V90.656H70.536V82.928ZM66.72 89.24H88.8V92H66.72V89.24ZM77.592 78.68H80.568V97.16H77.592V78.68ZM99.4339 70.8398L95.3909 73.8086V69.4727L99.4339 66.5234H103.516V95H99.4339V70.8398ZM123.819 83.696V87.872H128.043V83.696H123.819ZM121.107 81.176H130.947V90.368H121.107V81.176ZM115.803 75.416H136.419V97.136H133.275V78.368H118.803V97.136H115.803V75.416ZM117.507 93.152H135.051V95.84H117.507V93.152ZM144.158 87.4C144.158 85.9733 144.338 84.6667 144.698 83.48C145.058 82.2933 145.538 81.2267 146.138 80.28C146.738 79.3333 147.391 78.5067 148.098 77.8L149.998 78.64C149.331 79.3467 148.724 80.14 148.178 81.02C147.644 81.8867 147.218 82.8467 146.898 83.9C146.578 84.9533 146.418 86.12 146.418 87.4C146.418 88.6667 146.578 89.8333 146.898 90.9C147.218 91.9533 147.644 92.9133 148.178 93.78C148.724 94.6467 149.331 95.44 149.998 96.16L148.098 97C147.391 96.2933 146.738 95.4667 146.138 94.52C145.538 93.5733 145.058 92.5067 144.698 91.32C144.338 90.1333 144.158 88.8267 144.158 87.4ZM155.339 95C155.405 93.72 155.519 92.54 155.679 91.46C155.839 90.3667 156.065 89.34 156.359 88.38C156.652 87.4067 157.032 86.4533 157.499 85.52C157.979 84.5867 158.572 83.6333 159.279 82.66H152.619V80.18H162.459V81.98C161.605 83.02 160.912 84.02 160.379 84.98C159.859 85.94 159.459 86.9133 159.179 87.9C158.912 88.8867 158.712 89.9533 158.579 91.1C158.459 92.2467 158.365 93.5467 158.299 95H155.339ZM170.416 78.96H180.396V81.3H170.416V78.96ZM170.436 83.74H180.496V86.02H170.436V83.74ZM170.316 88.46H180.356V90.8H170.316V88.46ZM168.756 78.96H171.236V85.58C171.236 86.4467 171.182 87.38 171.076 88.38C170.982 89.38 170.802 90.3933 170.536 91.42C170.269 92.4467 169.876 93.42 169.356 94.34C168.836 95.26 168.149 96.08 167.296 96.8C167.176 96.6267 167.002 96.4267 166.776 96.2C166.562 95.9733 166.329 95.7533 166.076 95.54C165.836 95.3267 165.622 95.1667 165.436 95.06C166.196 94.42 166.796 93.7133 167.236 92.94C167.689 92.1533 168.022 91.34 168.236 90.5C168.462 89.66 168.602 88.82 168.656 87.98C168.722 87.14 168.756 86.3333 168.756 85.56V78.96ZM179.276 78.96H181.836V93.74C181.836 94.46 181.736 95.0133 181.536 95.4C181.349 95.7867 181.022 96.08 180.556 96.28C180.076 96.4933 179.476 96.62 178.756 96.66C178.036 96.7133 177.156 96.74 176.116 96.74C176.062 96.5 175.982 96.2267 175.876 95.92C175.769 95.6133 175.649 95.3067 175.516 95C175.382 94.6933 175.249 94.4333 175.116 94.22C175.582 94.2467 176.056 94.2667 176.536 94.28C177.029 94.28 177.462 94.28 177.836 94.28C178.222 94.28 178.496 94.28 178.656 94.28C178.882 94.28 179.042 94.24 179.136 94.16C179.229 94.0667 179.276 93.9133 179.276 93.7V78.96ZM192.477 87.4C192.477 88.8267 192.297 90.1333 191.937 91.32C191.577 92.5067 191.097 93.5733 190.497 94.52C189.91 95.4667 189.257 96.2933 188.537 97L186.637 96.16C187.303 95.44 187.903 94.6467 188.437 93.78C188.983 92.9133 189.417 91.9533 189.737 90.9C190.057 89.8333 190.217 88.6667 190.217 87.4C190.217 86.12 190.057 84.9533 189.737 83.9C189.417 82.8467 188.983 81.8867 188.437 81.02C187.903 80.14 187.303 79.3467 186.637 78.64L188.537 77.8C189.257 78.5067 189.91 79.3333 190.497 80.28C191.097 81.2267 191.577 82.2933 191.937 83.48C192.297 84.6667 192.477 85.9733 192.477 87.4Z" fill="#333333"/>
</svg>
