<svg width="126" height="79" viewBox="0 0 126 79" fill="none" xmlns="http://www.w3.org/2000/svg">
<path d="M2.496 8.88H29.76V12.624H2.496V8.88ZM16.8 19.696H28.128V23.44H16.8V19.696ZM1.408 31.92H30.656V35.664H1.408V31.92ZM14.944 10.384H19.008V33.744H14.944V10.384ZM5.376 17.616H9.376V33.904H5.376V17.616ZM35.36 11.728H47.136V15.12H35.36V11.728ZM34.848 19.152H47.616V22.64H34.848V19.152ZM39.52 7.12H43.104V18.704C43.104 20.1973 43.0293 21.7547 42.88 23.376C42.752 24.9973 42.4747 26.608 42.048 28.208C41.6427 29.7867 41.0347 31.28 40.224 32.688C39.4347 34.096 38.368 35.3547 37.024 36.464C36.8533 36.208 36.6187 35.8987 36.32 35.536C36.0213 35.1947 35.7013 34.8533 35.36 34.512C35.0187 34.192 34.6987 33.9253 34.4 33.712C35.5947 32.8373 36.5333 31.792 37.216 30.576C37.92 29.36 38.432 28.0693 38.752 26.704C39.072 25.3387 39.2747 23.9733 39.36 22.608C39.4667 21.2213 39.52 19.92 39.52 18.704V7.12ZM42.592 23.152C42.8267 23.344 43.136 23.6533 43.52 24.08C43.904 24.4853 44.32 24.944 44.768 25.456C45.216 25.968 45.664 26.48 46.112 26.992C46.56 27.504 46.9653 27.9627 47.328 28.368C47.6907 28.7733 47.9467 29.072 48.096 29.264L45.504 32.016C45.184 31.5253 44.8 30.96 44.352 30.32C43.904 29.68 43.424 29.0293 42.912 28.368C42.4213 27.6853 41.9413 27.0453 41.472 26.448C41.0027 25.8507 40.5973 25.3493 40.256 24.944L42.592 23.152ZM52.16 16.24V18.128H59.168V16.24H52.16ZM52.16 21.136V23.056H59.168V21.136H52.16ZM52.16 11.344V13.2H59.168V11.344H52.16ZM48.608 7.952H62.88V26.448H48.608V7.952ZM55.904 25.232H59.456V31.952C59.456 32.3787 59.488 32.6453 59.552 32.752C59.616 32.8587 59.7653 32.912 60 32.912C60.0427 32.912 60.1387 32.912 60.288 32.912C60.4373 32.912 60.5867 32.912 60.736 32.912C60.9067 32.912 61.024 32.912 61.088 32.912C61.28 32.912 61.4187 32.8373 61.504 32.688C61.5893 32.5173 61.6533 32.1653 61.696 31.632C61.7387 31.0773 61.7707 30.224 61.792 29.072C62.0267 29.264 62.3253 29.456 62.688 29.648C63.072 29.84 63.4667 30.0107 63.872 30.16C64.2987 30.288 64.6613 30.4053 64.96 30.512C64.8533 32.0267 64.672 33.2 64.416 34.032C64.16 34.864 63.7973 35.44 63.328 35.76C62.8587 36.08 62.24 36.24 61.472 36.24C61.344 36.24 61.184 36.24 60.992 36.24C60.8 36.24 60.5973 36.24 60.384 36.24C60.192 36.24 60 36.24 59.808 36.24C59.6373 36.24 59.488 36.24 59.36 36.24C58.4213 36.24 57.696 36.1013 57.184 35.824C56.672 35.568 56.3307 35.12 56.16 34.48C55.9893 33.8613 55.904 33.0293 55.904 31.984V25.232ZM50.72 25.872H54.336C54.1867 27.1307 53.9733 28.3147 53.696 29.424C53.44 30.512 53.0347 31.5147 52.48 32.432C51.9253 33.3493 51.1787 34.1813 50.24 34.928C49.3013 35.696 48.096 36.3467 46.624 36.88C46.432 36.4533 46.1227 35.952 45.696 35.376C45.2907 34.8 44.896 34.352 44.512 34.032C46.176 33.4773 47.424 32.8053 48.256 32.016C49.1093 31.2053 49.696 30.288 50.016 29.264C50.3573 28.24 50.592 27.1093 50.72 25.872Z" fill="#333333"/>
<path d="M4.96669 63.88C4.96669 62.168 5.18269 60.6 5.61469 59.176C6.04669 57.752 6.62269 56.472 7.34269 55.336C8.06269 54.2 8.84669 53.208 9.69469 52.36L11.9747 53.368C11.1747 54.216 10.4467 55.168 9.79069 56.224C9.15069 57.264 8.63869 58.416 8.25469 59.68C7.87069 60.944 7.67869 62.344 7.67869 63.88C7.67869 65.4 7.87069 66.8 8.25469 68.08C8.63869 69.344 9.15069 70.496 9.79069 71.536C10.4467 72.576 11.1747 73.528 11.9747 74.392L9.69469 75.4C8.84669 74.552 8.06269 73.56 7.34269 72.424C6.62269 71.288 6.04669 70.008 5.61469 68.584C5.18269 67.16 4.96669 65.592 4.96669 63.88ZM22.152 57.112L25.224 57.736C24.312 59.016 23.216 60.2 21.936 61.288C20.656 62.36 19.088 63.32 17.232 64.168C17.12 63.944 16.952 63.696 16.728 63.424C16.504 63.152 16.272 62.888 16.032 62.632C15.792 62.376 15.56 62.176 15.336 62.032C17.032 61.392 18.44 60.64 19.56 59.776C20.696 58.896 21.56 58.008 22.152 57.112ZM22.8 58.744H29.976V60.88H20.856L22.8 58.744ZM29.112 58.744H29.664L30.168 58.6L32.112 59.776C31.312 61.104 30.312 62.288 29.112 63.328C27.912 64.352 26.56 65.248 25.056 66.016C23.568 66.784 21.984 67.44 20.304 67.984C18.64 68.512 16.944 68.944 15.216 69.28C15.088 68.912 14.896 68.48 14.64 67.984C14.384 67.472 14.128 67.056 13.872 66.736C15.472 66.496 17.048 66.152 18.6 65.704C20.168 65.256 21.632 64.72 22.992 64.096C24.368 63.456 25.584 62.72 26.64 61.888C27.696 61.056 28.52 60.144 29.112 59.152V58.744ZM21.672 60.352C22.6 61.392 23.808 62.296 25.296 63.064C26.8 63.832 28.504 64.472 30.408 64.984C32.328 65.48 34.36 65.832 36.504 66.04C36.296 66.264 36.072 66.544 35.832 66.88C35.608 67.2 35.392 67.536 35.184 67.888C34.976 68.224 34.808 68.528 34.68 68.8C32.472 68.496 30.4 68.032 28.464 67.408C26.544 66.768 24.8 65.96 23.232 64.984C21.664 63.992 20.312 62.816 19.176 61.456L21.672 60.352ZM18.408 67.624H32.232V75.112H29.256V70H21.24V75.16H18.408V67.624ZM19.824 72.04H30.696V74.416H19.824V72.04ZM23.64 52.624H26.616V56.032H23.64V52.624ZM14.856 54.568H35.544V59.896H32.592V57.184H17.688V59.896H14.856V54.568ZM51.936 64.672H54.84V71.152C54.84 71.552 54.888 71.808 54.984 71.92C55.096 72.016 55.336 72.064 55.704 72.064C55.8 72.064 55.936 72.064 56.112 72.064C56.304 72.064 56.512 72.064 56.736 72.064C56.96 72.064 57.168 72.064 57.36 72.064C57.552 72.064 57.704 72.064 57.816 72.064C58.056 72.064 58.232 71.992 58.344 71.848C58.472 71.688 58.56 71.376 58.608 70.912C58.672 70.432 58.72 69.72 58.752 68.776C58.944 68.92 59.192 69.072 59.496 69.232C59.816 69.392 60.144 69.528 60.48 69.64C60.832 69.752 61.128 69.848 61.368 69.928C61.272 71.192 61.112 72.184 60.888 72.904C60.664 73.608 60.328 74.096 59.88 74.368C59.432 74.64 58.832 74.776 58.08 74.776C57.936 74.776 57.736 74.776 57.48 74.776C57.224 74.776 56.952 74.776 56.664 74.776C56.376 74.776 56.104 74.776 55.848 74.776C55.608 74.776 55.424 74.776 55.296 74.776C54.384 74.776 53.688 74.664 53.208 74.44C52.728 74.216 52.392 73.84 52.2 73.312C52.024 72.784 51.936 72.072 51.936 71.176V64.672ZM39.72 62.536H61.152V65.32H39.72V62.536ZM43.68 55.864H59.256V58.624H43.68V55.864ZM45.48 64.696H48.504C48.392 65.832 48.208 66.92 47.952 67.96C47.712 69 47.328 69.976 46.8 70.888C46.288 71.784 45.576 72.6 44.664 73.336C43.768 74.088 42.592 74.736 41.136 75.28C41.04 75.008 40.888 74.712 40.68 74.392C40.472 74.088 40.248 73.784 40.008 73.48C39.784 73.192 39.56 72.944 39.336 72.736C40.616 72.32 41.64 71.832 42.408 71.272C43.192 70.712 43.784 70.088 44.184 69.4C44.6 68.696 44.896 67.952 45.072 67.168C45.264 66.384 45.4 65.56 45.48 64.696ZM43.632 52.96L46.56 53.536C46.32 54.48 46.016 55.464 45.648 56.488C45.296 57.512 44.896 58.496 44.448 59.44C44 60.384 43.504 61.216 42.96 61.936C42.736 61.776 42.472 61.616 42.168 61.456C41.864 61.28 41.552 61.12 41.232 60.976C40.912 60.832 40.64 60.72 40.416 60.64C40.928 59.968 41.392 59.192 41.808 58.312C42.24 57.432 42.608 56.528 42.912 55.6C43.232 54.656 43.472 53.776 43.632 52.96ZM48.96 52.6H51.888V63.376H48.96V52.6ZM74.376 64.504H77.352V75.16H74.376V64.504ZM71.952 61.552V63.064H79.128V61.552H71.952ZM69.192 59.536H82.056V65.08H69.192V59.536ZM66.888 66.52H83.04V69.088H69.816V74.08H66.888V66.52ZM81.672 66.52H84.648V71.464C84.648 72.12 84.56 72.64 84.384 73.024C84.224 73.408 83.904 73.712 83.424 73.936C82.928 74.128 82.352 74.24 81.696 74.272C81.04 74.32 80.288 74.344 79.44 74.344C79.376 73.96 79.248 73.52 79.056 73.024C78.88 72.528 78.696 72.096 78.504 71.728C78.856 71.744 79.216 71.76 79.584 71.776C79.968 71.776 80.304 71.776 80.592 71.776C80.896 71.776 81.096 71.776 81.192 71.776C81.384 71.776 81.512 71.752 81.576 71.704C81.64 71.656 81.672 71.56 81.672 71.416V66.52ZM74.088 52.576H77.064V57.016H74.088V52.576ZM65.304 55.888H86.016V61.696H83.136V58.384H68.064V61.696H65.304V55.888ZM67.2 53.776L69.84 52.744C70.176 53.128 70.504 53.56 70.824 54.04C71.16 54.52 71.408 54.952 71.568 55.336L68.832 56.536C68.688 56.152 68.464 55.704 68.16 55.192C67.856 54.664 67.536 54.192 67.2 53.776ZM81.24 52.792L84.36 53.704C83.928 54.216 83.504 54.696 83.088 55.144C82.672 55.592 82.296 55.976 81.96 56.296L79.512 55.432C79.72 55.176 79.928 54.896 80.136 54.592C80.36 54.272 80.568 53.96 80.76 53.656C80.968 53.336 81.128 53.048 81.24 52.792ZM100.536 57.04H111.768V59.704H100.536V57.04ZM101.136 63.952H111.312V66.544H101.136V63.952ZM104.76 58.072H107.568V73.288H104.76V58.072ZM102.12 54.52L103.8 52.456C104.424 52.712 105.08 53.024 105.768 53.392C106.456 53.76 107.112 54.144 107.736 54.544C108.36 54.928 108.864 55.304 109.248 55.672L107.448 57.976C107.08 57.608 106.6 57.216 106.008 56.8C105.416 56.368 104.776 55.952 104.088 55.552C103.416 55.152 102.76 54.808 102.12 54.52ZM92.016 57.184H99.432V59.344H92.016V57.184ZM92.016 60.784H99.432V62.968H92.016V60.784ZM90.624 64.408H98.832V66.64H90.624V64.408ZM94.56 54.856H96.888V65.68H94.56V54.856ZM95.64 67.672L96.768 67.288C97.024 67.768 97.256 68.288 97.464 68.848C97.688 69.408 97.848 69.896 97.944 70.312L96.744 70.792C96.664 70.36 96.52 69.856 96.312 69.28C96.104 68.688 95.88 68.152 95.64 67.672ZM93.984 67.984L95.208 67.744C95.416 68.352 95.592 69.024 95.736 69.76C95.88 70.48 95.976 71.104 96.024 71.632L94.728 71.896C94.696 71.368 94.608 70.736 94.464 70C94.336 69.264 94.176 68.592 93.984 67.984ZM92.304 68.152L93.576 68.008C93.672 68.712 93.744 69.48 93.792 70.312C93.84 71.128 93.856 71.832 93.84 72.424L92.496 72.616C92.544 72.008 92.544 71.288 92.496 70.456C92.464 69.624 92.4 68.856 92.304 68.152ZM90.504 67.936L92.088 68.248C92.04 68.984 91.968 69.712 91.872 70.432C91.792 71.136 91.656 71.8 91.464 72.424C91.288 73.048 91.032 73.592 90.696 74.056L89.208 73.24C89.512 72.824 89.752 72.336 89.928 71.776C90.104 71.216 90.232 70.608 90.312 69.952C90.408 69.28 90.472 68.608 90.504 67.936ZM90.624 53.488H99.84V55.816H93.024V65.992H90.624V53.488ZM97.824 64.408H100.248C100.248 64.408 100.24 64.536 100.224 64.792C100.224 65.048 100.216 65.248 100.2 65.392C100.104 67.328 100.008 68.904 99.912 70.12C99.816 71.32 99.704 72.24 99.576 72.88C99.448 73.52 99.28 73.968 99.072 74.224C98.864 74.496 98.64 74.688 98.4 74.8C98.176 74.928 97.912 75.016 97.608 75.064C97.368 75.112 97.056 75.136 96.672 75.136C96.288 75.152 95.88 75.152 95.448 75.136C95.432 74.784 95.368 74.392 95.256 73.96C95.16 73.528 95.032 73.168 94.872 72.88C95.192 72.912 95.48 72.936 95.736 72.952C95.992 72.952 96.2 72.952 96.36 72.952C96.504 72.952 96.624 72.936 96.72 72.904C96.816 72.856 96.912 72.776 97.008 72.664C97.136 72.504 97.248 72.152 97.344 71.608C97.44 71.064 97.528 70.248 97.608 69.16C97.704 68.072 97.776 66.624 97.824 64.816V64.408ZM99.864 71.68H112.224V74.344H99.864V71.68ZM121.033 63.88C121.033 65.592 120.817 67.16 120.385 68.584C119.953 70.008 119.377 71.288 118.657 72.424C117.953 73.56 117.169 74.552 116.305 75.4L114.025 74.392C114.825 73.528 115.545 72.576 116.185 71.536C116.841 70.496 117.361 69.344 117.745 68.08C118.129 66.8 118.321 65.4 118.321 63.88C118.321 62.344 118.129 60.944 117.745 59.68C117.361 58.416 116.841 57.264 116.185 56.224C115.545 55.168 114.825 54.216 114.025 53.368L116.305 52.36C117.169 53.208 117.953 54.2 118.657 55.336C119.377 56.472 119.953 57.752 120.385 59.176C120.817 60.6 121.033 62.168 121.033 63.88Z" fill="#333333"/>
</svg>
