<svg width="148" height="69" viewBox="0 0 148 69" fill="none" xmlns="http://www.w3.org/2000/svg">
<path d="M3.375 33C3.36458 33 3.45312 32.8125 3.64062 32.4375C3.82812 32.0521 4.07292 31.5573 4.375 30.9531C4.67708 30.349 5.01562 29.6771 5.39062 28.9375C5.76562 28.1979 6.13542 27.4688 6.5 26.75C6.86458 26.0312 7.20312 25.3698 7.51562 24.7656C7.83854 24.1615 8.09896 23.6875 8.29688 23.3438C7.99479 23.5208 7.65104 23.6302 7.26562 23.6719C6.89062 23.7031 6.45312 23.7083 5.95312 23.6875C5.26562 23.6667 4.66146 23.5417 4.14062 23.3125C3.63021 23.0833 3.1875 22.7969 2.8125 22.4531C2.4375 22.1094 2.125 21.7292 1.875 21.3125C1.625 20.8854 1.42188 20.474 1.26562 20.0781C1.11979 19.6719 1.01042 19.2969 0.9375 18.9531C0.875 18.599 0.84375 18.3229 0.84375 18.125C0.84375 18.0625 0.838542 17.9479 0.828125 17.7812C0.828125 17.6146 0.828125 17.4323 0.828125 17.2344C0.828125 17.026 0.828125 16.8177 0.828125 16.6094C0.838542 16.401 0.854167 16.224 0.875 16.0781C0.885417 16.0052 0.916667 15.8229 0.96875 15.5312C1.03125 15.2292 1.14062 14.8698 1.29688 14.4531C1.45312 14.0365 1.67188 13.5938 1.95312 13.125C2.23438 12.6458 2.59896 12.1979 3.04688 11.7812C3.50521 11.3646 4.0625 11.0052 4.71875 10.7031C5.38542 10.401 6.17188 10.2083 7.07812 10.125C8.02604 10.0417 8.85938 10.099 9.57812 10.2969C10.3073 10.4948 10.9323 10.7812 11.4531 11.1562C11.974 11.5312 12.4062 11.9688 12.75 12.4688C13.0938 12.9688 13.3594 13.4792 13.5469 14C13.7448 14.5104 13.875 15.0104 13.9375 15.5C14 15.9792 14.0104 16.3906 13.9688 16.7344C13.9062 17.2448 13.8385 17.7031 13.7656 18.1094C13.6927 18.5052 13.6042 18.8854 13.5 19.25C13.4062 19.6146 13.2969 19.974 13.1719 20.3281C13.0469 20.6823 12.901 21.0677 12.7344 21.4844C12.6927 21.599 12.5781 21.849 12.3906 22.2344C12.2135 22.6198 11.9844 23.0938 11.7031 23.6562C11.4323 24.2083 11.1302 24.8281 10.7969 25.5156C10.474 26.1927 10.1406 26.875 9.79688 27.5625C8.99479 29.1875 8.09896 31 7.10938 33H3.375ZM4.07812 16.5C4.07812 16.9062 4.09896 17.3542 4.14062 17.8438C4.18229 18.3333 4.30208 18.7969 4.5 19.2344C4.70833 19.6615 5.03125 20.0312 5.46875 20.3438C5.90625 20.6458 6.52083 20.8177 7.3125 20.8594C7.70833 20.8802 8.06771 20.8333 8.39062 20.7188C8.71354 20.5938 9 20.4323 9.25 20.2344C9.5 20.0365 9.71354 19.8125 9.89062 19.5625C10.0781 19.3125 10.2292 19.0677 10.3438 18.8281C10.4688 18.5781 10.5573 18.349 10.6094 18.1406C10.6615 17.9323 10.6875 17.7656 10.6875 17.6406C10.6771 17.3802 10.6667 17.0885 10.6562 16.7656C10.6562 16.4427 10.625 16.1146 10.5625 15.7812C10.5104 15.4479 10.4167 15.1302 10.2812 14.8281C10.1458 14.5156 9.95312 14.2448 9.70312 14.0156C9.45312 13.7865 9.13021 13.6094 8.73438 13.4844C8.34896 13.349 7.86458 13.2969 7.28125 13.3281C6.63542 13.3594 6.10417 13.5208 5.6875 13.8125C5.28125 14.1042 4.95833 14.4271 4.71875 14.7812C4.47917 15.1354 4.3125 15.4792 4.21875 15.8125C4.125 16.1458 4.07812 16.375 4.07812 16.5ZM18.5381 25.7344V22.4688H21.8037V25.7344H18.5381ZM18.5381 33V29.7344H21.8037V33H18.5381ZM35.8575 26.4375V16.7812C35.795 14.5 34.7273 13.3385 32.6544 13.2969C30.571 13.3385 29.5085 14.5 29.4669 16.7812V26.4375C29.5085 28.7396 30.571 29.901 32.6544 29.9219C34.7273 29.901 35.795 28.7396 35.8575 26.4375ZM26.2013 26.625V16.5781C26.2221 14.474 26.894 12.8542 28.2169 11.7188C29.4565 10.5938 30.9356 10.0312 32.6544 10.0312C34.4252 10.0312 35.9304 10.5938 37.17 11.7188C38.4304 12.8542 39.0815 14.474 39.1231 16.5781V26.625C39.0815 28.7188 38.4304 30.3333 37.17 31.4688C35.9304 32.5938 34.4252 33.1667 32.6544 33.1875C30.9356 33.1667 29.4565 32.5938 28.2169 31.4688C26.894 30.3333 26.2221 28.7188 26.2013 26.625ZM52.1925 26.4375V16.7812C52.13 14.5 51.0623 13.3385 48.9894 13.2969C46.906 13.3385 45.8435 14.5 45.8019 16.7812V26.4375C45.8435 28.7396 46.906 29.901 48.9894 29.9219C51.0623 29.901 52.13 28.7396 52.1925 26.4375ZM42.5363 26.625V16.5781C42.5571 14.474 43.229 12.8542 44.5519 11.7188C45.7915 10.5938 47.2706 10.0312 48.9894 10.0312C50.7602 10.0312 52.2654 10.5938 53.505 11.7188C54.7654 12.8542 55.4165 14.474 55.4581 16.5781V26.625C55.4165 28.7188 54.7654 30.3333 53.505 31.4688C52.2654 32.5938 50.7602 33.1667 48.9894 33.1875C47.2706 33.1667 45.7915 32.5938 44.5519 31.4688C43.229 30.3333 42.5571 28.7188 42.5363 26.625ZM65.0765 27.48C64.6925 27.0853 64.3085 26.7813 63.9245 26.568C63.5512 26.344 63.0818 26.232 62.5165 26.232C61.9298 26.232 61.3912 26.4187 60.9005 26.792C60.4205 27.1653 60.0205 27.656 59.7005 28.264L58.2925 27.496C58.8152 26.5467 59.4392 25.832 60.1645 25.352C60.9005 24.872 61.6898 24.632 62.5325 24.632C63.2792 24.632 63.9405 24.7813 64.5165 25.08C65.1032 25.368 65.6738 25.7947 66.2285 26.36C66.6125 26.7547 66.9912 27.064 67.3645 27.288C67.7485 27.5013 68.2232 27.608 68.7885 27.608C69.3752 27.608 69.9085 27.4213 70.3885 27.048C70.8792 26.6747 71.2845 26.184 71.6045 25.576L73.0125 26.344C72.4898 27.2933 71.8605 28.008 71.1245 28.488C70.3992 28.968 69.6152 29.208 68.7725 29.208C68.0365 29.208 67.3752 29.064 66.7885 28.776C66.2018 28.4773 65.6312 28.0453 65.0765 27.48ZM80.3356 13.6719L77.1012 16.0469V12.5781L80.3356 10.2188H83.6012V33H80.3356V13.6719ZM94.8894 16.5469C94.9102 17.599 95.2487 18.401 95.905 18.9531C96.5508 19.526 97.2956 19.8125 98.1394 19.8125C99.0144 19.8125 99.7748 19.526 100.421 18.9531C101.056 18.401 101.384 17.599 101.405 16.5469C101.384 15.4635 101.056 14.6458 100.421 14.0938C99.7748 13.5625 99.0144 13.2969 98.1394 13.2969C97.2956 13.2969 96.5508 13.5625 95.905 14.0938C95.2487 14.6458 94.9102 15.4635 94.8894 16.5469ZM91.2019 26.3438C91.2227 24.1458 92.1185 22.4375 93.8894 21.2188C93.2123 20.625 92.681 19.9427 92.2956 19.1719C91.8477 18.4531 91.6237 17.599 91.6237 16.6094C91.6446 14.7135 92.2852 13.1458 93.5456 11.9062C94.7331 10.6771 96.2644 10.0521 98.1394 10.0312C100.046 10.0521 101.603 10.6771 102.811 11.9062C104.03 13.1458 104.65 14.7135 104.671 16.6094C104.671 17.599 104.467 18.4531 104.061 19.1719C103.634 19.9427 103.082 20.625 102.405 21.2188C104.176 22.4375 105.072 24.1458 105.092 26.3438C105.072 28.3958 104.4 30.0365 103.077 31.2656C101.733 32.526 100.087 33.1667 98.1394 33.1875C96.2019 33.1667 94.5821 32.526 93.28 31.2656C91.9154 30.0365 91.2227 28.3958 91.2019 26.3438ZM94.4675 26.3125C94.4883 27.3542 94.8633 28.2083 95.5925 28.875C96.2904 29.5729 97.1394 29.9219 98.1394 29.9219C99.1706 29.9219 100.035 29.5729 100.733 28.875C101.441 28.2083 101.806 27.3542 101.827 26.3125C101.806 25.25 101.441 24.3854 100.733 23.7188C100.035 23.0625 99.1706 22.724 98.1394 22.7031C97.1394 22.724 96.2904 23.0625 95.5925 23.7188C94.8633 24.3854 94.4883 25.25 94.4675 26.3125ZM109.006 25.7344V22.4688H112.271V25.7344H109.006ZM109.006 33V29.7344H112.271V33H109.006ZM126.325 26.4375V16.7812C126.262 14.5 125.195 13.3385 123.122 13.2969C121.039 13.3385 119.976 14.5 119.934 16.7812V26.4375C119.976 28.7396 121.039 29.901 123.122 29.9219C125.195 29.901 126.262 28.7396 126.325 26.4375ZM116.669 26.625V16.5781C116.69 14.474 117.361 12.8542 118.684 11.7188C119.924 10.5938 121.403 10.0312 123.122 10.0312C124.893 10.0312 126.398 10.5938 127.637 11.7188C128.898 12.8542 129.549 14.474 129.591 16.5781V26.625C129.549 28.7188 128.898 30.3333 127.637 31.4688C126.398 32.5938 124.893 33.1667 123.122 33.1875C121.403 33.1667 119.924 32.5938 118.684 31.4688C117.361 30.3333 116.69 28.7188 116.669 26.625ZM142.66 26.4375V16.7812C142.598 14.5 141.53 13.3385 139.457 13.2969C137.374 13.3385 136.311 14.5 136.269 16.7812V26.4375C136.311 28.7396 137.374 29.901 139.457 29.9219C141.53 29.901 142.598 28.7396 142.66 26.4375ZM133.004 26.625V16.5781C133.025 14.474 133.696 12.8542 135.019 11.7188C136.259 10.5938 137.738 10.0312 139.457 10.0312C141.228 10.0312 142.733 10.5938 143.973 11.7188C145.233 12.8542 145.884 14.474 145.926 16.5781V26.625C145.884 28.7188 145.233 30.3333 143.973 31.4688C142.733 32.5938 141.228 33.1667 139.457 33.1875C137.738 33.1667 136.259 32.5938 135.019 31.4688C133.696 30.3333 133.025 28.7188 133.004 26.625Z" fill="#333333"/>
<path d="M3.31113 57.92C3.31113 56.7787 3.45513 55.7333 3.74313 54.784C4.03113 53.8347 4.41513 52.9813 4.89513 52.224C5.37513 51.4667 5.89779 50.8053 6.46313 50.24L7.98313 50.912C7.44979 51.4773 6.96446 52.112 6.52713 52.816C6.10046 53.5093 5.75913 54.2773 5.50313 55.12C5.24713 55.9627 5.11913 56.896 5.11913 57.92C5.11913 58.9333 5.24713 59.8667 5.50313 60.72C5.75913 61.5627 6.10046 62.3307 6.52713 63.024C6.96446 63.7173 7.44979 64.352 7.98313 64.928L6.46313 65.6C5.89779 65.0347 5.37513 64.3733 4.89513 63.616C4.41513 62.8587 4.03113 62.0053 3.74313 61.056C3.45513 60.1067 3.31113 59.0613 3.31113 57.92ZM15.792 50.432H17.776V52.976H15.792V50.432ZM9.936 51.808H23.648V55.248H21.664V53.488H11.84V55.248H9.936V51.808ZM11.376 54.768H22.368V56.32H11.376V54.768ZM9.808 59.824H23.872V61.488H9.808V59.824ZM11.632 57.28H22.032V58.816H11.632V57.28ZM17.744 60.16C18.224 61.216 18.9867 62.0427 20.032 62.64C21.0773 63.2373 22.432 63.6213 24.096 63.792C23.904 63.9947 23.696 64.2613 23.472 64.592C23.2587 64.9227 23.088 65.216 22.96 65.472C21.744 65.28 20.6933 64.976 19.808 64.56C18.9227 64.1547 18.1707 63.6213 17.552 62.96C16.944 62.288 16.4373 61.4773 16.032 60.528L17.744 60.16ZM15.744 53.856H17.68V58.304C17.68 58.8587 17.6213 59.4133 17.504 59.968C17.3973 60.5227 17.1947 61.0613 16.896 61.584C16.608 62.096 16.1973 62.5867 15.664 63.056C15.1413 63.5253 14.4747 63.9573 13.664 64.352C12.8533 64.7573 11.8667 65.12 10.704 65.44C10.6293 65.2907 10.5227 65.12 10.384 64.928C10.256 64.7467 10.112 64.56 9.952 64.368C9.80267 64.176 9.65333 64.016 9.504 63.888C10.6133 63.632 11.5413 63.344 12.288 63.024C13.0453 62.704 13.648 62.3573 14.096 61.984C14.5547 61.6107 14.9013 61.2213 15.136 60.816C15.3707 60.4 15.5307 59.984 15.616 59.568C15.7013 59.1413 15.744 58.7093 15.744 58.272V53.856ZM32.224 51.696H33.84V56.08H32.224V51.696ZM29.984 53.312H36.144V54.704H29.984V53.312ZM36.08 54.064H39.952V55.712H36.08V54.064ZM30.128 60.928H36.016V62.32H30.128V60.928ZM35.216 50.832L36.16 52.192C35.6053 52.3093 34.992 52.416 34.32 52.512C33.6587 52.5973 32.9867 52.672 32.304 52.736C31.6213 52.7893 30.9653 52.832 30.336 52.864C30.304 52.672 30.2453 52.4533 30.16 52.208C30.0853 51.952 30.0053 51.7333 29.92 51.552C30.528 51.4987 31.152 51.44 31.792 51.376C32.4427 51.3013 33.0667 51.216 33.664 51.12C34.2613 51.024 34.7787 50.928 35.216 50.832ZM29.776 63.472C30.3093 63.44 30.912 63.3973 31.584 63.344C32.2667 63.2907 32.9867 63.232 33.744 63.168C34.512 63.104 35.2747 63.04 36.032 62.976L36.048 64.368C34.992 64.496 33.9307 64.6187 32.864 64.736C31.808 64.8533 30.864 64.9547 30.032 65.04L29.776 63.472ZM39.376 54.064H40.976C40.976 54.064 40.976 54.112 40.976 54.208C40.976 54.304 40.976 54.416 40.976 54.544C40.976 54.6613 40.976 54.7573 40.976 54.832C40.9333 56.5067 40.896 57.9253 40.864 59.088C40.8427 60.2507 40.8053 61.2053 40.752 61.952C40.7093 62.6987 40.656 63.28 40.592 63.696C40.528 64.1013 40.4373 64.384 40.32 64.544C40.1707 64.7893 40.016 64.96 39.856 65.056C39.696 65.1627 39.504 65.2373 39.28 65.28C39.0773 65.312 38.8373 65.3333 38.56 65.344C38.2933 65.3547 38.0053 65.3547 37.696 65.344C37.6853 65.0987 37.6373 64.816 37.552 64.496C37.4773 64.176 37.376 63.904 37.248 63.68C37.4933 63.7013 37.7173 63.7173 37.92 63.728C38.1227 63.7387 38.288 63.744 38.416 63.744C38.512 63.744 38.5973 63.7227 38.672 63.68C38.7467 63.6373 38.816 63.5627 38.88 63.456C38.944 63.3387 39.0027 63.104 39.056 62.752C39.1093 62.3893 39.152 61.8667 39.184 61.184C39.2267 60.4907 39.2587 59.5947 39.28 58.496C39.312 57.3973 39.344 56.048 39.376 54.448V54.064ZM31.392 58.304V59.024H34.704V58.304H31.392ZM31.392 56.544V57.264H34.704V56.544H31.392ZM30.16 55.392H35.984V60.176H30.16V55.392ZM32.384 55.792H33.664V59.744H33.824V63.68H32.224V59.744H32.384V55.792ZM36.912 50.464H38.528V56.016C38.528 56.784 38.496 57.5893 38.432 58.432C38.3787 59.2747 38.2667 60.1173 38.096 60.96C37.936 61.8027 37.6907 62.6133 37.36 63.392C37.0293 64.1707 36.5867 64.8747 36.032 65.504C35.936 65.3973 35.808 65.28 35.648 65.152C35.488 65.024 35.3227 64.896 35.152 64.768C34.9813 64.6507 34.8267 64.5547 34.688 64.48C35.1893 63.904 35.5893 63.264 35.888 62.56C36.1867 61.856 36.4053 61.1253 36.544 60.368C36.6933 59.6107 36.7893 58.864 36.832 58.128C36.8853 57.3813 36.912 56.6827 36.912 56.032V50.464ZM28.624 50.464L30.336 50.944C30.0693 51.8613 29.744 52.7893 29.36 53.728C28.9867 54.6667 28.5707 55.5573 28.112 56.4C27.664 57.2427 27.1893 57.984 26.688 58.624C26.6453 58.464 26.5707 58.256 26.464 58C26.368 57.7333 26.2613 57.4667 26.144 57.2C26.0267 56.9227 25.92 56.704 25.824 56.544C26.208 56.032 26.576 55.4507 26.928 54.8C27.28 54.1493 27.6 53.456 27.888 52.72C28.1867 51.9733 28.432 51.2213 28.624 50.464ZM27.568 54.864L29.264 53.168V53.184V65.472H27.568V54.864ZM47.12 64.224C46.3627 64.224 45.6853 64.0907 45.088 63.824C44.4907 63.5573 44.016 63.184 43.664 62.704C43.3227 62.224 43.152 61.6747 43.152 61.056C43.152 60.544 43.2427 60.096 43.424 59.712C43.616 59.3173 43.8667 58.976 44.176 58.688C44.4853 58.4 44.8213 58.16 45.184 57.968V57.888C44.736 57.568 44.3627 57.1787 44.064 56.72C43.7653 56.2507 43.616 55.7067 43.616 55.088C43.616 54.448 43.7707 53.8933 44.08 53.424C44.3893 52.9547 44.8107 52.592 45.344 52.336C45.888 52.08 46.5013 51.952 47.184 51.952C47.888 51.952 48.496 52.0853 49.008 52.352C49.52 52.608 49.9147 52.9707 50.192 53.44C50.48 53.9093 50.624 54.464 50.624 55.104C50.624 55.488 50.5493 55.8507 50.4 56.192C50.2613 56.5333 50.0747 56.8427 49.84 57.12C49.616 57.3867 49.3707 57.616 49.104 57.808V57.888C49.4773 58.08 49.8133 58.32 50.112 58.608C50.4107 58.896 50.6507 59.2427 50.832 59.648C51.0133 60.0427 51.104 60.512 51.104 61.056C51.104 61.6533 50.9333 62.192 50.592 62.672C50.2613 63.152 49.7973 63.5307 49.2 63.808C48.6027 64.0853 47.9093 64.224 47.12 64.224ZM47.856 57.232C48.144 56.9227 48.3573 56.6027 48.496 56.272C48.6347 55.9413 48.704 55.6 48.704 55.248C48.704 54.928 48.64 54.6453 48.512 54.4C48.3947 54.144 48.2187 53.9467 47.984 53.808C47.7493 53.6693 47.4667 53.6 47.136 53.6C46.7307 53.6 46.3893 53.728 46.112 53.984C45.8347 54.24 45.696 54.608 45.696 55.088C45.696 55.4507 45.7867 55.7653 45.968 56.032C46.16 56.288 46.4213 56.512 46.752 56.704C47.0827 56.8853 47.4507 57.0613 47.856 57.232ZM47.168 62.56C47.5093 62.56 47.808 62.5013 48.064 62.384C48.3307 62.256 48.5387 62.0747 48.688 61.84C48.8373 61.5947 48.912 61.3067 48.912 60.976C48.912 60.6667 48.8427 60.4 48.704 60.176C48.576 59.9413 48.3947 59.7387 48.16 59.568C47.9253 59.3867 47.648 59.2213 47.328 59.072C47.008 58.9227 46.656 58.7627 46.272 58.592C45.952 58.8587 45.6907 59.184 45.488 59.568C45.2853 59.9413 45.184 60.352 45.184 60.8C45.184 61.152 45.2693 61.4613 45.44 61.728C45.6213 61.984 45.8613 62.1867 46.16 62.336C46.4587 62.4853 46.7947 62.56 47.168 62.56ZM59.4855 52.112H67.6775V53.776H59.4855V52.112ZM58.9575 55.184H68.1415V56.864H58.9575V55.184ZM58.9895 58.224H68.0295V59.904H58.9895V58.224ZM62.5735 50.384H64.4775V56.272H62.5735V50.384ZM64.6055 56.784H66.4935V63.408C66.4935 63.8667 66.4348 64.224 66.3175 64.48C66.2002 64.7467 65.9868 64.9547 65.6775 65.104C65.3682 65.2427 64.9895 65.328 64.5415 65.36C64.1042 65.4027 63.5868 65.424 62.9895 65.424C62.9468 65.1573 62.8668 64.848 62.7495 64.496C62.6322 64.1547 62.5095 63.8613 62.3815 63.616C62.7762 63.6267 63.1602 63.6373 63.5335 63.648C63.9068 63.648 64.1575 63.648 64.2855 63.648C64.4028 63.648 64.4828 63.632 64.5255 63.6C64.5788 63.5573 64.6055 63.4773 64.6055 63.36V56.784ZM59.6295 60.992L61.1495 60.112C61.4055 60.3573 61.6615 60.6347 61.9175 60.944C62.1735 61.2533 62.4082 61.5627 62.6215 61.872C62.8348 62.1813 63.0002 62.464 63.1175 62.72L61.4535 63.696C61.3682 63.44 61.2242 63.1573 61.0215 62.848C60.8188 62.528 60.5948 62.208 60.3495 61.888C60.1148 61.5573 59.8748 61.2587 59.6295 60.992ZM54.5575 51.392H58.6695V62.336H54.5575V60.624H56.8935V53.104H54.5575V51.392ZM54.6535 55.936H57.7575V57.616H54.6535V55.936ZM53.6455 51.392H55.4215V63.76H53.6455V51.392ZM75.2455 60.176H79.6135V61.536H75.2455V60.176ZM75.1335 57.792H80.5255V63.952H75.1335V62.528H78.7175V59.216H75.1335V57.792ZM74.3335 57.792H76.0775V64.768H74.3335V57.792ZM71.6615 53.248H75.6615V54.544H71.6615V53.248ZM79.0855 53.248H83.1175V54.544H79.0855V53.248ZM82.3335 51.024H84.2695V63.168C84.2695 63.68 84.2108 64.0853 84.0935 64.384C83.9762 64.6827 83.7575 64.912 83.4375 65.072C83.1068 65.232 82.7015 65.3333 82.2215 65.376C81.7522 65.4187 81.1708 65.44 80.4775 65.44C80.4562 65.248 80.4135 65.0347 80.3495 64.8C80.2855 64.5653 80.2108 64.3253 80.1255 64.08C80.0402 63.8453 79.9495 63.6427 79.8535 63.472C80.1415 63.4933 80.4242 63.5093 80.7015 63.52C80.9895 63.52 81.2455 63.52 81.4695 63.52C81.7042 63.5093 81.8642 63.504 81.9495 63.504C82.0988 63.504 82.2002 63.4773 82.2535 63.424C82.3068 63.3707 82.3335 63.2747 82.3335 63.136V51.024ZM71.8055 51.024H76.8775V56.832H71.8055V55.456H75.0695V52.416H71.8055V51.024ZM83.3575 51.024V52.416H79.7735V55.488H83.3575V56.864H77.9495V51.024H83.3575ZM70.7015 51.024H72.6055V65.44H70.7015V51.024ZM90.9264 57.92C90.9264 59.0613 90.7824 60.1067 90.4944 61.056C90.2064 62.0053 89.8224 62.8587 89.3424 63.616C88.873 64.3733 88.3504 65.0347 87.7744 65.6L86.2544 64.928C86.7877 64.352 87.2677 63.7173 87.6944 63.024C88.1317 62.3307 88.4784 61.5627 88.7344 60.72C88.9904 59.8667 89.1184 58.9333 89.1184 57.92C89.1184 56.896 88.9904 55.9627 88.7344 55.12C88.4784 54.2773 88.1317 53.5093 87.6944 52.816C87.2677 52.112 86.7877 51.4773 86.2544 50.912L87.7744 50.24C88.3504 50.8053 88.873 51.4667 89.3424 52.224C89.8224 52.9813 90.2064 53.8347 90.4944 54.784C90.7824 55.7333 90.9264 56.7787 90.9264 57.92Z" fill="#333333"/>
</svg>
