<svg width="191" height="93" viewBox="0 0 191 93" fill="none" xmlns="http://www.w3.org/2000/svg">
<path d="M1.4502 47V42.6714L13.9526 27.0269C14.436 26.397 14.7656 25.811 14.9414 25.269C15.0586 24.7563 15.1172 24.2729 15.1172 23.8188C15.1172 22.6177 14.7437 21.5703 13.9966 20.6768C13.2202 19.7832 12.1216 19.3218 10.7007 19.2925C9.44092 19.2925 8.39355 19.6953 7.55859 20.501C6.69434 21.3066 6.18164 22.4419 6.02051 23.9067H1.4502C1.56738 21.2407 2.46094 19.0361 4.13086 17.293C5.81543 15.5938 7.88818 14.7295 10.3491 14.7002C13.103 14.7295 15.3369 15.6084 17.0508 17.3369C18.7939 19.0508 19.6802 21.2261 19.7095 23.8628C19.7095 25.9722 19.0649 27.8472 17.7759 29.4878L7.4707 42.4077H19.7095V47H1.4502ZM31.6942 19.8198L27.1459 23.1597V18.2817L31.6942 14.9639H36.2865V47H31.6942V19.8198ZM46.4915 42.2319V37.9033L57.1922 14.9639H62.3118L51.4793 37.9033H59.8509V28.6968H64.4432V37.9033H66.992V42.2319H64.4432V47H59.8509V42.2319H46.4915ZM72.0114 50.3398V42.4077H76.6037V47L72.0114 50.3398ZM96.3668 37.7715V24.1924C96.2789 20.9844 94.7774 19.3511 91.8624 19.2925C88.9327 19.3511 87.4386 20.9844 87.38 24.1924V37.7715C87.4386 41.0088 88.9327 42.6421 91.8624 42.6714C94.7774 42.6421 96.2789 41.0088 96.3668 37.7715ZM82.7877 38.0352V23.9067C82.817 20.9478 83.7618 18.6699 85.6222 17.0732C87.3653 15.4912 89.4454 14.7002 91.8624 14.7002C94.3526 14.7002 96.4693 15.4912 98.2125 17.0732C99.985 18.6699 100.9 20.9478 100.959 23.9067V38.0352C100.9 40.9795 99.985 43.25 98.2125 44.8467C96.4693 46.4287 94.3526 47.2344 91.8624 47.2637C89.4454 47.2344 87.3653 46.4287 85.6222 44.8467C83.7618 43.25 82.817 40.9795 82.7877 38.0352ZM119.338 37.7715V24.1924C119.25 20.9844 117.749 19.3511 114.833 19.2925C111.904 19.3511 110.41 20.9844 110.351 24.1924V37.7715C110.41 41.0088 111.904 42.6421 114.833 42.6714C117.749 42.6421 119.25 41.0088 119.338 37.7715ZM105.759 38.0352V23.9067C105.788 20.9478 106.733 18.6699 108.593 17.0732C110.336 15.4912 112.417 14.7002 114.833 14.7002C117.324 14.7002 119.44 15.4912 121.184 17.0732C122.956 18.6699 123.872 20.9478 123.93 23.9067V38.0352C123.872 40.9795 122.956 43.25 121.184 44.8467C119.44 46.4287 117.324 47.2344 114.833 47.2637C112.417 47.2344 110.336 46.4287 108.593 44.8467C106.733 43.25 105.788 40.9795 105.759 38.0352ZM142.309 37.7715V24.1924C142.221 20.9844 140.72 19.3511 137.805 19.2925C134.875 19.3511 133.381 20.9844 133.322 24.1924V37.7715C133.381 41.0088 134.875 42.6421 137.805 42.6714C140.72 42.6421 142.221 41.0088 142.309 37.7715ZM128.73 38.0352V23.9067C128.759 20.9478 129.704 18.6699 131.564 17.0732C133.308 15.4912 135.388 14.7002 137.805 14.7002C140.295 14.7002 142.412 15.4912 144.155 17.0732C145.927 18.6699 146.843 20.9478 146.901 23.9067V38.0352C146.843 40.9795 145.927 43.25 144.155 44.8467C142.412 46.4287 140.295 47.2344 137.805 47.2637C135.388 47.2344 133.308 46.4287 131.564 44.8467C129.704 43.25 128.759 40.9795 128.73 38.0352ZM151.587 31.28H167.267V33.66H153.987V48.78H151.587V31.28ZM166.127 31.28H168.547V45.98C168.547 46.62 168.467 47.12 168.307 47.48C168.147 47.8533 167.86 48.14 167.447 48.34C167.034 48.54 166.514 48.66 165.887 48.7C165.274 48.7533 164.52 48.78 163.627 48.78C163.587 48.5533 163.52 48.2933 163.427 48C163.334 47.7067 163.227 47.4133 163.107 47.12C162.987 46.84 162.867 46.5933 162.747 46.38C163.134 46.4067 163.52 46.4267 163.907 46.44C164.307 46.44 164.66 46.44 164.967 46.44C165.274 46.44 165.487 46.44 165.607 46.44C165.794 46.4267 165.927 46.3867 166.007 46.32C166.087 46.24 166.127 46.1133 166.127 45.94V31.28ZM152.887 38.72H167.307V41.08H152.887V38.72ZM158.727 32.58H161.127V39.9H158.727V32.58ZM180.087 40.26C179.647 39.8067 179.214 39.4533 178.787 39.2C178.36 38.9467 177.8 38.82 177.107 38.82C176.467 38.82 175.867 39.0467 175.307 39.5C174.76 39.94 174.3 40.5133 173.927 41.22L171.727 40.02C172.407 38.78 173.214 37.86 174.147 37.26C175.08 36.6467 176.087 36.34 177.167 36.34C178.127 36.34 178.98 36.52 179.727 36.88C180.487 37.24 181.207 37.7933 181.887 38.54C182.327 38.9933 182.76 39.3467 183.187 39.6C183.627 39.8533 184.187 39.98 184.867 39.98C185.507 39.98 186.1 39.76 186.647 39.32C187.207 38.8667 187.674 38.2867 188.047 37.58L190.247 38.78C189.567 40.02 188.76 40.9467 187.827 41.56C186.894 42.16 185.887 42.46 184.807 42.46C183.86 42.46 183.007 42.28 182.247 41.92C181.487 41.56 180.767 41.0067 180.087 40.26Z" fill="#333333"/>
<path d="M4.96669 77.88C4.96669 76.168 5.18269 74.6 5.61469 73.176C6.04669 71.752 6.62269 70.472 7.34269 69.336C8.06269 68.2 8.84669 67.208 9.69469 66.36L11.9747 67.368C11.1747 68.216 10.4467 69.168 9.79069 70.224C9.15069 71.264 8.63869 72.416 8.25469 73.68C7.87069 74.944 7.67869 76.344 7.67869 77.88C7.67869 79.4 7.87069 80.8 8.25469 82.08C8.63869 83.344 9.15069 84.496 9.79069 85.536C10.4467 86.576 11.1747 87.528 11.9747 88.392L9.69469 89.4C8.84669 88.552 8.06269 87.56 7.34269 86.424C6.62269 85.288 6.04669 84.008 5.61469 82.584C5.18269 81.16 4.96669 79.592 4.96669 77.88ZM31.992 66.552L34.08 68.952C32.848 69.272 31.504 69.552 30.048 69.792C28.608 70.016 27.112 70.216 25.56 70.392C24.008 70.552 22.448 70.688 20.88 70.8C19.312 70.896 17.8 70.968 16.344 71.016C16.296 70.648 16.2 70.216 16.056 69.72C15.912 69.208 15.768 68.792 15.624 68.472C17.064 68.424 18.536 68.344 20.04 68.232C21.56 68.12 23.04 67.984 24.48 67.824C25.936 67.664 27.304 67.48 28.584 67.272C29.864 67.064 31 66.824 31.992 66.552ZM15.864 73.368H34.824V76.128H15.864V73.368ZM14.208 78.96H36.264V81.792H14.208V78.96ZM23.736 69.96H26.736V85.704C26.736 86.568 26.616 87.208 26.376 87.624C26.152 88.056 25.744 88.392 25.152 88.632C24.592 88.84 23.864 88.976 22.968 89.04C22.088 89.104 21.032 89.128 19.8 89.112C19.752 88.84 19.656 88.528 19.512 88.176C19.384 87.84 19.24 87.496 19.08 87.144C18.92 86.808 18.768 86.512 18.624 86.256C19.232 86.272 19.832 86.288 20.424 86.304C21.016 86.32 21.544 86.328 22.008 86.328C22.472 86.328 22.8 86.328 22.992 86.328C23.264 86.312 23.456 86.256 23.568 86.16C23.68 86.064 23.736 85.896 23.736 85.656V69.96ZM48.816 66.6H51.984V76.44H48.816V66.6ZM40.944 68.568L43.56 67.56C43.992 68.104 44.4 68.704 44.784 69.36C45.168 70 45.512 70.64 45.816 71.28C46.12 71.904 46.36 72.472 46.536 72.984L43.752 74.16C43.608 73.648 43.384 73.064 43.08 72.408C42.792 71.752 42.464 71.088 42.096 70.416C41.728 69.744 41.344 69.128 40.944 68.568ZM56.88 67.32L60.096 68.28C59.744 68.984 59.376 69.704 58.992 70.44C58.608 71.16 58.224 71.848 57.84 72.504C57.472 73.16 57.112 73.744 56.76 74.256L54.216 73.344C54.536 72.8 54.864 72.184 55.2 71.496C55.536 70.808 55.848 70.104 56.136 69.384C56.44 68.648 56.688 67.96 56.88 67.32ZM41.496 74.928H59.688V89.136H56.616V77.832H41.496V74.928ZM42.336 80.04H57.72V82.8H42.336V80.04ZM40.968 85.296H58.2V88.152H40.968V85.296ZM70.968 71.424H80.304V73.776H70.968V71.424ZM67.488 75.216H80.928V77.712H67.488V75.216ZM69.384 85.896H81.744V88.368H69.384V85.896ZM67.848 80.424H83.592V89.184H80.64V82.92H70.68V89.184H67.848V80.424ZM75.504 68.928C74.8 69.664 73.92 70.408 72.864 71.16C71.824 71.912 70.68 72.624 69.432 73.296C68.2 73.952 66.952 74.52 65.688 75C65.576 74.776 65.432 74.528 65.256 74.256C65.08 73.968 64.888 73.688 64.68 73.416C64.488 73.128 64.296 72.888 64.104 72.696C65.432 72.248 66.728 71.696 67.992 71.04C69.256 70.368 70.408 69.648 71.448 68.88C72.488 68.096 73.328 67.32 73.968 66.552H76.8C77.712 67.48 78.728 68.328 79.848 69.096C80.984 69.848 82.176 70.512 83.424 71.088C84.672 71.648 85.92 72.104 87.168 72.456C86.848 72.792 86.536 73.192 86.232 73.656C85.928 74.104 85.664 74.528 85.44 74.928C84.576 74.624 83.68 74.248 82.752 73.8C81.824 73.352 80.912 72.864 80.016 72.336C79.136 71.792 78.304 71.232 77.52 70.656C76.752 70.064 76.08 69.488 75.504 68.928ZM79.992 75.216H80.424L80.928 75.072L83.16 75.864C82.68 76.824 82.152 77.792 81.576 78.768C81 79.728 80.432 80.632 79.872 81.48L77.064 80.544C77.432 79.984 77.8 79.4 78.168 78.792C78.536 78.168 78.88 77.568 79.2 76.992C79.52 76.416 79.784 75.92 79.992 75.504V75.216ZM98.1891 67.584C98.1251 67.936 98.0691 68.352 98.0211 68.832C97.9731 69.296 97.9491 69.888 97.9491 70.608C97.9491 70.896 97.9491 71.36 97.9491 72C97.9491 72.624 97.9491 73.312 97.9491 74.064C97.9491 74.8 97.9491 75.52 97.9491 76.224C97.9491 76.912 97.9491 77.456 97.9491 77.856L95.0691 76.728C95.0691 76.312 95.0691 75.824 95.0691 75.264C95.0691 74.704 95.0691 74.128 95.0691 73.536C95.0691 72.928 95.0691 72.368 95.0691 71.856C95.0691 71.328 95.0691 70.912 95.0691 70.608C95.0691 69.856 95.0531 69.256 95.0211 68.808C94.9891 68.344 94.9251 67.936 94.8291 67.584H98.1891ZM106.253 69.792C106.621 70.032 107.037 70.344 107.501 70.728C107.981 71.112 108.461 71.528 108.941 71.976C109.437 72.408 109.893 72.84 110.309 73.272C110.725 73.688 111.069 74.056 111.341 74.376L109.181 76.584C108.749 76.04 108.229 75.464 107.621 74.856C107.029 74.248 106.429 73.672 105.821 73.128C105.229 72.568 104.701 72.12 104.237 71.784L106.253 69.792ZM90.4851 70.488C91.1411 70.568 91.8051 70.64 92.4771 70.704C93.1651 70.768 93.7891 70.8 94.3491 70.8C95.5491 70.8 96.8211 70.72 98.1651 70.56C99.5091 70.384 100.869 70.112 102.245 69.744V72.624C101.317 72.832 100.365 73 99.3891 73.128C98.4291 73.256 97.5251 73.352 96.6771 73.416C95.8451 73.464 95.1411 73.488 94.5651 73.488C94.0531 73.488 93.4691 73.472 92.8131 73.44C92.1571 73.408 91.4371 73.36 90.6531 73.296L90.4851 70.488ZM97.4211 81.624C97.4211 81.784 97.4131 82 97.3971 82.272C97.3971 82.528 97.3971 82.8 97.3971 83.088C97.3971 83.376 97.3971 83.64 97.3971 83.88C97.3971 84.136 97.4211 84.368 97.4691 84.576C97.5331 84.768 97.6611 84.928 97.8531 85.056C98.0611 85.184 98.3731 85.28 98.7891 85.344C99.2211 85.408 99.7891 85.44 100.493 85.44C100.909 85.44 101.341 85.424 101.789 85.392C102.237 85.36 102.669 85.312 103.085 85.248C103.517 85.184 103.877 85.104 104.165 85.008C104.789 84.832 105.237 84.544 105.509 84.144C105.797 83.728 105.941 83.216 105.941 82.608C105.941 82.128 105.925 81.656 105.893 81.192C105.877 80.712 105.829 80.192 105.749 79.632L109.085 80.64C109.085 81.056 109.085 81.416 109.085 81.72C109.085 82.008 109.085 82.288 109.085 82.56C109.085 82.816 109.069 83.112 109.037 83.448C109.005 84.168 108.885 84.808 108.677 85.368C108.469 85.912 108.117 86.384 107.621 86.784C107.125 87.184 106.413 87.528 105.485 87.816C105.133 87.928 104.645 88.024 104.021 88.104C103.413 88.184 102.773 88.24 102.101 88.272C101.445 88.32 100.837 88.344 100.277 88.344C99.1571 88.344 98.2371 88.28 97.5171 88.152C96.7971 88.024 96.2211 87.84 95.7891 87.6C95.3731 87.376 95.0691 87.12 94.8771 86.832C94.7011 86.528 94.5811 86.216 94.5171 85.896C94.4691 85.56 94.4451 85.224 94.4451 84.888C94.4451 84.472 94.4451 84.056 94.4451 83.64C94.4611 83.208 94.4771 82.824 94.4931 82.488L97.4211 81.624ZM98.6451 78.864C98.6451 79.568 98.5571 80.256 98.3811 80.928C98.2211 81.584 97.9571 82.176 97.5891 82.704C97.2211 83.216 96.7491 83.632 96.1731 83.952C95.5971 84.256 94.8931 84.408 94.0611 84.408C93.4851 84.408 92.9251 84.264 92.3811 83.976C91.8371 83.672 91.3891 83.208 91.0371 82.584C90.7011 81.944 90.5331 81.112 90.5331 80.088C90.5331 79.144 90.7171 78.296 91.0851 77.544C91.4691 76.792 91.9971 76.2 92.6691 75.768C93.3411 75.336 94.1091 75.12 94.9731 75.12C96.2051 75.12 97.1251 75.472 97.7331 76.176C98.3411 76.864 98.6451 77.76 98.6451 78.864ZM94.3731 81.528C94.7411 81.528 95.0371 81.416 95.2611 81.192C95.4851 80.952 95.6451 80.64 95.7411 80.256C95.8531 79.856 95.9091 79.44 95.9091 79.008C95.9091 78.528 95.8051 78.16 95.5971 77.904C95.3891 77.648 95.1171 77.52 94.7811 77.52C94.4771 77.52 94.1891 77.616 93.9171 77.808C93.6451 78 93.4291 78.272 93.2691 78.624C93.1251 78.976 93.0531 79.392 93.0531 79.872C93.0531 80.4 93.1811 80.808 93.4371 81.096C93.7091 81.384 94.0211 81.528 94.3731 81.528ZM119.861 77.88C119.861 79.592 119.645 81.16 119.213 82.584C118.781 84.008 118.205 85.288 117.485 86.424C116.781 87.56 115.997 88.552 115.133 89.4L112.853 88.392C113.653 87.528 114.373 86.576 115.013 85.536C115.669 84.496 116.189 83.344 116.573 82.08C116.957 80.8 117.149 79.4 117.149 77.88C117.149 76.344 116.957 74.944 116.573 73.68C116.189 72.416 115.669 71.264 115.013 70.224C114.373 69.168 113.653 68.216 112.853 67.368L115.133 66.36C115.997 67.208 116.781 68.2 117.485 69.336C118.205 70.472 118.781 71.752 119.213 73.176C119.645 74.6 119.861 76.168 119.861 77.88Z" fill="#333333"/>
</svg>
