<svg width="32" height="32" viewBox="0 0 32 32" fill="none" xmlns="http://www.w3.org/2000/svg">
<path d="M29.059 16.9747C27.2572 9.79107 20.2797 7.08894 19.6693 6.43169L21.3851 0.185566C21.3851 0.185566 19.2426 -0.506809 16.2377 0.783253C12.4165 2.42394 10.2875 0.332128 10.2875 0.332128L12.1733 6.52938C11.5825 7.20225 4.16058 10.2188 2.81777 17.3174C1.65858 23.4239 5.28552 32.1387 16.1254 31.9981C26.9662 31.8555 30.5746 23.0059 29.059 16.9747ZM21.0932 17.587V19.2901H17.5844L16.9995 20.2013V21.2872H21.0932V22.9913H16.9995V25.9581H15.0014V22.9913H10.9076V21.2872H15.0014V20.2013L14.4155 19.2901H10.9076V17.587H13.3198L10.4496 13.1212H12.4955L16.0004 18.5743L19.5063 13.1212H21.5502L18.6811 17.587H21.0932Z" fill="#FF7300"/>
</svg>
