<svg width="32" height="32" viewBox="0 0 32 32" fill="none" xmlns="http://www.w3.org/2000/svg">
<g clip-path="url(#clip0_27_768)">
<path d="M23.8906 11.2654C26.6746 11.2654 28.9314 9.00878 28.9314 6.22453C28.9314 3.44028 26.6745 1.18359 23.8906 1.18359C21.1063 1.18359 18.8494 3.44022 18.8494 6.22447C18.8494 9.00872 21.1062 11.2654 23.8906 11.2654Z" fill="#FF7300"/>
<path d="M32 27.4844H0V30.8156H32V27.4844Z" fill="#FF7300"/>
<path d="M22.3566 26.6086H29.3264V18.0169C29.3264 15.0152 26.8928 12.5811 23.8909 12.5811C20.8887 12.5811 18.4551 15.0152 18.4551 18.0169V23.1014H22.3566L22.3566 26.6086Z" fill="#FF7300"/>
<path d="M7.96368 26.6084H16.3654H21.4793V23.9779H15.1561L12.4932 16.7451H0.0732422L3.94518 26.6084H7.96368Z" fill="#FF7300"/>
</g>
<defs>
<clipPath id="clip0_27_768">
<rect width="32" height="32" fill="white"/>
</clipPath>
</defs>
</svg>
