<svg width="32" height="32" viewBox="0 0 32 32" fill="none" xmlns="http://www.w3.org/2000/svg">
<g clip-path="url(#clip0_27_841)">
<path d="M27.5928 25.1576C26.8098 23.9851 25.6207 23.3368 24.5031 22.9155C23.9425 22.7047 23.3949 22.5491 22.9124 22.4171C22.4307 22.286 22.0116 22.1754 21.73 22.0696C21.2376 21.8866 20.7174 21.6496 20.3545 21.3946C20.1732 21.2682 20.0335 21.1379 19.9525 21.0269C19.8706 20.9134 19.8484 20.8349 19.8475 20.7664C19.8475 20.2929 19.8475 19.7011 19.8475 18.9216C20.4775 18.2205 21.3825 17.1342 21.7545 15.4119C21.8843 15.3537 22.0129 15.2873 22.1367 15.2011C22.4448 14.9886 22.7062 14.6796 22.9278 14.2596C23.1506 13.8379 23.3482 13.2988 23.559 12.5613C23.6658 12.1877 23.715 11.8628 23.715 11.5736C23.7155 11.2402 23.6469 10.9509 23.5209 10.7161C23.4433 10.5695 23.3435 10.4559 23.2385 10.3595C23.4506 8.77176 23.8046 4.5872 21.8835 3.40276C22.2503 2.50151 22.2451 1.54463 21.4596 0.759134C20.7855 0.534571 19.2137 0.534571 17.9782 0.197384C16.7428 -0.139866 11.1277 -0.476241 9.44315 3.11745C7.78134 3.56051 7.48521 10.3129 8.58484 10.5721C8.55009 10.6206 8.50984 10.6604 8.48027 10.7161C8.35427 10.9509 8.28527 11.2402 8.28571 11.5736C8.28615 11.8629 8.33546 12.1877 8.44215 12.5614C8.72415 13.5436 8.97865 14.1778 9.30821 14.6433C9.47277 14.8743 9.66052 15.0598 9.86446 15.2012C9.98827 15.2873 10.1168 15.3537 10.2467 15.412C10.6187 17.1343 11.5238 18.2206 12.1537 18.9217C12.1537 19.7012 12.1537 20.293 12.1537 20.7665C12.1537 20.8248 12.1306 20.9088 12.0401 21.0288C11.9078 21.207 11.633 21.423 11.3069 21.606C10.9816 21.7911 10.6076 21.9514 10.2801 22.0667C9.89577 22.2029 9.27652 22.3448 8.58271 22.5436C7.54009 22.8453 6.30759 23.2794 5.3049 24.1395C4.8044 24.5693 4.36465 25.1093 4.05571 25.7804C3.74634 26.451 3.5689 27.2481 3.56934 28.1806C3.56934 28.397 3.57877 28.6207 3.59846 28.8521C3.61259 29.0144 3.67434 29.146 3.74677 29.2544C3.88471 29.4576 4.06771 29.6079 4.29702 29.7627C4.69852 30.0283 5.25477 30.2881 5.96702 30.5431C8.09852 31.3033 11.6275 31.9992 16.0006 32.0001C19.5536 32.0001 22.5525 31.5389 24.693 30.9596C25.7638 30.6694 26.6188 30.3515 27.2367 30.0339C27.5461 29.8741 27.7964 29.716 27.9948 29.5429C28.0942 29.4555 28.1812 29.3638 28.2545 29.2545C28.3265 29.1461 28.3886 29.0145 28.4027 28.8521C28.422 28.6211 28.4314 28.3979 28.4314 28.1823C28.4331 26.9391 28.1138 25.9371 27.5928 25.1576ZM11.1363 14.9779L11.0874 14.7015L10.8234 14.6073C10.6554 14.5473 10.5273 14.486 10.4155 14.4084C10.2505 14.2918 10.101 14.1328 9.92609 13.8071C9.7534 13.4831 9.57046 12.9989 9.37027 12.2965C9.2824 11.9897 9.25115 11.751 9.25115 11.5736C9.25159 11.3679 9.29102 11.2475 9.33134 11.1717C9.36734 11.1061 9.41015 11.0658 9.45734 11.0337C10.0213 11.6169 10.3486 12.5584 10.3486 12.5584L10.3851 8.82845L12.026 6.48651C12.9246 6.82332 17.7533 6.93557 19.2133 6.26195C19.512 6.12395 19.8625 5.89082 20.2148 5.59301C20.3553 5.7297 20.4488 5.81282 20.4488 5.81282L21.572 12.8879L22.0875 10.9445L22.2345 10.9368C22.252 10.9341 22.4213 10.9479 22.528 11.019C22.5832 11.0546 22.6282 11.0957 22.6694 11.1716C22.7101 11.2474 22.7491 11.3678 22.75 11.5735C22.75 11.7509 22.7187 11.9896 22.6308 12.2964C22.3647 13.234 22.126 13.7791 21.9071 14.0817C21.7973 14.2346 21.6971 14.3302 21.5856 14.4082C21.4738 14.4858 21.3457 14.547 21.1777 14.6071L20.9137 14.7013L20.8648 14.9777C20.5558 16.7077 19.6645 17.6804 19.0063 18.4137L18.8825 18.5517V18.7368C18.8825 19.1199 18.8825 19.4508 18.8825 19.7524L16.0885 21.3492L13.1187 19.6526C13.1187 19.3762 13.1187 19.0793 13.1187 18.7369V18.5518L12.9948 18.4138C12.3366 17.6806 11.4452 16.7079 11.1363 14.9779ZM14.6888 26.2988L11.1641 22.751C11.5048 22.6019 11.8528 22.4232 12.1643 22.2068C12.4082 22.0362 12.6315 21.8451 12.8088 21.6124C12.9841 21.3827 13.1186 21.0951 13.1186 20.7665C13.1186 20.6709 13.1186 20.566 13.1186 20.4609L15.1983 21.6497L14.6485 22.8204L15.212 23.5622L14.6888 26.2988ZM16.0006 30.9523C15.7229 30.9523 15.497 30.7273 15.497 30.4491C15.497 30.171 15.7229 29.9456 16.0006 29.9456C16.2787 29.9456 16.5037 30.171 16.5037 30.4491C16.5036 30.7273 16.2787 30.9523 16.0006 30.9523ZM16.0006 28.5028C15.7229 28.5028 15.497 28.2778 15.497 27.9996C15.497 27.7219 15.7229 27.4961 16.0006 27.4961C16.2787 27.4961 16.5037 27.7219 16.5037 27.9996C16.5036 28.2778 16.2787 28.5028 16.0006 28.5028ZM17.4421 26.1754L16.93 23.5623L17.494 22.8205L16.9548 21.663L18.8824 20.5613C18.8824 20.6298 18.8824 20.7023 18.8824 20.7665C18.8815 21.0849 19.0054 21.3707 19.1746 21.5991C19.4318 21.9437 19.7883 22.1987 20.1765 22.4215C20.3899 22.5428 20.6141 22.6495 20.8395 22.7484L17.4421 26.1754Z" fill="#FF7300"/>
</g>
<defs>
<clipPath id="clip0_27_841">
<rect width="32" height="32" fill="white"/>
</clipPath>
</defs>
</svg>
