<svg width="32" height="32" viewBox="0 0 32 32" fill="none" xmlns="http://www.w3.org/2000/svg">
<g clip-path="url(#clip0_27_789)">
<path d="M14.0977 19.7881C15.3652 19.7881 19.3232 19.7881 19.3232 19.7881C20.374 19.7881 21.2246 18.9366 21.2246 17.8867C21.2246 16.8369 20.374 15.9873 19.3232 15.9873C18.373 15.9873 16.4736 15.9873 11.7227 15.9873C6.97073 15.9873 5.46679 17.9668 3.80373 19.6289L0.786164 22.2647C0.590852 22.4356 0.477539 22.6817 0.477539 22.9414V31.7012C0.477539 31.8184 0.545914 31.9239 0.652352 31.9727C0.758789 32.0215 0.883789 32.0049 0.972664 31.9277L6.80473 26.9287C7.01079 26.7529 7.28423 26.6797 7.54985 26.7276L16.6377 28.3789C17.2715 28.4951 17.9249 28.3496 18.4512 27.9776C18.4512 27.9776 30.0518 19.9121 30.9063 19.1982C31.7237 18.4492 31.7139 17.3623 30.9649 16.5469C30.2149 15.7285 28.8165 15.9023 27.8839 16.5927C27.0294 17.3056 21.1915 21.1416 21.1915 21.1416H14.0977L14.0753 21.1523C13.7013 21.1396 13.4093 20.8271 13.421 20.4531C13.4347 20.08 13.7472 19.7871 14.1202 19.7997L14.0977 19.7881Z" fill="#FF7300"/>
<path d="M22.669 0C20.9395 0 19.4306 0.924812 18.5957 2.30275C21.2656 3.28225 23.1797 5.84281 23.1797 8.84863C23.1797 9.07031 23.167 9.28906 23.1465 9.50587C25.5538 9.26562 27.4336 7.23537 27.4336 4.76469C27.4336 2.13381 25.3008 0 22.669 0Z" fill="#FF7300"/>
<path d="M16.2031 3.40332C13.1963 3.40332 10.7578 5.84082 10.7578 8.84863C10.7578 11.8554 13.1963 14.2939 16.2031 14.2939C19.2099 14.2939 21.6484 11.8554 21.6484 8.84863C21.6484 5.84082 19.2099 3.40332 16.2031 3.40332ZM18.3672 8.40138H16.876L16.7158 8.65138V9.24807H18.3672V9.25001V9.97463V10.0958H16.7158V11.3751H15.6904V10.0958H14.0381V9.97463V9.25001V9.24807H15.6904V8.65238L15.5303 8.40138H14.0381V7.6787H15.0634L14.1923 6.32126H15.0614L16.2021 8.09763L17.3446 6.32126H18.2138L17.3426 7.6787H18.3671V8.40138H18.3672Z" fill="#FF7300"/>
</g>
<defs>
<clipPath id="clip0_27_789">
<rect width="32" height="32" fill="white"/>
</clipPath>
</defs>
</svg>
