<svg width="32" height="32" viewBox="0 0 32 32" fill="none" xmlns="http://www.w3.org/2000/svg">
<path d="M9.7708 12.0036C9.40061 12.5076 9.4553 13.1779 9.8938 13.4996L15.1823 17.5796C15.2051 17.5966 15.2313 17.6069 15.2563 17.6217C15.2677 17.6279 15.278 17.6347 15.2894 17.6399C15.7461 17.8945 16.3521 17.7595 16.7553 17.3152C16.7667 17.3027 16.7792 17.2942 16.7906 17.2817L23.2727 9.61331C23.6418 9.19925 23.6475 8.60412 23.2887 8.28462C22.9288 7.96456 22.3388 8.04143 21.9709 8.45487L15.9124 14.9274L11.2346 11.6697C10.7971 11.3481 10.141 11.4972 9.7708 12.0036Z" fill="#FF7300"/>
<path d="M3.31025 15.9999C3.31025 15.7203 3.31562 15.4402 3.34525 15.165H0.025625C0.0054375 15.4401 0 15.7203 0 15.9999C0 16.2853 0.0054375 16.5604 0.025625 16.8354H3.34531C3.31563 16.5604 3.31025 16.2801 3.31025 15.9999Z" fill="#FF7300"/>
<path d="M31.9751 15.165H28.6554H28.6201V16.8354H28.6554H31.9751C31.9953 16.5604 32.0001 16.2801 32.0001 15.9999C32.0001 15.7203 31.9953 15.4401 31.9751 15.165Z" fill="#FF7300"/>
<path d="M9.18167 5.29566C9.49517 5.09753 9.81561 4.91016 10.1408 4.74441C10.1857 4.72216 10.2239 4.70003 10.2677 4.68347L8.61336 1.80859C8.19967 2.01878 7.79586 2.25059 7.4043 2.50397L9.05961 5.37884C9.09886 5.35097 9.14267 5.32359 9.18167 5.29566Z" fill="#FF7300"/>
<path d="M1.81079 8.61238L4.68454 10.2668L5.37992 9.05895L2.50504 7.40332C2.25104 7.79513 2.01954 8.19776 1.81079 8.61238Z" fill="#FF7300"/>
<path d="M27.2559 21.8592C27.0839 22.1844 26.9023 22.5044 26.6984 22.813C26.671 22.8524 26.6423 22.8962 26.6152 22.9349L29.4901 24.5893C29.7441 24.198 29.9756 23.8012 30.1902 23.3877L27.322 21.7275C27.2998 21.7709 27.2773 21.8154 27.2559 21.8592Z" fill="#FF7300"/>
<path d="M4.74492 21.854L4.67886 21.7275L1.81055 23.382C2.01442 23.7966 2.2508 24.198 2.5048 24.5893L5.37967 22.9349C5.35261 22.8962 5.32386 22.8524 5.29648 22.813C5.09861 22.5044 4.91092 22.1843 4.74492 21.854Z" fill="#FF7300"/>
<path d="M30.1902 8.61232C29.9804 8.19776 29.744 7.79513 29.4901 7.40332L26.6152 9.05888L27.316 10.2668L30.1902 8.61232Z" fill="#FF7300"/>
<path d="M9.18149 26.6974C9.14249 26.67 9.09868 26.6421 9.05937 26.6143L7.40405 29.4891C7.79562 29.7431 8.19943 29.9801 8.61312 30.1908L10.2675 27.3153C10.2236 27.2994 10.1855 27.2766 10.1406 27.2549C9.81543 27.0886 9.49499 26.9018 9.18149 26.6974Z" fill="#FF7300"/>
<path d="M21.7275 4.67722L22.9358 5.37884L24.591 2.50397C24.1995 2.25059 23.8017 2.01878 23.3885 1.80859L21.7275 4.67722Z" fill="#FF7300"/>
<path d="M15.1648 28.6548V31.9699C15.4405 31.995 15.7201 32.0001 16 32.0001C16.2802 32.0001 16.5601 31.995 16.8355 31.9699V28.6548V28.6201H15.1648V28.6548Z" fill="#FF7300"/>
<path d="M16.8355 3.34525V0.030125C16.5601 0.005125 16.2802 0 16 0C15.7201 0 15.4405 0.005125 15.1648 0.030125V3.34525V3.38H16.8355V3.34525Z" fill="#FF7300"/>
<path d="M21.7275 27.3216L23.3885 30.1908C23.8017 29.9749 24.1995 29.7431 24.591 29.4891L22.9358 26.6143L21.7275 27.3216Z" fill="#FF7300"/>
</svg>
