<svg width="32" height="32" viewBox="0 0 32 32" fill="none" xmlns="http://www.w3.org/2000/svg">
<g clip-path="url(#clip0_27_821)">
<path d="M10.6339 13.9131H7.45386V17.0934H10.6339V13.9131Z" fill="#FF7300"/>
<path d="M24.5472 13.9131H21.3672V17.0934H24.5472V13.9131Z" fill="#FF7300"/>
<path d="M19.9093 13.9131H16.7292V17.0934H19.9093V13.9131Z" fill="#FF7300"/>
<path d="M10.6339 18.8818H7.45386V22.0621H10.6339V18.8818Z" fill="#FF7300"/>
<path d="M19.9093 18.8818H16.7292V22.0621H19.9093V18.8818Z" fill="#FF7300"/>
<path d="M15.2716 18.8818H12.0916V22.0621H15.2716V18.8818Z" fill="#FF7300"/>
<path d="M24.5472 23.8506H21.3672V27.0309H24.5472V23.8506Z" fill="#FF7300"/>
<path d="M19.9093 23.8506H16.7292V27.0309H19.9093V23.8506Z" fill="#FF7300"/>
<path d="M15.2716 23.8506H12.0916V27.0309H15.2716V23.8506Z" fill="#FF7300"/>
<path d="M27.4552 3.44043H24.8692V5.9198C24.8692 6.84493 24.107 7.5973 23.1703 7.5973H19.7937C18.857 7.5973 18.0948 6.84493 18.0948 5.9198V3.44043H13.9015V5.89649C13.9015 6.83449 13.1309 7.5973 12.1837 7.5973H8.84471C7.89752 7.5973 7.12696 6.83449 7.12696 5.89649V3.44043H4.54096C2.85934 3.44043 1.49121 4.79618 1.49121 6.46255V28.9779C1.49121 30.6442 2.85934 32.0001 4.54096 32.0001H27.4552C29.1394 32.0001 30.5096 30.6443 30.5096 28.9779V6.46255C30.5096 4.79624 29.1394 3.44043 27.4552 3.44043ZM28.3233 28.9192C28.3233 29.4542 27.9639 29.8136 27.4289 29.8136H4.5719C4.0369 29.8136 3.67746 29.4542 3.67746 28.9192V11.1306H28.3233V28.9192Z" fill="#FF7300"/>
<path d="M8.84563 6.40669H12.1826C12.4652 6.40669 12.6951 6.17837 12.6951 5.89769V1.28081C12.6951 0.574562 12.1157 0 11.4034 0H9.62476C8.91257 0 8.33301 0.5745 8.33301 1.28081V5.89769C8.33307 6.17837 8.56295 6.40669 8.84563 6.40669Z" fill="#FF7300"/>
<path d="M19.7934 6.40669H23.17C23.4417 6.40669 23.6627 6.18713 23.6627 5.91756V1.26112C23.6627 0.565812 23.0922 0 22.3908 0H20.5726C19.8713 0 19.3008 0.565812 19.3008 1.26112V5.91756C19.3007 6.18713 19.5218 6.40669 19.7934 6.40669Z" fill="#FF7300"/>
</g>
<defs>
<clipPath id="clip0_27_821">
<rect width="32" height="32" fill="white"/>
</clipPath>
</defs>
</svg>
