<svg width="30" height="30" viewBox="0 0 30 30" fill="none" xmlns="http://www.w3.org/2000/svg">
<path fill-rule="evenodd" clip-rule="evenodd" d="M6.83765 6.8375C7.01343 6.66194 7.25171 6.56332 7.50015 6.56332C7.74859 6.56332 7.98687 6.66194 8.16265 6.8375L23.1627 21.8375C23.2548 21.9233 23.3286 22.0268 23.3799 22.1418C23.4311 22.2568 23.4587 22.381 23.4609 22.5068C23.4631 22.6327 23.44 22.7578 23.3928 22.8745C23.3457 22.9912 23.2755 23.0973 23.1865 23.1863C23.0974 23.2753 22.9914 23.3455 22.8746 23.3927C22.7579 23.4398 22.6329 23.463 22.507 23.4607C22.3811 23.4585 22.257 23.431 22.142 23.3797C22.027 23.3285 21.9235 23.2546 21.8377 23.1625L6.83765 8.1625C6.66209 7.98672 6.56348 7.74844 6.56348 7.5C6.56348 7.25156 6.66209 7.01328 6.83765 6.8375Z" fill="#333333"/>
<path fill-rule="evenodd" clip-rule="evenodd" d="M23.1626 6.8375C23.3381 7.01328 23.4367 7.25156 23.4367 7.5C23.4367 7.74844 23.3381 7.98672 23.1626 8.1625L8.16255 23.1625C7.98483 23.3281 7.74978 23.4183 7.5069 23.414C7.26402 23.4097 7.03229 23.3113 6.86052 23.1395C6.68876 22.9678 6.59037 22.736 6.58608 22.4932C6.5818 22.2503 6.67195 22.0152 6.83755 21.8375L21.8376 6.8375C22.0133 6.66194 22.2516 6.56332 22.5001 6.56332C22.7485 6.56332 22.9868 6.66194 23.1626 6.8375Z" fill="#333333"/>
</svg>
