<svg width="80" height="80" viewBox="0 0 80 80" fill="none" xmlns="http://www.w3.org/2000/svg">
<path d="M18.4444 18.1305C21.8016 18.1305 24.5242 15.4091 24.5242 12.0518C24.5242 8.69336 21.8016 5.9707 18.4444 5.9707C15.0859 5.9707 12.3633 8.69336 12.3633 12.0518C12.3633 15.4091 15.0859 18.1305 18.4444 18.1305Z" fill="#FF7300"/>
<path d="M35.497 6.38156H75.093V38.6091H35.497V35.9181C34.9795 35.9095 34.4609 35.8644 33.952 35.7717L33.786 35.7412L32.1154 35.2788V41.9908H78.4762V40.2992V3H32.1152V19.1944L35.497 20.3769V6.38156Z" fill="#FF7300"/>
<path d="M36.5195 56.615C36.5195 59.9722 39.2409 62.6948 42.6006 62.6948C45.9578 62.6948 48.6805 59.9722 48.6805 56.615C48.6805 53.2566 45.9578 50.5352 42.6006 50.5352C39.2409 50.5352 36.5195 53.2566 36.5195 56.615Z" fill="#FF7300"/>
<path d="M42.6009 65.7334C36.8981 65.7334 31.8323 67.6348 30.5693 73.9575L30.6706 78.1409H54.5312L54.6312 73.9575C53.3682 67.6348 48.3025 65.7334 42.6009 65.7334Z" fill="#FF7300"/>
<path d="M61.8877 56.615C61.8877 59.9722 64.6103 62.6948 67.9688 62.6948C71.326 62.6948 74.0486 59.9722 74.0486 56.615C74.0486 53.2566 71.326 50.5352 67.9688 50.5352C64.6103 50.5352 61.8877 53.2566 61.8877 56.615Z" fill="#FF7300"/>
<path d="M67.9682 65.7334C62.2654 65.7334 57.1996 67.6348 55.9365 73.9575L56.0378 78.1409H79.8984L79.9998 73.9575C78.7356 67.6348 73.6709 65.7334 67.9682 65.7334Z" fill="#FF7300"/>
<path d="M38.4025 31.4777L48.2142 26.7828C49.5383 26.2227 50.1583 24.6972 49.5981 23.3719C49.0392 22.0478 47.5125 21.4291 46.1884 21.988L37.3664 25.0023L29.3839 22.2114C28.2197 21.8039 27.0115 21.5402 25.7875 21.4219L20.4069 29.7167V25.2758H17.1265V29.7484L11.1003 22.475C7.8603 23.8148 5.40483 26.3508 4.52983 30.7284L0.0632656 49.3744C-0.250484 50.7791 0.633266 52.1691 2.0378 52.4827C3.43998 52.7962 4.82998 51.9114 5.14358 50.5094L9.84202 38.0859L11.0576 75.057C11.0576 76.7606 12.4378 78.1409 14.1414 78.1409C15.8462 78.1409 17.2265 76.7606 17.2265 75.057L18.453 53.0098L19.6758 75.057C19.6758 76.7606 21.0586 78.1409 22.7609 78.1409C24.4647 78.1409 25.8459 76.7606 25.8459 75.057L27.5812 30.1327L34.624 32.0841C35.9153 32.3197 37.2492 32.1048 38.4025 31.4777Z" fill="#FF7300"/>
<path d="M20.4073 21.5391H17.127V23.8383H20.4073V21.5391Z" fill="#FF7300"/>
</svg>
