<svg width="80" height="80" viewBox="0 0 80 80" fill="none" xmlns="http://www.w3.org/2000/svg">
<g clip-path="url(#clip0_27_693)">
<path d="M42.9952 11.6762C46.2198 11.6762 48.8346 9.0625 48.8346 5.83812C48.8346 2.61359 46.2198 0 42.9952 0C39.772 0 37.1582 2.61359 37.1582 5.83812C37.1582 9.0625 39.772 11.6762 42.9952 11.6762Z" fill="#FF7300"/>
<path d="M58.1557 65.6243H44.1325V55.4134H30.1147V45.2004H16.0922V34.9873H4.14941V39.1501H11.9307V49.3631H25.9532V59.5762H39.971V69.7871H53.9946V80.0001H71.9116V75.8386L58.1557 75.8375V65.6243Z" fill="#FF7300"/>
<path d="M74.684 28.3192C74.5846 27.6564 73.9671 27.1992 73.3031 27.2986L70.5009 27.7197L70.2615 26.1267C70.1621 25.4787 69.5593 25.035 68.9123 25.1309L68.6188 25.175C68.5781 24.904 68.4845 24.6364 68.3298 24.3903L64.2834 17.9198C63.8465 17.222 63.1815 16.6981 62.4001 16.4373L55.0742 13.0209C52.5965 11.8659 49.7288 11.9901 47.3523 13.3054L45.8292 22.5701L40.1841 17.7842L35.6713 20.6259L29.0802 17.5323C28.0562 16.9587 26.7646 17.2987 26.1562 18.3011L26.0726 18.4365C25.7723 18.9345 25.6798 19.5293 25.8198 20.0929C25.9585 20.6564 26.3188 21.1406 26.8177 21.4386L34.6735 26.1264C35.6501 26.7101 36.8413 26.8151 37.9059 26.4132L42.5585 23.9068L44.7646 32.8056L37.4315 32.7684C36.1963 32.765 35.0234 33.3126 34.2352 34.2643C33.4471 35.2161 33.1277 36.4704 33.3624 37.6842L35.8293 50.3845C36.1024 51.7912 37.4359 52.7329 38.8527 52.5207L38.9588 52.5048C40.3623 52.2948 41.3568 51.027 41.227 49.6145L40.3915 40.5145L51.457 40.772C53.0456 40.8081 54.5646 40.1226 55.5887 38.9068C56.6127 37.692 57.0293 36.0775 56.7234 34.5172L56.4399 33.0789L54.1643 20.2351L60.029 21.1011L64.3193 26.0767C64.0665 26.3342 63.9185 26.6864 63.9749 27.0703L64.2143 28.6656L61.4132 29.0867C60.7493 29.1861 60.2932 29.8047 60.3937 30.4686L61.5442 38.1232C61.6448 38.7859 62.2623 39.2432 62.9251 39.1439L74.8159 37.3554C75.4787 37.2561 75.9348 36.6373 75.8354 35.9736L74.684 28.3192ZM46.1182 26.3275C46.1182 25.9278 46.4423 25.6048 46.8407 25.6048C47.2392 25.6048 47.5632 25.9278 47.5632 26.3275C47.5632 26.7272 47.2392 27.05 46.8407 27.05C46.4423 27.05 46.1182 26.7272 46.1182 26.3275ZM47.6107 31.0965C47.2121 31.0965 46.8881 30.7737 46.8881 30.374C46.8881 29.9743 47.2121 29.6515 47.6107 29.6515C48.0091 29.6515 48.3332 29.9743 48.3332 30.374C48.3332 30.7737 48.0093 31.0965 47.6107 31.0965ZM65.1156 26.9756C65.792 27.6326 66.8318 27.7568 67.6401 27.2442L67.6876 27.2137C68.0285 26.9981 68.2815 26.6956 68.4418 26.3568L69.0831 26.2598L69.1327 26.2961L69.3721 27.8901L65.3438 28.4953L65.1156 26.9756Z" fill="#FF7300"/>
<path d="M61.5097 60.1307C62.4919 61.157 64.1144 61.219 65.1722 60.2695L65.248 60.2029C66.3025 59.2568 66.4177 57.6434 65.5098 56.554L59.4628 48.4396L57.5344 39.0449C57.4034 39.2335 57.2691 39.4199 57.12 39.5971C55.6817 41.3052 53.5744 42.2852 51.34 42.2852L50.3125 42.2615L52.5672 49.591C53.0887 50.6704 53.7673 51.6685 54.5786 52.5548L61.5097 60.1307Z" fill="#FF7300"/>
<path d="M42.8093 18.578L44.6734 19.5353L45.4445 17.4716L44.4385 15.3242L41.9941 16.837L42.8093 18.578Z" fill="#FF7300"/>
</g>
<defs>
<clipPath id="clip0_27_693">
<rect width="80" height="80" fill="white"/>
</clipPath>
</defs>
</svg>
