<svg width="80" height="80" viewBox="0 0 80 80" fill="none" xmlns="http://www.w3.org/2000/svg">
<g clip-path="url(#clip0_27_655)">
<path d="M7.38969 66.0695C5.68531 64.3626 4.63734 62.0273 4.63453 59.4348V49.7793H0V59.4348C0.00265625 67.1762 6.28594 73.4565 14.0258 73.462H20.3589V68.826H14.0258C11.4319 68.8248 9.09937 67.7765 7.38969 66.0695Z" fill="#FF7300"/>
<path d="M13.4264 36.8614C16.807 36.8614 19.5427 34.1258 19.5427 30.7436C19.5427 27.3672 16.8072 24.626 13.4264 24.626C10.0484 24.626 7.30859 27.3672 7.30859 30.7436C7.30859 34.1258 10.0484 36.8614 13.4264 36.8614Z" fill="#FF7300"/>
<path d="M27.9946 57.7043H19.4122V44.9296C19.4122 41.6225 16.735 38.9424 13.4266 38.9424C10.1224 38.9424 7.44238 41.6224 7.44238 44.9296V59.4836C7.44238 62.7891 10.121 65.4693 13.4266 65.4693C13.8755 65.4693 24.3679 65.4388 24.3679 65.4388L24.9419 74.2963C24.9822 76.1104 26.4863 77.5491 28.3004 77.51C30.1172 77.4697 31.5544 75.9657 31.5129 74.1516L31.8618 61.5716C31.8618 59.4335 30.1311 57.7043 27.9946 57.7043Z" fill="#FF7300"/>
<path d="M75.3658 49.7793V59.4348C75.3632 62.0273 74.315 64.3626 72.6108 66.0695C70.901 67.7765 68.5685 68.8248 65.9761 68.826H59.6416V73.462H65.9761C73.7146 73.4563 79.9964 67.176 80.0005 59.4348V49.7793H75.3658Z" fill="#FF7300"/>
<path d="M66.5734 36.8614C69.9512 36.8614 72.6911 34.1258 72.6911 30.7436C72.6911 27.3672 69.9512 24.626 66.5734 24.626C63.1928 24.626 60.457 27.3672 60.457 30.7436C60.457 34.1258 63.1928 36.8614 66.5734 36.8614Z" fill="#FF7300"/>
<path d="M72.5595 59.4836V44.9296C72.5595 41.6225 69.8766 38.9424 66.5738 38.9424C63.2655 38.9424 60.5882 41.6224 60.5882 44.9296V57.7043H52.0059C49.8693 57.7043 48.1387 59.4335 48.1387 61.5714L48.4876 74.1514C48.4459 75.9655 49.8832 77.4696 51.7001 77.5099C53.5141 77.5489 55.018 76.11 55.0584 74.2961L55.6326 65.4386C55.6326 65.4386 66.1249 65.4691 66.5738 65.4691C69.8791 65.4693 72.5595 62.7893 72.5595 59.4836Z" fill="#FF7300"/>
<path d="M57.1928 49.8379H24.0078V55.4857H57.1928V49.8379Z" fill="#FF7300"/>
<path d="M41.9944 58.5176H38.1328V72.189H41.9944V58.5176Z" fill="#FF7300"/>
<path d="M56.1861 24.9066C56.1861 26.0451 55.8184 27.1155 55.1428 28.0776C54.4679 29.0409 53.4754 29.8832 52.2578 30.5088L51.3693 30.9648L52.5218 33.5407C49.0265 32.936 45.7828 31.7988 44.1445 31.1623L44.112 31.1484L44.0773 31.1387C41.8803 30.4477 40.1636 29.094 39.292 27.4926L37.4404 28.506C38.624 30.6549 40.7717 32.287 43.3823 33.1238V33.1266C45.4098 33.912 49.6717 35.4049 54.1492 35.9082L55.9792 36.1098L54.0873 31.8784C55.1981 31.1791 56.1515 30.3118 56.8675 29.2913C57.7648 28.018 58.2965 26.5113 58.2945 24.907C58.2965 22.9109 57.4717 21.0704 56.1426 19.6304C54.8123 18.1848 52.9787 17.1088 50.875 16.5332L50.3195 18.5668C52.0779 19.0437 53.5667 19.9388 54.5898 21.0565C55.6182 22.1793 56.1861 23.4902 56.1861 24.9066Z" fill="#FF7300"/>
<path d="M25.2694 24.4314L22.7338 30.1002L24.5654 29.8972C30.8874 29.191 36.9418 27.0725 39.8157 25.9591C42.5466 25.0847 44.9033 23.5932 46.5999 21.6541C48.3111 19.7025 49.3466 17.2768 49.3454 14.6536C49.3466 12.9383 48.9025 11.3008 48.1165 9.83145C46.9371 7.62551 44.9965 5.79332 42.595 4.51176C40.1957 3.22879 37.3274 2.48926 34.2469 2.48926C30.1441 2.49207 26.4105 3.80004 23.6622 5.97145C22.2894 7.05707 21.1643 8.36098 20.3761 9.8316C19.5914 11.301 19.1494 12.9385 19.1494 14.6538C19.1472 16.8418 19.8722 18.8979 21.1024 20.6507C22.1583 22.1488 23.5875 23.4305 25.2694 24.4314ZM22.2369 10.8254C23.1871 9.04316 24.8094 7.48223 26.893 6.36879C28.974 5.25676 31.508 4.59504 34.2472 4.59785C37.8991 4.59504 41.1865 5.77098 43.526 7.62254C44.6943 8.54832 45.6243 9.63676 46.2582 10.8254C46.8935 12.0152 47.2375 13.301 47.2375 14.6535C47.2354 16.715 46.4383 18.6374 45.0149 20.2666C43.5935 21.893 41.5452 23.208 39.1168 23.9711L39.0861 23.981L39.0536 23.9947C36.5647 24.9596 31.5319 26.7193 26.1836 27.5507L27.9969 23.4985L27.1066 23.0425C25.31 22.1222 23.8393 20.8754 22.8286 19.4352C21.8168 17.9936 21.2579 16.3771 21.2558 14.6533C21.2575 13.301 21.5997 12.0154 22.2369 10.8254Z" fill="#FF7300"/>
</g>
<defs>
<clipPath id="clip0_27_655">
<rect width="80" height="80" fill="white"/>
</clipPath>
</defs>
</svg>
