<svg width="80" height="80" viewBox="0 0 80 80" fill="none" xmlns="http://www.w3.org/2000/svg">
<g clip-path="url(#clip0_27_642)">
<path d="M63.2936 8.8418H56.9427V12.8859C56.9427 13.3723 56.8892 13.8476 56.7923 14.3068H63.9736C64.7691 14.3068 65.4142 14.9521 65.4142 15.7474V71.4443C65.4142 72.2398 64.7689 72.8849 63.9736 72.8849H16.0273C15.2319 72.8849 14.5867 72.2396 14.5867 71.4443V15.7474C14.5867 14.952 15.232 14.3068 16.0273 14.3068H23.2086C23.1117 13.8477 23.0584 13.3723 23.0584 12.8859V8.8418H16.7073C12.7291 8.8418 9.50391 12.067 9.50391 16.0454V72.797C9.50391 76.7752 12.7291 80.0004 16.7073 80.0004H63.2936C67.2719 80.0004 70.497 76.7752 70.497 72.797V16.0454C70.497 12.067 67.2719 8.8418 63.2936 8.8418Z" fill="#FF7300"/>
<path d="M29.9218 17.2077H50.079C52.4665 17.2077 54.4012 15.273 54.4012 12.8855V12.3891V9.05359V8.55734C54.4012 6.16984 52.4665 4.23516 50.079 4.23516H44.6165C44.3993 1.86391 42.4276 0 40.0004 0C37.572 0 35.6001 1.86391 35.3829 4.23516H29.9218C27.5343 4.23516 25.5996 6.16984 25.5996 8.55734V9.05359V12.3892V12.8856C25.5996 15.2731 27.5343 17.2077 29.9218 17.2077ZM40.0004 2.54141C41.1693 2.54141 42.1174 3.48953 42.1174 4.65828C42.1174 5.82844 41.1693 6.77656 40.0004 6.77656C38.8302 6.77656 37.8821 5.82844 37.8821 4.65828C37.8821 3.48937 38.8302 2.54141 40.0004 2.54141Z" fill="#FF7300"/>
<path d="M27.2436 33.6134L29.1 31.7572L34.2039 26.652L32.3487 24.7969L27.2436 29.9008L23.9962 26.652L22.1396 28.5083L27.2436 33.6134Z" fill="#FF7300"/>
<path d="M32.3487 38.1396L27.2436 43.2436L23.9962 39.9948L22.1396 41.8512L27.2436 46.9564L29.1 45.1L34.2039 39.9948L32.3487 38.1396Z" fill="#FF7300"/>
<path d="M23.9962 53.3366L22.1396 55.193L27.2436 60.2982L29.1 58.4418L34.2039 53.3366L32.3487 51.4814L27.2436 56.5854L23.9962 53.3366Z" fill="#FF7300"/>
</g>
<defs>
<clipPath id="clip0_27_642">
<rect width="80" height="80" fill="white"/>
</clipPath>
</defs>
</svg>
