<svg width="80" height="80" viewBox="0 0 80 80" fill="none" xmlns="http://www.w3.org/2000/svg">
<path d="M9.8375 62.2571H71.0994C73.1608 62.2571 74.847 60.5709 74.847 58.5105V15.4007C74.847 13.3393 73.1608 11.6543 71.0994 11.6543H9.8375C7.77391 11.6543 6.08984 13.3393 6.08984 15.4007V58.5105C6.08984 60.5709 7.77391 62.2571 9.8375 62.2571ZM10.9609 16.5243H69.9759V57.3851H10.9609V16.5243Z" fill="#FF7300"/>
<path d="M0 64.4111V65.348C0 66.9968 1.34859 68.3464 2.99734 68.3464H77.0006C78.6516 68.3464 80 66.9968 80 65.348V64.4111H0Z" fill="#FF7300"/>
<path d="M41.6362 48.4039C41.3515 48.6358 41.0666 48.8166 40.7776 48.9546C40.5834 48.9755 40.387 48.991 40.1884 49.0021V46.7111C39.7182 46.3239 39.2415 45.9233 38.7648 45.5105V49.0021C38.5684 48.991 38.3698 48.9757 38.1755 48.9546C37.8885 48.8166 37.6038 48.6357 37.3191 48.4039C36.3921 47.6502 35.5248 46.3779 34.8605 44.738H37.8885C37.3721 44.2777 36.8557 43.8021 36.3393 43.3144H34.3618C34.1255 42.5297 33.9357 41.6833 33.7901 40.795C33.2295 40.2135 32.6821 39.6297 32.1524 39.0469C32.2715 40.5632 32.5165 42.0011 32.8807 43.3144H29.2413C28.2216 41.668 27.5904 39.7599 27.4713 37.7096H30.9651C30.5524 37.2318 30.1507 36.7572 29.7621 36.2849H27.4712C27.5198 35.4439 27.6587 34.6307 27.8729 33.8461C27.3873 33.1861 26.9349 32.5361 26.5155 31.8994C25.8932 33.4797 25.5488 35.198 25.5488 36.9978C25.5488 44.6896 31.7838 50.9246 39.4777 50.9257C41.2765 50.9257 42.9959 50.5791 44.574 49.9579C43.7265 49.3994 42.8524 48.7804 41.9652 48.1083C41.857 48.213 41.7465 48.3135 41.6362 48.4039ZM30.9716 45.5028C30.7266 45.2589 30.4949 45.0029 30.2741 44.7382H33.342C33.5715 45.3627 33.8209 45.9553 34.1034 46.5016C34.4345 47.1428 34.8009 47.7253 35.2026 48.2419C33.6002 47.6327 32.1634 46.6935 30.9716 45.5028Z" fill="#FF7300"/>
<path d="M30.3825 29.1367C30.5722 28.9159 30.7644 28.6986 30.9717 28.4921C32.1658 27.2992 33.607 26.3579 35.2114 25.7489C34.4655 26.7067 33.8386 27.8964 33.3398 29.2559H30.4575C30.762 29.7204 31.0909 30.1961 31.4397 30.6793H32.8831C32.7506 31.1517 32.6403 31.6439 32.5366 32.1459C32.9206 32.637 33.3178 33.1336 33.735 33.6334C33.885 32.5861 34.0947 31.5907 34.3684 30.6792H38.765V36.2853H36.0591C36.5005 36.7609 36.9486 37.2365 37.412 37.71H38.7648V39.064C39.2372 39.5242 39.7139 39.9756 40.1884 40.4159V37.71H45.4523C45.3948 39.7548 45.0837 41.6628 44.5848 43.3148H43.5433C44.2273 43.8654 44.9028 44.3853 45.5648 44.8675C45.5803 44.8232 45.6002 44.7836 45.6156 44.7384H48.6813C48.4584 45.0031 48.2267 45.2592 47.9837 45.5031C47.7762 45.7093 47.56 45.9048 47.3394 46.0945C47.9242 46.4742 48.4916 46.8195 49.0344 47.1242C51.7248 44.585 53.4066 40.9886 53.4066 36.9981C53.4044 29.3053 47.1694 23.0693 39.4777 23.0693C35.485 23.0693 31.8898 24.7512 29.3516 27.4393C29.6562 27.9845 30.0027 28.5517 30.3825 29.1367ZM49.7142 43.3148H46.0703C46.5403 41.6198 46.825 39.7239 46.8803 37.71H51.482C51.3628 39.7604 50.7316 41.6684 49.7142 43.3148ZM49.7119 30.6793C50.7316 32.3259 51.3628 34.235 51.4819 36.2854H46.8758C46.8205 34.2736 46.5447 32.3734 46.0745 30.6793H49.7119ZM47.9837 28.4921C48.2266 28.7361 48.4584 28.9909 48.6791 29.2559H45.6134C45.3839 28.6323 45.1322 28.0387 44.852 27.4936C44.5209 26.8536 44.1523 26.2709 43.7506 25.7532C45.353 26.3623 46.7897 27.3026 47.9837 28.4921ZM40.1884 24.9917C40.387 25.0039 40.5834 25.0193 40.7798 25.0403C41.0667 25.1771 41.3516 25.3581 41.6362 25.5898C42.5631 26.3436 43.4284 27.6159 44.0948 29.2557H40.1883V24.9917H40.1884ZM40.1884 30.6793H44.5916C45.0903 32.3314 45.3972 34.2428 45.4567 36.2854H40.1884V30.6793ZM37.3192 25.5898C37.6039 25.3581 37.8886 25.1771 38.1756 25.0403C38.3697 25.0182 38.5662 25.0039 38.7648 24.9917V29.2557H34.8672C35.0261 28.8673 35.1895 28.492 35.3683 28.1478C35.9397 27.0376 36.6152 26.1659 37.3192 25.5898Z" fill="#FF7300"/>
<path d="M53.6387 44.0559C53.3032 44.7247 52.9235 45.3681 52.4998 45.9783C52.714 46.423 52.8948 46.8402 53.036 47.2241C53.3274 48.0022 53.4576 48.6487 53.4554 49.0825C53.4554 49.2866 53.4266 49.4422 53.3913 49.5459C53.356 49.6508 53.3185 49.705 53.2745 49.7502C53.2302 49.792 53.1773 49.8295 53.0713 49.8672C52.9676 49.9025 52.8132 49.9291 52.6077 49.9291C52.1995 49.9312 51.5993 49.8153 50.8774 49.5583C50.1579 49.3022 49.317 48.9116 48.3945 48.3984C45.2338 46.6416 41.1266 43.4502 37.0766 39.398C33.0266 35.3491 29.8329 31.2417 28.0762 28.08C27.564 27.1575 27.1734 26.3177 26.9174 25.5959C26.6591 24.8766 26.5445 24.2772 26.5465 23.8678C26.5465 23.6627 26.573 23.508 26.6084 23.4042C26.6459 23.2995 26.6834 23.2464 26.7252 23.2023C26.7716 23.1572 26.8246 23.1197 26.9305 23.0842C27.0343 23.0489 27.1888 23.0203 27.394 23.0203C27.8265 23.0181 28.4734 23.1483 29.2502 23.4373C29.6365 23.5808 30.0559 23.7619 30.5016 23.977C31.113 23.5533 31.7554 23.1736 32.4241 22.837C31.5302 22.3459 30.6871 21.9442 29.908 21.6573C28.9988 21.322 28.169 21.1244 27.3941 21.1211C27.0257 21.1222 26.6659 21.1686 26.3215 21.2845C25.9771 21.4005 25.6484 21.5923 25.3835 21.8595C25.1165 22.1242 24.9245 22.452 24.8098 22.7953C24.6951 23.1397 24.6485 23.4994 24.6465 23.868C24.6487 24.6006 24.8252 25.3788 25.1277 26.233C25.4301 27.0861 25.8648 28.0108 26.4166 29.0027C28.306 32.3928 31.5812 36.5863 35.7349 40.7411C39.8887 44.8948 44.0821 48.1702 47.4721 50.0594C48.4652 50.6112 49.3901 51.0448 50.2441 51.3484C51.0984 51.6497 51.8752 51.825 52.6079 51.8284C52.9765 51.8284 53.3363 51.782 53.6807 51.6663C54.0227 51.5514 54.3516 51.3594 54.6165 51.0936C54.8835 50.8277 55.0755 50.4987 55.1902 50.1555C55.3071 49.81 55.3535 49.4503 55.3535 49.0828C55.3513 48.307 55.1527 47.4772 54.8173 46.5656C54.5282 45.7884 54.1287 44.9477 53.6387 44.0559Z" fill="#FF7300"/>
</svg>
