<svg width="80" height="80" viewBox="0 0 80 80" fill="none" xmlns="http://www.w3.org/2000/svg">
<path d="M7.74219 0V80H72.2583V77.4194V0H7.74219ZM67.097 74.8387H43.8712V67.0969V59.355H36.1294V67.0969V74.8387H12.9034V5.16125H67.097V74.8387Z" fill="#FF7300"/>
<path d="M28.3874 12.9033H20.6455V20.6452H28.3874V12.9033Z" fill="#FF7300"/>
<path d="M43.8708 12.9033H36.1289V20.6452H43.8708V12.9033Z" fill="#FF7300"/>
<path d="M59.3552 12.9033H51.6133V20.6452H59.3552V12.9033Z" fill="#FF7300"/>
<path d="M28.3874 28.3867H20.6455V36.1286H28.3874V28.3867Z" fill="#FF7300"/>
<path d="M43.8708 28.3867H36.1289V36.1286H43.8708V28.3867Z" fill="#FF7300"/>
<path d="M59.3552 28.3867H51.6133V36.1286H59.3552V28.3867Z" fill="#FF7300"/>
<path d="M28.3874 43.8711H20.6455V51.613H28.3874V43.8711Z" fill="#FF7300"/>
<path d="M43.8708 43.8711H36.1289V51.613H43.8708V43.8711Z" fill="#FF7300"/>
<path d="M59.3552 43.8711H51.6133V51.613H59.3552V43.8711Z" fill="#FF7300"/>
<path d="M28.3874 59.3545H20.6455V67.0964H28.3874V59.3545Z" fill="#FF7300"/>
<path d="M59.3552 59.3545H51.6133V67.0964H59.3552V59.3545Z" fill="#FF7300"/>
</svg>
