<svg width="231" height="97" viewBox="0 0 231 97" fill="none" xmlns="http://www.w3.org/2000/svg">
<path d="M73.8681 19V17.928C75.0307 16.8933 76.0014 15.9493 76.7801 15.096C77.5587 14.232 78.1401 13.432 78.5241 12.696C78.9187 11.96 79.1161 11.272 79.1161 10.632C79.1161 10.2053 79.0414 9.832 78.8921 9.512C78.7534 9.18133 78.5347 8.93067 78.2361 8.76C77.9481 8.57867 77.5801 8.488 77.1321 8.488C76.6734 8.488 76.2521 8.616 75.8681 8.872C75.4841 9.11733 75.1321 9.42133 74.8121 9.784L73.7721 8.76C74.2734 8.20533 74.8014 7.77333 75.3561 7.464C75.9214 7.15467 76.5934 7 77.3721 7C78.0867 7 78.7107 7.14933 79.2441 7.448C79.7774 7.736 80.1881 8.14667 80.4761 8.68C80.7747 9.20267 80.9241 9.82133 80.9241 10.536C80.9241 11.2933 80.7374 12.0613 80.3641 12.84C79.9907 13.608 79.4787 14.3867 78.8281 15.176C78.1774 15.9547 77.4361 16.744 76.6041 17.544C76.9134 17.512 77.2387 17.4853 77.5801 17.464C77.9321 17.432 78.2467 17.416 78.5241 17.416H81.4841V19H73.8681ZM87.6651 19.224C86.8971 19.224 86.2251 18.9947 85.6491 18.536C85.0731 18.0773 84.6251 17.3947 84.3051 16.488C83.9957 15.5707 83.8411 14.4293 83.8411 13.064C83.8411 11.6987 83.9957 10.568 84.3051 9.672C84.6251 8.776 85.0731 8.10933 85.6491 7.672C86.2251 7.224 86.8971 7 87.6651 7C88.4331 7 89.0997 7.224 89.6651 7.672C90.2304 8.12 90.6677 8.792 90.9771 9.688C91.2971 10.5733 91.4571 11.6987 91.4571 13.064C91.4571 14.4293 91.2971 15.5707 90.9771 16.488C90.6677 17.3947 90.2304 18.0773 89.6651 18.536C89.0997 18.9947 88.4331 19.224 87.6651 19.224ZM87.6651 17.752C88.0597 17.752 88.4117 17.5973 88.7211 17.288C89.0304 16.9787 89.2704 16.4827 89.4411 15.8C89.6117 15.1067 89.6971 14.1947 89.6971 13.064C89.6971 11.9333 89.6117 11.032 89.4411 10.36C89.2704 9.688 89.0304 9.20267 88.7211 8.904C88.4117 8.60533 88.0597 8.456 87.6651 8.456C87.2704 8.456 86.9184 8.60533 86.6091 8.904C86.2997 9.20267 86.0544 9.688 85.8731 10.36C85.7024 11.032 85.6171 11.9333 85.6171 13.064C85.6171 14.1947 85.7024 15.1067 85.8731 15.8C86.0544 16.4827 86.2997 16.9787 86.6091 17.288C86.9184 17.5973 87.2704 17.752 87.6651 17.752ZM98.3101 10.952L108.15 9.672L108.358 11.112L98.5181 12.392L98.3101 10.952ZM104.454 6.456L105.574 5.736C105.883 5.98133 106.198 6.25867 106.518 6.568C106.838 6.87733 107.137 7.18667 107.414 7.496C107.691 7.79467 107.91 8.072 108.07 8.328L106.87 9.112C106.721 8.86667 106.513 8.58933 106.246 8.28C105.979 7.97067 105.691 7.656 105.382 7.336C105.073 7.00533 104.763 6.712 104.454 6.456ZM97.8141 5.64L99.2541 6.104C98.8594 7.05333 98.3901 7.98667 97.8461 8.904C97.3021 9.81067 96.7101 10.664 96.0701 11.464C95.4407 12.264 94.7954 12.968 94.1341 13.576C94.0807 13.4587 94.0007 13.304 93.8941 13.112C93.7981 12.92 93.6914 12.728 93.5741 12.536C93.4567 12.344 93.3554 12.1893 93.2701 12.072C93.8674 11.56 94.4487 10.9627 95.0141 10.28C95.5794 9.59733 96.1021 8.86133 96.5821 8.072C97.0621 7.28267 97.4727 6.472 97.8141 5.64ZM96.0701 10.056L97.6061 8.52L97.6221 8.536V20.312H96.0701V10.056ZM101.638 5.736H103.158C103.201 7.496 103.302 9.13867 103.462 10.664C103.622 12.1787 103.835 13.5173 104.102 14.68C104.379 15.832 104.721 16.744 105.126 17.416C105.542 18.0773 106.027 18.4453 106.582 18.52C106.785 18.5307 106.95 18.312 107.078 17.864C107.206 17.416 107.302 16.7387 107.366 15.832C107.473 15.928 107.601 16.0347 107.75 16.152C107.91 16.2587 108.07 16.36 108.23 16.456C108.401 16.552 108.529 16.6213 108.614 16.664C108.497 17.6347 108.337 18.392 108.134 18.936C107.931 19.4693 107.702 19.8373 107.446 20.04C107.201 20.2427 106.929 20.3387 106.63 20.328C105.894 20.264 105.259 19.9867 104.726 19.496C104.193 19.016 103.739 18.3493 103.366 17.496C103.003 16.632 102.705 15.608 102.47 14.424C102.235 13.2293 102.054 11.9013 101.926 10.44C101.798 8.97867 101.702 7.41067 101.638 5.736ZM118.78 8.056C118.673 8.87733 118.535 9.74667 118.364 10.664C118.204 11.5707 117.985 12.472 117.708 13.368C117.388 14.456 117.025 15.3787 116.62 16.136C116.225 16.8827 115.793 17.4533 115.324 17.848C114.855 18.2427 114.359 18.44 113.836 18.44C113.303 18.44 112.807 18.2587 112.348 17.896C111.889 17.5227 111.516 17.0053 111.228 16.344C110.94 15.672 110.796 14.8933 110.796 14.008C110.796 13.112 110.977 12.264 111.34 11.464C111.713 10.664 112.225 9.95467 112.876 9.336C113.527 8.71733 114.284 8.232 115.148 7.88C116.012 7.528 116.945 7.352 117.948 7.352C118.908 7.352 119.772 7.50667 120.54 7.816C121.319 8.12533 121.98 8.55733 122.524 9.112C123.079 9.656 123.5 10.296 123.788 11.032C124.076 11.768 124.22 12.552 124.22 13.384C124.22 14.504 123.985 15.5013 123.516 16.376C123.057 17.24 122.38 17.9493 121.484 18.504C120.588 19.048 119.489 19.416 118.188 19.608L117.244 18.104C117.521 18.072 117.777 18.04 118.012 18.008C118.247 17.9653 118.465 17.9227 118.668 17.88C119.18 17.7627 119.665 17.5813 120.124 17.336C120.593 17.0907 121.009 16.7813 121.372 16.408C121.735 16.024 122.017 15.576 122.22 15.064C122.433 14.552 122.54 13.976 122.54 13.336C122.54 12.696 122.439 12.104 122.236 11.56C122.033 11.0053 121.735 10.5253 121.34 10.12C120.945 9.71467 120.46 9.4 119.884 9.176C119.308 8.94133 118.657 8.824 117.932 8.824C117.057 8.824 116.279 8.97867 115.596 9.288C114.913 9.59733 114.332 10.008 113.852 10.52C113.383 11.0213 113.025 11.5653 112.78 12.152C112.535 12.7387 112.412 13.304 112.412 13.848C112.412 14.456 112.487 14.9627 112.636 15.368C112.785 15.7627 112.972 16.056 113.196 16.248C113.42 16.44 113.649 16.536 113.884 16.536C114.119 16.536 114.359 16.4187 114.604 16.184C114.849 15.9387 115.095 15.5547 115.34 15.032C115.596 14.5093 115.847 13.8427 116.092 13.032C116.337 12.264 116.54 11.448 116.7 10.584C116.871 9.70933 116.993 8.856 117.068 8.024L118.78 8.056ZM136.116 7.208H137.556V16.104H136.116V7.208ZM139.412 5.784H140.884V18.392C140.884 18.8507 140.825 19.2027 140.708 19.448C140.601 19.6933 140.409 19.88 140.132 20.008C139.855 20.1253 139.481 20.2 139.012 20.232C138.543 20.2747 137.988 20.296 137.348 20.296C137.327 20.1467 137.289 19.976 137.236 19.784C137.183 19.6027 137.119 19.416 137.044 19.224C136.98 19.032 136.911 18.8667 136.836 18.728C137.316 18.7387 137.764 18.7493 138.18 18.76C138.607 18.76 138.895 18.7547 139.044 18.744C139.183 18.744 139.279 18.7227 139.332 18.68C139.385 18.6267 139.412 18.5307 139.412 18.392V5.784ZM128.42 18.392H133.604V19.544H128.42V18.392ZM126.82 13.448H135.108V14.632H126.82V13.448ZM127.652 9.496H134.388V10.6H127.652V9.496ZM127.764 11.48H134.196V12.536H127.764V11.48ZM130.26 5.56H131.732V7.624H130.26V5.56ZM130.292 8.52H131.7V14.088H130.292V8.52ZM127.748 15.368H134.388V20.152H132.964V16.536H129.124V20.312H127.748V15.368ZM126.804 6.952H135.284V9.592H133.876V8.12H128.148V9.592H126.804V6.952ZM146.82 10.696H154.884V12.04H146.82V10.696ZM146.58 18.392H155.012V19.736H146.58V18.392ZM145.892 13.864H155.876V20.36H154.324V15.224H147.38V20.36H145.892V13.864ZM150.788 7.016C150.351 7.64533 149.791 8.30133 149.108 8.984C148.425 9.656 147.668 10.3013 146.836 10.92C146.004 11.5387 145.135 12.0933 144.228 12.584C144.164 12.4667 144.079 12.3333 143.972 12.184C143.865 12.0347 143.753 11.8907 143.636 11.752C143.519 11.6027 143.401 11.4747 143.284 11.368C144.212 10.9093 145.108 10.3547 145.972 9.704C146.836 9.04267 147.609 8.34933 148.292 7.624C148.985 6.89867 149.535 6.2 149.94 5.528H151.492C151.929 6.12533 152.415 6.70667 152.948 7.272C153.492 7.82667 154.068 8.35467 154.676 8.856C155.295 9.34667 155.924 9.78933 156.564 10.184C157.215 10.568 157.86 10.8987 158.5 11.176C158.308 11.368 158.127 11.5867 157.956 11.832C157.785 12.0667 157.631 12.296 157.492 12.52C156.873 12.1893 156.244 11.816 155.604 11.4C154.964 10.9733 154.345 10.5147 153.748 10.024C153.161 9.53333 152.612 9.032 152.1 8.52C151.588 8.008 151.151 7.50667 150.788 7.016Z" fill="#333333"/>
<path d="M69.75 35.9688C69.7708 35.9688 69.6667 36.1979 69.4375 36.6562C69.2292 37.0938 68.9375 37.6979 68.5625 38.4688C68.1875 39.2396 67.75 40.125 67.25 41.125C66.75 42.125 66.2188 43.1771 65.6562 44.2812C65.1146 45.3854 64.5521 46.5 63.9688 47.625C63.4062 48.75 62.8542 49.8229 62.3125 50.8438C61.7917 51.8646 61.3125 52.7917 60.875 53.625C60.4375 54.4583 60.0729 55.125 59.7812 55.625C60.3854 55.2708 61.0625 55.0625 61.8125 55C62.5833 54.9167 63.4688 54.8958 64.4688 54.9375C65.9062 54.9792 67.1562 55.2292 68.2188 55.6875C69.3021 56.1458 70.2292 56.7188 71 57.4062C71.7708 58.0938 72.4062 58.8646 72.9062 59.7188C73.4271 60.5521 73.8333 61.375 74.125 62.1875C74.4167 62.9792 74.6146 63.7292 74.7188 64.4375C74.8438 65.125 74.9062 65.6667 74.9062 66.0625C74.9062 66.1875 74.9062 66.4167 74.9062 66.75C74.9062 67.0833 74.9062 67.4583 74.9062 67.875C74.9062 68.2708 74.8958 68.6771 74.875 69.0938C74.875 69.5104 74.8646 69.8646 74.8438 70.1562C74.8229 70.3021 74.75 70.6875 74.625 71.3125C74.5208 71.9167 74.3125 72.6458 74 73.5C73.7083 74.3333 73.2812 75.2396 72.7188 76.2188C72.1562 77.1771 71.4167 78.0938 70.5 78.9688C69.5833 79.8229 68.4688 80.5625 67.1562 81.1875C65.8438 81.8125 64.2812 82.1979 62.4688 82.3438C60.5729 82.5104 58.8958 82.3854 57.4375 81.9688C55.9792 81.5521 54.7188 80.9583 53.6562 80.1875C52.5938 79.4167 51.7083 78.5312 51 77.5312C50.2917 76.5104 49.7292 75.4688 49.3125 74.4062C48.9167 73.3438 48.6458 72.3229 48.5 71.3438C48.375 70.3646 48.3542 69.5312 48.4375 68.8438C48.5625 67.8229 48.6979 66.9167 48.8438 66.125C48.9896 65.3125 49.1562 64.5417 49.3438 63.8125C49.5521 63.0833 49.7812 62.3646 50.0312 61.6562C50.2812 60.9479 50.5729 60.1771 50.9062 59.3438C50.9896 59.1354 51.2188 58.6458 51.5938 57.875C51.9688 57.0833 52.4271 56.1146 52.9688 54.9688C53.5312 53.8229 54.1562 52.5625 54.8438 51.1875C55.5312 49.8125 56.2188 48.4167 56.9062 47C58.5312 43.7083 60.3542 40.0312 62.375 35.9688H69.75ZM68.4375 69.3125C68.4375 68.5208 68.4062 67.6458 68.3438 66.6875C68.2812 65.7292 68.0417 64.8229 67.625 63.9688C67.2292 63.0938 66.5729 62.3438 65.6562 61.7188C64.7396 61.0938 63.4375 60.7188 61.75 60.5938C60.9583 60.5312 60.2396 60.6146 59.5938 60.8438C58.9479 61.0729 58.375 61.3854 57.875 61.7812C57.375 62.1771 56.9375 62.6354 56.5625 63.1562C56.2083 63.6562 55.9062 64.1562 55.6562 64.6562C55.4271 65.1562 55.2604 65.625 55.1562 66.0625C55.0521 66.4792 55 66.8021 55 67.0312C55 67.5521 55.0104 68.1354 55.0312 68.7812C55.0521 69.4062 55.1146 70.0417 55.2188 70.6875C55.3438 71.3125 55.5417 71.9271 55.8125 72.5312C56.0833 73.1146 56.4688 73.6354 56.9688 74.0938C57.4688 74.5521 58.1042 74.9271 58.875 75.2188C59.6667 75.5104 60.6458 75.6562 61.8125 75.6562C62.75 75.6771 63.5625 75.5625 64.25 75.3125C64.9583 75.0417 65.5521 74.7083 66.0312 74.3125C66.5312 73.8958 66.9375 73.4375 67.25 72.9375C67.5625 72.4375 67.8021 71.9479 67.9688 71.4688C68.1562 70.9896 68.2812 70.5625 68.3438 70.1875C68.4062 69.7917 68.4375 69.5 68.4375 69.3125ZM79.9375 61.0625V36.4375H104.219V42.9688H86.0938V53.2812C88.2188 51.6146 90.6458 50.7812 93.375 50.7812C95.125 50.8229 96.7292 51.1354 98.1875 51.7188C99.5625 52.3646 100.677 53.1562 101.531 54.0938C102.802 55.3438 103.719 56.7917 104.281 58.4375C104.573 59.3333 104.781 60.4271 104.906 61.7188C105.031 63.0312 105.094 64.6458 105.094 66.5625C105.094 69.5208 104.885 71.7917 104.469 73.375C104.031 74.9375 103.302 76.3229 102.281 77.5312C101.385 78.7188 100.083 79.8021 98.375 80.7812C96.7083 81.8021 94.7292 82.3333 92.4375 82.375C89.3542 82.375 86.5312 81.4583 83.9688 79.625C81.3646 77.75 79.75 74.7188 79.125 70.5312H85.6562C86.3646 74.0312 88.5417 75.8021 92.1875 75.8438C93.75 75.8438 95 75.5312 95.9375 74.9062C96.8333 74.3021 97.4583 73.5104 97.8125 72.5312C98.1875 71.5521 98.4167 70.4896 98.5 69.3438C98.5417 68.2188 98.5625 67.125 98.5625 66.0625C98.6042 63.4583 98.1979 61.3438 97.3438 59.7188C96.8854 58.9479 96.2083 58.3333 95.3125 57.875C94.4167 57.5 93.3021 57.3125 91.9688 57.3125C90.7812 57.3125 89.6979 57.5833 88.7188 58.125C87.7396 58.6875 86.8646 59.6667 86.0938 61.0625H79.9375ZM111.906 82V75.4688H118.438V82H111.906ZM146.625 35.9688C146.646 35.9688 146.542 36.1979 146.312 36.6562C146.104 37.0938 145.812 37.6979 145.438 38.4688C145.062 39.2396 144.625 40.125 144.125 41.125C143.625 42.125 143.094 43.1771 142.531 44.2812C141.99 45.3854 141.427 46.5 140.844 47.625C140.281 48.75 139.729 49.8229 139.188 50.8438C138.667 51.8646 138.188 52.7917 137.75 53.625C137.312 54.4583 136.948 55.125 136.656 55.625C137.26 55.2708 137.938 55.0625 138.688 55C139.458 54.9167 140.344 54.8958 141.344 54.9375C142.781 54.9792 144.031 55.2292 145.094 55.6875C146.177 56.1458 147.104 56.7188 147.875 57.4062C148.646 58.0938 149.281 58.8646 149.781 59.7188C150.302 60.5521 150.708 61.375 151 62.1875C151.292 62.9792 151.49 63.7292 151.594 64.4375C151.719 65.125 151.781 65.6667 151.781 66.0625C151.781 66.1875 151.781 66.4167 151.781 66.75C151.781 67.0833 151.781 67.4583 151.781 67.875C151.781 68.2708 151.771 68.6771 151.75 69.0938C151.75 69.5104 151.74 69.8646 151.719 70.1562C151.698 70.3021 151.625 70.6875 151.5 71.3125C151.396 71.9167 151.188 72.6458 150.875 73.5C150.583 74.3333 150.156 75.2396 149.594 76.2188C149.031 77.1771 148.292 78.0938 147.375 78.9688C146.458 79.8229 145.344 80.5625 144.031 81.1875C142.719 81.8125 141.156 82.1979 139.344 82.3438C137.448 82.5104 135.771 82.3854 134.312 81.9688C132.854 81.5521 131.594 80.9583 130.531 80.1875C129.469 79.4167 128.583 78.5312 127.875 77.5312C127.167 76.5104 126.604 75.4688 126.188 74.4062C125.792 73.3438 125.521 72.3229 125.375 71.3438C125.25 70.3646 125.229 69.5312 125.312 68.8438C125.438 67.8229 125.573 66.9167 125.719 66.125C125.865 65.3125 126.031 64.5417 126.219 63.8125C126.427 63.0833 126.656 62.3646 126.906 61.6562C127.156 60.9479 127.448 60.1771 127.781 59.3438C127.865 59.1354 128.094 58.6458 128.469 57.875C128.844 57.0833 129.302 56.1146 129.844 54.9688C130.406 53.8229 131.031 52.5625 131.719 51.1875C132.406 49.8125 133.094 48.4167 133.781 47C135.406 43.7083 137.229 40.0312 139.25 35.9688H146.625ZM145.312 69.3125C145.312 68.5208 145.281 67.6458 145.219 66.6875C145.156 65.7292 144.917 64.8229 144.5 63.9688C144.104 63.0938 143.448 62.3438 142.531 61.7188C141.615 61.0938 140.312 60.7188 138.625 60.5938C137.833 60.5312 137.115 60.6146 136.469 60.8438C135.823 61.0729 135.25 61.3854 134.75 61.7812C134.25 62.1771 133.812 62.6354 133.438 63.1562C133.083 63.6562 132.781 64.1562 132.531 64.6562C132.302 65.1562 132.135 65.625 132.031 66.0625C131.927 66.4792 131.875 66.8021 131.875 67.0312C131.875 67.5521 131.885 68.1354 131.906 68.7812C131.927 69.4062 131.99 70.0417 132.094 70.6875C132.219 71.3125 132.417 71.9271 132.688 72.5312C132.958 73.1146 133.344 73.6354 133.844 74.0938C134.344 74.5521 134.979 74.9271 135.75 75.2188C136.542 75.5104 137.521 75.6562 138.688 75.6562C139.625 75.6771 140.438 75.5625 141.125 75.3125C141.833 75.0417 142.427 74.7083 142.906 74.3125C143.406 73.8958 143.812 73.4375 144.125 72.9375C144.438 72.4375 144.677 71.9479 144.844 71.4688C145.031 70.9896 145.156 70.5625 145.219 70.1875C145.281 69.7917 145.312 69.5 145.312 69.3125ZM160.985 72.592C159.854 72.592 158.852 72.2933 157.977 71.696C157.102 71.0987 156.42 70.2347 155.929 69.104C155.438 67.952 155.193 66.5867 155.193 65.008C155.193 63.4293 155.438 62.0853 155.929 60.976C156.42 59.8453 157.102 58.992 157.977 58.416C158.852 57.8187 159.854 57.52 160.985 57.52C162.692 57.52 164.078 58.1707 165.145 59.472C166.233 60.7733 166.777 62.6187 166.777 65.008C166.777 66.5867 166.532 67.952 166.041 69.104C165.55 70.2347 164.868 71.0987 163.993 71.696C163.14 72.2933 162.137 72.592 160.985 72.592ZM160.985 69.904C161.689 69.904 162.276 69.5307 162.745 68.784C163.236 68.016 163.481 66.7573 163.481 65.008C163.481 63.2587 163.236 62.0213 162.745 61.296C162.276 60.5493 161.689 60.176 160.985 60.176C160.302 60.176 159.716 60.5493 159.225 61.296C158.756 62.0213 158.521 63.2587 158.521 65.008C158.521 66.7573 158.756 68.016 159.225 68.784C159.716 69.5307 160.302 69.904 160.985 69.904ZM178.297 82.16C177.166 82.16 176.164 81.8613 175.289 81.264C174.414 80.6667 173.721 79.8027 173.209 78.672C172.718 77.5413 172.473 76.1867 172.473 74.608C172.473 73.008 172.718 71.6533 173.209 70.544C173.721 69.4133 174.414 68.56 175.289 67.984C176.164 67.3867 177.166 67.088 178.297 67.088C179.428 67.088 180.43 67.3867 181.305 67.984C182.18 68.56 182.862 69.4133 183.353 70.544C183.844 71.6533 184.089 73.008 184.089 74.608C184.089 76.1867 183.844 77.5413 183.353 78.672C182.862 79.8027 182.18 80.6667 181.305 81.264C180.43 81.8613 179.428 82.16 178.297 82.16ZM178.297 79.504C179.001 79.504 179.588 79.12 180.057 78.352C180.526 77.584 180.761 76.336 180.761 74.608C180.761 72.8373 180.526 71.5893 180.057 70.864C179.588 70.1387 179.001 69.776 178.297 69.776C177.593 69.776 176.996 70.1387 176.505 70.864C176.036 71.5893 175.801 72.8373 175.801 74.608C175.801 76.336 176.036 77.584 176.505 78.352C176.996 79.12 177.593 79.504 178.297 79.504ZM161.785 82.16L174.713 57.52H177.529L164.569 82.16H161.785Z" fill="#333333"/>
<path d="M22.4706 9.09053C20.1537 11.0349 19.7373 14.0858 19.7373 14.0858C19.7373 14.0858 23.0771 13.9842 25.3936 12.0399C27.7104 10.0955 28.1269 7.04456 28.1269 7.04456C28.1269 7.04456 24.7871 7.14586 22.4706 9.09053Z" fill="#DCB25F"/>
<path d="M38.7589 80.7375C40.7535 83.0921 40.8736 85.8726 40.8466 85.8816C40.8542 85.9169 36.6618 84.8381 34.7801 82.241C32.898 79.6768 33.8147 77.0192 33.7873 77.0269C33.7984 77.052 36.7671 78.4045 38.7589 80.7375Z" fill="#DCB25F"/>
<path d="M35.8247 88.8911C39.5048 88.3161 40.8773 85.7554 40.8766 85.7784C40.8333 85.7908 36.8899 84.7434 33.4923 85.1113C30.0604 85.4955 28.0447 87.4567 28.0444 87.4777C27.9959 87.4879 32.1045 89.4798 35.8247 88.8911Z" fill="#DCB25F"/>
<path d="M31.482 77.7963C32.8528 80.3784 32.3605 83.0779 32.3353 83.0827C32.3387 83.1184 28.6535 81.4349 27.4121 78.6321C26.1673 75.8611 27.5838 73.4317 27.5579 73.4352C27.5641 73.4616 30.1108 75.2359 31.482 77.7963Z" fill="#DCB25F"/>
<path d="M26.9925 85.2169C30.5697 85.2274 32.3902 82.9655 32.3874 82.9878C32.3469 82.9936 28.8905 81.3783 25.5923 81.2059C22.2615 81.0447 19.928 82.6263 19.9252 82.6467C19.8796 82.6498 23.3768 85.2144 26.9925 85.2169Z" fill="#DCB25F"/>
<path d="M25.2076 73.8183C25.9854 76.5329 24.9494 79.065 24.9262 79.0659C24.9248 79.1013 21.7688 76.8989 21.1374 73.9865C20.4988 71.105 22.3431 68.9714 22.3192 68.9711C22.3206 68.9982 24.426 71.1251 25.2076 73.8183Z" fill="#DCB25F"/>
<path d="M19.3829 80.2952C22.7975 80.8644 24.9904 78.9599 24.9849 78.9816C24.9478 78.9816 21.9972 76.8802 18.8582 76.1921C15.6884 75.5105 13.116 76.6731 13.1108 76.6925C13.0682 76.689 15.932 79.7282 19.3829 80.2952Z" fill="#DCB25F"/>
<path d="M19.9589 68.9675C20.1767 71.7264 18.6674 74.0157 18.6456 74.0132C18.6397 74.0479 16.0338 71.4126 15.9801 68.4799C15.9158 65.5767 18.1139 63.7958 18.0914 63.7919C18.089 63.8187 19.7343 66.2291 19.9589 68.9675Z" fill="#DCB25F"/>
<path d="M13.0562 74.3263C16.2464 75.4211 18.7339 73.9208 18.7263 73.9412C18.6924 73.9358 16.2665 71.4308 13.3476 70.2586C10.4008 69.0883 7.67058 69.8043 7.66262 69.8231C7.6235 69.8136 9.83167 73.2286 13.0562 74.3263Z" fill="#DCB25F"/>
<path d="M15.8071 63.4078C15.498 66.13 13.5885 68.1122 13.5685 68.1068C13.5581 68.14 11.524 65.1578 12.0149 62.2878C12.4919 59.4452 14.9669 58.0617 14.9462 58.0551C14.9393 58.0812 16.1058 60.705 15.8071 63.4078Z" fill="#DCB25F"/>
<path d="M8.06395 67.5115C10.9669 69.0915 13.67 68.0308 13.6593 68.0499C13.6292 68.0397 11.7464 65.213 9.11074 63.5955C6.44841 61.9757 3.64415 62.2293 3.63342 62.2465C3.59777 62.2315 5.1285 65.9239 8.06395 67.5115Z" fill="#DCB25F"/>
<path d="M12.7646 57.3044C11.9639 59.9158 9.72842 61.5384 9.71042 61.5301C9.69518 61.5613 8.25515 58.3189 9.25591 55.5871C10.239 52.8802 12.9131 51.9278 12.8944 51.9182C12.8826 51.9431 13.5518 54.7105 12.7646 57.3044Z" fill="#DCB25F"/>
<path d="M4.43986 60.0521C6.99107 62.0697 9.82786 61.4725 9.81471 61.4897C9.78771 61.4753 8.46745 58.4091 6.17897 56.3921C3.86592 54.3687 1.07205 54.1553 1.05855 54.1709C1.02566 54.1508 1.85784 58.0227 4.43986 60.0521Z" fill="#DCB25F"/>
<path d="M10.9044 50.8234C9.64752 53.2571 7.16416 54.4789 7.14789 54.4681C7.12781 54.4968 6.30325 51.0805 7.77825 48.5554C9.23143 46.0527 12.0246 45.5532 12.0077 45.5414C11.9907 45.5644 12.144 48.4054 10.9044 50.8234Z" fill="#DCB25F"/>
<path d="M2.24831 52.1505C4.3824 54.551 7.26939 54.4299 7.25312 54.4449C7.22993 54.4268 6.49088 51.2029 4.61434 48.839C2.71564 46.4656 0.0193813 45.7919 0.00345785 45.8052C-0.0259659 45.7817 0.085147 49.7337 2.24831 52.1505Z" fill="#DCB25F"/>
<path d="M10.2536 44.1306C8.57815 46.326 5.92552 47.1179 5.91098 47.1048C5.88571 47.1303 5.69912 43.627 7.61062 41.3708C9.49721 39.1337 12.326 39.0978 12.3112 39.0837C12.29 39.1044 11.9079 41.9487 10.2536 44.1306Z" fill="#DCB25F"/>
<path d="M1.53621 44.009C3.18671 46.7305 6.03736 47.0863 6.01832 47.0991C5.99893 47.0781 5.85977 43.7783 4.46162 41.1278C3.0434 38.4648 0.53478 37.349 0.516087 37.3601C0.490818 37.3327 -0.140595 41.2676 1.53621 44.009Z" fill="#DCB25F"/>
<path d="M10.8659 37.3933C8.81109 39.2968 6.06913 39.6405 6.05701 39.6259C6.02655 39.6479 6.4994 36.1443 8.80934 34.2117C11.0905 32.2947 13.8709 32.721 13.8585 32.7053C13.8322 32.7229 12.8961 35.4999 10.8659 37.3933Z" fill="#DCB25F"/>
<path d="M2.36124 35.8318C3.45962 38.8063 6.18633 39.6281 6.16452 39.6383C6.14895 39.615 6.62873 36.3214 5.77682 33.4507C4.90727 30.5651 2.67764 29.0374 2.65583 29.046C2.63437 29.0151 1.23829 32.8343 2.36124 35.8318Z" fill="#DCB25F"/>
<path d="M12.7784 30.7786C10.3836 32.3442 7.63682 32.233 7.62678 32.2171C7.59112 32.2346 8.74524 28.8186 11.4141 27.2578C14.0505 25.7081 16.6959 26.5847 16.6852 26.5675C16.6533 26.5812 15.1447 29.22 12.7784 30.7786Z" fill="#DCB25F"/>
<path d="M4.76873 27.8222C5.24643 30.9732 7.75887 32.2394 7.73394 32.2464C7.72217 32.2212 8.83959 29.0154 8.60281 25.9992C8.35081 22.9655 6.49365 21.0673 6.46907 21.073C6.45107 21.0402 4.26887 24.6451 4.76873 27.8222Z" fill="#DCB25F"/>
<path d="M16.0398 24.4546C13.3464 25.6427 10.6795 25.0818 10.6716 25.0646C10.6304 25.0773 12.4875 21.8362 15.4746 20.6879C18.4249 19.5465 20.8463 20.849 20.838 20.8306C20.8013 20.8401 18.7011 23.2699 16.0398 24.4546Z" fill="#DCB25F"/>
<path d="M8.80372 20.1852C8.58945 23.4301 10.7955 25.1069 10.7678 25.1104C10.7599 25.084 12.534 22.048 12.9829 18.9668C13.4188 15.8665 12.0299 13.6507 12.0023 13.6533C11.9884 13.6189 8.99826 16.9119 8.80372 20.1852Z" fill="#DCB25F"/>
<path d="M20.6944 18.5903C17.7448 19.3685 15.2455 18.3737 15.2396 18.3562C15.1932 18.3635 17.7756 15.3849 21.0382 14.6831C24.2603 13.9833 26.367 15.677 26.3608 15.6579C26.3185 15.6623 23.6081 17.8115 20.6944 18.5903Z" fill="#DCB25F"/>
<path d="M14.5297 13.1264C13.5518 16.3752 15.3574 18.4173 15.3266 18.4173C15.3231 18.3906 17.7722 15.6059 18.9779 12.5483C20.1732 9.46995 19.3507 7.00129 19.3199 7.00033C19.3098 6.96434 15.4899 9.8471 14.5297 13.1264Z" fill="#DCB25F"/>
<path d="M46.5 86.5L47 86C41.638 86.4466 41.8755 86.0362 36.6952 84.5056C31.6481 83.0142 26.9749 80.6596 22.8061 77.5073C14.1545 70.9655 8.57538 61.6305 7.09588 51.2216C5.88466 42.6982 6.50602 35.1027 8.943 28.6459C11.56 21.7126 16.2204 16.2873 22.795 12.5209L22.4513 12.0135C15.7475 15.8541 10.9957 21.3842 8.32891 28.45C5.85836 34.9953 5.22661 42.6829 6.45133 51.2997C7.95229 61.8598 13.6138 71.3315 22.3935 77.9698C26.626 81.1702 31.3708 83.5608 36.4965 85.0755C41.7598 86.6303 41.0507 86.9539 46.5 86.5Z" fill="#DCB25F"/>
<path d="M208.529 9.09053C210.846 11.0349 211.263 14.0858 211.263 14.0858C211.263 14.0858 207.923 13.9842 205.606 12.0399C203.29 10.0955 202.873 7.04456 202.873 7.04456C202.873 7.04456 206.213 7.14586 208.529 9.09053Z" fill="#DCB25F"/>
<path d="M192.241 80.7375C190.247 83.0921 190.126 85.8726 190.153 85.8816C190.146 85.9169 194.338 84.8381 196.22 82.241C198.102 79.6768 197.185 77.0192 197.213 77.0269C197.202 77.052 194.233 78.4045 192.241 80.7375Z" fill="#DCB25F"/>
<path d="M195.175 88.8911C191.495 88.3161 190.123 85.7554 190.123 85.7784C190.167 85.7908 194.11 84.7434 197.508 85.1113C200.94 85.4955 202.955 87.4567 202.956 87.4777C203.004 87.4879 198.895 89.4798 195.175 88.8911Z" fill="#DCB25F"/>
<path d="M199.518 77.7963C198.147 80.3784 198.639 83.0779 198.665 83.0827C198.661 83.1184 202.347 81.4349 203.588 78.6321C204.833 75.8611 203.416 73.4317 203.442 73.4352C203.436 73.4616 200.889 75.2359 199.518 77.7963Z" fill="#DCB25F"/>
<path d="M204.008 85.2169C200.43 85.2274 198.61 82.9655 198.613 82.9878C198.653 82.9936 202.11 81.3783 205.408 81.2059C208.739 81.0447 211.072 82.6263 211.075 82.6467C211.12 82.6498 207.623 85.2144 204.008 85.2169Z" fill="#DCB25F"/>
<path d="M205.792 73.8183C205.015 76.5329 206.051 79.065 206.074 79.0659C206.075 79.1013 209.231 76.8989 209.863 73.9865C210.501 71.105 208.657 68.9714 208.681 68.9711C208.679 68.9982 206.574 71.1251 205.792 73.8183Z" fill="#DCB25F"/>
<path d="M211.617 80.2952C208.203 80.8644 206.01 78.9599 206.015 78.9816C206.052 78.9816 209.003 76.8802 212.142 76.1921C215.312 75.5105 217.884 76.6731 217.889 76.6925C217.932 76.689 215.068 79.7282 211.617 80.2952Z" fill="#DCB25F"/>
<path d="M211.041 68.9675C210.824 71.7264 212.333 74.0157 212.355 74.0132C212.361 74.0479 214.966 71.4126 215.02 68.4799C215.084 65.5767 212.886 63.7958 212.909 63.7919C212.911 63.8187 211.266 66.2291 211.041 68.9675Z" fill="#DCB25F"/>
<path d="M217.944 74.3263C214.754 75.4211 212.266 73.9208 212.274 73.9412C212.308 73.9358 214.734 71.4308 217.652 70.2586C220.599 69.0883 223.329 69.8043 223.337 69.8231C223.376 69.8136 221.168 73.2286 217.944 74.3263Z" fill="#DCB25F"/>
<path d="M215.193 63.4078C215.502 66.13 217.411 68.1122 217.432 68.1068C217.442 68.14 219.476 65.1578 218.985 62.2878C218.508 59.4452 216.033 58.0617 216.054 58.0551C216.061 58.0812 214.894 60.705 215.193 63.4078Z" fill="#DCB25F"/>
<path d="M222.936 67.5115C220.033 69.0915 217.33 68.0308 217.341 68.0499C217.371 68.0397 219.254 65.213 221.889 63.5955C224.552 61.9757 227.356 62.2293 227.367 62.2465C227.402 62.2315 225.872 65.9239 222.936 67.5115Z" fill="#DCB25F"/>
<path d="M218.235 57.3044C219.036 59.9158 221.272 61.5384 221.29 61.5301C221.305 61.5613 222.745 58.3189 221.744 55.5871C220.761 52.8802 218.087 51.9278 218.106 51.9182C218.117 51.9431 217.448 54.7105 218.235 57.3044Z" fill="#DCB25F"/>
<path d="M226.56 60.0521C224.009 62.0697 221.172 61.4725 221.185 61.4897C221.212 61.4753 222.533 58.4091 224.821 56.3921C227.134 54.3687 229.928 54.1553 229.941 54.1709C229.974 54.1508 229.142 58.0227 226.56 60.0521Z" fill="#DCB25F"/>
<path d="M220.095 50.8234C221.352 53.2571 223.836 54.4789 223.852 54.4681C223.872 54.4968 224.697 51.0805 223.222 48.5554C221.768 46.0527 218.975 45.5532 218.992 45.5414C219.009 45.5644 218.856 48.4054 220.095 50.8234Z" fill="#DCB25F"/>
<path d="M228.752 52.1505C226.618 54.551 223.731 54.4299 223.747 54.4449C223.77 54.4268 224.509 51.2029 226.386 48.839C228.284 46.4656 230.981 45.7919 230.997 45.8052C231.026 45.7817 230.915 49.7337 228.752 52.1505Z" fill="#DCB25F"/>
<path d="M220.746 44.1306C222.422 46.326 225.074 47.1179 225.089 47.1048C225.114 47.1303 225.301 43.627 223.389 41.3708C221.503 39.1337 218.674 39.0978 218.689 39.0837C218.71 39.1044 219.092 41.9487 220.746 44.1306Z" fill="#DCB25F"/>
<path d="M229.464 44.009C227.813 46.7305 224.963 47.0863 224.982 47.0991C225.001 47.0781 225.14 43.7783 226.538 41.1278C227.957 38.4648 230.465 37.349 230.484 37.3601C230.509 37.3327 231.141 41.2676 229.464 44.009Z" fill="#DCB25F"/>
<path d="M220.134 37.3933C222.189 39.2968 224.931 39.6405 224.943 39.6259C224.973 39.6479 224.501 36.1443 222.191 34.2117C219.909 32.2947 217.129 32.721 217.142 32.7053C217.168 32.7229 218.104 35.4999 220.134 37.3933Z" fill="#DCB25F"/>
<path d="M228.639 35.8318C227.54 38.8063 224.814 39.6281 224.835 39.6383C224.851 39.615 224.371 36.3214 225.223 33.4507C226.093 30.5651 228.322 29.0374 228.344 29.046C228.366 29.0151 229.762 32.8343 228.639 35.8318Z" fill="#DCB25F"/>
<path d="M218.222 30.7786C220.616 32.3442 223.363 32.233 223.373 32.2171C223.409 32.2346 222.255 28.8186 219.586 27.2578C216.949 25.7081 214.304 26.5847 214.315 26.5675C214.347 26.5812 215.855 29.22 218.222 30.7786Z" fill="#DCB25F"/>
<path d="M226.231 27.8222C225.754 30.9732 223.241 32.2394 223.266 32.2464C223.278 32.2212 222.16 29.0154 222.397 25.9992C222.649 22.9655 224.506 21.0673 224.531 21.073C224.549 21.0402 226.731 24.6451 226.231 27.8222Z" fill="#DCB25F"/>
<path d="M214.96 24.4546C217.654 25.6427 220.32 25.0818 220.328 25.0646C220.37 25.0773 218.512 21.8362 215.525 20.6879C212.575 19.5465 210.154 20.849 210.162 20.8306C210.199 20.8401 212.299 23.2699 214.96 24.4546Z" fill="#DCB25F"/>
<path d="M222.196 20.1852C222.411 23.4301 220.204 25.1069 220.232 25.1104C220.24 25.084 218.466 22.048 218.017 18.9668C217.581 15.8665 218.97 13.6507 218.998 13.6533C219.012 13.6189 222.002 16.9119 222.196 20.1852Z" fill="#DCB25F"/>
<path d="M210.305 18.5903C213.255 19.3685 215.754 18.3737 215.76 18.3562C215.807 18.3635 213.224 15.3849 209.962 14.6831C206.74 13.9833 204.633 15.677 204.639 15.6579C204.681 15.6623 207.392 17.8115 210.305 18.5903Z" fill="#DCB25F"/>
<path d="M216.47 13.1264C217.448 16.3752 215.642 18.4173 215.673 18.4173C215.677 18.3906 213.228 15.6059 212.022 12.5483C210.827 9.46995 211.649 7.00129 211.68 7.00033C211.69 6.96434 215.51 9.8471 216.47 13.1264Z" fill="#DCB25F"/>
<path d="M184.5 86.5L184 86C189.362 86.4466 189.125 86.0362 194.305 84.5056C199.352 83.0142 204.025 80.6596 208.194 77.5073C216.846 70.9655 222.425 61.6305 223.904 51.2216C225.115 42.6982 224.494 35.1027 222.057 28.6459C219.44 21.7126 214.78 16.2873 208.205 12.5209L208.549 12.0135C215.252 15.8541 220.004 21.3842 222.671 28.45C225.142 34.9953 225.773 42.6829 224.549 51.2997C223.048 61.8598 217.386 71.3315 208.607 77.9698C204.374 81.1702 199.629 83.5608 194.504 85.0755C189.24 86.6303 189.949 86.9539 184.5 86.5Z" fill="#DCB25F"/>
</svg>
