<svg width="139" height="73" viewBox="0 0 139 73" fill="none" xmlns="http://www.w3.org/2000/svg">
<path d="M38.1245 12V3.893H39.4005V12H38.1245ZM43.708 12V4.971H41.343V3.893H47.382V4.971H45.006V12H43.708ZM49.6238 4.498C49.7705 4.52 49.9391 4.53833 50.1298 4.553C50.3205 4.56033 50.4781 4.564 50.6028 4.564H56.6198C56.7885 4.564 56.9571 4.56033 57.1258 4.553C57.3018 4.53833 57.4631 4.52 57.6098 4.498V5.708C57.4558 5.69333 57.2908 5.68233 57.1148 5.675C56.9461 5.66767 56.7811 5.664 56.6198 5.664H50.6028C50.4781 5.664 50.3205 5.66767 50.1298 5.675C49.9391 5.68233 49.7705 5.69333 49.6238 5.708V4.498ZM52.9238 11.098V5.18H54.1228V11.098H52.9238ZM48.9418 10.394C49.1105 10.416 49.2828 10.4343 49.4588 10.449C49.6348 10.4637 49.8035 10.471 49.9648 10.471H57.2248C57.4008 10.471 57.5695 10.4637 57.7308 10.449C57.8921 10.427 58.0425 10.4087 58.1818 10.394V11.659C58.0278 11.637 57.8591 11.6223 57.6758 11.615C57.4925 11.6077 57.3421 11.604 57.2248 11.604H49.9648C49.8035 11.604 49.6348 11.6077 49.4588 11.615C49.2901 11.6223 49.1178 11.637 48.9418 11.659V10.394ZM61.3369 3.805C61.5349 3.937 61.7623 4.102 62.0189 4.3C62.2756 4.49067 62.5359 4.696 62.7999 4.916C63.0713 5.136 63.3279 5.34867 63.5699 5.554C63.8119 5.75933 64.0063 5.94267 64.1529 6.104L63.2839 6.995C63.1446 6.84833 62.9613 6.67233 62.7339 6.467C62.5066 6.25433 62.2609 6.038 61.9969 5.818C61.7403 5.59067 61.4836 5.378 61.2269 5.18C60.9703 4.97467 60.7393 4.80233 60.5339 4.663L61.3369 3.805ZM60.2039 11.164C60.8199 11.0687 61.3883 10.944 61.9089 10.79C62.4296 10.6287 62.9063 10.449 63.3389 10.251C63.7789 10.0457 64.1749 9.83667 64.5269 9.624C65.1136 9.26467 65.6526 8.85033 66.1439 8.381C66.6426 7.91167 67.0789 7.42767 67.4529 6.929C67.8269 6.43033 68.1239 5.94633 68.3439 5.477L69.0149 6.676C68.7509 7.15267 68.4246 7.62933 68.0359 8.106C67.6546 8.58267 67.2219 9.041 66.7379 9.481C66.2539 9.91367 65.7259 10.306 65.1539 10.658C64.7873 10.8853 64.3839 11.1053 63.9439 11.318C63.5113 11.5307 63.0419 11.7213 62.5359 11.89C62.0373 12.0587 61.5056 12.1943 60.9409 12.297L60.2039 11.164ZM77.6644 3.684C77.7597 3.82333 77.8697 3.99567 77.9944 4.201C78.1264 4.40633 78.251 4.61533 78.3684 4.828C78.493 5.03333 78.5957 5.224 78.6764 5.4L77.9064 5.73C77.811 5.51733 77.7084 5.31567 77.5984 5.125C77.4957 4.927 77.3894 4.73267 77.2794 4.542C77.1694 4.35133 77.0484 4.17167 76.9164 4.003L77.6644 3.684ZM79.1384 3.156C79.241 3.288 79.3547 3.453 79.4794 3.651C79.6114 3.849 79.7397 4.05433 79.8644 4.267C79.989 4.47233 80.0954 4.65933 80.1834 4.828L79.4134 5.169C79.318 4.95633 79.2117 4.75467 79.0944 4.564C78.9844 4.37333 78.8707 4.18633 78.7534 4.003C78.636 3.81967 78.5114 3.64367 78.3794 3.475L79.1384 3.156ZM72.9344 3.497C73.103 3.59233 73.2974 3.71333 73.5174 3.86C73.7447 3.99933 73.9757 4.146 74.2104 4.3C74.445 4.44667 74.665 4.58967 74.8704 4.729C75.0757 4.861 75.2444 4.97467 75.3764 5.07L74.7164 6.016C74.5844 5.91333 74.4157 5.79233 74.2104 5.653C74.005 5.51367 73.785 5.37067 73.5504 5.224C73.323 5.07733 73.0994 4.938 72.8794 4.806C72.6667 4.66667 72.476 4.54933 72.3074 4.454L72.9344 3.497ZM71.1084 11.34C71.519 11.2667 71.937 11.175 72.3624 11.065C72.7877 10.9477 73.2094 10.8083 73.6274 10.647C74.0454 10.4783 74.445 10.2913 74.8264 10.086C75.4424 9.734 76.0107 9.34167 76.5314 8.909C77.0594 8.47633 77.536 8.01433 77.9614 7.523C78.3867 7.03167 78.746 6.52567 79.0394 6.005L79.7104 7.171C79.219 7.919 78.603 8.634 77.8624 9.316C77.1217 9.998 76.304 10.5993 75.4094 11.12C75.0427 11.3253 74.6394 11.5197 74.1994 11.703C73.7594 11.8863 73.3267 12.044 72.9014 12.176C72.476 12.3153 72.0947 12.4143 71.7574 12.473L71.1084 11.34ZM71.2514 5.994C71.4274 6.082 71.629 6.19567 71.8564 6.335C72.0837 6.467 72.3147 6.60633 72.5494 6.753C72.784 6.89967 73.004 7.039 73.2094 7.171C73.4147 7.303 73.5834 7.413 73.7154 7.501L73.0774 8.48C72.9307 8.37733 72.7547 8.25633 72.5494 8.117C72.344 7.97767 72.1277 7.83467 71.9004 7.688C71.673 7.54133 71.4494 7.40567 71.2294 7.281C71.0094 7.149 70.8114 7.03533 70.6354 6.94L71.2514 5.994ZM82.6173 4.707C82.8006 4.72167 82.995 4.73633 83.2003 4.751C83.4056 4.75833 83.6 4.762 83.7833 4.762C83.9153 4.762 84.106 4.762 84.3553 4.762C84.612 4.762 84.898 4.762 85.2133 4.762C85.5286 4.762 85.855 4.762 86.1923 4.762C86.5296 4.762 86.8486 4.762 87.1493 4.762C87.45 4.762 87.714 4.762 87.9413 4.762C88.1686 4.762 88.33 4.762 88.4253 4.762C88.638 4.762 88.8433 4.75833 89.0413 4.751C89.2466 4.73633 89.4226 4.72167 89.5693 4.707V5.961C89.4226 5.94633 89.243 5.939 89.0303 5.939C88.8176 5.93167 88.616 5.928 88.4253 5.928C88.3373 5.928 88.176 5.928 87.9413 5.928C87.7066 5.928 87.428 5.928 87.1053 5.928C86.79 5.928 86.46 5.928 86.1153 5.928C85.7706 5.928 85.437 5.928 85.1143 5.928C84.799 5.928 84.524 5.928 84.2893 5.928C84.0546 5.928 83.8896 5.928 83.7943 5.928C83.5963 5.928 83.3946 5.93167 83.1893 5.939C82.984 5.939 82.7933 5.94633 82.6173 5.961V4.707ZM81.6713 10.119C81.8766 10.1337 82.0856 10.1483 82.2983 10.163C82.511 10.1777 82.72 10.185 82.9253 10.185C83.0206 10.185 83.1966 10.185 83.4533 10.185C83.71 10.185 84.018 10.185 84.3773 10.185C84.744 10.185 85.1326 10.185 85.5433 10.185C85.9613 10.185 86.3756 10.185 86.7863 10.185C87.197 10.185 87.582 10.185 87.9413 10.185C88.308 10.185 88.6196 10.185 88.8763 10.185C89.133 10.185 89.3053 10.185 89.3933 10.185C89.5693 10.185 89.7526 10.1813 89.9433 10.174C90.134 10.1593 90.3173 10.141 90.4933 10.119V11.45C90.3173 11.428 90.1266 11.4133 89.9213 11.406C89.7233 11.3987 89.5473 11.395 89.3933 11.395C89.3053 11.395 89.133 11.395 88.8763 11.395C88.6196 11.395 88.308 11.395 87.9413 11.395C87.582 11.395 87.197 11.395 86.7863 11.395C86.3756 11.395 85.9613 11.395 85.5433 11.395C85.1326 11.395 84.744 11.395 84.3773 11.395C84.018 11.395 83.71 11.395 83.4533 11.395C83.1966 11.395 83.0206 11.395 82.9253 11.395C82.72 11.395 82.5073 11.4023 82.2873 11.417C82.0746 11.4243 81.8693 11.4353 81.6713 11.45V10.119ZM101.67 4.564C101.618 4.62267 101.556 4.69967 101.483 4.795C101.417 4.883 101.358 4.96 101.307 5.026C101.153 5.29733 100.936 5.61633 100.658 5.983C100.386 6.34967 100.075 6.72 99.7227 7.094C99.378 7.46067 99.0077 7.78333 98.6117 8.062L97.6987 7.325C97.9407 7.18567 98.1754 7.02067 98.4027 6.83C98.6374 6.632 98.8537 6.42667 99.0517 6.214C99.257 6.00133 99.4367 5.796 99.5907 5.598C99.7447 5.39267 99.862 5.20933 99.9427 5.048C99.84 5.048 99.664 5.048 99.4147 5.048C99.1727 5.048 98.8794 5.048 98.5347 5.048C98.1974 5.048 97.8344 5.048 97.4457 5.048C97.0644 5.048 96.683 5.048 96.3017 5.048C95.9204 5.048 95.5647 5.048 95.2347 5.048C94.9047 5.048 94.6224 5.048 94.3877 5.048C94.153 5.048 93.9954 5.048 93.9147 5.048C93.6947 5.048 93.482 5.05533 93.2767 5.07C93.0714 5.07733 92.8514 5.092 92.6167 5.114V3.893C92.822 3.915 93.0347 3.937 93.2547 3.959C93.4747 3.981 93.6947 3.992 93.9147 3.992C93.9954 3.992 94.1567 3.992 94.3987 3.992C94.6407 3.992 94.9304 3.992 95.2677 3.992C95.6124 3.992 95.9827 3.992 96.3787 3.992C96.7747 3.992 97.1707 3.992 97.5667 3.992C97.9627 3.992 98.333 3.992 98.6777 3.992C99.0224 3.992 99.3157 3.992 99.5577 3.992C99.7997 3.992 99.9684 3.992 100.064 3.992C100.144 3.992 100.243 3.992 100.361 3.992C100.485 3.98467 100.603 3.97367 100.713 3.959C100.83 3.94433 100.918 3.92967 100.977 3.915L101.67 4.564ZM97.2257 6.027C97.2257 6.599 97.211 7.14167 97.1817 7.655C97.1524 8.16833 97.0827 8.656 96.9727 9.118C96.87 9.57267 96.7087 10.0017 96.4887 10.405C96.2687 10.801 95.9717 11.175 95.5977 11.527C95.2237 11.879 94.747 12.2017 94.1677 12.495L93.1557 11.67C93.317 11.6187 93.4894 11.549 93.6727 11.461C93.8634 11.3657 94.043 11.2557 94.2117 11.131C94.6077 10.8743 94.9267 10.5957 95.1687 10.295C95.4107 9.99433 95.5904 9.67167 95.7077 9.327C95.8324 8.975 95.9167 8.59733 95.9607 8.194C96.012 7.79067 96.0377 7.36167 96.0377 6.907C96.0377 6.76033 96.034 6.61733 96.0267 6.478C96.0194 6.33867 96.001 6.18833 95.9717 6.027H97.2257ZM45.927 18.299H51.284V19.267H45.927V18.299ZM45.63 22.237H51.504V23.227H45.63V22.237ZM49.315 18.706H50.305V27.924H49.315V18.706ZM46.774 18.739H47.753V22.534C47.753 22.996 47.7347 23.4727 47.698 23.964C47.6613 24.448 47.588 24.932 47.478 25.416C47.3753 25.8927 47.2213 26.351 47.016 26.791C46.8107 27.231 46.5357 27.6307 46.191 27.99C46.1323 27.924 46.0553 27.8543 45.96 27.781C45.872 27.7077 45.7767 27.6343 45.674 27.561C45.5713 27.4877 45.4797 27.429 45.399 27.385C45.707 27.0623 45.9527 26.703 46.136 26.307C46.3193 25.9037 46.455 25.4857 46.543 25.053C46.6383 24.6203 46.7007 24.1913 46.73 23.766C46.7593 23.3333 46.774 22.9227 46.774 22.534V18.739ZM41.417 18.277H45.355V19.223H41.417V18.277ZM42.583 21.665H45.19V26.56H42.583V25.636H44.288V22.589H42.583V21.665ZM42.792 18.739L43.749 18.948C43.617 19.6373 43.452 20.3193 43.254 20.994C43.056 21.6687 42.8213 22.2993 42.55 22.886C42.286 23.4727 41.9743 23.986 41.615 24.426C41.6003 24.338 41.5673 24.2207 41.516 24.074C41.472 23.92 41.4207 23.7697 41.362 23.623C41.3107 23.469 41.2557 23.3443 41.197 23.249C41.6077 22.699 41.9413 22.0317 42.198 21.247C42.4547 20.455 42.6527 19.619 42.792 18.739ZM42.132 21.665H43.012V27.418H42.132V21.665ZM60.095 22.743L60.876 23.062C60.6487 23.2967 60.3773 23.513 60.062 23.711C59.754 23.909 59.4277 24.0887 59.083 24.25C58.7383 24.404 58.39 24.5397 58.038 24.657C57.972 24.5543 57.884 24.448 57.774 24.338C57.6713 24.2207 57.5723 24.1217 57.477 24.041C57.7997 23.953 58.1223 23.843 58.445 23.711C58.775 23.579 59.083 23.4323 59.369 23.271C59.6623 23.1023 59.9043 22.9263 60.095 22.743ZM61.162 23.777L61.921 24.096C61.6423 24.404 61.2977 24.6863 60.887 24.943C60.4837 25.1923 60.0437 25.416 59.567 25.614C59.0977 25.8047 58.61 25.9697 58.104 26.109C58.0453 26.0063 57.9683 25.8927 57.873 25.768C57.7777 25.636 57.6823 25.526 57.587 25.438C58.049 25.328 58.5073 25.196 58.962 25.042C59.4167 24.8807 59.8347 24.6937 60.216 24.481C60.6047 24.2683 60.92 24.0337 61.162 23.777ZM62.086 25.009L62.977 25.383C62.6103 25.8157 62.1483 26.197 61.591 26.527C61.0337 26.8497 60.4103 27.121 59.721 27.341C59.039 27.561 58.313 27.7407 57.543 27.88C57.4917 27.7553 57.4147 27.6123 57.312 27.451C57.2093 27.297 57.1067 27.165 57.004 27.055C57.7227 26.9523 58.4083 26.813 59.061 26.637C59.7137 26.4537 60.3003 26.2263 60.821 25.955C61.3417 25.6837 61.7633 25.3683 62.086 25.009ZM58.621 17.705L59.567 17.936C59.3103 18.5887 58.984 19.212 58.588 19.806C58.192 20.3927 57.774 20.8877 57.334 21.291C57.2753 21.2323 57.1983 21.1663 57.103 21.093C57.0077 21.0123 56.9087 20.9353 56.806 20.862C56.7107 20.7887 56.6227 20.73 56.542 20.686C56.982 20.3267 57.3817 19.8867 57.741 19.366C58.1077 18.838 58.401 18.2843 58.621 17.705ZM58.478 18.871H62.933V19.718H57.961L58.478 18.871ZM61.294 19.08L62.273 19.3C61.9797 19.9967 61.5837 20.6017 61.085 21.115C60.5937 21.6283 60.0253 22.0647 59.38 22.424C58.7347 22.776 58.0307 23.0693 57.268 23.304C57.2313 23.2307 57.1763 23.1427 57.103 23.04C57.0297 22.9373 56.9527 22.8347 56.872 22.732C56.7913 22.6293 56.718 22.5487 56.652 22.49C57.3853 22.314 58.0563 22.0757 58.665 21.775C59.281 21.467 59.8127 21.093 60.26 20.653C60.7147 20.2057 61.0593 19.6813 61.294 19.08ZM58.434 19.377C58.6613 19.8023 58.9913 20.2167 59.424 20.62C59.864 21.0233 60.4067 21.379 61.052 21.687C61.7047 21.995 62.449 22.2223 63.285 22.369C63.2263 22.435 63.1603 22.5193 63.087 22.622C63.0137 22.7247 62.944 22.8273 62.878 22.93C62.8193 23.0327 62.768 23.1243 62.724 23.205C61.8733 23.0143 61.1217 22.743 60.469 22.391C59.8237 22.0317 59.2773 21.632 58.83 21.192C58.3827 20.7447 58.0343 20.29 57.785 19.828L58.434 19.377ZM55.816 19.069H56.729V26.087H55.816V19.069ZM54.892 17.771L55.86 18.046C55.6547 18.684 55.409 19.322 55.123 19.96C54.837 20.5907 54.5253 21.1883 54.188 21.753C53.8507 22.3177 53.4987 22.82 53.132 23.26C53.1027 23.172 53.055 23.0583 52.989 22.919C52.9303 22.7797 52.8643 22.6403 52.791 22.501C52.725 22.3617 52.6627 22.248 52.604 22.16C52.9193 21.8007 53.2163 21.3863 53.495 20.917C53.781 20.4477 54.045 19.9453 54.287 19.41C54.529 18.8673 54.7307 18.321 54.892 17.771ZM54.023 20.598L54.98 19.63L55.013 19.652V27.924H54.023V20.598ZM67.476 18.75H74.263V19.663H67.476V18.75ZM67.124 20.719H74.571V21.632H67.124V20.719ZM69.39 25.394H72.316V26.164H69.39V25.394ZM68.983 17.716H69.962V21.489H68.983V17.716ZM71.711 17.716H72.712V21.489H71.711V17.716ZM69.06 23.898H69.709V26.824H69.06V23.898ZM71.975 23.898H72.613V26.615H71.975V23.898ZM73.284 22.457H74.263V26.868C74.263 27.11 74.2337 27.3007 74.175 27.44C74.1163 27.5793 74.0027 27.6857 73.834 27.759C73.6653 27.8323 73.449 27.8727 73.185 27.88C72.921 27.8947 72.5947 27.902 72.206 27.902C72.1913 27.7773 72.1583 27.6307 72.107 27.462C72.0557 27.3007 72.0043 27.154 71.953 27.022C72.2023 27.0293 72.437 27.033 72.657 27.033C72.877 27.0403 73.0237 27.044 73.097 27.044C73.2217 27.044 73.284 26.9853 73.284 26.868V22.457ZM67.52 22.457H73.658V23.359H68.455V27.913H67.52V22.457ZM64.891 18.563L65.496 17.826C65.716 17.9213 65.947 18.0387 66.189 18.178C66.431 18.31 66.6583 18.4493 66.871 18.596C67.091 18.7353 67.267 18.8673 67.399 18.992L66.761 19.817C66.6363 19.685 66.4677 19.542 66.255 19.388C66.0423 19.234 65.8187 19.0873 65.584 18.948C65.3493 18.8013 65.1183 18.673 64.891 18.563ZM64.352 21.621L64.902 20.829C65.1367 20.9023 65.3787 20.994 65.628 21.104C65.8847 21.214 66.1267 21.3313 66.354 21.456C66.5887 21.5807 66.7793 21.7017 66.926 21.819L66.343 22.699C66.2037 22.5817 66.0203 22.457 65.793 22.325C65.573 22.193 65.3347 22.0647 65.078 21.94C64.8287 21.8153 64.5867 21.709 64.352 21.621ZM64.638 27.165C64.8067 26.879 64.9937 26.5417 65.199 26.153C65.4117 25.7643 65.6243 25.35 65.837 24.91C66.0497 24.47 66.244 24.041 66.42 23.623L67.245 24.25C67.0837 24.6387 66.9077 25.0383 66.717 25.449C66.5263 25.8597 66.332 26.2667 66.134 26.67C65.9433 27.066 65.7527 27.44 65.562 27.792L64.638 27.165ZM70.325 21.346H71.326V23.117H71.216V25.922H70.435V23.117H70.325V21.346ZM81.05 23.645H85.329V24.613H81.05V23.645ZM78.674 24.184C78.872 24.7267 79.1287 25.1703 79.444 25.515C79.7667 25.8597 80.1333 26.1273 80.544 26.318C80.9547 26.5013 81.4093 26.6297 81.908 26.703C82.4067 26.769 82.9347 26.802 83.492 26.802C83.5727 26.802 83.6973 26.802 83.866 26.802C84.042 26.802 84.24 26.802 84.46 26.802C84.68 26.802 84.9037 26.802 85.131 26.802C85.3583 26.802 85.5637 26.802 85.747 26.802C85.9377 26.7947 86.088 26.7873 86.198 26.78C86.1467 26.8607 86.0953 26.9633 86.044 27.088C85.9927 27.2127 85.9487 27.3373 85.912 27.462C85.8753 27.5867 85.846 27.7003 85.824 27.803H85.318H83.437C82.7623 27.803 82.139 27.7553 81.567 27.66C81.0023 27.572 80.4853 27.4107 80.016 27.176C79.5467 26.9413 79.1287 26.6077 78.762 26.175C78.3953 25.7423 78.0837 25.1887 77.827 24.514L78.674 24.184ZM80.588 21.819H81.655V27.275L80.588 26.923V21.819ZM78.388 19.223V21.093H83.899V19.223H78.388ZM77.354 18.222H84.999V22.083H77.354V18.222ZM77.915 22.842L79.004 22.963C78.916 23.5717 78.7803 24.1877 78.597 24.811C78.421 25.427 78.179 26.0063 77.871 26.549C77.5703 27.0917 77.189 27.5463 76.727 27.913C76.6683 27.8397 76.595 27.759 76.507 27.671C76.419 27.583 76.3273 27.495 76.232 27.407C76.144 27.3263 76.0633 27.2603 75.99 27.209C76.408 26.879 76.749 26.4757 77.013 25.999C77.277 25.515 77.4787 24.998 77.618 24.448C77.7647 23.8907 77.8637 23.3553 77.915 22.842ZM89.696 20.807H97.44V21.643H89.696V20.807ZM89.817 24.008H96.01V24.844H89.817V24.008ZM91.346 19.949H92.336V22.622H94.723V19.949H95.746V23.425H91.346V19.949ZM95.735 24.008H95.944L96.131 23.964L96.78 24.305C96.4793 24.8917 96.0907 25.394 95.614 25.812C95.1373 26.2227 94.591 26.571 93.975 26.857C93.3663 27.143 92.71 27.3703 92.006 27.539C91.302 27.7077 90.5687 27.8397 89.806 27.935C89.7767 27.8103 89.718 27.66 89.63 27.484C89.542 27.3153 89.4577 27.176 89.377 27.066C90.0737 27 90.7483 26.8973 91.401 26.758C92.061 26.6187 92.6733 26.4353 93.238 26.208C93.81 25.9733 94.3087 25.6873 94.734 25.35C95.1667 25.0127 95.5003 24.613 95.735 24.151V24.008ZM91.918 24.69C92.2553 25.1447 92.7137 25.5333 93.293 25.856C93.8723 26.1787 94.536 26.439 95.284 26.637C96.0393 26.835 96.8497 26.9743 97.715 27.055C97.649 27.1283 97.5757 27.22 97.495 27.33C97.4143 27.44 97.341 27.5463 97.275 27.649C97.209 27.759 97.154 27.8617 97.11 27.957C96.208 27.8397 95.372 27.6563 94.602 27.407C93.832 27.165 93.1427 26.846 92.534 26.45C91.9253 26.054 91.4193 25.5773 91.016 25.02L91.918 24.69ZM92.391 17.716H93.469V19.289H92.391V17.716ZM88.893 18.761H97.517V19.696H88.893V18.761ZM88.376 18.761H89.377V21.907C89.377 22.3397 89.3623 22.8163 89.333 23.337C89.311 23.8577 89.2597 24.3893 89.179 24.932C89.1057 25.4747 88.992 26.0027 88.838 26.516C88.6913 27.0293 88.497 27.4987 88.255 27.924C88.1963 27.8653 88.112 27.7957 88.002 27.715C87.8993 27.6417 87.793 27.5683 87.683 27.495C87.573 27.429 87.4777 27.3813 87.397 27.352C87.6243 26.956 87.804 26.527 87.936 26.065C88.068 25.603 88.1633 25.13 88.222 24.646C88.288 24.1547 88.3283 23.6743 88.343 23.205C88.365 22.7357 88.376 22.303 88.376 21.907V18.761Z" fill="#333333"/>
<path d="M53.088 47.336V47.48L46.32 52.4L48.984 60.488L48.888 60.536L42 55.544L35.112 60.536L35.016 60.488L37.68 52.4L30.912 47.48V47.336H39.288L41.928 39.296H42.072L44.712 47.336H53.088Z" fill="#333333"/>
<path d="M54.4883 59.7617V55.9141L64 35.5234H68.5508L58.9219 55.9141H66.3633V47.7305H70.4453V55.9141H72.7109V59.7617H70.4453V64H66.3633V59.7617H54.4883ZM75.9727 64V59.918H80.0547V64H75.9727ZM84.1172 64V60.1523L95.2305 46.2461C95.6602 45.6862 95.9531 45.1654 96.1094 44.6836C96.2135 44.2279 96.2656 43.7982 96.2656 43.3945C96.2656 42.3268 95.9336 41.3958 95.2695 40.6016C94.5794 39.8073 93.6029 39.3971 92.3398 39.3711C91.2201 39.3711 90.2891 39.7292 89.5469 40.4453C88.7786 41.1615 88.3229 42.1706 88.1797 43.4727H84.1172C84.2214 41.1029 85.0156 39.1432 86.5 37.5938C87.9974 36.0833 89.8398 35.3151 92.0273 35.2891C94.4753 35.3151 96.4609 36.0964 97.9844 37.6328C99.5339 39.1562 100.322 41.0898 100.348 43.4336C100.348 45.3086 99.7747 46.9753 98.6289 48.4336L89.4688 59.918H100.348V64H84.1172Z" fill="#333333"/>
<path d="M16.4414 6.52971C14.7461 7.95241 14.4414 10.1848 14.4414 10.1848C14.4414 10.1848 16.8851 10.1105 18.5801 8.68776C20.2754 7.26506 20.5801 5.03265 20.5801 5.03265C20.5801 5.03265 18.1364 5.10678 16.4414 6.52971Z" fill="#DCB25F"/>
<path d="M28.3608 58.9544C29.8203 60.6773 29.9081 62.7118 29.8884 62.7183C29.894 62.7442 26.8264 61.9548 25.4495 60.0545C24.0724 58.1782 24.7431 56.2337 24.7231 56.2393C24.7312 56.2577 26.9034 57.2473 28.3608 58.9544Z" fill="#DCB25F"/>
<path d="M26.2138 64.9204C28.9065 64.4997 29.9108 62.626 29.9103 62.6428C29.8786 62.6519 26.9931 61.8855 24.5071 62.1547C21.996 62.4358 20.5211 63.8708 20.5208 63.8862C20.4854 63.8937 23.4917 65.3511 26.2138 64.9204Z" fill="#DCB25F"/>
<path d="M23.0357 56.8023C24.0387 58.6916 23.6786 60.6669 23.6601 60.6704C23.6626 60.6965 20.9661 59.4647 20.0578 57.4138C19.147 55.3863 20.1834 53.6086 20.1644 53.6112C20.169 53.6306 22.0324 54.9288 23.0357 56.8023Z" fill="#DCB25F"/>
<path d="M19.7506 62.232C22.3681 62.2396 23.7001 60.5846 23.6981 60.6009C23.6685 60.6051 21.1394 59.4232 18.726 59.2971C16.2889 59.1791 14.5815 60.3363 14.5794 60.3513C14.546 60.3536 17.105 62.2301 19.7506 62.232Z" fill="#DCB25F"/>
<path d="M18.4448 53.8915C19.0139 55.8777 18.2558 57.7305 18.2388 57.7312C18.2378 57.757 15.9286 56.1455 15.4666 54.0145C14.9993 51.9061 16.3488 50.345 16.3313 50.3447C16.3323 50.3645 17.8728 51.9208 18.4448 53.8915Z" fill="#DCB25F"/>
<path d="M14.1825 58.6307C16.6809 59.0472 18.2855 57.6536 18.2815 57.6695C18.2544 57.6695 16.0953 56.1319 13.7985 55.6284C11.4791 55.1296 9.59692 55.9804 9.59312 55.9946C9.56196 55.992 11.6574 58.2158 14.1825 58.6307Z" fill="#DCB25F"/>
<path d="M14.6047 50.3421C14.764 52.3608 13.6597 54.0359 13.6437 54.034C13.6394 54.0594 11.7327 52.1312 11.6934 49.9852C11.6463 47.861 13.2547 46.5579 13.2382 46.5551C13.2364 46.5746 14.4403 48.3383 14.6047 50.3421Z" fill="#DCB25F"/>
<path d="M9.55332 54.2631C11.8876 55.0642 13.7078 53.9664 13.7022 53.9813C13.6774 53.9774 11.9023 52.1445 9.76659 51.2867C7.61033 50.4304 5.61265 50.9544 5.60682 50.9681C5.5782 50.9611 7.19393 53.4599 9.55332 54.2631Z" fill="#DCB25F"/>
<path d="M11.567 46.2739C11.3408 48.2658 9.94369 49.7162 9.929 49.7123C9.9214 49.7365 8.43308 47.5545 8.79224 45.4544C9.14128 43.3745 10.9523 42.3622 10.9371 42.3573C10.932 42.3764 11.7856 44.2963 11.567 46.2739Z" fill="#DCB25F"/>
<path d="M5.90148 49.2768C8.02557 50.4328 10.0035 49.6567 9.99566 49.6707C9.97362 49.6632 8.59597 47.5949 6.66743 46.4113C4.71938 45.2261 2.66748 45.4117 2.65963 45.4243C2.63354 45.4133 3.75359 48.1151 5.90148 49.2768Z" fill="#DCB25F"/>
<path d="M9.33972 41.8082C8.75386 43.7189 7.11812 44.9062 7.10494 44.9002C7.0938 44.923 6.04012 42.5505 6.77238 40.5517C7.49172 38.571 9.44838 37.8741 9.4347 37.8671C9.42609 37.8852 9.9157 39.9102 9.33972 41.8082Z" fill="#DCB25F"/>
<path d="M3.24923 43.8186C5.11597 45.2949 7.19167 44.8579 7.18205 44.8705C7.16229 44.86 6.19625 42.6164 4.52175 41.1406C2.82927 39.6601 0.784974 39.5039 0.775096 39.5153C0.751033 39.5006 1.35994 42.3337 3.24923 43.8186Z" fill="#DCB25F"/>
<path d="M7.9788 37.0661C7.05911 38.8468 5.24201 39.7408 5.2301 39.7329C5.21541 39.7539 4.61207 37.2541 5.69134 35.4065C6.75465 33.5753 8.79845 33.2098 8.78604 33.2012C8.77363 33.218 8.88583 35.2968 7.9788 37.0661Z" fill="#DCB25F"/>
<path d="M1.64511 38.037C3.20664 39.7935 5.31907 39.7049 5.30717 39.7158C5.2902 39.7026 4.74943 37.3436 3.37635 35.6139C1.98706 33.8773 0.0141815 33.3843 0.00253014 33.3941C-0.0189995 33.3769 0.0623028 36.2686 1.64511 38.037Z" fill="#DCB25F"/>
<path d="M7.50205 32.1688C6.27613 33.7752 4.33517 34.3546 4.32453 34.345C4.30604 34.3637 4.16951 31.8003 5.56818 30.1494C6.94861 28.5125 9.01848 28.4862 9.00759 28.476C8.99214 28.4911 8.71252 30.5722 7.50205 32.1688Z" fill="#DCB25F"/>
<path d="M1.12318 32.0798C2.33086 34.0712 4.4167 34.3316 4.40277 34.3409C4.38859 34.3255 4.28676 31.9111 3.26373 29.9717C2.226 28.0231 0.390421 27.2067 0.376744 27.2148C0.358254 27.1948 -0.103757 30.074 1.12318 32.0798Z" fill="#DCB25F"/>
<path d="M7.95036 27.239C6.44683 28.6319 4.44052 28.8834 4.43165 28.8727C4.40936 28.8887 4.75535 26.3251 6.44555 24.9111C8.11473 23.5084 10.1492 23.8203 10.14 23.8089C10.1208 23.8217 9.4359 25.8536 7.95036 27.239Z" fill="#DCB25F"/>
<path d="M1.72755 26.0965C2.53124 28.2729 4.5264 28.8743 4.51044 28.8817C4.49904 28.8647 4.8501 26.4547 4.22676 24.3542C3.59049 22.2428 1.95906 21.1249 1.9431 21.1312C1.9274 21.1086 0.905878 23.9032 1.72755 26.0965Z" fill="#DCB25F"/>
<path d="M9.34915 22.399C7.59689 23.5446 5.58703 23.4633 5.57969 23.4516C5.5536 23.4644 6.39808 20.9649 8.35094 19.8228C10.28 18.6889 12.2156 19.3304 12.2078 19.3178C12.1845 19.3278 11.0806 21.2586 9.34915 22.399Z" fill="#DCB25F"/>
<path d="M3.489 20.2357C3.83854 22.5413 5.67691 23.4678 5.65868 23.4729C5.65006 23.4545 6.46768 21.1088 6.29443 18.9018C6.11004 16.682 4.75114 15.2931 4.73316 15.2973C4.71999 15.2733 3.12325 17.911 3.489 20.2357Z" fill="#DCB25F"/>
<path d="M11.7371 17.7717C9.76625 18.6411 7.81491 18.2306 7.80909 18.218C7.77894 18.2274 9.13784 15.8558 11.3235 15.0156C13.4823 14.1804 15.254 15.1335 15.248 15.12C15.2211 15.127 13.6844 16.9049 11.7371 17.7717Z" fill="#DCB25F"/>
<path d="M6.44237 14.6478C6.28558 17.0222 7.8998 18.2491 7.87953 18.2517C7.87371 18.2323 9.17181 16.0109 9.50033 13.7563C9.81922 11.4878 8.80302 9.86649 8.78276 9.86836C8.77263 9.84319 6.58472 12.2527 6.44237 14.6478Z" fill="#DCB25F"/>
<path d="M15.1422 13.4808C12.9839 14.0502 11.1551 13.3223 11.1508 13.3095C11.1169 13.3149 13.0064 11.1354 15.3937 10.6219C17.7513 10.1098 19.2928 11.3491 19.2883 11.3351C19.2574 11.3384 17.2741 12.9109 15.1422 13.4808Z" fill="#DCB25F"/>
<path d="M10.6316 9.48277C9.91609 11.8599 11.2373 13.3542 11.2147 13.3542C11.2122 13.3346 13.0042 11.297 13.8864 9.05973C14.761 6.80728 14.1592 5.00094 14.1366 5.00024C14.1293 4.97391 11.3343 7.08325 10.6316 9.48277Z" fill="#DCB25F"/>
<path d="M34.0242 63.1708L34.39 62.805C30.4666 63.1317 30.6404 62.8314 26.8499 61.7115C23.1569 60.6202 19.7375 58.8973 16.6871 56.5908C10.3567 51.8041 6.27441 44.9736 5.19185 37.3573C4.30559 31.1207 4.76024 25.5629 6.5434 20.8385C8.45827 15.7653 11.8683 11.7956 16.679 9.03969L16.4275 8.6684C11.5223 11.4786 8.04541 15.525 6.09407 20.6951C4.28634 25.4844 3.82408 31.1095 4.72022 37.4144C5.81849 45.1414 9.96104 52.0719 16.3852 56.9292C19.4822 59.2709 22.954 61.0202 26.7045 62.1284C30.5558 63.2661 30.0369 63.5029 34.0242 63.1708Z" fill="#DCB25F"/>
<path d="M121.948 6.52971C123.644 7.95241 123.948 10.1848 123.948 10.1848C123.948 10.1848 121.504 10.1105 119.809 8.68776C118.114 7.26506 117.809 5.03265 117.809 5.03265C117.809 5.03265 120.253 5.10678 121.948 6.52971Z" fill="#DCB25F"/>
<path d="M110.031 58.9544C108.571 60.6773 108.483 62.7118 108.503 62.7183C108.498 62.7442 111.565 61.9548 112.942 60.0545C114.319 58.1782 113.649 56.2337 113.669 56.2393C113.66 56.2577 111.488 57.2473 110.031 58.9544Z" fill="#DCB25F"/>
<path d="M112.178 64.9204C109.485 64.4997 108.481 62.626 108.481 62.6428C108.513 62.6519 111.398 61.8855 113.884 62.1547C116.396 62.4358 117.871 63.8708 117.871 63.8862C117.906 63.8937 114.9 65.3511 112.178 64.9204Z" fill="#DCB25F"/>
<path d="M115.354 56.8023C114.351 58.6916 114.711 60.6669 114.729 60.6704C114.727 60.6965 117.424 59.4647 118.332 57.4138C119.243 55.3863 118.206 53.6086 118.225 53.6112C118.221 53.6306 116.357 54.9288 115.354 56.8023Z" fill="#DCB25F"/>
<path d="M118.64 62.232C116.022 62.2396 114.69 60.5846 114.692 60.6009C114.722 60.6051 117.251 59.4232 119.665 59.2971C122.102 59.1791 123.809 60.3363 123.811 60.3513C123.845 60.3536 121.286 62.2301 118.64 62.232Z" fill="#DCB25F"/>
<path d="M119.945 53.8915C119.376 55.8777 120.134 57.7305 120.151 57.7312C120.152 57.757 122.461 56.1455 122.923 54.0145C123.39 51.9061 122.041 50.345 122.058 50.3447C122.057 50.3645 120.517 51.9208 119.945 53.8915Z" fill="#DCB25F"/>
<path d="M124.207 58.6307C121.709 59.0472 120.104 57.6536 120.108 57.6695C120.135 57.6695 122.294 56.1319 124.591 55.6284C126.91 55.1296 128.793 55.9804 128.797 55.9946C128.828 55.992 126.732 58.2158 124.207 58.6307Z" fill="#DCB25F"/>
<path d="M123.787 50.3421C123.628 52.3608 124.732 54.0359 124.748 54.034C124.752 54.0594 126.659 52.1312 126.698 49.9852C126.745 47.861 125.137 46.5579 125.153 46.5551C125.155 46.5746 123.951 48.3383 123.787 50.3421Z" fill="#DCB25F"/>
<path d="M128.838 54.2631C126.504 55.0642 124.684 53.9664 124.689 53.9813C124.714 53.9774 126.489 52.1445 128.625 51.2867C130.781 50.4304 132.779 50.9544 132.785 50.9681C132.813 50.9611 131.198 53.4599 128.838 54.2631Z" fill="#DCB25F"/>
<path d="M126.824 46.2739C127.05 48.2658 128.447 49.7162 128.462 49.7123C128.469 49.7365 129.958 47.5545 129.598 45.4544C129.249 43.3745 127.438 42.3622 127.453 42.3573C127.459 42.3764 126.605 44.2963 126.824 46.2739Z" fill="#DCB25F"/>
<path d="M132.489 49.2768C130.365 50.4328 128.387 49.6567 128.395 49.6707C128.417 49.6632 129.795 47.5949 131.723 46.4113C133.671 45.2261 135.723 45.4117 135.731 45.4243C135.757 45.4133 134.637 48.1151 132.489 49.2768Z" fill="#DCB25F"/>
<path d="M129.051 41.8082C129.637 43.7189 131.272 44.9062 131.286 44.9002C131.297 44.923 132.351 42.5505 131.618 40.5517C130.899 38.571 128.942 37.8741 128.956 37.8671C128.964 37.8852 128.475 39.9102 129.051 41.8082Z" fill="#DCB25F"/>
<path d="M135.141 43.8186C133.275 45.2949 131.199 44.8579 131.208 44.8705C131.228 44.86 132.194 42.6164 133.869 41.1406C135.561 39.6601 137.606 39.5039 137.616 39.5153C137.64 39.5006 137.031 42.3337 135.141 43.8186Z" fill="#DCB25F"/>
<path d="M130.412 37.0661C131.331 38.8468 133.149 39.7408 133.161 39.7329C133.175 39.7539 133.779 37.2541 132.699 35.4065C131.636 33.5753 129.592 33.2098 129.605 33.2012C129.617 33.218 129.505 35.2968 130.412 37.0661Z" fill="#DCB25F"/>
<path d="M136.745 38.037C135.184 39.7935 133.071 39.7049 133.083 39.7158C133.1 39.7026 133.641 37.3436 135.014 35.6139C136.404 33.8773 138.376 33.3843 138.388 33.3941C138.41 33.3769 138.328 36.2686 136.745 38.037Z" fill="#DCB25F"/>
<path d="M130.888 32.1688C132.113 33.7752 134.054 34.3546 134.065 34.345C134.084 34.3637 134.22 31.8003 132.821 30.1494C131.441 28.5125 129.371 28.4862 129.382 28.476C129.397 28.4911 129.677 30.5722 130.888 32.1688Z" fill="#DCB25F"/>
<path d="M137.265 32.0798C136.058 34.0712 133.972 34.3316 133.986 34.3409C134 34.3255 134.102 31.9111 135.125 29.9717C136.163 28.0231 137.998 27.2067 138.012 27.2148C138.03 27.1948 138.492 30.074 137.265 32.0798Z" fill="#DCB25F"/>
<path d="M130.44 27.239C131.944 28.6319 133.95 28.8834 133.959 28.8727C133.981 28.8887 133.635 26.3251 131.945 24.9111C130.276 23.5084 128.241 23.8203 128.25 23.8089C128.27 23.8217 128.955 25.8536 130.44 27.239Z" fill="#DCB25F"/>
<path d="M136.662 26.0965C135.858 28.2729 133.863 28.8743 133.879 28.8817C133.891 28.8647 133.539 26.4547 134.163 24.3542C134.799 22.2428 136.431 21.1249 136.447 21.1312C136.462 21.1086 137.484 23.9032 136.662 26.0965Z" fill="#DCB25F"/>
<path d="M129.039 22.399C130.792 23.5446 132.802 23.4633 132.809 23.4516C132.835 23.4644 131.991 20.9649 130.038 19.8228C128.109 18.6889 126.173 19.3304 126.181 19.3178C126.204 19.3278 127.308 21.2586 129.039 22.399Z" fill="#DCB25F"/>
<path d="M134.902 20.2357C134.552 22.5413 132.714 23.4678 132.732 23.4729C132.741 23.4545 131.923 21.1088 132.096 18.9018C132.281 16.682 133.639 15.2931 133.657 15.2973C133.671 15.2733 135.267 17.911 134.902 20.2357Z" fill="#DCB25F"/>
<path d="M126.653 17.7717C128.624 18.6411 130.576 18.2306 130.582 18.218C130.612 18.2274 129.253 15.8558 127.067 15.0156C124.908 14.1804 123.136 15.1335 123.143 15.12C123.169 15.127 124.706 16.9049 126.653 17.7717Z" fill="#DCB25F"/>
<path d="M131.947 14.6478C132.104 17.0222 130.49 18.2491 130.51 18.2517C130.516 18.2323 129.218 16.0109 128.889 13.7563C128.57 11.4878 129.587 9.86649 129.607 9.86836C129.617 9.84319 131.805 12.2527 131.947 14.6478Z" fill="#DCB25F"/>
<path d="M123.249 13.4808C125.408 14.0502 127.236 13.3223 127.241 13.3095C127.275 13.3149 125.385 11.1354 122.998 10.6219C120.64 10.1098 119.099 11.3491 119.103 11.3351C119.134 11.3384 121.117 12.9109 123.249 13.4808Z" fill="#DCB25F"/>
<path d="M127.76 9.48277C128.476 11.8599 127.154 13.3542 127.177 13.3542C127.179 13.3346 125.387 11.297 124.505 9.05973C123.631 6.80728 124.232 5.00094 124.255 5.00024C124.262 4.97391 127.057 7.08325 127.76 9.48277Z" fill="#DCB25F"/>
<path d="M104.366 63.1709L104 62.805C107.924 63.1318 107.75 62.8315 111.54 61.7115C115.233 60.6203 118.653 58.8974 121.703 56.5908C128.034 51.8041 132.116 44.9736 133.199 37.3574C134.085 31.1207 133.63 25.563 131.847 20.8385C129.932 15.7654 126.522 11.7956 121.711 9.03975L121.963 8.66846C126.868 11.4787 130.345 15.5251 132.297 20.6952C134.104 25.4845 134.567 31.1095 133.67 37.4145C132.572 45.1414 128.429 52.072 122.005 56.9293C118.908 59.271 115.436 61.0202 111.686 62.1285C107.834 63.2662 108.353 63.503 104.366 63.1709Z" fill="#DCB25F"/>
</svg>
