<svg width="172" height="68" viewBox="0 0 172 68" fill="none" xmlns="http://www.w3.org/2000/svg">
<path d="M53.9114 16V6.419H55.4194V16H53.9114ZM60.5101 16V7.693H57.7151V6.419H64.8521V7.693H62.0441V16H60.5101ZM66.6634 10.293H78.2074V11.515H66.6634V10.293ZM67.6124 7.082H77.2844V8.304H67.6124V7.082ZM71.7464 5.028H73.0464V17.092H71.7464V5.028ZM71.4864 10.956L72.5394 11.411C72.236 11.9223 71.8807 12.425 71.4734 12.919C71.066 13.4043 70.624 13.868 70.1474 14.31C69.6794 14.7433 69.194 15.142 68.6914 15.506C68.1887 15.8613 67.686 16.1733 67.1834 16.442C67.114 16.3293 67.023 16.208 66.9104 16.078C66.8064 15.948 66.698 15.8223 66.5854 15.701C66.4727 15.571 66.3687 15.467 66.2734 15.389C66.776 15.1637 67.2744 14.8907 67.7684 14.57C68.271 14.2493 68.752 13.8983 69.2114 13.517C69.6794 13.127 70.104 12.7153 70.4854 12.282C70.8754 11.84 71.209 11.398 71.4864 10.956ZM73.3064 10.969C73.5837 11.411 73.9174 11.8487 74.3074 12.282C74.6974 12.7067 75.122 13.1183 75.5814 13.517C76.0494 13.907 76.5304 14.2623 77.0244 14.583C77.527 14.895 78.0297 15.1637 78.5324 15.389C78.437 15.467 78.333 15.571 78.2204 15.701C78.1077 15.8223 77.9994 15.948 77.8954 16.078C77.7914 16.2167 77.7047 16.338 77.6354 16.442C77.1327 16.182 76.63 15.87 76.1274 15.506C75.6247 15.142 75.1394 14.739 74.6714 14.297C74.2034 13.855 73.7657 13.3913 73.3584 12.906C72.951 12.412 72.5914 11.9093 72.2794 11.398L73.3064 10.969ZM85.0064 5.665H90.6874V6.731H85.0064V5.665ZM85.5004 12.659H91.5454V13.751H85.5004V12.659ZM84.6814 15.623H92.1044V16.715H84.6814V15.623ZM90.3364 5.665H90.5704L90.7914 5.613L91.6234 5.977C91.2767 6.98233 90.7914 7.85333 90.1674 8.59C89.5434 9.318 88.8197 9.929 87.9964 10.423C87.1817 10.917 86.302 11.3113 85.3574 11.606C85.2794 11.4587 85.171 11.2853 85.0324 11.086C84.9024 10.878 84.781 10.7133 84.6684 10.592C85.5264 10.358 86.3324 10.0243 87.0864 9.591C87.849 9.15767 88.512 8.629 89.0754 8.005C89.6387 7.381 90.059 6.67033 90.3364 5.873V5.665ZM86.8394 6.614C87.2987 7.59333 87.9964 8.42533 88.9324 9.11C89.877 9.79467 90.9907 10.2757 92.2734 10.553C92.152 10.6743 92.0134 10.8347 91.8574 11.034C91.71 11.2333 91.5974 11.411 91.5194 11.567C90.1847 11.203 89.0277 10.6353 88.0484 9.864C87.0777 9.084 86.315 8.11767 85.7604 6.965L86.8394 6.614ZM87.8664 10.93H89.0754V16.325H87.8664V10.93ZM82.0164 5.028L83.0824 5.444C82.9177 5.76467 82.74 6.10267 82.5494 6.458C82.3674 6.80467 82.181 7.13833 81.9904 7.459C81.8084 7.771 81.635 8.04833 81.4704 8.291L80.6384 7.927C80.803 7.667 80.9677 7.368 81.1324 7.03C81.3057 6.692 81.4704 6.34967 81.6264 6.003C81.7824 5.64767 81.9124 5.32267 82.0164 5.028ZM83.4854 6.536L84.4994 7.004C84.2047 7.498 83.8754 8.018 83.5114 8.564C83.1474 9.11 82.779 9.63867 82.4064 10.15C82.0424 10.6527 81.6957 11.0947 81.3664 11.476L80.6254 11.073C80.868 10.7783 81.1194 10.4447 81.3794 10.072C81.648 9.69067 81.908 9.29633 82.1594 8.889C82.4194 8.48167 82.662 8.07433 82.8874 7.667C83.1127 7.25967 83.312 6.88267 83.4854 6.536ZM79.9884 7.914L80.5864 7.095C80.829 7.29433 81.0717 7.51533 81.3144 7.758C81.557 7.992 81.778 8.23033 81.9774 8.473C82.1854 8.707 82.3457 8.92367 82.4584 9.123L81.8084 10.059C81.6957 9.85967 81.5397 9.63433 81.3404 9.383C81.141 9.123 80.9244 8.86733 80.6904 8.616C80.4564 8.356 80.2224 8.122 79.9884 7.914ZM83.0564 9.591L83.9014 9.253C84.0747 9.539 84.2394 9.84667 84.3954 10.176C84.56 10.5053 84.703 10.826 84.8244 11.138C84.9457 11.4413 85.0367 11.7187 85.0974 11.97L84.2004 12.373C84.1484 12.1217 84.0617 11.8357 83.9404 11.515C83.8277 11.1943 83.6934 10.865 83.5374 10.527C83.39 10.189 83.2297 9.877 83.0564 9.591ZM79.9494 10.813C80.53 10.7957 81.219 10.7697 82.0164 10.735C82.8224 10.7003 83.6414 10.6613 84.4734 10.618L84.4604 11.619C83.6717 11.671 82.8917 11.723 82.1204 11.775C81.3577 11.8183 80.6687 11.8617 80.0534 11.905L79.9494 10.813ZM83.3684 12.737L84.2524 12.451C84.4257 12.8237 84.586 13.231 84.7334 13.673C84.8894 14.115 85.0064 14.4963 85.0844 14.817L84.1484 15.155C84.0877 14.8257 83.9837 14.4357 83.8364 13.985C83.689 13.5257 83.533 13.1097 83.3684 12.737ZM80.6124 12.555L81.6524 12.737C81.5744 13.3523 81.4574 13.959 81.3014 14.557C81.154 15.155 80.9807 15.662 80.7814 16.078C80.712 16.0347 80.621 15.9827 80.5084 15.922C80.3957 15.8613 80.2744 15.805 80.1444 15.753C80.023 15.6923 79.919 15.649 79.8324 15.623C80.0404 15.2243 80.205 14.752 80.3264 14.206C80.4564 13.66 80.5517 13.1097 80.6124 12.555ZM82.0424 11.32H83.1214V17.118H82.0424V11.32ZM100.515 11.047V12.529H104.272V11.047H100.515ZM99.5014 10.124H105.338V13.452H99.5014V10.124ZM102.309 6.12C102.11 6.47533 101.854 6.848 101.542 7.238C101.23 7.628 100.879 8.00067 100.489 8.356C100.108 8.71133 99.7094 9.019 99.2934 9.279C99.2327 9.13167 99.1417 8.96267 99.0204 8.772C98.9077 8.58133 98.7994 8.42533 98.6954 8.304C99.12 8.06133 99.5274 7.758 99.9174 7.394C100.307 7.03 100.658 6.64433 100.97 6.237C101.291 5.821 101.542 5.418 101.724 5.028H102.816C103.076 5.444 103.375 5.85133 103.713 6.25C104.06 6.64 104.424 6.99533 104.805 7.316C105.195 7.63667 105.585 7.89667 105.975 8.096C105.871 8.23467 105.759 8.40367 105.637 8.603C105.525 8.80233 105.429 8.98433 105.351 9.149C104.97 8.915 104.589 8.63333 104.207 8.304C103.826 7.966 103.471 7.61067 103.141 7.238C102.821 6.85667 102.543 6.484 102.309 6.12ZM101.815 8.694H102.92V11.32C102.92 11.84 102.881 12.3643 102.803 12.893C102.725 13.413 102.569 13.9287 102.335 14.44C102.11 14.9427 101.768 15.4237 101.308 15.883C100.849 16.3337 100.238 16.741 99.4754 17.105C99.4234 17.027 99.3497 16.9317 99.2544 16.819C99.1677 16.715 99.0767 16.6067 98.9814 16.494C98.886 16.39 98.7994 16.3077 98.7214 16.247C99.4147 15.9263 99.9694 15.571 100.385 15.181C100.801 14.7823 101.109 14.3707 101.308 13.946C101.516 13.5127 101.651 13.075 101.711 12.633C101.781 12.1823 101.815 11.7403 101.815 11.307V8.694ZM103.076 12.893C103.302 13.621 103.653 14.271 104.129 14.843C104.615 15.4063 105.204 15.8267 105.897 16.104C105.811 16.182 105.715 16.2773 105.611 16.39C105.516 16.5027 105.421 16.6197 105.325 16.741C105.239 16.8623 105.165 16.975 105.104 17.079C104.368 16.715 103.752 16.1907 103.258 15.506C102.764 14.8127 102.387 14.0197 102.127 13.127L103.076 12.893ZM100.359 8.265H104.389V9.227H100.359V8.265ZM94.8864 7.511H98.7344V8.46H94.8864V7.511ZM94.8864 9.461H98.7344V10.41H94.8864V9.461ZM94.3014 11.45H98.7084V12.425H94.3014V11.45ZM96.4334 6.107H97.4344V11.983H96.4334V6.107ZM96.9014 13.062L97.4344 12.88C97.573 13.14 97.7074 13.4303 97.8374 13.751C97.9674 14.063 98.0627 14.3317 98.1234 14.557L97.5644 14.765C97.5124 14.531 97.4214 14.258 97.2914 13.946C97.17 13.6253 97.04 13.3307 96.9014 13.062ZM96.0564 13.257L96.6154 13.153C96.7367 13.4823 96.845 13.8463 96.9404 14.245C97.0357 14.635 97.092 14.9687 97.1094 15.246L96.5114 15.376C96.494 15.0987 96.442 14.7607 96.3554 14.362C96.2687 13.9633 96.169 13.595 96.0564 13.257ZM95.1334 13.361L95.7184 13.296C95.7877 13.6773 95.8354 14.0933 95.8614 14.544C95.896 14.986 95.909 15.3673 95.9004 15.688L95.2894 15.766C95.3067 15.4367 95.298 15.051 95.2634 14.609C95.2374 14.167 95.194 13.751 95.1334 13.361ZM94.1974 13.114L94.9124 13.257C94.895 13.647 94.8604 14.037 94.8084 14.427C94.765 14.817 94.6957 15.181 94.6004 15.519C94.505 15.8483 94.3707 16.13 94.1974 16.364L93.5344 16C93.6904 15.7833 93.8117 15.5233 93.8984 15.22C93.9937 14.908 94.063 14.5743 94.1064 14.219C94.1497 13.855 94.18 13.4867 94.1974 13.114ZM94.3014 5.548H99.0074V6.562H95.3414V12.1H94.3014V5.548ZM98.1754 11.45H99.1894C99.1894 11.45 99.1894 11.5063 99.1894 11.619C99.1894 11.723 99.185 11.814 99.1764 11.892C99.133 12.9493 99.0854 13.8073 99.0334 14.466C98.99 15.116 98.9337 15.61 98.8644 15.948C98.795 16.286 98.704 16.5243 98.5914 16.663C98.496 16.793 98.3877 16.884 98.2664 16.936C98.1537 16.9967 98.0194 17.0357 97.8634 17.053C97.742 17.0703 97.573 17.079 97.3564 17.079C97.1484 17.0877 96.9317 17.0833 96.7064 17.066C96.6977 16.9187 96.6717 16.754 96.6284 16.572C96.585 16.39 96.5244 16.234 96.4464 16.104C96.6457 16.1213 96.8277 16.13 96.9924 16.13C97.157 16.1387 97.2784 16.143 97.3564 16.143C97.4344 16.143 97.4994 16.13 97.5514 16.104C97.612 16.0867 97.664 16.0477 97.7074 15.987C97.7854 15.9003 97.8504 15.7097 97.9024 15.415C97.9544 15.1203 98.002 14.6697 98.0454 14.063C98.0887 13.4477 98.132 12.633 98.1754 11.619V11.45ZM107.535 9.097H119.183V10.189H107.535V9.097ZM108.679 6.562H116.167V7.641H108.679V6.562ZM110.863 13.53H116.843V14.492H110.863V13.53ZM110.863 15.649H116.843V16.689H110.863V15.649ZM111.89 5.028H113.112V9.695H111.89V5.028ZM117.597 5.444L118.65 6.003C117.801 7.15567 116.809 8.213 115.673 9.175C114.538 10.1283 113.316 10.9777 112.007 11.723C110.699 12.4597 109.351 13.0923 107.964 13.621C107.912 13.5257 107.839 13.4173 107.743 13.296C107.657 13.166 107.561 13.0403 107.457 12.919C107.362 12.789 107.275 12.685 107.197 12.607C108.601 12.1303 109.949 11.541 111.24 10.839C112.532 10.137 113.719 9.331 114.802 8.421C115.886 7.511 116.817 6.51867 117.597 5.444ZM110.187 11.424H117.623V17.053H116.349V12.451H111.409V17.105H110.187V11.424Z" fill="#333333"/>
<path d="M40.2822 38.4336C40.3083 39.7487 40.7314 40.7513 41.5518 41.4414C42.359 42.1576 43.29 42.5156 44.3447 42.5156C45.4385 42.5156 46.389 42.1576 47.1963 41.4414C47.9906 40.7513 48.4007 39.7487 48.4268 38.4336C48.4007 37.0794 47.9906 36.0573 47.1963 35.3672C46.389 34.7031 45.4385 34.3711 44.3447 34.3711C43.29 34.3711 42.359 34.7031 41.5518 35.3672C40.7314 36.0573 40.3083 37.0794 40.2822 38.4336ZM35.6729 50.6797C35.6989 47.9323 36.8187 45.7969 39.0322 44.2734C38.1859 43.5312 37.5218 42.6784 37.04 41.7148C36.4801 40.8164 36.2002 39.7487 36.2002 38.5117C36.2262 36.1419 37.027 34.1823 38.6025 32.6328C40.0869 31.0964 42.001 30.3151 44.3447 30.2891C46.7275 30.3151 48.6742 31.0964 50.1846 32.6328C51.708 34.1823 52.4827 36.1419 52.5088 38.5117C52.5088 39.7487 52.2549 40.8164 51.7471 41.7148C51.2132 42.6784 50.5231 43.5312 49.6768 44.2734C51.8903 45.7969 53.0101 47.9323 53.0361 50.6797C53.0101 53.2448 52.1702 55.2956 50.5166 56.832C48.8369 58.4076 46.7796 59.2083 44.3447 59.2344C41.9229 59.2083 39.8981 58.4076 38.2705 56.832C36.5648 55.2956 35.6989 53.2448 35.6729 50.6797ZM39.7549 50.6406C39.7809 51.9427 40.2497 53.0104 41.1611 53.8438C42.0335 54.7161 43.0947 55.1523 44.3447 55.1523C45.6338 55.1523 46.7145 54.7161 47.5869 53.8438C48.4723 53.0104 48.9281 51.9427 48.9541 50.6406C48.9281 49.3125 48.4723 48.2318 47.5869 47.3984C46.7145 46.5781 45.6338 46.1549 44.3447 46.1289C43.0947 46.1549 42.0335 46.5781 41.1611 47.3984C40.2497 48.2318 39.7809 49.3125 39.7549 50.6406ZM67.5674 50.7969V38.7266C67.4893 35.875 66.1546 34.4232 63.5635 34.3711C60.9593 34.4232 59.6312 35.875 59.5791 38.7266V50.7969C59.6312 53.6745 60.9593 55.1263 63.5635 55.1523C66.1546 55.1263 67.4893 53.6745 67.5674 50.7969ZM55.4971 51.0312V38.4727C55.5231 35.8424 56.363 33.8177 58.0166 32.3984C59.5661 30.9922 61.415 30.2891 63.5635 30.2891C65.777 30.2891 67.6585 30.9922 69.208 32.3984C70.7835 33.8177 71.5973 35.8424 71.6494 38.4727V51.0312C71.5973 53.6484 70.7835 55.6667 69.208 57.0859C67.6585 58.4922 65.777 59.2083 63.5635 59.2344C61.415 59.2083 59.5661 58.4922 58.0166 57.0859C56.363 55.6667 55.5231 53.6484 55.4971 51.0312ZM78.7124 51.944C77.8644 51.944 77.1124 51.72 76.4564 51.272C75.8004 50.824 75.2884 50.176 74.9204 49.328C74.5524 48.464 74.3684 47.44 74.3684 46.256C74.3684 45.072 74.5524 44.064 74.9204 43.232C75.2884 42.384 75.8004 41.744 76.4564 41.312C77.1124 40.864 77.8644 40.64 78.7124 40.64C79.9924 40.64 81.0324 41.128 81.8324 42.104C82.6484 43.08 83.0564 44.464 83.0564 46.256C83.0564 47.44 82.8724 48.464 82.5044 49.328C82.1364 50.176 81.6244 50.824 80.9684 51.272C80.3284 51.72 79.5764 51.944 78.7124 51.944ZM78.7124 49.928C79.2404 49.928 79.6804 49.648 80.0324 49.088C80.4004 48.512 80.5844 47.568 80.5844 46.256C80.5844 44.944 80.4004 44.016 80.0324 43.472C79.6804 42.912 79.2404 42.632 78.7124 42.632C78.2004 42.632 77.7604 42.912 77.3924 43.472C77.0404 44.016 76.8644 44.944 76.8644 46.256C76.8644 47.568 77.0404 48.512 77.3924 49.088C77.7604 49.648 78.2004 49.928 78.7124 49.928ZM91.6964 59.12C90.8484 59.12 90.0964 58.896 89.4404 58.448C88.7844 58 88.2644 57.352 87.8804 56.504C87.5124 55.656 87.3284 54.64 87.3284 53.456C87.3284 52.256 87.5124 51.24 87.8804 50.408C88.2644 49.56 88.7844 48.92 89.4404 48.488C90.0964 48.04 90.8484 47.816 91.6964 47.816C92.5444 47.816 93.2964 48.04 93.9524 48.488C94.6084 48.92 95.1204 49.56 95.4884 50.408C95.8564 51.24 96.0404 52.256 96.0404 53.456C96.0404 54.64 95.8564 55.656 95.4884 56.504C95.1204 57.352 94.6084 58 93.9524 58.448C93.2964 58.896 92.5444 59.12 91.6964 59.12ZM91.6964 57.128C92.2244 57.128 92.6644 56.84 93.0164 56.264C93.3684 55.688 93.5444 54.752 93.5444 53.456C93.5444 52.128 93.3684 51.192 93.0164 50.648C92.6644 50.104 92.2244 49.832 91.6964 49.832C91.1684 49.832 90.7204 50.104 90.3524 50.648C90.0004 51.192 89.8244 52.128 89.8244 53.456C89.8244 54.752 90.0004 55.688 90.3524 56.264C90.7204 56.84 91.1684 57.128 91.6964 57.128ZM79.3124 59.12L89.0084 40.64H91.1204L81.4004 59.12H79.3124Z" fill="#333333"/>
<path d="M103.749 44.76L105.297 44.004C105.693 44.436 106.077 44.91 106.449 45.426C106.821 45.942 107.157 46.452 107.457 46.956C107.757 47.46 107.991 47.916 108.159 48.324L106.503 49.224C106.359 48.804 106.137 48.336 105.837 47.82C105.549 47.292 105.225 46.764 104.865 46.236C104.505 45.696 104.133 45.204 103.749 44.76ZM97.8629 54.732C98.4869 54.504 99.2009 54.228 100.005 53.904C100.809 53.58 101.661 53.232 102.561 52.86C103.473 52.476 104.373 52.092 105.261 51.708L105.657 53.382C104.829 53.742 103.989 54.114 103.137 54.498C102.297 54.87 101.475 55.23 100.671 55.578C99.8789 55.914 99.1469 56.226 98.4749 56.514L97.8629 54.732ZM108.555 52.698L109.869 51.528C110.289 51.948 110.733 52.404 111.201 52.896C111.681 53.376 112.149 53.868 112.605 54.372C113.061 54.876 113.487 55.362 113.883 55.83C114.279 56.298 114.603 56.724 114.855 57.108L113.415 58.476C113.163 58.092 112.851 57.66 112.479 57.18C112.107 56.7 111.699 56.202 111.255 55.686C110.811 55.158 110.355 54.642 109.887 54.138C109.431 53.622 108.987 53.142 108.555 52.698ZM111.039 42.78L112.911 42.96C112.683 45.024 112.359 46.872 111.939 48.504C111.531 50.136 110.979 51.588 110.283 52.86C109.587 54.12 108.705 55.218 107.637 56.154C106.581 57.09 105.285 57.888 103.749 58.548C103.677 58.428 103.557 58.272 103.389 58.08C103.221 57.9 103.047 57.714 102.867 57.522C102.699 57.33 102.543 57.174 102.399 57.054C103.899 56.502 105.159 55.806 106.179 54.966C107.199 54.126 108.033 53.124 108.681 51.96C109.341 50.796 109.851 49.458 110.211 47.946C110.583 46.422 110.859 44.7 111.039 42.78ZM99.9869 42.834L101.769 42.762L102.129 54.588L100.347 54.642L99.9869 42.834ZM124.683 47.442H132.117V49.152H124.683V47.442ZM117.069 55.938H133.359V57.648H117.069V55.938ZM123.711 42.06H125.529V56.856H123.711V42.06Z" fill="#333333"/>
<path d="M16.4424 3.52971C14.7471 4.95241 14.4424 7.18482 14.4424 7.18482C14.4424 7.18482 16.8861 7.11046 18.5811 5.68776C20.2764 4.26506 20.5811 2.03265 20.5811 2.03265C20.5811 2.03265 18.1374 2.10678 16.4424 3.52971Z" fill="#DCB25F"/>
<path d="M28.3598 55.9544C29.8193 57.6773 29.9072 59.7118 29.8874 59.7183C29.893 59.7442 26.8254 58.9548 25.4485 57.0545C24.0714 55.1782 24.7421 53.2337 24.7221 53.2393C24.7302 53.2577 26.9024 54.2473 28.3598 55.9544Z" fill="#DCB25F"/>
<path d="M26.2128 61.9204C28.9055 61.4997 29.9098 59.626 29.9093 59.6428C29.8776 59.6519 26.9922 58.8855 24.5061 59.1547C21.995 59.4358 20.5201 60.8708 20.5198 60.8862C20.4844 60.8937 23.4907 62.3511 26.2128 61.9204Z" fill="#DCB25F"/>
<path d="M23.0347 53.8023C24.0378 55.6916 23.6776 57.6669 23.6591 57.6704C23.6616 57.6965 20.9651 56.4647 20.0568 54.4138C19.146 52.3863 20.1824 50.6086 20.1634 50.6112C20.168 50.6306 22.0314 51.9288 23.0347 53.8023Z" fill="#DCB25F"/>
<path d="M19.7506 59.232C22.3681 59.2396 23.7001 57.5846 23.6981 57.6009C23.6685 57.6051 21.1394 56.4232 18.726 56.2971C16.2889 56.1791 14.5815 57.3363 14.5794 57.3513C14.546 57.3536 17.105 59.2301 19.7506 59.232Z" fill="#DCB25F"/>
<path d="M18.4438 50.8915C19.0129 52.8777 18.2548 54.7305 18.2379 54.7312C18.2369 54.757 15.9276 53.1455 15.4656 51.0145C14.9983 48.9061 16.3478 47.345 16.3303 47.3447C16.3314 47.3645 17.8719 48.9208 18.4438 50.8915Z" fill="#DCB25F"/>
<path d="M14.1835 55.6307C16.6819 56.0472 18.2865 54.6536 18.2824 54.6695C18.2553 54.6695 16.0963 53.1319 13.7995 52.6284C11.4801 52.1296 9.59789 52.9804 9.59409 52.9946C9.56294 52.992 11.6584 55.2158 14.1835 55.6307Z" fill="#DCB25F"/>
<path d="M14.6037 47.3421C14.7631 49.3608 13.6587 51.0359 13.6428 51.034C13.6384 51.0594 11.7317 49.1312 11.6924 46.9852C11.6453 44.861 13.2537 43.5579 13.2372 43.5551C13.2355 43.5746 14.4394 45.3383 14.6037 47.3421Z" fill="#DCB25F"/>
<path d="M9.55235 51.2631C11.8867 52.0642 13.7068 50.9664 13.7012 50.9813C13.6764 50.9774 11.9013 49.1445 9.76561 48.2867C7.60936 47.4304 5.61167 47.9544 5.60584 47.9681C5.57722 47.9611 7.19295 50.4599 9.55235 51.2631Z" fill="#DCB25F"/>
<path d="M11.567 43.2739C11.3408 45.2658 9.94369 46.7162 9.929 46.7123C9.9214 46.7365 8.43308 44.5545 8.79224 42.4544C9.14128 40.3745 10.9523 39.3622 10.9371 39.3573C10.932 39.3764 11.7856 41.2963 11.567 43.2739Z" fill="#DCB25F"/>
<path d="M5.90148 46.2768C8.02557 47.4328 10.0035 46.6567 9.99566 46.6707C9.97362 46.6632 8.59597 44.5949 6.66743 43.4113C4.71938 42.2261 2.66748 42.4117 2.65963 42.4243C2.63354 42.4133 3.75359 45.1151 5.90148 46.2768Z" fill="#DCB25F"/>
<path d="M9.33972 38.8082C8.75386 40.7189 7.11812 41.9062 7.10494 41.9002C7.0938 41.923 6.04012 39.5505 6.77238 37.5517C7.49172 35.571 9.44838 34.8741 9.4347 34.8671C9.42609 34.8852 9.9157 36.9102 9.33972 38.8082Z" fill="#DCB25F"/>
<path d="M3.24923 40.8186C5.11597 42.2949 7.19167 41.8579 7.18205 41.8705C7.16229 41.86 6.19625 39.6164 4.52175 38.1406C2.82927 36.6601 0.784974 36.5039 0.775096 36.5153C0.751033 36.5006 1.35994 39.3337 3.24923 40.8186Z" fill="#DCB25F"/>
<path d="M7.9788 34.0661C7.05911 35.8468 5.24201 36.7408 5.2301 36.7329C5.21541 36.7539 4.61207 34.2541 5.69134 32.4065C6.75465 30.5753 8.79845 30.2098 8.78604 30.2012C8.77363 30.218 8.88583 32.2968 7.9788 34.0661Z" fill="#DCB25F"/>
<path d="M1.64511 35.037C3.20664 36.7935 5.31907 36.7049 5.30717 36.7158C5.2902 36.7026 4.74943 34.3436 3.37635 32.6139C1.98706 30.8773 0.0141815 30.3843 0.00253014 30.3941C-0.0189995 30.3769 0.0623028 33.2686 1.64511 35.037Z" fill="#DCB25F"/>
<path d="M7.50302 29.1688C6.2771 30.7752 4.33615 31.3546 4.32551 31.345C4.30702 31.3637 4.17049 28.8003 5.56915 27.1494C6.94958 25.5125 9.01946 25.4862 9.00857 25.476C8.99312 25.4911 8.71349 27.5722 7.50302 29.1688Z" fill="#DCB25F"/>
<path d="M1.12513 29.0798C2.33282 31.0712 4.41866 31.3316 4.40472 31.3409C4.39054 31.3255 4.28872 28.9111 3.26568 26.9717C2.22795 25.0231 0.392375 24.2067 0.378697 24.2148C0.360207 24.1948 -0.101803 27.074 1.12513 29.0798Z" fill="#DCB25F"/>
<path d="M7.95036 24.239C6.44683 25.6319 4.44052 25.8834 4.43165 25.8727C4.40936 25.8887 4.75535 23.3251 6.44555 21.9111C8.11473 20.5084 10.1492 20.8203 10.14 20.8089C10.1208 20.8217 9.4359 22.8536 7.95036 24.239Z" fill="#DCB25F"/>
<path d="M1.72853 23.0965C2.53221 25.2729 4.52737 25.8743 4.51142 25.8817C4.50002 25.8647 4.85108 23.4547 4.22773 21.3542C3.59147 19.2428 1.96004 18.1249 1.94408 18.1312C1.92837 18.1086 0.906854 20.9032 1.72853 23.0965Z" fill="#DCB25F"/>
<path d="M9.3511 19.399C7.59884 20.5446 5.58899 20.4633 5.58164 20.4516C5.55555 20.4644 6.40003 17.9649 8.35289 16.8228C10.2819 15.6889 12.2176 16.3304 12.2097 16.3178C12.1864 16.3278 11.0826 18.2586 9.3511 19.399Z" fill="#DCB25F"/>
<path d="M3.489 17.2357C3.83854 19.5413 5.67691 20.4678 5.65868 20.4729C5.65006 20.4545 6.46768 18.1088 6.29443 15.9018C6.11004 13.682 4.75114 12.2931 4.73316 12.2973C4.71999 12.2733 3.12325 14.911 3.489 17.2357Z" fill="#DCB25F"/>
<path d="M11.7371 14.7717C9.76625 15.6411 7.81491 15.2306 7.80909 15.218C7.77894 15.2274 9.13784 12.8558 11.3235 12.0156C13.4823 11.1804 15.254 12.1335 15.248 12.12C15.2211 12.127 13.6844 13.9049 11.7371 14.7717Z" fill="#DCB25F"/>
<path d="M6.44139 11.6478C6.2846 14.0222 7.89882 15.2491 7.87856 15.2517C7.87273 15.2323 9.17084 13.0109 9.49935 10.7563C9.81825 8.48778 8.80205 6.86649 8.78178 6.86836C8.77165 6.84319 6.58374 9.25273 6.44139 11.6478Z" fill="#DCB25F"/>
<path d="M15.1412 10.4808C12.9829 11.0502 11.1542 10.3223 11.1499 10.3095C11.1159 10.3149 13.0055 8.13535 15.3927 7.62189C17.7503 7.10982 19.2919 8.34908 19.2873 8.3351C19.2564 8.33836 17.2731 9.91093 15.1412 10.4808Z" fill="#DCB25F"/>
<path d="M10.6307 6.48277C9.91512 8.85992 11.2363 10.3542 11.2137 10.3542C11.2112 10.3346 13.0032 8.29703 13.8854 6.05973C14.76 3.80728 14.1582 2.00094 14.1357 2.00024C14.1283 1.97391 11.3333 4.08325 10.6307 6.48277Z" fill="#DCB25F"/>
<path d="M34.0242 60.1709L34.39 59.805C30.4666 60.1318 30.6404 59.8315 26.8499 58.7115C23.1569 57.6203 19.7375 55.8974 16.6871 53.5908C10.3567 48.8041 6.27441 41.9736 5.19185 34.3574C4.30559 28.1207 4.76024 22.563 6.5434 17.8385C8.45827 12.7654 11.8683 8.79565 16.679 6.03975L16.4275 5.66846C11.5223 8.47866 8.04541 12.5251 6.09407 17.6952C4.28634 22.4845 3.82408 28.1095 4.72022 34.4145C5.81849 42.1414 9.96104 49.072 16.3852 53.9293C19.4822 56.271 22.954 58.0202 26.7045 59.1285C30.5558 60.2662 30.0369 60.503 34.0242 60.1709Z" fill="#DCB25F"/>
<path d="M154.849 3.52971C156.544 4.95241 156.849 7.18482 156.849 7.18482C156.849 7.18482 154.405 7.11046 152.71 5.68776C151.015 4.26506 150.71 2.03265 150.71 2.03265C150.71 2.03265 153.154 2.10678 154.849 3.52971Z" fill="#DCB25F"/>
<path d="M142.931 55.9544C141.472 57.6773 141.384 59.7118 141.404 59.7183C141.398 59.7442 144.466 58.9548 145.842 57.0545C147.22 55.1782 146.549 53.2337 146.569 53.2393C146.561 53.2577 144.389 54.2473 142.931 55.9544Z" fill="#DCB25F"/>
<path d="M145.078 61.9204C142.386 61.4997 141.381 59.626 141.382 59.6428C141.413 59.6519 144.299 58.8855 146.785 59.1547C149.296 59.4358 150.771 60.8708 150.771 60.8862C150.807 60.8937 147.8 62.3511 145.078 61.9204Z" fill="#DCB25F"/>
<path d="M148.256 53.8023C147.253 55.6916 147.613 57.6669 147.632 57.6704C147.629 57.6965 150.326 56.4647 151.234 54.4138C152.145 52.3863 151.109 50.6086 151.128 50.6112C151.123 50.6306 149.26 51.9288 148.256 53.8023Z" fill="#DCB25F"/>
<path d="M151.54 59.232C148.923 59.2396 147.591 57.5846 147.593 57.6009C147.623 57.6051 150.152 56.4232 152.565 56.2971C155.002 56.1791 156.71 57.3363 156.712 57.3513C156.745 57.3536 154.186 59.2301 151.54 59.232Z" fill="#DCB25F"/>
<path d="M152.847 50.8915C152.278 52.8777 153.036 54.7305 153.053 54.7312C153.054 54.757 155.363 53.1455 155.825 51.0145C156.293 48.9061 154.943 47.345 154.961 47.3447C154.96 47.3645 153.419 48.9208 152.847 50.8915Z" fill="#DCB25F"/>
<path d="M157.108 55.6307C154.609 56.0472 153.005 54.6536 153.009 54.6695C153.036 54.6695 155.195 53.1319 157.492 52.6284C159.811 52.1296 161.693 52.9804 161.697 52.9946C161.728 52.992 159.633 55.2158 157.108 55.6307Z" fill="#DCB25F"/>
<path d="M156.687 47.3421C156.528 49.3608 157.632 51.0359 157.648 51.034C157.653 51.0594 159.559 49.1312 159.599 46.9852C159.646 44.861 158.037 43.5579 158.054 43.5551C158.056 43.5746 156.852 45.3383 156.687 47.3421Z" fill="#DCB25F"/>
<path d="M161.739 51.2631C159.404 52.0642 157.584 50.9664 157.59 50.9813C157.615 50.9774 159.39 49.1445 161.525 48.2867C163.682 47.4304 165.679 47.9544 165.685 47.9681C165.714 47.9611 164.098 50.4599 161.739 51.2631Z" fill="#DCB25F"/>
<path d="M159.724 43.2739C159.95 45.2658 161.347 46.7162 161.362 46.7123C161.37 46.7365 162.858 44.5545 162.499 42.4544C162.15 40.3745 160.339 39.3622 160.354 39.3573C160.359 39.3764 159.505 41.2963 159.724 43.2739Z" fill="#DCB25F"/>
<path d="M165.39 46.2768C163.265 47.4328 161.288 46.6567 161.295 46.6707C161.317 46.6632 162.695 44.5949 164.624 43.4113C166.572 42.2261 168.624 42.4117 168.631 42.4243C168.657 42.4133 167.537 45.1151 165.39 46.2768Z" fill="#DCB25F"/>
<path d="M161.951 38.8082C162.537 40.7189 164.173 41.9062 164.186 41.9002C164.197 41.923 165.251 39.5505 164.519 37.5517C163.799 35.571 161.843 34.8741 161.856 34.8671C161.865 34.8852 161.375 36.9102 161.951 38.8082Z" fill="#DCB25F"/>
<path d="M168.042 40.8186C166.175 42.2949 164.099 41.8579 164.109 41.8705C164.129 41.86 165.095 39.6164 166.769 38.1406C168.462 36.6601 170.506 36.5039 170.516 36.5153C170.54 36.5006 169.931 39.3337 168.042 40.8186Z" fill="#DCB25F"/>
<path d="M163.312 34.0661C164.232 35.8468 166.049 36.7408 166.061 36.7329C166.076 36.7539 166.679 34.2541 165.6 32.4065C164.536 30.5753 162.493 30.2098 162.505 30.2012C162.517 30.218 162.405 32.2968 163.312 34.0661Z" fill="#DCB25F"/>
<path d="M169.646 35.037C168.084 36.7935 165.972 36.7049 165.984 36.7158C166.001 36.7026 166.542 34.3436 167.915 32.6139C169.304 30.8773 171.277 30.3843 171.288 30.3941C171.31 30.3769 171.229 33.2686 169.646 35.037Z" fill="#DCB25F"/>
<path d="M163.788 29.1688C165.014 30.7752 166.955 31.3546 166.966 31.345C166.984 31.3637 167.121 28.8003 165.722 27.1494C164.341 25.5125 162.272 25.4862 162.282 25.476C162.298 25.4911 162.578 27.5722 163.788 29.1688Z" fill="#DCB25F"/>
<path d="M170.166 29.0798C168.958 31.0712 166.872 31.3316 166.886 31.3409C166.9 31.3255 167.002 28.9111 168.025 26.9717C169.063 25.0231 170.899 24.2067 170.912 24.2148C170.931 24.1948 171.393 27.074 170.166 29.0798Z" fill="#DCB25F"/>
<path d="M163.341 24.239C164.844 25.6319 166.851 25.8834 166.859 25.8727C166.882 25.8887 166.536 23.3251 164.845 21.9111C163.176 20.5084 161.142 20.8203 161.151 20.8089C161.17 20.8217 161.855 22.8536 163.341 24.239Z" fill="#DCB25F"/>
<path d="M169.562 23.0965C168.759 25.2729 166.764 25.8743 166.78 25.8817C166.791 25.8647 166.44 23.4547 167.063 21.3542C167.7 19.2428 169.331 18.1249 169.347 18.1312C169.363 18.1086 170.384 20.9032 169.562 23.0965Z" fill="#DCB25F"/>
<path d="M161.94 19.399C163.692 20.5446 165.702 20.4633 165.709 20.4516C165.735 20.4644 164.891 17.9649 162.938 16.8228C161.009 15.6889 159.073 16.3304 159.081 16.3178C159.105 16.3278 160.208 18.2586 161.94 19.399Z" fill="#DCB25F"/>
<path d="M167.802 17.2357C167.452 19.5413 165.614 20.4678 165.632 20.4729C165.641 20.4545 164.823 18.1088 164.997 15.9018C165.181 13.682 166.54 12.2931 166.558 12.2973C166.571 12.2733 168.168 14.911 167.802 17.2357Z" fill="#DCB25F"/>
<path d="M159.554 14.7717C161.525 15.6411 163.476 15.2306 163.482 15.218C163.512 15.2274 162.153 12.8558 159.968 12.0156C157.809 11.1804 156.037 12.1335 156.043 12.12C156.07 12.127 157.607 13.9049 159.554 14.7717Z" fill="#DCB25F"/>
<path d="M164.85 11.6478C165.006 14.0222 163.392 15.2491 163.412 15.2517C163.418 15.2323 162.12 13.0109 161.792 10.7563C161.473 8.48778 162.489 6.86649 162.509 6.86836C162.519 6.84319 164.707 9.25273 164.85 11.6478Z" fill="#DCB25F"/>
<path d="M156.15 10.4808C158.308 11.0502 160.137 10.3223 160.141 10.3095C160.175 10.3149 158.286 8.13535 155.898 7.62189C153.541 7.10982 151.999 8.34908 152.004 8.3351C152.035 8.33836 154.018 9.91093 156.15 10.4808Z" fill="#DCB25F"/>
<path d="M160.66 6.48277C161.376 8.85992 160.055 10.3542 160.077 10.3542C160.08 10.3346 158.288 8.29703 157.406 6.05973C156.531 3.80728 157.133 2.00094 157.155 2.00024C157.163 1.97391 159.958 4.08325 160.66 6.48277Z" fill="#DCB25F"/>
<path d="M137.267 60.1709L136.901 59.805C140.824 60.1318 140.651 59.8315 144.441 58.7115C148.134 57.6203 151.554 55.8974 154.604 53.5908C160.934 48.8041 165.017 41.9736 166.099 34.3574C166.985 28.1207 166.531 22.563 164.748 17.8385C162.833 12.7654 159.423 8.79565 154.612 6.03975L154.863 5.66846C159.769 8.47866 163.246 12.5251 165.197 17.6952C167.005 22.4845 167.467 28.1095 166.571 34.4145C165.473 42.1414 161.33 49.072 154.906 53.9293C151.809 56.271 148.337 58.0202 144.587 59.1285C140.735 60.2662 141.254 60.503 137.267 60.1709Z" fill="#DCB25F"/>
</svg>
