<svg width="159" height="68" viewBox="0 0 159 68" fill="none" xmlns="http://www.w3.org/2000/svg">
<path d="M44.7678 16V15.129C45.7125 14.2883 46.5011 13.5213 47.1338 12.828C47.7665 12.126 48.2388 11.476 48.5508 10.878C48.8715 10.28 49.0318 9.721 49.0318 9.201C49.0318 8.85433 48.9711 8.551 48.8498 8.291C48.7371 8.02233 48.5595 7.81867 48.3168 7.68C48.0828 7.53267 47.7838 7.459 47.4198 7.459C47.0471 7.459 46.7048 7.563 46.3928 7.771C46.0808 7.97033 45.7948 8.21733 45.5348 8.512L44.6898 7.68C45.0971 7.22933 45.5261 6.87833 45.9768 6.627C46.4361 6.37567 46.9821 6.25 47.6148 6.25C48.1955 6.25 48.7025 6.37133 49.1358 6.614C49.5691 6.848 49.9028 7.18167 50.1368 7.615C50.3795 8.03967 50.5008 8.54233 50.5008 9.123C50.5008 9.73833 50.3491 10.3623 50.0458 10.995C49.7425 11.619 49.3265 12.2517 48.7978 12.893C48.2691 13.5257 47.6668 14.167 46.9908 14.817C47.2421 14.791 47.5065 14.7693 47.7838 14.752C48.0698 14.726 48.3255 14.713 48.5508 14.713H50.9558V16H44.7678ZM55.9779 16.182C55.3539 16.182 54.8079 15.9957 54.3399 15.623C53.8719 15.2503 53.5079 14.6957 53.2479 13.959C52.9965 13.2137 52.8709 12.2863 52.8709 11.177C52.8709 10.0677 52.9965 9.149 53.2479 8.421C53.5079 7.693 53.8719 7.15133 54.3399 6.796C54.8079 6.432 55.3539 6.25 55.9779 6.25C56.6019 6.25 57.1435 6.432 57.6029 6.796C58.0622 7.16 58.4175 7.706 58.6689 8.434C58.9289 9.15333 59.0589 10.0677 59.0589 11.177C59.0589 12.2863 58.9289 13.2137 58.6689 13.959C58.4175 14.6957 58.0622 15.2503 57.6029 15.623C57.1435 15.9957 56.6019 16.182 55.9779 16.182ZM55.9779 14.986C56.2985 14.986 56.5845 14.8603 56.8359 14.609C57.0872 14.3577 57.2822 13.9547 57.4209 13.4C57.5595 12.8367 57.6289 12.0957 57.6289 11.177C57.6289 10.2583 57.5595 9.526 57.4209 8.98C57.2822 8.434 57.0872 8.03967 56.8359 7.797C56.5845 7.55433 56.2985 7.433 55.9779 7.433C55.6572 7.433 55.3712 7.55433 55.1199 7.797C54.8685 8.03967 54.6692 8.434 54.5219 8.98C54.3832 9.526 54.3139 10.2583 54.3139 11.177C54.3139 12.0957 54.3832 12.8367 54.5219 13.4C54.6692 13.9547 54.8685 14.3577 55.1199 14.609C55.3712 14.8603 55.6572 14.986 55.9779 14.986ZM64.6269 9.461L72.6219 8.421L72.7909 9.591L64.7959 10.631L64.6269 9.461ZM69.6189 5.808L70.5289 5.223C70.7803 5.42233 71.0359 5.64767 71.2959 5.899C71.5559 6.15033 71.7986 6.40167 72.0239 6.653C72.2493 6.89567 72.4269 7.121 72.5569 7.329L71.5819 7.966C71.4606 7.76667 71.2916 7.54133 71.0749 7.29C70.8583 7.03867 70.6243 6.783 70.3729 6.523C70.1216 6.25433 69.8703 6.016 69.6189 5.808ZM64.2239 5.145L65.3939 5.522C65.0733 6.29333 64.6919 7.05167 64.2499 7.797C63.8079 8.53367 63.3269 9.227 62.8069 9.877C62.2956 10.527 61.7713 11.099 61.2339 11.593C61.1906 11.4977 61.1256 11.372 61.0389 11.216C60.9609 11.06 60.8743 10.904 60.7789 10.748C60.6836 10.592 60.6013 10.4663 60.5319 10.371C61.0173 9.955 61.4896 9.46967 61.9489 8.915C62.4083 8.36033 62.8329 7.76233 63.2229 7.121C63.6129 6.47967 63.9466 5.821 64.2239 5.145ZM62.8069 8.733L64.0549 7.485L64.0679 7.498V17.066H62.8069V8.733ZM67.3309 5.223H68.5659C68.6006 6.653 68.6829 7.98767 68.8129 9.227C68.9429 10.4577 69.1163 11.5453 69.3329 12.49C69.5583 13.426 69.8356 14.167 70.1649 14.713C70.5029 15.2503 70.8973 15.5493 71.3479 15.61C71.5126 15.6187 71.6469 15.441 71.7509 15.077C71.8549 14.713 71.9329 14.1627 71.9849 13.426C72.0716 13.504 72.1756 13.5907 72.2969 13.686C72.4269 13.7727 72.5569 13.855 72.6869 13.933C72.8256 14.011 72.9296 14.0673 72.9989 14.102C72.9036 14.8907 72.7736 15.506 72.6089 15.948C72.4443 16.3813 72.2579 16.6803 72.0499 16.845C71.8506 17.0097 71.6296 17.0877 71.3869 17.079C70.7889 17.027 70.2733 16.8017 69.8399 16.403C69.4066 16.013 69.0383 15.4713 68.7349 14.778C68.4403 14.076 68.1976 13.244 68.0069 12.282C67.8163 11.3113 67.6689 10.2323 67.5649 9.045C67.4609 7.85767 67.3829 6.58367 67.3309 5.223ZM81.2588 7.108C81.1721 7.77533 81.0595 8.48167 80.9208 9.227C80.7908 9.96367 80.6131 10.696 80.3878 11.424C80.1278 12.308 79.8331 13.0577 79.5038 13.673C79.1831 14.2797 78.8321 14.7433 78.4508 15.064C78.0695 15.3847 77.6665 15.545 77.2418 15.545C76.8085 15.545 76.4055 15.3977 76.0328 15.103C75.6601 14.7997 75.3568 14.3793 75.1228 13.842C74.8888 13.296 74.7718 12.6633 74.7718 11.944C74.7718 11.216 74.9191 10.527 75.2138 9.877C75.5171 9.227 75.9331 8.65067 76.4618 8.148C76.9905 7.64533 77.6058 7.251 78.3078 6.965C79.0098 6.679 79.7681 6.536 80.5828 6.536C81.3628 6.536 82.0648 6.66167 82.6888 6.913C83.3215 7.16433 83.8588 7.51533 84.3008 7.966C84.7515 8.408 85.0938 8.928 85.3278 9.526C85.5618 10.124 85.6788 10.761 85.6788 11.437C85.6788 12.347 85.4881 13.1573 85.1068 13.868C84.7341 14.57 84.1838 15.1463 83.4558 15.597C82.7278 16.039 81.8351 16.338 80.7778 16.494L80.0108 15.272C80.2361 15.246 80.4441 15.22 80.6348 15.194C80.8255 15.1593 81.0031 15.1247 81.1678 15.09C81.5838 14.9947 81.9781 14.8473 82.3508 14.648C82.7321 14.4487 83.0701 14.1973 83.3648 13.894C83.6595 13.582 83.8891 13.218 84.0538 12.802C84.2271 12.386 84.3138 11.918 84.3138 11.398C84.3138 10.878 84.2315 10.397 84.0668 9.955C83.9021 9.50433 83.6595 9.11433 83.3388 8.785C83.0181 8.45567 82.6238 8.2 82.1558 8.018C81.6878 7.82733 81.1591 7.732 80.5698 7.732C79.8591 7.732 79.2265 7.85767 78.6718 8.109C78.1171 8.36033 77.6448 8.694 77.2548 9.11C76.8735 9.51733 76.5831 9.95933 76.3838 10.436C76.1845 10.9127 76.0848 11.372 76.0848 11.814C76.0848 12.308 76.1455 12.7197 76.2668 13.049C76.3881 13.3697 76.5398 13.608 76.7218 13.764C76.9038 13.92 77.0901 13.998 77.2808 13.998C77.4715 13.998 77.6665 13.9027 77.8658 13.712C78.0651 13.5127 78.2645 13.2007 78.4638 12.776C78.6718 12.3513 78.8755 11.8097 79.0748 11.151C79.2741 10.527 79.4388 9.864 79.5688 9.162C79.7075 8.45133 79.8071 7.758 79.8678 7.082L81.2588 7.108ZM95.3442 6.419H96.5142V13.647H95.3442V6.419ZM98.0222 5.262H99.2182V15.506C99.2182 15.8787 99.1705 16.1647 99.0752 16.364C98.9885 16.5633 98.8325 16.715 98.6072 16.819C98.3819 16.9143 98.0785 16.975 97.6972 17.001C97.3159 17.0357 96.8652 17.053 96.3452 17.053C96.3279 16.9317 96.2975 16.793 96.2542 16.637C96.2109 16.4897 96.1589 16.338 96.0982 16.182C96.0462 16.026 95.9899 15.8917 95.9292 15.779C96.3192 15.7877 96.6832 15.7963 97.0212 15.805C97.3679 15.805 97.6019 15.8007 97.7232 15.792C97.8359 15.792 97.9139 15.7747 97.9572 15.74C98.0005 15.6967 98.0222 15.6187 98.0222 15.506V5.262ZM89.0912 15.506H93.3032V16.442H89.0912V15.506ZM87.7912 11.489H94.5252V12.451H87.7912V11.489ZM88.4672 8.278H93.9402V9.175H88.4672V8.278ZM88.5582 9.89H93.7842V10.748H88.5582V9.89ZM90.5862 5.08H91.7822V6.757H90.5862V5.08ZM90.6122 7.485H91.7562V12.009H90.6122V7.485ZM88.5452 13.049H93.9402V16.936H92.7832V13.998H89.6632V17.066H88.5452V13.049ZM87.7782 6.211H94.6682V8.356H93.5242V7.16H88.8702V8.356H87.7782V6.211ZM104.041 9.253H110.593V10.345H104.041V9.253ZM103.846 15.506H110.697V16.598H103.846V15.506ZM103.287 11.827H111.399V17.105H110.138V12.932H104.496V17.105H103.287V11.827ZM107.265 6.263C106.91 6.77433 106.455 7.30733 105.9 7.862C105.346 8.408 104.73 8.93233 104.054 9.435C103.378 9.93767 102.672 10.3883 101.935 10.787C101.883 10.6917 101.814 10.5833 101.727 10.462C101.641 10.3407 101.55 10.2237 101.454 10.111C101.359 9.98967 101.264 9.88567 101.168 9.799C101.922 9.42633 102.65 8.97567 103.352 8.447C104.054 7.90967 104.683 7.34633 105.237 6.757C105.801 6.16767 106.247 5.6 106.576 5.054H107.837C108.193 5.53933 108.587 6.01167 109.02 6.471C109.462 6.92167 109.93 7.35067 110.424 7.758C110.927 8.15667 111.438 8.51633 111.958 8.837C112.487 9.149 113.011 9.41767 113.531 9.643C113.375 9.799 113.228 9.97667 113.089 10.176C112.951 10.3667 112.825 10.553 112.712 10.735C112.21 10.4663 111.698 10.163 111.178 9.825C110.658 9.47833 110.156 9.10567 109.67 8.707C109.194 8.30833 108.747 7.901 108.331 7.485C107.915 7.069 107.56 6.66167 107.265 6.263Z" fill="#333333"/>
<path d="M47.8438 30.2305C47.8568 30.2305 47.7917 30.3737 47.6484 30.6602C47.5182 30.9336 47.3359 31.3112 47.1016 31.793C46.8672 32.2747 46.5938 32.8281 46.2812 33.4531C45.9688 34.0781 45.6367 34.7357 45.2852 35.4258C44.9466 36.1159 44.5951 36.8125 44.2305 37.5156C43.8789 38.2188 43.5339 38.8893 43.1953 39.5273C42.8698 40.1654 42.5703 40.7448 42.2969 41.2656C42.0234 41.7865 41.7956 42.2031 41.6133 42.5156C41.9909 42.2943 42.4141 42.1641 42.8828 42.125C43.3646 42.0729 43.918 42.0599 44.543 42.0859C45.4414 42.112 46.2227 42.2682 46.8867 42.5547C47.5638 42.8411 48.1432 43.1992 48.625 43.6289C49.1068 44.0586 49.5039 44.5404 49.8164 45.0742C50.1419 45.5951 50.3958 46.1094 50.5781 46.6172C50.7604 47.112 50.8841 47.5807 50.9492 48.0234C51.0273 48.4531 51.0664 48.7917 51.0664 49.0391C51.0664 49.1172 51.0664 49.2604 51.0664 49.4688C51.0664 49.6771 51.0664 49.9115 51.0664 50.1719C51.0664 50.4193 51.0599 50.6732 51.0469 50.9336C51.0469 51.194 51.0404 51.4154 51.0273 51.5977C51.0143 51.6888 50.9688 51.9297 50.8906 52.3203C50.8255 52.6979 50.6953 53.1536 50.5 53.6875C50.3177 54.2083 50.0508 54.7747 49.6992 55.3867C49.3477 55.9857 48.8854 56.5586 48.3125 57.1055C47.7396 57.6393 47.043 58.1016 46.2227 58.4922C45.4023 58.8828 44.4258 59.1237 43.293 59.2148C42.1081 59.319 41.0599 59.2409 40.1484 58.9805C39.237 58.7201 38.4492 58.349 37.7852 57.8672C37.1211 57.3854 36.5677 56.832 36.125 56.207C35.6823 55.569 35.3307 54.918 35.0703 54.2539C34.8229 53.5898 34.6536 52.9518 34.5625 52.3398C34.4844 51.7279 34.4714 51.207 34.5234 50.7773C34.6016 50.1393 34.6862 49.5729 34.7773 49.0781C34.8685 48.5703 34.9727 48.0885 35.0898 47.6328C35.2201 47.1771 35.3633 46.7279 35.5195 46.2852C35.6758 45.8424 35.8581 45.3607 36.0664 44.8398C36.1185 44.7096 36.2617 44.4036 36.4961 43.9219C36.7305 43.4271 37.0169 42.8216 37.3555 42.1055C37.707 41.3893 38.0977 40.6016 38.5273 39.7422C38.957 38.8828 39.3867 38.0104 39.8164 37.125C40.832 35.0677 41.9714 32.7695 43.2344 30.2305H47.8438ZM47.0234 51.0703C47.0234 50.5755 47.0039 50.0286 46.9648 49.4297C46.9258 48.8307 46.776 48.2643 46.5156 47.7305C46.2682 47.1836 45.8581 46.7148 45.2852 46.3242C44.7122 45.9336 43.8984 45.6992 42.8438 45.6211C42.349 45.582 41.8997 45.6341 41.4961 45.7773C41.0924 45.9206 40.7344 46.1159 40.4219 46.3633C40.1094 46.6107 39.8359 46.8971 39.6016 47.2227C39.3802 47.5352 39.1914 47.8477 39.0352 48.1602C38.8919 48.4727 38.7878 48.7656 38.7227 49.0391C38.6576 49.2995 38.625 49.5013 38.625 49.6445C38.625 49.9701 38.6315 50.3346 38.6445 50.7383C38.6576 51.1289 38.6966 51.526 38.7617 51.9297C38.8398 52.3203 38.9635 52.7044 39.1328 53.082C39.3021 53.4466 39.543 53.7721 39.8555 54.0586C40.168 54.3451 40.5651 54.5794 41.0469 54.7617C41.5417 54.944 42.1536 55.0352 42.8828 55.0352C43.4688 55.0482 43.9766 54.9766 44.4062 54.8203C44.849 54.651 45.2201 54.4427 45.5195 54.1953C45.832 53.9349 46.0859 53.6484 46.2812 53.3359C46.4766 53.0234 46.6263 52.7174 46.7305 52.418C46.8477 52.1185 46.9258 51.8516 46.9648 51.6172C47.0039 51.3698 47.0234 51.1875 47.0234 51.0703ZM54.2109 45.9141V30.5234H69.3867V34.6055H58.0586V41.0508C59.3867 40.0091 60.9036 39.4883 62.6094 39.4883C63.7031 39.5143 64.7057 39.7096 65.6172 40.0742C66.4766 40.4779 67.1732 40.9727 67.707 41.5586C68.5013 42.3398 69.0742 43.2448 69.4258 44.2734C69.6081 44.8333 69.7383 45.5169 69.8164 46.3242C69.8945 47.1445 69.9336 48.1536 69.9336 49.3516C69.9336 51.2005 69.8034 52.6198 69.543 53.6094C69.2695 54.5859 68.8138 55.4518 68.1758 56.207C67.6159 56.9492 66.8021 57.6263 65.7344 58.2383C64.6927 58.8763 63.4557 59.2083 62.0234 59.2344C60.0964 59.2344 58.332 58.6615 56.7305 57.5156C55.1029 56.3438 54.0938 54.4492 53.7031 51.832H57.7852C58.2279 54.0195 59.5885 55.1263 61.8672 55.1523C62.8438 55.1523 63.625 54.957 64.2109 54.5664C64.7708 54.1888 65.1615 53.694 65.3828 53.082C65.6172 52.4701 65.7604 51.806 65.8125 51.0898C65.8385 50.3867 65.8516 49.7031 65.8516 49.0391C65.8776 47.4115 65.6237 46.0898 65.0898 45.0742C64.8034 44.5924 64.3802 44.2083 63.8203 43.9219C63.2604 43.6875 62.5638 43.5703 61.7305 43.5703C60.9883 43.5703 60.3112 43.7396 59.6992 44.0781C59.0872 44.4297 58.5404 45.0417 58.0586 45.9141H54.2109ZM74.1914 59V54.918H78.2734V59H74.1914ZM95.8906 30.2305C95.9036 30.2305 95.8385 30.3737 95.6953 30.6602C95.5651 30.9336 95.3828 31.3112 95.1484 31.793C94.9141 32.2747 94.6406 32.8281 94.3281 33.4531C94.0156 34.0781 93.6836 34.7357 93.332 35.4258C92.9935 36.1159 92.6419 36.8125 92.2773 37.5156C91.9258 38.2188 91.5807 38.8893 91.2422 39.5273C90.9167 40.1654 90.6172 40.7448 90.3438 41.2656C90.0703 41.7865 89.8424 42.2031 89.6602 42.5156C90.0378 42.2943 90.4609 42.1641 90.9297 42.125C91.4115 42.0729 91.9648 42.0599 92.5898 42.0859C93.4883 42.112 94.2695 42.2682 94.9336 42.5547C95.6107 42.8411 96.1901 43.1992 96.6719 43.6289C97.1536 44.0586 97.5508 44.5404 97.8633 45.0742C98.1888 45.5951 98.4427 46.1094 98.625 46.6172C98.8073 47.112 98.931 47.5807 98.9961 48.0234C99.0742 48.4531 99.1133 48.7917 99.1133 49.0391C99.1133 49.1172 99.1133 49.2604 99.1133 49.4688C99.1133 49.6771 99.1133 49.9115 99.1133 50.1719C99.1133 50.4193 99.1068 50.6732 99.0938 50.9336C99.0938 51.194 99.0872 51.4154 99.0742 51.5977C99.0612 51.6888 99.0156 51.9297 98.9375 52.3203C98.8724 52.6979 98.7422 53.1536 98.5469 53.6875C98.3646 54.2083 98.0977 54.7747 97.7461 55.3867C97.3945 55.9857 96.9323 56.5586 96.3594 57.1055C95.7865 57.6393 95.0898 58.1016 94.2695 58.4922C93.4492 58.8828 92.4727 59.1237 91.3398 59.2148C90.1549 59.319 89.1068 59.2409 88.1953 58.9805C87.2839 58.7201 86.4961 58.349 85.832 57.8672C85.168 57.3854 84.6146 56.832 84.1719 56.207C83.7292 55.569 83.3776 54.918 83.1172 54.2539C82.8698 53.5898 82.7005 52.9518 82.6094 52.3398C82.5312 51.7279 82.5182 51.207 82.5703 50.7773C82.6484 50.1393 82.7331 49.5729 82.8242 49.0781C82.9154 48.5703 83.0195 48.0885 83.1367 47.6328C83.2669 47.1771 83.4102 46.7279 83.5664 46.2852C83.7227 45.8424 83.9049 45.3607 84.1133 44.8398C84.1654 44.7096 84.3086 44.4036 84.543 43.9219C84.7773 43.4271 85.0638 42.8216 85.4023 42.1055C85.7539 41.3893 86.1445 40.6016 86.5742 39.7422C87.0039 38.8828 87.4336 38.0104 87.8633 37.125C88.8789 35.0677 90.0182 32.7695 91.2812 30.2305H95.8906ZM95.0703 51.0703C95.0703 50.5755 95.0508 50.0286 95.0117 49.4297C94.9727 48.8307 94.8229 48.2643 94.5625 47.7305C94.3151 47.1836 93.9049 46.7148 93.332 46.3242C92.7591 45.9336 91.9453 45.6992 90.8906 45.6211C90.3958 45.582 89.9466 45.6341 89.543 45.7773C89.1393 45.9206 88.7812 46.1159 88.4688 46.3633C88.1562 46.6107 87.8828 46.8971 87.6484 47.2227C87.4271 47.5352 87.2383 47.8477 87.082 48.1602C86.9388 48.4727 86.8346 48.7656 86.7695 49.0391C86.7044 49.2995 86.6719 49.5013 86.6719 49.6445C86.6719 49.9701 86.6784 50.3346 86.6914 50.7383C86.7044 51.1289 86.7435 51.526 86.8086 51.9297C86.8867 52.3203 87.0104 52.7044 87.1797 53.082C87.349 53.4466 87.5898 53.7721 87.9023 54.0586C88.2148 54.3451 88.612 54.5794 89.0938 54.7617C89.5885 54.944 90.2005 55.0352 90.9297 55.0352C91.5156 55.0482 92.0234 54.9766 92.4531 54.8203C92.8958 54.651 93.2669 54.4427 93.5664 54.1953C93.8789 53.9349 94.1328 53.6484 94.3281 53.3359C94.5234 53.0234 94.6732 52.7174 94.7773 52.418C94.8945 52.1185 94.9727 51.8516 95.0117 51.6172C95.0508 51.3698 95.0703 51.1875 95.0703 51.0703ZM105.786 51.944C104.938 51.944 104.186 51.72 103.53 51.272C102.874 50.824 102.362 50.176 101.994 49.328C101.626 48.464 101.442 47.44 101.442 46.256C101.442 45.072 101.626 44.064 101.994 43.232C102.362 42.384 102.874 41.744 103.53 41.312C104.186 40.864 104.938 40.64 105.786 40.64C107.066 40.64 108.106 41.128 108.906 42.104C109.722 43.08 110.13 44.464 110.13 46.256C110.13 47.44 109.946 48.464 109.578 49.328C109.21 50.176 108.698 50.824 108.042 51.272C107.402 51.72 106.65 51.944 105.786 51.944ZM105.786 49.928C106.314 49.928 106.754 49.648 107.106 49.088C107.474 48.512 107.658 47.568 107.658 46.256C107.658 44.944 107.474 44.016 107.106 43.472C106.754 42.912 106.314 42.632 105.786 42.632C105.274 42.632 104.834 42.912 104.466 43.472C104.114 44.016 103.938 44.944 103.938 46.256C103.938 47.568 104.114 48.512 104.466 49.088C104.834 49.648 105.274 49.928 105.786 49.928ZM118.77 59.12C117.922 59.12 117.17 58.896 116.514 58.448C115.858 58 115.338 57.352 114.954 56.504C114.586 55.656 114.402 54.64 114.402 53.456C114.402 52.256 114.586 51.24 114.954 50.408C115.338 49.56 115.858 48.92 116.514 48.488C117.17 48.04 117.922 47.816 118.77 47.816C119.618 47.816 120.37 48.04 121.026 48.488C121.682 48.92 122.194 49.56 122.562 50.408C122.93 51.24 123.114 52.256 123.114 53.456C123.114 54.64 122.93 55.656 122.562 56.504C122.194 57.352 121.682 58 121.026 58.448C120.37 58.896 119.618 59.12 118.77 59.12ZM118.77 57.128C119.298 57.128 119.738 56.84 120.09 56.264C120.442 55.688 120.618 54.752 120.618 53.456C120.618 52.128 120.442 51.192 120.09 50.648C119.738 50.104 119.298 49.832 118.77 49.832C118.242 49.832 117.794 50.104 117.426 50.648C117.074 51.192 116.898 52.128 116.898 53.456C116.898 54.752 117.074 55.688 117.426 56.264C117.794 56.84 118.242 57.128 118.77 57.128ZM106.386 59.12L116.082 40.64H118.194L108.474 59.12H106.386Z" fill="#333333"/>
<path d="M16.4434 3.52971C14.7481 4.95241 14.4434 7.18482 14.4434 7.18482C14.4434 7.18482 16.8872 7.11046 18.5822 5.68776C20.2775 4.26506 20.5822 2.03265 20.5822 2.03265C20.5822 2.03265 18.1384 2.10678 16.4434 3.52971Z" fill="#DCB25F"/>
<path d="M28.3609 55.9544C29.8204 57.6773 29.9083 59.7118 29.8885 59.7183C29.8941 59.7442 26.8264 58.9548 25.4495 57.0545C24.0724 55.1782 24.7431 53.2337 24.7231 53.2393C24.7312 53.2577 26.9035 54.2473 28.3609 55.9544Z" fill="#DCB25F"/>
<path d="M26.2139 61.9204C28.9067 61.4997 29.911 59.626 29.9105 59.6428C29.8789 59.6519 26.9933 58.8855 24.5072 59.1547C21.996 59.4358 20.5211 60.8708 20.5208 60.8862C20.4854 60.8937 23.4917 62.3511 26.2139 61.9204Z" fill="#DCB25F"/>
<path d="M23.0358 53.8023C24.0388 55.6916 23.6787 57.6669 23.6602 57.6704C23.6627 57.6965 20.9661 56.4647 20.0578 54.4138C19.1469 52.3863 20.1834 50.6086 20.1644 50.6112C20.169 50.6306 22.0325 51.9288 23.0358 53.8023Z" fill="#DCB25F"/>
<path d="M19.7517 59.232C22.3693 59.2396 23.7013 57.5846 23.6993 57.6009C23.6697 57.6051 21.1405 56.4232 18.7271 56.2971C16.2899 56.1791 14.5824 57.3363 14.5804 57.3513C14.547 57.3536 17.106 59.2301 19.7517 59.232Z" fill="#DCB25F"/>
<path d="M18.4429 50.8915C19.012 52.8777 18.2539 54.7305 18.237 54.7312C18.236 54.757 15.9266 53.1455 15.4646 51.0145C14.9973 48.9061 16.3469 47.345 16.3294 47.3447C16.3304 47.3645 17.871 48.9208 18.4429 50.8915Z" fill="#DCB25F"/>
<path d="M14.1816 55.6307C16.6801 56.0472 18.2848 54.6536 18.2807 54.6695C18.2536 54.6695 16.0945 53.1319 13.7976 52.6284C11.4782 52.1296 9.59594 52.9804 9.59214 52.9946C9.56098 52.992 11.6565 55.2158 14.1816 55.6307Z" fill="#DCB25F"/>
<path d="M14.6038 47.3421C14.7631 49.3608 13.6588 51.0359 13.6428 51.034C13.6385 51.0594 11.7317 49.1312 11.6924 46.9852C11.6453 44.861 13.2537 43.5579 13.2373 43.5551C13.2355 43.5746 14.4394 45.3383 14.6038 47.3421Z" fill="#DCB25F"/>
<path d="M9.55343 51.2631C11.8878 52.0642 13.708 50.9664 13.7024 50.9813C13.6776 50.9774 11.9025 49.1445 9.7667 48.2867C7.61039 47.4304 5.61265 47.9544 5.60682 47.9681C5.5782 47.9611 7.19397 50.4599 9.55343 51.2631Z" fill="#DCB25F"/>
<path d="M11.5671 43.2739C11.3409 45.2658 9.94372 46.7162 9.92903 46.7123C9.92143 46.7365 8.43307 44.5545 8.79224 42.4544C9.14129 40.3745 10.9523 39.3622 10.9371 39.3573C10.9321 39.3764 11.7857 41.2963 11.5671 43.2739Z" fill="#DCB25F"/>
<path d="M5.90157 46.2768C8.02571 47.4328 10.0037 46.6567 9.99585 46.6707C9.97381 46.6632 8.59613 44.5949 6.66753 43.4113C4.71943 42.2261 2.66748 42.4117 2.65963 42.4243C2.63354 42.4133 3.75362 45.1151 5.90157 46.2768Z" fill="#DCB25F"/>
<path d="M9.33979 38.8082C8.75392 40.7189 7.11813 41.9062 7.10496 41.9002C7.09382 41.923 6.04011 39.5505 6.77239 37.5517C7.49175 35.571 9.44846 34.8741 9.43478 34.8671C9.42617 34.8852 9.91579 36.9102 9.33979 38.8082Z" fill="#DCB25F"/>
<path d="M3.2493 40.8186C5.11609 42.2949 7.19185 41.8579 7.18222 41.8705C7.16246 41.86 6.19639 39.6164 4.52185 38.1406C2.82933 36.6601 0.784974 36.5039 0.775096 36.5153C0.751033 36.5006 1.35996 39.3337 3.2493 40.8186Z" fill="#DCB25F"/>
<path d="M7.97888 34.0661C7.05916 35.8468 5.24201 36.7408 5.23011 36.7329C5.21542 36.7539 4.61206 34.2541 5.69136 32.4065C6.7547 30.5753 8.79855 30.2098 8.78614 30.2012C8.77372 30.218 8.88593 32.2968 7.97888 34.0661Z" fill="#DCB25F"/>
<path d="M1.64515 35.037C3.20672 36.7935 5.31922 36.7049 5.30731 36.7158C5.29034 36.7026 4.74956 34.3436 3.37644 32.6139C1.98711 30.8773 0.0141818 30.3843 0.0025302 30.3941C-0.019 30.3769 0.0623044 33.2686 1.64515 35.037Z" fill="#DCB25F"/>
<path d="M7.50311 29.1688C6.27715 30.7752 4.33615 31.3546 4.32551 31.345C4.30702 31.3637 4.17049 28.8003 5.56919 27.1494C6.94965 25.5125 9.01959 25.4862 9.00869 25.476C8.99324 25.4911 8.71361 27.5722 7.50311 29.1688Z" fill="#DCB25F"/>
<path d="M1.12515 29.0798C2.33287 31.0712 4.41877 31.3316 4.40483 31.3409C4.39065 31.3255 4.28882 28.9111 3.26576 26.9717C2.228 25.0231 0.392378 24.2067 0.3787 24.2148C0.360209 24.1948 -0.101814 27.074 1.12515 29.0798Z" fill="#DCB25F"/>
<path d="M7.95045 24.239C6.44688 25.6319 4.44052 25.8834 4.43165 25.8727C4.40936 25.8887 4.75536 23.3251 6.44561 21.9111C8.11483 20.5084 10.1493 20.8203 10.1402 20.8089C10.1209 20.8217 9.43603 22.8536 7.95045 24.239Z" fill="#DCB25F"/>
<path d="M1.72853 23.0965C2.53224 25.2729 4.52746 25.8743 4.5115 25.8817C4.5001 25.8647 4.85117 23.4547 4.22781 21.3542C3.59153 19.2428 1.96005 18.1249 1.94409 18.1312C1.92839 18.1086 0.906841 20.9032 1.72853 23.0965Z" fill="#DCB25F"/>
<path d="M9.35218 19.399C7.59987 20.5446 5.58996 20.4633 5.58262 20.4516C5.55653 20.4644 6.40103 17.9649 8.35394 16.8228C10.283 15.6889 12.2187 16.3304 12.2109 16.3178C12.1876 16.3278 11.0837 18.2586 9.35218 19.399Z" fill="#DCB25F"/>
<path d="M3.48998 17.2357C3.83953 19.5413 5.67795 20.4678 5.65971 20.4729C5.6511 20.4545 6.46874 18.1088 6.29549 15.9018C6.11109 13.682 4.75215 12.2931 4.73417 12.2973C4.721 12.2733 3.12422 14.911 3.48998 17.2357Z" fill="#DCB25F"/>
<path d="M11.7382 14.7717C9.76728 15.6411 7.81589 15.2306 7.81006 15.218C7.77992 15.2274 9.13885 12.8558 11.3245 12.0156C13.4834 11.1804 15.2552 12.1335 15.2491 12.12C15.2223 12.127 13.6855 13.9049 11.7382 14.7717Z" fill="#DCB25F"/>
<path d="M6.44237 11.6478C6.28558 14.0222 7.89984 15.2491 7.87957 15.2517C7.87375 15.2323 9.17189 13.0109 9.50041 10.7563C9.81931 8.48778 8.80309 6.86649 8.78282 6.86836C8.77269 6.84319 6.58472 9.25273 6.44237 11.6478Z" fill="#DCB25F"/>
<path d="M15.1423 10.4808C12.9839 11.0502 11.1551 10.3223 11.1508 10.3095C11.1169 10.3149 13.0065 8.13535 15.3938 7.62189C17.7515 7.10982 19.2931 8.34908 19.2885 8.3351C19.2576 8.33836 17.2743 9.91093 15.1423 10.4808Z" fill="#DCB25F"/>
<path d="M10.6316 6.48277C9.91608 8.85992 11.2373 10.3542 11.2147 10.3542C11.2122 10.3346 13.0043 8.29703 13.8865 6.05973C14.7611 3.80728 14.1593 2.00094 14.1367 2.00024C14.1294 1.97391 11.3343 4.08325 10.6316 6.48277Z" fill="#DCB25F"/>
<path d="M34.025 60.1708L34.3908 59.805C30.4673 60.1317 30.6411 59.8314 26.8505 58.7115C23.1574 57.6202 19.7379 55.8973 16.6875 53.5908C10.3568 48.8041 6.27446 41.9736 5.19187 34.3573C4.30559 28.1207 4.76025 22.5629 6.54346 17.8385C8.45838 12.7653 11.8685 8.79559 16.6794 6.03969L16.4278 5.6684C11.5225 8.4786 8.04551 12.525 6.09412 17.6951C4.28634 22.4844 3.82407 28.1095 4.72023 34.4144C5.81853 42.1414 9.96119 49.0719 16.3855 53.9292C19.4826 56.2709 22.9545 58.0202 26.7051 59.1284C30.5565 60.2661 30.0376 60.5029 34.025 60.1708Z" fill="#DCB25F"/>
<path d="M141.947 3.52971C143.643 4.95241 143.947 7.18482 143.947 7.18482C143.947 7.18482 141.503 7.11046 139.808 5.68776C138.113 4.26506 137.808 2.03265 137.808 2.03265C137.808 2.03265 140.252 2.10678 141.947 3.52971Z" fill="#DCB25F"/>
<path d="M130.03 55.9544C128.57 57.6773 128.482 59.7118 128.502 59.7183C128.497 59.7442 131.564 58.9548 132.941 57.0545C134.318 55.1782 133.648 53.2337 133.668 53.2393C133.659 53.2577 131.487 54.2473 130.03 55.9544Z" fill="#DCB25F"/>
<path d="M132.177 61.9204C129.484 61.4997 128.48 59.626 128.48 59.6428C128.512 59.6519 131.397 58.8855 133.883 59.1547C136.395 59.4358 137.87 60.8708 137.87 60.8862C137.905 60.8937 134.899 62.3511 132.177 61.9204Z" fill="#DCB25F"/>
<path d="M135.355 53.8023C134.352 55.6916 134.712 57.6669 134.73 57.6704C134.728 57.6965 137.425 56.4647 138.333 54.4138C139.244 52.3863 138.207 50.6086 138.226 50.6112C138.222 50.6306 136.358 51.9288 135.355 53.8023Z" fill="#DCB25F"/>
<path d="M138.639 59.232C136.021 59.2396 134.689 57.5846 134.691 57.6009C134.721 57.6051 137.25 56.4232 139.664 56.2971C142.101 56.1791 143.808 57.3363 143.81 57.3513C143.844 57.3536 141.285 59.2301 138.639 59.232Z" fill="#DCB25F"/>
<path d="M139.948 50.8915C139.379 52.8777 140.137 54.7305 140.154 54.7312C140.155 54.757 142.464 53.1455 142.926 51.0145C143.393 48.9061 142.044 47.345 142.061 47.3447C142.06 47.3645 140.52 48.9208 139.948 50.8915Z" fill="#DCB25F"/>
<path d="M144.209 55.6307C141.71 56.0472 140.106 54.6536 140.11 54.6695C140.137 54.6695 142.296 53.1319 144.593 52.6284C146.912 52.1296 148.795 52.9804 148.798 52.9946C148.83 52.992 146.734 55.2158 144.209 55.6307Z" fill="#DCB25F"/>
<path d="M143.787 47.3421C143.627 49.3608 144.732 51.0359 144.748 51.034C144.752 51.0594 146.659 49.1312 146.698 46.9852C146.745 44.861 145.137 43.5579 145.153 43.5551C145.155 43.5746 143.951 45.3383 143.787 47.3421Z" fill="#DCB25F"/>
<path d="M148.837 51.2631C146.503 52.0642 144.683 50.9664 144.688 50.9813C144.713 50.9774 146.488 49.1445 148.624 48.2867C150.78 47.4304 152.778 47.9544 152.784 47.9681C152.812 47.9611 151.197 50.4599 148.837 51.2631Z" fill="#DCB25F"/>
<path d="M146.824 43.2739C147.05 45.2658 148.447 46.7162 148.462 46.7123C148.469 46.7365 149.958 44.5545 149.598 42.4544C149.249 40.3745 147.438 39.3622 147.453 39.3573C147.459 39.3764 146.605 41.2963 146.824 43.2739Z" fill="#DCB25F"/>
<path d="M152.489 46.2768C150.365 47.4328 148.387 46.6567 148.395 46.6707C148.417 46.6632 149.794 44.5949 151.723 43.4113C153.671 42.2261 155.723 42.4117 155.731 42.4243C155.757 42.4133 154.637 45.1151 152.489 46.2768Z" fill="#DCB25F"/>
<path d="M149.051 38.8082C149.637 40.7189 151.272 41.9062 151.286 41.9002C151.297 41.923 152.351 39.5505 151.618 37.5517C150.899 35.571 148.942 34.8741 148.956 34.8671C148.964 34.8852 148.475 36.9102 149.051 38.8082Z" fill="#DCB25F"/>
<path d="M155.141 40.8186C153.275 42.2949 151.199 41.8579 151.208 41.8705C151.228 41.86 152.194 39.6164 153.869 38.1406C155.561 36.6601 157.606 36.5039 157.616 36.5153C157.64 36.5006 157.031 39.3337 155.141 40.8186Z" fill="#DCB25F"/>
<path d="M150.412 34.0661C151.331 35.8468 153.149 36.7408 153.161 36.7329C153.175 36.7539 153.779 34.2541 152.699 32.4065C151.636 30.5753 149.592 30.2098 149.604 30.2012C149.617 30.218 149.505 32.2968 150.412 34.0661Z" fill="#DCB25F"/>
<path d="M156.745 35.037C155.184 36.7935 153.071 36.7049 153.083 36.7158C153.1 36.7026 153.641 34.3436 155.014 32.6139C156.404 30.8773 158.376 30.3843 158.388 30.3941C158.41 30.3769 158.328 33.2686 156.745 35.037Z" fill="#DCB25F"/>
<path d="M150.888 29.1688C152.113 30.7752 154.054 31.3546 154.065 31.345C154.084 31.3637 154.22 28.8003 152.821 27.1494C151.441 25.5125 149.371 25.4862 149.382 25.476C149.397 25.4911 149.677 27.5722 150.888 29.1688Z" fill="#DCB25F"/>
<path d="M157.265 29.0798C156.058 31.0712 153.972 31.3316 153.986 31.3409C154 31.3255 154.102 28.9111 155.125 26.9717C156.163 25.0231 157.998 24.2067 158.012 24.2148C158.03 24.1948 158.492 27.074 157.265 29.0798Z" fill="#DCB25F"/>
<path d="M150.44 24.239C151.944 25.6319 153.95 25.8834 153.959 25.8727C153.981 25.8887 153.635 23.3251 151.945 21.9111C150.276 20.5084 148.241 20.8203 148.25 20.8089C148.27 20.8217 148.955 22.8536 150.44 24.239Z" fill="#DCB25F"/>
<path d="M156.662 23.0965C155.858 25.2729 153.863 25.8743 153.879 25.8817C153.891 25.8647 153.539 23.4547 154.163 21.3542C154.799 19.2428 156.431 18.1249 156.447 18.1312C156.462 18.1086 157.484 20.9032 156.662 23.0965Z" fill="#DCB25F"/>
<path d="M149.038 19.399C150.791 20.5446 152.801 20.4633 152.808 20.4516C152.834 20.4644 151.99 17.9649 150.037 16.8228C148.108 15.6889 146.172 16.3304 146.18 16.3178C146.203 16.3278 147.307 18.2586 149.038 19.399Z" fill="#DCB25F"/>
<path d="M154.901 17.2357C154.551 19.5413 152.713 20.4678 152.731 20.4729C152.74 20.4545 151.922 18.1088 152.095 15.9018C152.28 13.682 153.638 12.2931 153.656 12.2973C153.67 12.2733 155.266 14.911 154.901 17.2357Z" fill="#DCB25F"/>
<path d="M146.652 14.7717C148.623 15.6411 150.575 15.2306 150.581 15.218C150.611 15.2274 149.252 12.8558 147.066 12.0156C144.907 11.1804 143.135 12.1335 143.141 12.12C143.168 12.127 144.705 13.9049 146.652 14.7717Z" fill="#DCB25F"/>
<path d="M151.948 11.6478C152.105 14.0221 150.491 15.249 150.511 15.2516C150.517 15.2323 149.219 13.0108 148.89 10.7563C148.571 8.48772 149.588 6.86643 149.608 6.8683C149.618 6.84313 151.806 9.25267 151.948 11.6478Z" fill="#DCB25F"/>
<path d="M143.248 10.4808C145.407 11.0502 147.235 10.3223 147.24 10.3095C147.274 10.3149 145.384 8.13535 142.997 7.62189C140.639 7.10982 139.098 8.34908 139.102 8.3351C139.133 8.33836 141.116 9.91093 143.248 10.4808Z" fill="#DCB25F"/>
<path d="M147.759 6.48277C148.475 8.85992 147.153 10.3542 147.176 10.3542C147.178 10.3346 145.386 8.29703 144.504 6.05973C143.629 3.80728 144.231 2.00094 144.254 2.00024C144.261 1.97391 147.056 4.08325 147.759 6.48277Z" fill="#DCB25F"/>
<path d="M124.366 60.1708L124 59.805C127.923 60.1317 127.75 59.8314 131.54 58.7115C135.233 57.6202 138.653 55.8973 141.703 53.5908C148.034 48.8041 152.116 41.9736 153.199 34.3573C154.085 28.1207 153.63 22.5629 151.847 17.8385C149.932 12.7653 146.522 8.79559 141.711 6.03969L141.963 5.6684C146.868 8.4786 150.345 12.525 152.297 17.6951C154.104 22.4844 154.567 28.1095 153.67 34.4144C152.572 42.1414 148.429 49.0719 142.005 53.9292C138.908 56.2709 135.436 58.0202 131.686 59.1284C127.834 60.2661 128.353 60.5029 124.366 60.1708Z" fill="#DCB25F"/>
</svg>
