<svg width="254" height="99" viewBox="0 0 254 99" fill="none" xmlns="http://www.w3.org/2000/svg">
<path d="M40.052 20V8.208H41.908V20H40.052ZM48.1735 20V9.776H44.7335V8.208H53.5175V9.776H50.0615V20H48.1735ZM56.7783 9.088C56.9916 9.12 57.2369 9.14667 57.5143 9.168C57.7916 9.17867 58.0209 9.184 58.2023 9.184H66.9543C67.1996 9.184 67.4449 9.17867 67.6903 9.168C67.9463 9.14667 68.1809 9.12 68.3943 9.088V10.848C68.1703 10.8267 67.9303 10.8107 67.6743 10.8C67.4289 10.7893 67.1889 10.784 66.9543 10.784H58.2023C58.0209 10.784 57.7916 10.7893 57.5143 10.8C57.2369 10.8107 56.9916 10.8267 56.7783 10.848V9.088ZM61.5783 18.688V10.08H63.3223V18.688H61.5783ZM55.7863 17.664C56.0316 17.696 56.2823 17.7227 56.5383 17.744C56.7943 17.7653 57.0396 17.776 57.2743 17.776H67.8343C68.0903 17.776 68.3356 17.7653 68.5703 17.744C68.8049 17.712 69.0236 17.6853 69.2263 17.664V19.504C69.0023 19.472 68.7569 19.4507 68.4903 19.44C68.2236 19.4293 68.0049 19.424 67.8343 19.424H57.2743C57.0396 19.424 56.7943 19.4293 56.5383 19.44C56.2929 19.4507 56.0423 19.472 55.7863 19.504V17.664ZM73.8155 8.08C74.1035 8.272 74.4342 8.512 74.8075 8.8C75.1808 9.07733 75.5595 9.376 75.9435 9.696C76.3382 10.016 76.7115 10.3253 77.0635 10.624C77.4155 10.9227 77.6982 11.1893 77.9115 11.424L76.6475 12.72C76.4448 12.5067 76.1782 12.2507 75.8475 11.952C75.5168 11.6427 75.1595 11.328 74.7755 11.008C74.4022 10.6773 74.0288 10.368 73.6555 10.08C73.2822 9.78133 72.9462 9.53067 72.6475 9.328L73.8155 8.08ZM72.1675 18.784C73.0635 18.6453 73.8902 18.464 74.6475 18.24C75.4048 18.0053 76.0982 17.744 76.7275 17.456C77.3675 17.1573 77.9435 16.8533 78.4555 16.544C79.3088 16.0213 80.0928 15.4187 80.8075 14.736C81.5328 14.0533 82.1675 13.3493 82.7115 12.624C83.2555 11.8987 83.6875 11.1947 84.0075 10.512L84.9835 12.256C84.5995 12.9493 84.1248 13.6427 83.5595 14.336C83.0048 15.0293 82.3755 15.696 81.6715 16.336C80.9675 16.9653 80.1995 17.536 79.3675 18.048C78.8342 18.3787 78.2475 18.6987 77.6075 19.008C76.9782 19.3173 76.2955 19.5947 75.5595 19.84C74.8342 20.0853 74.0608 20.2827 73.2395 20.432L72.1675 18.784ZM97.5645 7.904C97.7032 8.10667 97.8632 8.35733 98.0445 8.656C98.2365 8.95467 98.4178 9.25867 98.5885 9.568C98.7698 9.86667 98.9192 10.144 99.0365 10.4L97.9165 10.88C97.7778 10.5707 97.6285 10.2773 97.4685 10C97.3192 9.712 97.1645 9.42933 97.0045 9.152C96.8445 8.87467 96.6685 8.61333 96.4765 8.368L97.5645 7.904ZM99.7085 7.136C99.8578 7.328 100.023 7.568 100.205 7.856C100.397 8.144 100.583 8.44267 100.765 8.752C100.946 9.05067 101.101 9.32267 101.229 9.568L100.109 10.064C99.9698 9.75467 99.8152 9.46133 99.6445 9.184C99.4845 8.90667 99.3192 8.63467 99.1485 8.368C98.9778 8.10133 98.7965 7.84533 98.6045 7.6L99.7085 7.136ZM90.6845 7.632C90.9298 7.77067 91.2125 7.94667 91.5325 8.16C91.8632 8.36267 92.1992 8.576 92.5405 8.8C92.8818 9.01333 93.2018 9.22133 93.5005 9.424C93.7992 9.616 94.0445 9.78133 94.2365 9.92L93.2765 11.296C93.0845 11.1467 92.8392 10.9707 92.5405 10.768C92.2418 10.5653 91.9218 10.3573 91.5805 10.144C91.2498 9.93067 90.9245 9.728 90.6045 9.536C90.2952 9.33333 90.0178 9.16267 89.7725 9.024L90.6845 7.632ZM88.0285 19.04C88.6258 18.9333 89.2338 18.8 89.8525 18.64C90.4712 18.4693 91.0845 18.2667 91.6925 18.032C92.3005 17.7867 92.8818 17.5147 93.4365 17.216C94.3325 16.704 95.1592 16.1333 95.9165 15.504C96.6845 14.8747 97.3778 14.2027 97.9965 13.488C98.6152 12.7733 99.1378 12.0373 99.5645 11.28L100.541 12.976C99.8258 14.064 98.9298 15.104 97.8525 16.096C96.7752 17.088 95.5858 17.9627 94.2845 18.72C93.7512 19.0187 93.1645 19.3013 92.5245 19.568C91.8845 19.8347 91.2552 20.064 90.6365 20.256C90.0178 20.4587 89.4632 20.6027 88.9725 20.688L88.0285 19.04ZM88.2365 11.264C88.4925 11.392 88.7858 11.5573 89.1165 11.76C89.4472 11.952 89.7832 12.1547 90.1245 12.368C90.4658 12.5813 90.7858 12.784 91.0845 12.976C91.3832 13.168 91.6285 13.328 91.8205 13.456L90.8925 14.88C90.6792 14.7307 90.4232 14.5547 90.1245 14.352C89.8258 14.1493 89.5112 13.9413 89.1805 13.728C88.8498 13.5147 88.5245 13.3173 88.2045 13.136C87.8845 12.944 87.5965 12.7787 87.3405 12.64L88.2365 11.264ZM104.769 9.392C105.035 9.41333 105.318 9.43467 105.617 9.456C105.915 9.46667 106.198 9.472 106.465 9.472C106.657 9.472 106.934 9.472 107.297 9.472C107.67 9.472 108.086 9.472 108.545 9.472C109.003 9.472 109.478 9.472 109.969 9.472C110.459 9.472 110.923 9.472 111.361 9.472C111.798 9.472 112.182 9.472 112.513 9.472C112.843 9.472 113.078 9.472 113.217 9.472C113.526 9.472 113.825 9.46667 114.113 9.456C114.411 9.43467 114.667 9.41333 114.881 9.392V11.216C114.667 11.1947 114.406 11.184 114.097 11.184C113.787 11.1733 113.494 11.168 113.217 11.168C113.089 11.168 112.854 11.168 112.513 11.168C112.171 11.168 111.766 11.168 111.297 11.168C110.838 11.168 110.358 11.168 109.857 11.168C109.355 11.168 108.87 11.168 108.401 11.168C107.942 11.168 107.542 11.168 107.201 11.168C106.859 11.168 106.619 11.168 106.481 11.168C106.193 11.168 105.899 11.1733 105.601 11.184C105.302 11.184 105.025 11.1947 104.769 11.216V9.392ZM103.393 17.264C103.691 17.2853 103.995 17.3067 104.305 17.328C104.614 17.3493 104.918 17.36 105.217 17.36C105.355 17.36 105.611 17.36 105.985 17.36C106.358 17.36 106.806 17.36 107.329 17.36C107.862 17.36 108.427 17.36 109.025 17.36C109.633 17.36 110.235 17.36 110.833 17.36C111.43 17.36 111.99 17.36 112.513 17.36C113.046 17.36 113.499 17.36 113.873 17.36C114.246 17.36 114.497 17.36 114.625 17.36C114.881 17.36 115.147 17.3547 115.425 17.344C115.702 17.3227 115.969 17.296 116.225 17.264V19.2C115.969 19.168 115.691 19.1467 115.393 19.136C115.105 19.1253 114.849 19.12 114.625 19.12C114.497 19.12 114.246 19.12 113.873 19.12C113.499 19.12 113.046 19.12 112.513 19.12C111.99 19.12 111.43 19.12 110.833 19.12C110.235 19.12 109.633 19.12 109.025 19.12C108.427 19.12 107.862 19.12 107.329 19.12C106.806 19.12 106.358 19.12 105.985 19.12C105.611 19.12 105.355 19.12 105.217 19.12C104.918 19.12 104.609 19.1307 104.289 19.152C103.979 19.1627 103.681 19.1787 103.393 19.2V17.264ZM132.481 9.184C132.407 9.26933 132.316 9.38133 132.209 9.52C132.113 9.648 132.028 9.76 131.953 9.856C131.729 10.2507 131.415 10.7147 131.009 11.248C130.615 11.7813 130.161 12.32 129.649 12.864C129.148 13.3973 128.609 13.8667 128.033 14.272L126.705 13.2C127.057 12.9973 127.399 12.7573 127.729 12.48C128.071 12.192 128.385 11.8933 128.673 11.584C128.972 11.2747 129.233 10.976 129.457 10.688C129.681 10.3893 129.852 10.1227 129.969 9.888C129.82 9.888 129.564 9.888 129.201 9.888C128.849 9.888 128.423 9.888 127.921 9.888C127.431 9.888 126.903 9.888 126.337 9.888C125.783 9.888 125.228 9.888 124.673 9.888C124.119 9.888 123.601 9.888 123.121 9.888C122.641 9.888 122.231 9.888 121.889 9.888C121.548 9.888 121.319 9.888 121.201 9.888C120.881 9.888 120.572 9.89867 120.273 9.92C119.975 9.93067 119.655 9.952 119.313 9.984V8.208C119.612 8.24 119.921 8.272 120.241 8.304C120.561 8.336 120.881 8.352 121.201 8.352C121.319 8.352 121.553 8.352 121.905 8.352C122.257 8.352 122.679 8.352 123.169 8.352C123.671 8.352 124.209 8.352 124.785 8.352C125.361 8.352 125.937 8.352 126.513 8.352C127.089 8.352 127.628 8.352 128.129 8.352C128.631 8.352 129.057 8.352 129.409 8.352C129.761 8.352 130.007 8.352 130.145 8.352C130.263 8.352 130.407 8.352 130.577 8.352C130.759 8.34133 130.929 8.32533 131.089 8.304C131.26 8.28267 131.388 8.26133 131.473 8.24L132.481 9.184ZM126.017 11.312C126.017 12.144 125.996 12.9333 125.953 13.68C125.911 14.4267 125.809 15.136 125.649 15.808C125.5 16.4693 125.265 17.0933 124.945 17.68C124.625 18.256 124.193 18.8 123.649 19.312C123.105 19.824 122.412 20.2933 121.569 20.72L120.097 19.52C120.332 19.4453 120.583 19.344 120.849 19.216C121.127 19.0773 121.388 18.9173 121.633 18.736C122.209 18.3627 122.673 17.9573 123.025 17.52C123.377 17.0827 123.639 16.6133 123.809 16.112C123.991 15.6 124.113 15.0507 124.177 14.464C124.252 13.8773 124.289 13.2533 124.289 12.592C124.289 12.3787 124.284 12.1707 124.273 11.968C124.263 11.7653 124.236 11.5467 124.193 11.312H126.017ZM140.99 7.344H148.782V8.752H140.99V7.344ZM140.558 13.072H149.102V14.512H140.558V13.072ZM145.918 7.936H147.358V21.344H145.918V7.936ZM142.222 7.984H143.646V13.504C143.646 14.176 143.619 14.8693 143.566 15.584C143.513 16.288 143.406 16.992 143.246 17.696C143.097 18.3893 142.873 19.056 142.574 19.696C142.275 20.336 141.875 20.9173 141.374 21.44C141.289 21.344 141.177 21.2427 141.038 21.136C140.91 21.0293 140.771 20.9227 140.622 20.816C140.473 20.7093 140.339 20.624 140.222 20.56C140.67 20.0907 141.027 19.568 141.294 18.992C141.561 18.4053 141.758 17.7973 141.886 17.168C142.025 16.5387 142.115 15.9147 142.158 15.296C142.201 14.6667 142.222 14.0693 142.222 13.504V7.984ZM134.43 7.312H140.158V8.688H134.43V7.312ZM136.126 12.24H139.918V19.36H136.126V18.016H138.606V13.584H136.126V12.24ZM136.43 7.984L137.822 8.288C137.63 9.29067 137.39 10.2827 137.102 11.264C136.814 12.2453 136.473 13.1627 136.078 14.016C135.694 14.8693 135.241 15.616 134.718 16.256C134.697 16.128 134.649 15.9573 134.574 15.744C134.51 15.52 134.435 15.3013 134.35 15.088C134.275 14.864 134.195 14.6827 134.11 14.544C134.707 13.744 135.193 12.7733 135.566 11.632C135.939 10.48 136.227 9.264 136.43 7.984ZM135.47 12.24H136.75V20.608H135.47V12.24ZM161.598 13.808L162.734 14.272C162.403 14.6133 162.009 14.928 161.55 15.216C161.102 15.504 160.627 15.7653 160.126 16C159.625 16.224 159.118 16.4213 158.606 16.592C158.51 16.4427 158.382 16.288 158.222 16.128C158.073 15.9573 157.929 15.8133 157.79 15.696C158.259 15.568 158.729 15.408 159.198 15.216C159.678 15.024 160.126 14.8107 160.542 14.576C160.969 14.3307 161.321 14.0747 161.598 13.808ZM163.15 15.312L164.254 15.776C163.849 16.224 163.347 16.6347 162.75 17.008C162.163 17.3707 161.523 17.696 160.83 17.984C160.147 18.2613 159.438 18.5013 158.702 18.704C158.617 18.5547 158.505 18.3893 158.366 18.208C158.227 18.016 158.089 17.856 157.95 17.728C158.622 17.568 159.289 17.376 159.95 17.152C160.611 16.9173 161.219 16.6453 161.774 16.336C162.339 16.0267 162.798 15.6853 163.15 15.312ZM164.494 17.104L165.79 17.648C165.257 18.2773 164.585 18.832 163.774 19.312C162.963 19.7813 162.057 20.176 161.054 20.496C160.062 20.816 159.006 21.0773 157.886 21.28C157.811 21.0987 157.699 20.8907 157.55 20.656C157.401 20.432 157.251 20.24 157.102 20.08C158.147 19.9307 159.145 19.728 160.094 19.472C161.043 19.2053 161.897 18.8747 162.654 18.48C163.411 18.0853 164.025 17.6267 164.494 17.104ZM159.454 6.48L160.83 6.816C160.457 7.76533 159.982 8.672 159.406 9.536C158.83 10.3893 158.222 11.1093 157.582 11.696C157.497 11.6107 157.385 11.5147 157.246 11.408C157.107 11.2907 156.963 11.1787 156.814 11.072C156.675 10.9653 156.547 10.88 156.43 10.816C157.07 10.2933 157.651 9.65333 158.174 8.896C158.707 8.128 159.134 7.32267 159.454 6.48ZM159.246 8.176H165.726V9.408H158.494L159.246 8.176ZM163.342 8.48L164.766 8.8C164.339 9.81333 163.763 10.6933 163.038 11.44C162.323 12.1867 161.497 12.8213 160.558 13.344C159.619 13.856 158.595 14.2827 157.486 14.624C157.433 14.5173 157.353 14.3893 157.246 14.24C157.139 14.0907 157.027 13.9413 156.91 13.792C156.793 13.6427 156.686 13.5253 156.59 13.44C157.657 13.184 158.633 12.8373 159.518 12.4C160.414 11.952 161.187 11.408 161.838 10.768C162.499 10.1173 163.001 9.35467 163.342 8.48ZM159.182 8.912C159.513 9.53067 159.993 10.1333 160.622 10.72C161.262 11.3067 162.051 11.824 162.99 12.272C163.939 12.72 165.022 13.0507 166.238 13.264C166.153 13.36 166.057 13.4827 165.95 13.632C165.843 13.7813 165.742 13.9307 165.646 14.08C165.561 14.2293 165.486 14.3627 165.422 14.48C164.185 14.2027 163.091 13.808 162.142 13.296C161.203 12.7733 160.409 12.192 159.758 11.552C159.107 10.9013 158.601 10.24 158.238 9.568L159.182 8.912ZM155.374 8.464H156.702V18.672H155.374V8.464ZM154.03 6.576L155.438 6.976C155.139 7.904 154.782 8.832 154.366 9.76C153.95 10.6773 153.497 11.5467 153.006 12.368C152.515 13.1893 152.003 13.92 151.47 14.56C151.427 14.432 151.358 14.2667 151.262 14.064C151.177 13.8613 151.081 13.6587 150.974 13.456C150.878 13.2533 150.787 13.088 150.702 12.96C151.161 12.4373 151.593 11.8347 151.998 11.152C152.414 10.4693 152.798 9.73867 153.15 8.96C153.502 8.17067 153.795 7.376 154.03 6.576ZM152.766 10.688L154.158 9.28L154.206 9.312V21.344H152.766V10.688ZM172.334 8H182.206V9.328H172.334V8ZM171.822 10.864H182.654V12.192H171.822V10.864ZM175.118 17.664H179.374V18.784H175.118V17.664ZM174.526 6.496H175.95V11.984H174.526V6.496ZM178.494 6.496H179.95V11.984H178.494V6.496ZM174.638 15.488H175.582V19.744H174.638V15.488ZM178.878 15.488H179.806V19.44H178.878V15.488ZM180.782 13.392H182.206V19.808C182.206 20.16 182.163 20.4373 182.078 20.64C181.993 20.8427 181.827 20.9973 181.582 21.104C181.337 21.2107 181.022 21.2693 180.638 21.28C180.254 21.3013 179.779 21.312 179.214 21.312C179.193 21.1307 179.145 20.9173 179.07 20.672C178.995 20.4373 178.921 20.224 178.846 20.032C179.209 20.0427 179.55 20.048 179.87 20.048C180.19 20.0587 180.403 20.064 180.51 20.064C180.691 20.064 180.782 19.9787 180.782 19.808V13.392ZM172.398 13.392H181.326V14.704H173.758V21.328H172.398V13.392ZM168.574 7.728L169.454 6.656C169.774 6.79467 170.11 6.96533 170.462 7.168C170.814 7.36 171.145 7.56267 171.454 7.776C171.774 7.97867 172.03 8.17067 172.222 8.352L171.294 9.552C171.113 9.36 170.867 9.152 170.558 8.928C170.249 8.704 169.923 8.49067 169.582 8.288C169.241 8.07467 168.905 7.888 168.574 7.728ZM167.79 12.176L168.59 11.024C168.931 11.1307 169.283 11.264 169.646 11.424C170.019 11.584 170.371 11.7547 170.702 11.936C171.043 12.1173 171.321 12.2933 171.534 12.464L170.686 13.744C170.483 13.5733 170.217 13.392 169.886 13.2C169.566 13.008 169.219 12.8213 168.846 12.64C168.483 12.4587 168.131 12.304 167.79 12.176ZM168.206 20.24C168.451 19.824 168.723 19.3333 169.022 18.768C169.331 18.2027 169.641 17.6 169.95 16.96C170.259 16.32 170.542 15.696 170.798 15.088L171.998 16C171.763 16.5653 171.507 17.1467 171.23 17.744C170.953 18.3413 170.67 18.9333 170.382 19.52C170.105 20.096 169.827 20.64 169.55 21.152L168.206 20.24ZM176.478 11.776H177.934V14.352H177.774V18.432H176.638V14.352H176.478V11.776ZM192.078 15.12H198.302V16.528H192.078V15.12ZM188.622 15.904C188.91 16.6933 189.283 17.3387 189.742 17.84C190.211 18.3413 190.745 18.7307 191.342 19.008C191.939 19.2747 192.601 19.4613 193.326 19.568C194.051 19.664 194.819 19.712 195.63 19.712C195.747 19.712 195.929 19.712 196.174 19.712C196.43 19.712 196.718 19.712 197.038 19.712C197.358 19.712 197.683 19.712 198.014 19.712C198.345 19.712 198.643 19.712 198.91 19.712C199.187 19.7013 199.406 19.6907 199.566 19.68C199.491 19.7973 199.417 19.9467 199.342 20.128C199.267 20.3093 199.203 20.4907 199.15 20.672C199.097 20.8533 199.054 21.0187 199.022 21.168H198.286H195.55C194.569 21.168 193.662 21.0987 192.83 20.96C192.009 20.832 191.257 20.5973 190.574 20.256C189.891 19.9147 189.283 19.4293 188.75 18.8C188.217 18.1707 187.763 17.3653 187.39 16.384L188.622 15.904ZM191.406 12.464H192.958V20.4L191.406 19.888V12.464ZM188.206 8.688V11.408H196.222V8.688H188.206ZM186.702 7.232H197.822V12.848H186.702V7.232ZM187.518 13.952L189.102 14.128C188.974 15.0133 188.777 15.9093 188.51 16.816C188.254 17.712 187.902 18.5547 187.454 19.344C187.017 20.1333 186.462 20.7947 185.79 21.328C185.705 21.2213 185.598 21.104 185.47 20.976C185.342 20.848 185.209 20.72 185.07 20.592C184.942 20.4747 184.825 20.3787 184.718 20.304C185.326 19.824 185.822 19.2373 186.206 18.544C186.59 17.84 186.883 17.088 187.086 16.288C187.299 15.4773 187.443 14.6987 187.518 13.952ZM204.654 10.992H215.918V12.208H204.654V10.992ZM204.83 15.648H213.838V16.864H204.83V15.648ZM207.054 9.744H208.494V13.632H211.966V9.744H213.454V14.8H207.054V9.744ZM213.438 15.648H213.742L214.014 15.584L214.958 16.08C214.521 16.9333 213.955 17.664 213.262 18.272C212.569 18.8693 211.774 19.376 210.878 19.792C209.993 20.208 209.038 20.5387 208.014 20.784C206.99 21.0293 205.923 21.2213 204.814 21.36C204.771 21.1787 204.686 20.96 204.558 20.704C204.43 20.4587 204.307 20.256 204.19 20.096C205.203 20 206.185 19.8507 207.134 19.648C208.094 19.4453 208.985 19.1787 209.806 18.848C210.638 18.5067 211.363 18.0907 211.982 17.6C212.611 17.1093 213.097 16.528 213.438 15.856V15.648ZM207.886 16.64C208.377 17.3013 209.043 17.8667 209.886 18.336C210.729 18.8053 211.694 19.184 212.782 19.472C213.881 19.76 215.059 19.9627 216.318 20.08C216.222 20.1867 216.115 20.32 215.998 20.48C215.881 20.64 215.774 20.7947 215.678 20.944C215.582 21.104 215.502 21.2533 215.438 21.392C214.126 21.2213 212.91 20.9547 211.79 20.592C210.67 20.24 209.667 19.776 208.782 19.2C207.897 18.624 207.161 17.9307 206.574 17.12L207.886 16.64ZM208.574 6.496H210.142V8.784H208.574V6.496ZM203.486 8.016H216.03V9.376H203.486V8.016ZM202.734 8.016H204.19V12.592C204.19 13.2213 204.169 13.9147 204.126 14.672C204.094 15.4293 204.019 16.2027 203.902 16.992C203.795 17.7813 203.63 18.5493 203.406 19.296C203.193 20.0427 202.91 20.7253 202.558 21.344C202.473 21.2587 202.35 21.1573 202.19 21.04C202.041 20.9333 201.886 20.8267 201.726 20.72C201.566 20.624 201.427 20.5547 201.31 20.512C201.641 19.936 201.902 19.312 202.094 18.64C202.286 17.968 202.425 17.28 202.51 16.576C202.606 15.8613 202.665 15.1627 202.686 14.48C202.718 13.7973 202.734 13.168 202.734 12.592V8.016Z" fill="#333333"/>
<path d="M94.284 59.448V59.64L85.26 66.2L88.812 76.984L88.684 77.048L79.5 70.392L70.316 77.048L70.188 76.984L73.74 66.2L64.716 59.64V59.448H75.884L79.404 48.728H79.596L83.116 59.448H94.284Z" fill="#333333"/>
<path d="M100.281 76.7188V70.5625L115.5 37.9375H122.781L107.375 70.5625H119.281V57.4688H125.812V70.5625H129.438V76.7188H125.812V83.5H119.281V76.7188H100.281ZM134.656 83.5V76.9688H141.188V83.5H134.656ZM147.688 83.5V77.3438L165.469 55.0938C166.156 54.1979 166.625 53.3646 166.875 52.5938C167.042 51.8646 167.125 51.1771 167.125 50.5312C167.125 48.8229 166.594 47.3333 165.531 46.0625C164.427 44.7917 162.865 44.1354 160.844 44.0938C159.052 44.0938 157.562 44.6667 156.375 45.8125C155.146 46.9583 154.417 48.5729 154.188 50.6562H147.688C147.854 46.8646 149.125 43.7292 151.5 41.25C153.896 38.8333 156.844 37.6042 160.344 37.5625C164.26 37.6042 167.438 38.8542 169.875 41.3125C172.354 43.75 173.615 46.8438 173.656 50.5938C173.656 53.5938 172.74 56.2604 170.906 58.5938L156.25 76.9688H173.656V83.5H147.688Z" fill="#333333"/>
<path d="M22.4706 10.0905C20.1537 12.0349 19.7373 15.0858 19.7373 15.0858C19.7373 15.0858 23.0771 14.9842 25.3936 13.0399C27.7104 11.0955 28.1269 8.04456 28.1269 8.04456C28.1269 8.04456 24.7871 8.14586 22.4706 10.0905Z" fill="#DCB25F"/>
<path d="M38.7589 81.7375C40.7535 84.0921 40.8736 86.8726 40.8466 86.8816C40.8542 86.9169 36.6618 85.8381 34.7801 83.241C32.898 80.6768 33.8147 78.0192 33.7873 78.0269C33.7984 78.052 36.7671 79.4045 38.7589 81.7375Z" fill="#DCB25F"/>
<path d="M35.8247 89.8911C39.5048 89.3161 40.8773 86.7554 40.8766 86.7784C40.8333 86.7908 36.8899 85.7434 33.4923 86.1113C30.0604 86.4955 28.0447 88.4567 28.0444 88.4777C27.9959 88.4879 32.1045 90.4798 35.8247 89.8911Z" fill="#DCB25F"/>
<path d="M31.482 78.7963C32.8528 81.3784 32.3605 84.0779 32.3353 84.0827C32.3387 84.1184 28.6535 82.4349 27.4121 79.6321C26.1673 76.8611 27.5838 74.4317 27.5579 74.4352C27.5641 74.4616 30.1108 76.2359 31.482 78.7963Z" fill="#DCB25F"/>
<path d="M26.9925 86.2169C30.5697 86.2274 32.3902 83.9655 32.3874 83.9878C32.3469 83.9936 28.8905 82.3783 25.5923 82.2059C22.2615 82.0447 19.928 83.6263 19.9252 83.6467C19.8796 83.6498 23.3768 86.2144 26.9925 86.2169Z" fill="#DCB25F"/>
<path d="M25.2076 74.8183C25.9854 77.5329 24.9494 80.065 24.9262 80.0659C24.9248 80.1013 21.7688 77.8989 21.1374 74.9865C20.4988 72.105 22.3431 69.9714 22.3192 69.9711C22.3206 69.9982 24.426 72.1251 25.2076 74.8183Z" fill="#DCB25F"/>
<path d="M19.3829 81.2952C22.7975 81.8644 24.9904 79.9599 24.9849 79.9816C24.9478 79.9816 21.9972 77.8802 18.8582 77.1921C15.6884 76.5105 13.116 77.6731 13.1108 77.6925C13.0682 77.689 15.932 80.7282 19.3829 81.2952Z" fill="#DCB25F"/>
<path d="M19.9589 69.9675C20.1767 72.7264 18.6674 75.0157 18.6456 75.0132C18.6397 75.0479 16.0338 72.4126 15.9801 69.4799C15.9158 66.5767 18.1139 64.7958 18.0914 64.7919C18.089 64.8187 19.7343 67.2291 19.9589 69.9675Z" fill="#DCB25F"/>
<path d="M13.0562 75.3263C16.2464 76.4211 18.7339 74.9208 18.7263 74.9412C18.6924 74.9358 16.2665 72.4308 13.3476 71.2586C10.4008 70.0883 7.67058 70.8043 7.66262 70.8231C7.6235 70.8136 9.83167 74.2286 13.0562 75.3263Z" fill="#DCB25F"/>
<path d="M15.8071 64.4078C15.498 67.13 13.5885 69.1122 13.5685 69.1068C13.5581 69.14 11.524 66.1578 12.0149 63.2878C12.4919 60.4452 14.9669 59.0617 14.9462 59.0551C14.9393 59.0812 16.1058 61.705 15.8071 64.4078Z" fill="#DCB25F"/>
<path d="M8.06395 68.5115C10.9669 70.0915 13.67 69.0308 13.6593 69.0499C13.6292 69.0397 11.7464 66.213 9.11074 64.5955C6.44841 62.9757 3.64415 63.2293 3.63342 63.2465C3.59777 63.2315 5.1285 66.9239 8.06395 68.5115Z" fill="#DCB25F"/>
<path d="M12.7646 58.3044C11.9639 60.9158 9.72842 62.5384 9.71042 62.5301C9.69518 62.5613 8.25515 59.3189 9.25591 56.5871C10.239 53.8802 12.9131 52.9278 12.8944 52.9182C12.8826 52.9431 13.5518 55.7105 12.7646 58.3044Z" fill="#DCB25F"/>
<path d="M4.43986 61.0521C6.99107 63.0697 9.82786 62.4725 9.81471 62.4897C9.78771 62.4753 8.46745 59.4091 6.17897 57.3921C3.86592 55.3687 1.07205 55.1553 1.05855 55.1709C1.02566 55.1508 1.85784 59.0227 4.43986 61.0521Z" fill="#DCB25F"/>
<path d="M10.9044 51.8234C9.64752 54.2571 7.16416 55.4789 7.14789 55.4681C7.12781 55.4968 6.30325 52.0805 7.77825 49.5554C9.23143 47.0527 12.0246 46.5532 12.0077 46.5414C11.9907 46.5644 12.144 49.4054 10.9044 51.8234Z" fill="#DCB25F"/>
<path d="M2.24831 53.1505C4.3824 55.551 7.26939 55.4299 7.25312 55.4449C7.22993 55.4268 6.49088 52.2029 4.61434 49.839C2.71564 47.4656 0.0193813 46.7919 0.00345785 46.8052C-0.0259659 46.7817 0.085147 50.7337 2.24831 53.1505Z" fill="#DCB25F"/>
<path d="M10.2536 45.1306C8.57815 47.326 5.92552 48.1179 5.91098 48.1048C5.88571 48.1303 5.69912 44.627 7.61062 42.3708C9.49721 40.1337 12.326 40.0978 12.3112 40.0837C12.29 40.1044 11.9079 42.9487 10.2536 45.1306Z" fill="#DCB25F"/>
<path d="M1.53621 45.009C3.18671 47.7305 6.03736 48.0863 6.01832 48.0991C5.99893 48.0781 5.85977 44.7783 4.46162 42.1278C3.0434 39.4648 0.53478 38.349 0.516087 38.3601C0.490818 38.3327 -0.140595 42.2676 1.53621 45.009Z" fill="#DCB25F"/>
<path d="M10.8659 38.3933C8.81109 40.2968 6.06913 40.6405 6.05701 40.6259C6.02655 40.6479 6.4994 37.1443 8.80934 35.2117C11.0905 33.2947 13.8709 33.721 13.8585 33.7053C13.8322 33.7229 12.8961 36.4999 10.8659 38.3933Z" fill="#DCB25F"/>
<path d="M2.36124 36.8318C3.45962 39.8063 6.18633 40.6281 6.16452 40.6383C6.14895 40.615 6.62873 37.3214 5.77682 34.4507C4.90727 31.5651 2.67764 30.0374 2.65583 30.046C2.63437 30.0151 1.23829 33.8343 2.36124 36.8318Z" fill="#DCB25F"/>
<path d="M12.7784 31.7786C10.3836 33.3442 7.63682 33.233 7.62678 33.2171C7.59112 33.2346 8.74524 29.8186 11.4141 28.2578C14.0505 26.7081 16.6959 27.5847 16.6852 27.5675C16.6533 27.5812 15.1447 30.22 12.7784 31.7786Z" fill="#DCB25F"/>
<path d="M4.76873 28.8222C5.24643 31.9732 7.75887 33.2394 7.73394 33.2464C7.72217 33.2212 8.83959 30.0154 8.60281 26.9992C8.35081 23.9655 6.49365 22.0673 6.46907 22.073C6.45107 22.0402 4.26887 25.6451 4.76873 28.8222Z" fill="#DCB25F"/>
<path d="M16.0398 25.4546C13.3464 26.6427 10.6795 26.0818 10.6716 26.0646C10.6304 26.0773 12.4875 22.8362 15.4746 21.6879C18.4249 20.5465 20.8463 21.849 20.838 21.8306C20.8013 21.8401 18.7011 24.2699 16.0398 25.4546Z" fill="#DCB25F"/>
<path d="M8.80372 21.1852C8.58945 24.4301 10.7955 26.1069 10.7678 26.1104C10.7599 26.084 12.534 23.048 12.9829 19.9668C13.4188 16.8665 12.0299 14.6507 12.0023 14.6533C11.9884 14.6189 8.99826 17.9119 8.80372 21.1852Z" fill="#DCB25F"/>
<path d="M20.6944 19.5903C17.7448 20.3685 15.2455 19.3737 15.2396 19.3562C15.1932 19.3635 17.7756 16.3849 21.0382 15.6831C24.2603 14.9833 26.367 16.677 26.3608 16.6579C26.3185 16.6623 23.6081 18.8115 20.6944 19.5903Z" fill="#DCB25F"/>
<path d="M14.5297 14.1264C13.5518 17.3752 15.3574 19.4173 15.3266 19.4173C15.3231 19.3906 17.7722 16.6059 18.9779 13.5483C20.1732 10.47 19.3507 8.00129 19.3199 8.00033C19.3098 7.96434 15.4899 10.8471 14.5297 14.1264Z" fill="#DCB25F"/>
<path d="M46.5 87.5L47 87C41.638 87.4466 41.8755 87.0362 36.6952 85.5056C31.6481 84.0142 26.9749 81.6596 22.8061 78.5073C14.1545 71.9655 8.57538 62.6305 7.09588 52.2216C5.88466 43.6982 6.50602 36.1027 8.943 29.6459C11.56 22.7126 16.2204 17.2873 22.795 13.5209L22.4513 13.0135C15.7475 16.8541 10.9957 22.3842 8.32891 29.45C5.85836 35.9953 5.22661 43.6829 6.45133 52.2997C7.95229 62.8598 13.6138 72.3315 22.3935 78.9698C26.626 82.1702 31.3708 84.5608 36.4965 86.0755C41.7598 87.6302 41.0507 87.9539 46.5 87.5Z" fill="#DCB25F"/>
<path d="M231.029 10.0905C233.346 12.0349 233.763 15.0858 233.763 15.0858C233.763 15.0858 230.423 14.9842 228.106 13.0399C225.79 11.0955 225.373 8.04456 225.373 8.04456C225.373 8.04456 228.713 8.14586 231.029 10.0905Z" fill="#DCB25F"/>
<path d="M214.741 81.7375C212.747 84.0921 212.626 86.8726 212.653 86.8816C212.646 86.9169 216.838 85.8381 218.72 83.241C220.602 80.6768 219.685 78.0192 219.713 78.0269C219.702 78.052 216.733 79.4045 214.741 81.7375Z" fill="#DCB25F"/>
<path d="M217.675 89.8911C213.995 89.3161 212.623 86.7554 212.623 86.7784C212.667 86.7908 216.61 85.7434 220.008 86.1113C223.44 86.4955 225.455 88.4567 225.456 88.4777C225.504 88.4879 221.395 90.4798 217.675 89.8911Z" fill="#DCB25F"/>
<path d="M222.018 78.7963C220.647 81.3784 221.139 84.0779 221.165 84.0827C221.161 84.1184 224.847 82.4349 226.088 79.6321C227.333 76.8611 225.916 74.4317 225.942 74.4352C225.936 74.4616 223.389 76.2359 222.018 78.7963Z" fill="#DCB25F"/>
<path d="M226.508 86.2169C222.93 86.2274 221.11 83.9655 221.113 83.9878C221.153 83.9936 224.61 82.3783 227.908 82.2059C231.239 82.0447 233.572 83.6263 233.575 83.6467C233.62 83.6498 230.123 86.2144 226.508 86.2169Z" fill="#DCB25F"/>
<path d="M228.292 74.8183C227.515 77.5329 228.551 80.065 228.574 80.0659C228.575 80.1013 231.731 77.8989 232.363 74.9865C233.001 72.105 231.157 69.9714 231.181 69.9711C231.179 69.9982 229.074 72.1251 228.292 74.8183Z" fill="#DCB25F"/>
<path d="M234.117 81.2952C230.703 81.8644 228.51 79.9599 228.515 79.9816C228.552 79.9816 231.503 77.8802 234.642 77.1921C237.812 76.5105 240.384 77.6731 240.389 77.6925C240.432 77.689 237.568 80.7282 234.117 81.2952Z" fill="#DCB25F"/>
<path d="M233.541 69.9675C233.323 72.7264 234.833 75.0157 234.854 75.0132C234.86 75.0479 237.466 72.4126 237.52 69.4799C237.584 66.5767 235.386 64.7958 235.409 64.7919C235.411 64.8187 233.766 67.2291 233.541 69.9675Z" fill="#DCB25F"/>
<path d="M240.444 75.3263C237.254 76.4211 234.766 74.9208 234.774 74.9412C234.808 74.9358 237.234 72.4308 240.152 71.2586C243.099 70.0883 245.829 70.8043 245.837 70.8231C245.876 70.8136 243.668 74.2286 240.444 75.3263Z" fill="#DCB25F"/>
<path d="M237.693 64.4078C238.002 67.13 239.911 69.1122 239.932 69.1068C239.942 69.14 241.976 66.1578 241.485 63.2878C241.008 60.4452 238.533 59.0617 238.554 59.0551C238.561 59.0812 237.394 61.705 237.693 64.4078Z" fill="#DCB25F"/>
<path d="M245.436 68.5115C242.533 70.0915 239.83 69.0308 239.841 69.0499C239.871 69.0397 241.754 66.213 244.389 64.5955C247.052 62.9757 249.856 63.2293 249.867 63.2465C249.902 63.2315 248.372 66.9239 245.436 68.5115Z" fill="#DCB25F"/>
<path d="M240.735 58.3044C241.536 60.9158 243.772 62.5384 243.79 62.5301C243.805 62.5613 245.245 59.3189 244.244 56.5871C243.261 53.8802 240.587 52.9278 240.606 52.9182C240.617 52.9431 239.948 55.7105 240.735 58.3044Z" fill="#DCB25F"/>
<path d="M249.06 61.0521C246.509 63.0697 243.672 62.4725 243.685 62.4897C243.712 62.4753 245.033 59.4091 247.321 57.3921C249.634 55.3687 252.428 55.1553 252.441 55.1709C252.474 55.1508 251.642 59.0227 249.06 61.0521Z" fill="#DCB25F"/>
<path d="M242.596 51.8234C243.852 54.2571 246.336 55.4789 246.352 55.4681C246.372 55.4968 247.197 52.0805 245.722 49.5554C244.269 47.0527 241.475 46.5532 241.492 46.5414C241.509 46.5644 241.356 49.4054 242.596 51.8234Z" fill="#DCB25F"/>
<path d="M251.252 53.1505C249.118 55.551 246.231 55.4299 246.247 55.4449C246.27 55.4268 247.009 52.2029 248.886 49.839C250.784 47.4656 253.481 46.7919 253.497 46.8052C253.526 46.7817 253.415 50.7337 251.252 53.1505Z" fill="#DCB25F"/>
<path d="M243.246 45.1306C244.922 47.326 247.574 48.1179 247.589 48.1048C247.614 48.1303 247.801 44.627 245.889 42.3708C244.003 40.1337 241.174 40.0978 241.189 40.0837C241.21 40.1044 241.592 42.9487 243.246 45.1306Z" fill="#DCB25F"/>
<path d="M251.964 45.009C250.313 47.7305 247.463 48.0863 247.482 48.0991C247.501 48.0781 247.64 44.7783 249.038 42.1278C250.457 39.4648 252.965 38.349 252.984 38.3601C253.009 38.3327 253.641 42.2676 251.964 45.009Z" fill="#DCB25F"/>
<path d="M242.634 38.3933C244.689 40.2968 247.431 40.6405 247.443 40.6259C247.473 40.6479 247.001 37.1443 244.691 35.2117C242.409 33.2947 239.629 33.721 239.642 33.7053C239.668 33.7229 240.604 36.4999 242.634 38.3933Z" fill="#DCB25F"/>
<path d="M251.139 36.8318C250.04 39.8063 247.314 40.6281 247.335 40.6383C247.351 40.615 246.871 37.3214 247.723 34.4507C248.593 31.5651 250.822 30.0374 250.844 30.046C250.866 30.0151 252.262 33.8343 251.139 36.8318Z" fill="#DCB25F"/>
<path d="M240.722 31.7786C243.116 33.3442 245.863 33.233 245.873 33.2171C245.909 33.2346 244.755 29.8186 242.086 28.2578C239.449 26.7081 236.804 27.5847 236.815 27.5675C236.847 27.5812 238.355 30.22 240.722 31.7786Z" fill="#DCB25F"/>
<path d="M248.731 28.8222C248.254 31.9732 245.741 33.2394 245.766 33.2464C245.778 33.2212 244.66 30.0154 244.897 26.9992C245.149 23.9655 247.006 22.0673 247.031 22.073C247.049 22.0402 249.231 25.6451 248.731 28.8222Z" fill="#DCB25F"/>
<path d="M237.46 25.4546C240.154 26.6427 242.82 26.0818 242.828 26.0646C242.87 26.0773 241.012 22.8362 238.025 21.6879C235.075 20.5465 232.654 21.849 232.662 21.8306C232.699 21.8401 234.799 24.2699 237.46 25.4546Z" fill="#DCB25F"/>
<path d="M244.696 21.1852C244.911 24.4301 242.704 26.1069 242.732 26.1104C242.74 26.084 240.966 23.048 240.517 19.9668C240.081 16.8665 241.47 14.6507 241.498 14.6533C241.512 14.6189 244.502 17.9119 244.696 21.1852Z" fill="#DCB25F"/>
<path d="M232.806 19.5903C235.755 20.3685 238.254 19.3737 238.26 19.3562C238.307 19.3635 235.724 16.3849 232.462 15.6831C229.24 14.9833 227.133 16.677 227.139 16.6579C227.181 16.6623 229.892 18.8115 232.806 19.5903Z" fill="#DCB25F"/>
<path d="M238.97 14.1264C239.948 17.3752 238.143 19.4173 238.173 19.4173C238.177 19.3906 235.728 16.6059 234.522 13.5483C233.327 10.47 234.149 8.00129 234.18 8.00033C234.19 7.96434 238.01 10.8471 238.97 14.1264Z" fill="#DCB25F"/>
<path d="M207 87.5L206.5 87C211.862 87.4466 211.625 87.0362 216.805 85.5056C221.852 84.0142 226.525 81.6596 230.694 78.5073C239.346 71.9655 244.925 62.6305 246.404 52.2216C247.615 43.6982 246.994 36.1027 244.557 29.6459C241.94 22.7126 237.28 17.2873 230.705 13.5209L231.049 13.0135C237.752 16.8541 242.504 22.3842 245.171 29.45C247.642 35.9953 248.273 43.6829 247.049 52.2997C245.548 62.8598 239.886 72.3315 231.107 78.9698C226.874 82.1702 222.129 84.5608 217.004 86.0755C211.74 87.6302 212.449 87.9539 207 87.5Z" fill="#DCB25F"/>
</svg>
