<svg width="247" height="97" viewBox="0 0 247 97" fill="none" xmlns="http://www.w3.org/2000/svg">
<path d="M82.1926 19V7.208H84.0486V19H82.1926ZM90.3141 19V8.776H86.8741V7.208H95.6581V8.776H92.2021V19H90.3141ZM97.8874 11.976H112.095V13.48H97.8874V11.976ZM99.0554 8.024H110.959V9.528H99.0554V8.024ZM104.143 5.496H105.743V20.344H104.143V5.496ZM103.823 12.792L105.119 13.352C104.746 13.9813 104.309 14.6 103.807 15.208C103.306 15.8053 102.762 16.376 102.175 16.92C101.599 17.4533 101.002 17.944 100.383 18.392C99.7647 18.8293 99.146 19.2133 98.5274 19.544C98.442 19.4053 98.33 19.256 98.1914 19.096C98.0634 18.936 97.93 18.7813 97.7914 18.632C97.6527 18.472 97.5247 18.344 97.4074 18.248C98.026 17.9707 98.6394 17.6347 99.2474 17.24C99.866 16.8453 100.458 16.4133 101.023 15.944C101.599 15.464 102.122 14.9573 102.591 14.424C103.071 13.88 103.482 13.336 103.823 12.792ZM106.063 12.808C106.405 13.352 106.815 13.8907 107.295 14.424C107.775 14.9467 108.298 15.4533 108.863 15.944C109.439 16.424 110.031 16.8613 110.639 17.256C111.258 17.64 111.877 17.9707 112.495 18.248C112.378 18.344 112.25 18.472 112.111 18.632C111.973 18.7813 111.839 18.936 111.711 19.096C111.583 19.2667 111.477 19.416 111.391 19.544C110.773 19.224 110.154 18.84 109.535 18.392C108.917 17.944 108.319 17.448 107.743 16.904C107.167 16.36 106.629 15.7893 106.127 15.192C105.626 14.584 105.183 13.9653 104.799 13.336L106.063 12.808ZM120.463 6.28H127.455V7.592H120.463V6.28ZM121.071 14.888H128.511V16.232H121.071V14.888ZM120.063 18.536H129.199V19.88H120.063V18.536ZM127.023 6.28H127.311L127.583 6.216L128.607 6.664C128.181 7.90133 127.583 8.97333 126.815 9.88C126.047 10.776 125.157 11.528 124.143 12.136C123.141 12.744 122.058 13.2293 120.895 13.592C120.799 13.4107 120.666 13.1973 120.495 12.952C120.335 12.696 120.186 12.4933 120.047 12.344C121.103 12.056 122.095 11.6453 123.023 11.112C123.962 10.5787 124.778 9.928 125.471 9.16C126.165 8.392 126.682 7.51733 127.023 6.536V6.28ZM122.719 7.448C123.285 8.65333 124.143 9.67733 125.295 10.52C126.458 11.3627 127.829 11.9547 129.407 12.296C129.258 12.4453 129.087 12.6427 128.895 12.888C128.714 13.1333 128.575 13.352 128.479 13.544C126.837 13.096 125.413 12.3973 124.207 11.448C123.013 10.488 122.074 9.29867 121.391 7.88L122.719 7.448ZM123.983 12.76H125.471V19.4H123.983V12.76ZM116.783 5.496L118.095 6.008C117.893 6.40267 117.674 6.81867 117.439 7.256C117.215 7.68267 116.986 8.09333 116.751 8.488C116.527 8.872 116.314 9.21333 116.111 9.512L115.087 9.064C115.29 8.744 115.493 8.376 115.695 7.96C115.909 7.544 116.111 7.12267 116.303 6.696C116.495 6.25867 116.655 5.85867 116.783 5.496ZM118.591 7.352L119.839 7.928C119.477 8.536 119.071 9.176 118.623 9.848C118.175 10.52 117.722 11.1707 117.263 11.8C116.815 12.4187 116.389 12.9627 115.983 13.432L115.071 12.936C115.37 12.5733 115.679 12.1627 115.999 11.704C116.33 11.2347 116.65 10.7493 116.959 10.248C117.279 9.74667 117.578 9.24533 117.855 8.744C118.133 8.24267 118.378 7.77867 118.591 7.352ZM114.287 9.048L115.023 8.04C115.322 8.28533 115.621 8.55733 115.919 8.856C116.218 9.144 116.49 9.43733 116.735 9.736C116.991 10.024 117.189 10.2907 117.327 10.536L116.527 11.688C116.389 11.4427 116.197 11.1653 115.951 10.856C115.706 10.536 115.439 10.2213 115.151 9.912C114.863 9.592 114.575 9.304 114.287 9.048ZM118.063 11.112L119.103 10.696C119.317 11.048 119.519 11.4267 119.711 11.832C119.914 12.2373 120.09 12.632 120.239 13.016C120.389 13.3893 120.501 13.7307 120.575 14.04L119.471 14.536C119.407 14.2267 119.301 13.8747 119.151 13.48C119.013 13.0853 118.847 12.68 118.655 12.264C118.474 11.848 118.277 11.464 118.063 11.112ZM114.239 12.616C114.954 12.5947 115.802 12.5627 116.783 12.52C117.775 12.4773 118.783 12.4293 119.807 12.376L119.791 13.608C118.821 13.672 117.861 13.736 116.911 13.8C115.973 13.8533 115.125 13.9067 114.367 13.96L114.239 12.616ZM118.447 14.984L119.535 14.632C119.749 15.0907 119.946 15.592 120.127 16.136C120.319 16.68 120.463 17.1493 120.559 17.544L119.407 17.96C119.333 17.5547 119.205 17.0747 119.023 16.52C118.842 15.9547 118.65 15.4427 118.447 14.984ZM115.055 14.76L116.335 14.984C116.239 15.7413 116.095 16.488 115.903 17.224C115.722 17.96 115.509 18.584 115.263 19.096C115.178 19.0427 115.066 18.9787 114.927 18.904C114.789 18.8293 114.639 18.76 114.479 18.696C114.33 18.6213 114.202 18.568 114.095 18.536C114.351 18.0453 114.554 17.464 114.703 16.792C114.863 16.12 114.981 15.4427 115.055 14.76ZM116.815 13.24H118.143V20.376H116.815V13.24ZM139.551 12.904V14.728H144.175V12.904H139.551ZM138.303 11.768H145.487V15.864H138.303V11.768ZM141.759 6.84C141.514 7.27733 141.199 7.736 140.815 8.216C140.431 8.696 139.999 9.15467 139.519 9.592C139.05 10.0293 138.559 10.408 138.047 10.728C137.973 10.5467 137.861 10.3387 137.711 10.104C137.573 9.86933 137.439 9.67733 137.311 9.528C137.834 9.22933 138.335 8.856 138.815 8.408C139.295 7.96 139.727 7.48533 140.111 6.984C140.506 6.472 140.815 5.976 141.039 5.496H142.383C142.703 6.008 143.071 6.50933 143.487 7C143.914 7.48 144.362 7.91733 144.831 8.312C145.311 8.70667 145.791 9.02667 146.271 9.272C146.143 9.44267 146.005 9.65067 145.855 9.896C145.717 10.1413 145.599 10.3653 145.503 10.568C145.034 10.28 144.565 9.93333 144.095 9.528C143.626 9.112 143.189 8.67467 142.783 8.216C142.389 7.74667 142.047 7.288 141.759 6.84ZM141.151 10.008H142.511V13.24C142.511 13.88 142.463 14.5253 142.367 15.176C142.271 15.816 142.079 16.4507 141.791 17.08C141.514 17.6987 141.093 18.2907 140.527 18.856C139.962 19.4107 139.21 19.912 138.271 20.36C138.207 20.264 138.117 20.1467 137.999 20.008C137.893 19.88 137.781 19.7467 137.663 19.608C137.546 19.48 137.439 19.3787 137.343 19.304C138.197 18.9093 138.879 18.472 139.391 17.992C139.903 17.5013 140.282 16.9947 140.527 16.472C140.783 15.9387 140.949 15.4 141.023 14.856C141.109 14.3013 141.151 13.7573 141.151 13.224V10.008ZM142.703 15.176C142.981 16.072 143.413 16.872 143.999 17.576C144.597 18.2693 145.322 18.7867 146.175 19.128C146.069 19.224 145.951 19.3413 145.823 19.48C145.706 19.6187 145.589 19.7627 145.471 19.912C145.365 20.0613 145.274 20.2 145.199 20.328C144.293 19.88 143.535 19.2347 142.927 18.392C142.319 17.5387 141.855 16.5627 141.535 15.464L142.703 15.176ZM139.359 9.48H144.319V10.664H139.359V9.48ZM132.623 8.552H137.359V9.72H132.623V8.552ZM132.623 10.952H137.359V12.12H132.623V10.952ZM131.903 13.4H137.327V14.6H131.903V13.4ZM134.527 6.824H135.759V14.056H134.527V6.824ZM135.103 15.384L135.759 15.16C135.93 15.48 136.095 15.8373 136.255 16.232C136.415 16.616 136.533 16.9467 136.607 17.224L135.919 17.48C135.855 17.192 135.743 16.856 135.583 16.472C135.434 16.0773 135.274 15.7147 135.103 15.384ZM134.063 15.624L134.751 15.496C134.901 15.9013 135.034 16.3493 135.151 16.84C135.269 17.32 135.338 17.7307 135.359 18.072L134.623 18.232C134.602 17.8907 134.538 17.4747 134.431 16.984C134.325 16.4933 134.202 16.04 134.063 15.624ZM132.927 15.752L133.647 15.672C133.733 16.1413 133.791 16.6533 133.823 17.208C133.866 17.752 133.882 18.2213 133.871 18.616L133.119 18.712C133.141 18.3067 133.13 17.832 133.087 17.288C133.055 16.744 133.002 16.232 132.927 15.752ZM131.775 15.448L132.655 15.624C132.634 16.104 132.591 16.584 132.527 17.064C132.474 17.544 132.389 17.992 132.271 18.408C132.154 18.8133 131.989 19.16 131.775 19.448L130.959 19C131.151 18.7333 131.301 18.4133 131.407 18.04C131.525 17.656 131.61 17.2453 131.663 16.808C131.717 16.36 131.754 15.9067 131.775 15.448ZM131.903 6.136H137.695V7.384H133.183V14.2H131.903V6.136ZM136.671 13.4H137.919C137.919 13.4 137.919 13.4693 137.919 13.608C137.919 13.736 137.914 13.848 137.903 13.944C137.85 15.2453 137.791 16.3013 137.727 17.112C137.674 17.912 137.605 18.52 137.519 18.936C137.434 19.352 137.322 19.6453 137.183 19.816C137.066 19.976 136.933 20.088 136.783 20.152C136.645 20.2267 136.479 20.2747 136.287 20.296C136.138 20.3173 135.93 20.328 135.663 20.328C135.407 20.3387 135.141 20.3333 134.863 20.312C134.853 20.1307 134.821 19.928 134.767 19.704C134.714 19.48 134.639 19.288 134.543 19.128C134.789 19.1493 135.013 19.16 135.215 19.16C135.418 19.1707 135.567 19.176 135.663 19.176C135.759 19.176 135.839 19.16 135.903 19.128C135.978 19.1067 136.042 19.0587 136.095 18.984C136.191 18.8773 136.271 18.6427 136.335 18.28C136.399 17.9173 136.458 17.3627 136.511 16.616C136.565 15.8587 136.618 14.856 136.671 13.608V13.4ZM148.191 10.504H162.527V11.848H148.191V10.504ZM149.599 7.384H158.815V8.712H149.599V7.384ZM152.287 15.96H159.647V17.144H152.287V15.96ZM152.287 18.568H159.647V19.848H152.287V18.568ZM153.551 5.496H155.055V11.24H153.551V5.496ZM160.575 6.008L161.871 6.696C160.826 8.11467 159.605 9.416 158.207 10.6C156.81 11.7733 155.306 12.8187 153.695 13.736C152.085 14.6427 150.426 15.4213 148.719 16.072C148.655 15.9547 148.565 15.8213 148.447 15.672C148.341 15.512 148.223 15.3573 148.095 15.208C147.978 15.048 147.871 14.92 147.775 14.824C149.503 14.2373 151.162 13.512 152.751 12.648C154.341 11.784 155.802 10.792 157.135 9.672C158.469 8.552 159.615 7.33067 160.575 6.008ZM151.455 13.368H160.607V20.296H159.039V14.632H152.959V20.36H151.455V13.368Z" fill="#333333"/>
<path d="M54.8438 49.0938C54.8854 51.1979 55.5625 52.8021 56.875 53.9062C58.1667 55.0521 59.6562 55.625 61.3438 55.625C63.0938 55.625 64.6146 55.0521 65.9062 53.9062C67.1771 52.8021 67.8333 51.1979 67.875 49.0938C67.8333 46.9271 67.1771 45.2917 65.9062 44.1875C64.6146 43.125 63.0938 42.5938 61.3438 42.5938C59.6562 42.5938 58.1667 43.125 56.875 44.1875C55.5625 45.2917 54.8854 46.9271 54.8438 49.0938ZM47.4688 68.6875C47.5104 64.2917 49.3021 60.875 52.8438 58.4375C51.4896 57.25 50.4271 55.8854 49.6562 54.3438C48.7604 52.9062 48.3125 51.1979 48.3125 49.2188C48.3542 45.4271 49.6354 42.2917 52.1562 39.8125C54.5312 37.3542 57.5938 36.1042 61.3438 36.0625C65.1562 36.1042 68.2708 37.3542 70.6875 39.8125C73.125 42.2917 74.3646 45.4271 74.4062 49.2188C74.4062 51.1979 74 52.9062 73.1875 54.3438C72.3333 55.8854 71.2292 57.25 69.875 58.4375C73.4167 60.875 75.2083 64.2917 75.25 68.6875C75.2083 72.7917 73.8646 76.0729 71.2188 78.5312C68.5312 81.0521 65.2396 82.3333 61.3438 82.375C57.4688 82.3333 54.2292 81.0521 51.625 78.5312C48.8958 76.0729 47.5104 72.7917 47.4688 68.6875ZM54 68.625C54.0417 70.7083 54.7917 72.4167 56.25 73.75C57.6458 75.1458 59.3438 75.8438 61.3438 75.8438C63.4062 75.8438 65.1354 75.1458 66.5312 73.75C67.9479 72.4167 68.6771 70.7083 68.7188 68.625C68.6771 66.5 67.9479 64.7708 66.5312 63.4375C65.1354 62.125 63.4062 61.4479 61.3438 61.4062C59.3438 61.4479 57.6458 62.125 56.25 63.4375C54.7917 64.7708 54.0417 66.5 54 68.625ZM98.5 68.875V49.5625C98.375 45 96.2396 42.6771 92.0938 42.5938C87.9271 42.6771 85.8021 45 85.7188 49.5625V68.875C85.8021 73.4792 87.9271 75.8021 92.0938 75.8438C96.2396 75.8021 98.375 73.4792 98.5 68.875ZM79.1875 69.25V49.1562C79.2292 44.9479 80.5729 41.7083 83.2188 39.4375C85.6979 37.1875 88.6562 36.0625 92.0938 36.0625C95.6354 36.0625 98.6458 37.1875 101.125 39.4375C103.646 41.7083 104.948 44.9479 105.031 49.1562V69.25C104.948 73.4375 103.646 76.6667 101.125 78.9375C98.6458 81.1875 95.6354 82.3333 92.0938 82.375C88.6562 82.3333 85.6979 81.1875 83.2188 78.9375C80.5729 76.6667 79.2292 73.4375 79.1875 69.25ZM114.86 72.592C113.729 72.592 112.727 72.2933 111.852 71.696C110.977 71.0987 110.295 70.2347 109.804 69.104C109.313 67.952 109.068 66.5867 109.068 65.008C109.068 63.4293 109.313 62.0853 109.804 60.976C110.295 59.8453 110.977 58.992 111.852 58.416C112.727 57.8187 113.729 57.52 114.86 57.52C116.567 57.52 117.953 58.1707 119.02 59.472C120.108 60.7733 120.652 62.6187 120.652 65.008C120.652 66.5867 120.407 67.952 119.916 69.104C119.425 70.2347 118.743 71.0987 117.868 71.696C117.015 72.2933 116.012 72.592 114.86 72.592ZM114.86 69.904C115.564 69.904 116.151 69.5307 116.62 68.784C117.111 68.016 117.356 66.7573 117.356 65.008C117.356 63.2587 117.111 62.0213 116.62 61.296C116.151 60.5493 115.564 60.176 114.86 60.176C114.177 60.176 113.591 60.5493 113.1 61.296C112.631 62.0213 112.396 63.2587 112.396 65.008C112.396 66.7573 112.631 68.016 113.1 68.784C113.591 69.5307 114.177 69.904 114.86 69.904ZM132.172 82.16C131.041 82.16 130.039 81.8613 129.164 81.264C128.289 80.6667 127.596 79.8027 127.084 78.672C126.593 77.5413 126.348 76.1867 126.348 74.608C126.348 73.008 126.593 71.6533 127.084 70.544C127.596 69.4133 128.289 68.56 129.164 67.984C130.039 67.3867 131.041 67.088 132.172 67.088C133.303 67.088 134.305 67.3867 135.18 67.984C136.055 68.56 136.737 69.4133 137.228 70.544C137.719 71.6533 137.964 73.008 137.964 74.608C137.964 76.1867 137.719 77.5413 137.228 78.672C136.737 79.8027 136.055 80.6667 135.18 81.264C134.305 81.8613 133.303 82.16 132.172 82.16ZM132.172 79.504C132.876 79.504 133.463 79.12 133.932 78.352C134.401 77.584 134.636 76.336 134.636 74.608C134.636 72.8373 134.401 71.5893 133.932 70.864C133.463 70.1387 132.876 69.776 132.172 69.776C131.468 69.776 130.871 70.1387 130.38 70.864C129.911 71.5893 129.676 72.8373 129.676 74.608C129.676 76.336 129.911 77.584 130.38 78.352C130.871 79.12 131.468 79.504 132.172 79.504ZM115.66 82.16L128.588 57.52H131.404L118.444 82.16H115.66Z" fill="#333333"/>
<path d="M150.324 60.96L152.732 59.784C153.348 60.456 153.945 61.1933 154.524 61.996C155.103 62.7987 155.625 63.592 156.092 64.376C156.559 65.16 156.923 65.8693 157.184 66.504L154.608 67.904C154.384 67.2507 154.039 66.5227 153.572 65.72C153.124 64.8987 152.62 64.0773 152.06 63.256C151.5 62.416 150.921 61.6507 150.324 60.96ZM141.168 76.472C142.139 76.1173 143.249 75.688 144.5 75.184C145.751 74.68 147.076 74.1387 148.476 73.56C149.895 72.9627 151.295 72.3653 152.676 71.768L153.292 74.372C152.004 74.932 150.697 75.5107 149.372 76.108C148.065 76.6867 146.787 77.2467 145.536 77.788C144.304 78.3107 143.165 78.796 142.12 79.244L141.168 76.472ZM157.8 73.308L159.844 71.488C160.497 72.1413 161.188 72.8507 161.916 73.616C162.663 74.3627 163.391 75.128 164.1 75.912C164.809 76.696 165.472 77.452 166.088 78.18C166.704 78.908 167.208 79.5707 167.6 80.168L165.36 82.296C164.968 81.6987 164.483 81.0267 163.904 80.28C163.325 79.5333 162.691 78.7587 162 77.956C161.309 77.1347 160.6 76.332 159.872 75.548C159.163 74.7453 158.472 73.9987 157.8 73.308ZM161.664 57.88L164.576 58.16C164.221 61.3707 163.717 64.2453 163.064 66.784C162.429 69.3227 161.571 71.5813 160.488 73.56C159.405 75.52 158.033 77.228 156.372 78.684C154.729 80.14 152.713 81.3813 150.324 82.408C150.212 82.2213 150.025 81.9787 149.764 81.68C149.503 81.4 149.232 81.1107 148.952 80.812C148.691 80.5133 148.448 80.2707 148.224 80.084C150.557 79.2253 152.517 78.1427 154.104 76.836C155.691 75.5293 156.988 73.9707 157.996 72.16C159.023 70.3493 159.816 68.268 160.376 65.916C160.955 63.5453 161.384 60.8667 161.664 57.88ZM144.472 57.964L147.244 57.852L147.804 76.248L145.032 76.332L144.472 57.964ZM182.888 65.132H194.452V67.792H182.888V65.132ZM171.044 78.348H196.384V81.008H171.044V78.348ZM181.376 56.76H184.204V79.776H181.376V56.76Z" fill="#333333"/>
<path d="M22.4706 9.09053C20.1537 11.0349 19.7373 14.0858 19.7373 14.0858C19.7373 14.0858 23.0771 13.9842 25.3936 12.0399C27.7104 10.0955 28.1269 7.04456 28.1269 7.04456C28.1269 7.04456 24.7871 7.14586 22.4706 9.09053Z" fill="#DCB25F"/>
<path d="M38.7589 80.7375C40.7535 83.0921 40.8736 85.8726 40.8466 85.8816C40.8542 85.9169 36.6618 84.8381 34.7801 82.241C32.898 79.6768 33.8147 77.0192 33.7873 77.0269C33.7984 77.052 36.7671 78.4045 38.7589 80.7375Z" fill="#DCB25F"/>
<path d="M35.8247 88.8911C39.5048 88.3161 40.8773 85.7554 40.8766 85.7784C40.8333 85.7908 36.8899 84.7434 33.4923 85.1113C30.0604 85.4955 28.0447 87.4567 28.0444 87.4777C27.9959 87.4879 32.1045 89.4798 35.8247 88.8911Z" fill="#DCB25F"/>
<path d="M31.482 77.7963C32.8528 80.3784 32.3605 83.0779 32.3353 83.0827C32.3387 83.1184 28.6535 81.4349 27.4121 78.6321C26.1673 75.8611 27.5838 73.4317 27.5579 73.4352C27.5641 73.4616 30.1108 75.2359 31.482 77.7963Z" fill="#DCB25F"/>
<path d="M26.9925 85.2169C30.5697 85.2274 32.3902 82.9655 32.3874 82.9878C32.3469 82.9936 28.8905 81.3783 25.5923 81.2059C22.2615 81.0447 19.928 82.6263 19.9252 82.6467C19.8796 82.6498 23.3768 85.2144 26.9925 85.2169Z" fill="#DCB25F"/>
<path d="M25.2076 73.8183C25.9854 76.5329 24.9494 79.065 24.9262 79.0659C24.9248 79.1013 21.7688 76.8989 21.1374 73.9865C20.4988 71.105 22.3431 68.9714 22.3192 68.9711C22.3206 68.9982 24.426 71.1251 25.2076 73.8183Z" fill="#DCB25F"/>
<path d="M19.3829 80.2952C22.7975 80.8644 24.9904 78.9599 24.9849 78.9816C24.9478 78.9816 21.9972 76.8802 18.8582 76.1921C15.6884 75.5105 13.116 76.6731 13.1108 76.6925C13.0682 76.689 15.932 79.7282 19.3829 80.2952Z" fill="#DCB25F"/>
<path d="M19.9587 68.9675C20.1764 71.7264 18.6672 74.0157 18.6454 74.0132C18.6395 74.0479 16.0336 71.4126 15.9799 68.4799C15.9155 65.5767 18.1136 63.7958 18.0911 63.7919C18.0887 63.8187 19.734 66.2291 19.9587 68.9675Z" fill="#DCB25F"/>
<path d="M13.0562 74.3263C16.2464 75.4211 18.7339 73.9208 18.7263 73.9412C18.6924 73.9358 16.2665 71.4308 13.3476 70.2586C10.4008 69.0883 7.67058 69.8043 7.66262 69.8231C7.6235 69.8136 9.83167 73.2286 13.0562 74.3263Z" fill="#DCB25F"/>
<path d="M15.8071 63.4078C15.498 66.13 13.5885 68.1122 13.5685 68.1068C13.5581 68.14 11.524 65.1578 12.0149 62.2878C12.4919 59.4452 14.9669 58.0617 14.9462 58.0551C14.9393 58.0812 16.1058 60.705 15.8071 63.4078Z" fill="#DCB25F"/>
<path d="M8.06395 67.5115C10.9669 69.0915 13.67 68.0308 13.6593 68.0499C13.6292 68.0397 11.7464 65.213 9.11074 63.5955C6.44841 61.9757 3.64415 62.2293 3.63342 62.2465C3.59777 62.2315 5.1285 65.9239 8.06395 67.5115Z" fill="#DCB25F"/>
<path d="M12.7646 57.3044C11.9639 59.9158 9.72842 61.5384 9.71042 61.5301C9.69518 61.5613 8.25515 58.3189 9.25591 55.5871C10.239 52.8802 12.9131 51.9278 12.8944 51.9182C12.8826 51.9431 13.5518 54.7105 12.7646 57.3044Z" fill="#DCB25F"/>
<path d="M4.43986 60.0521C6.99107 62.0697 9.82786 61.4725 9.81471 61.4897C9.78771 61.4753 8.46745 58.4091 6.17897 56.3921C3.86592 54.3687 1.07205 54.1553 1.05855 54.1709C1.02566 54.1508 1.85784 58.0227 4.43986 60.0521Z" fill="#DCB25F"/>
<path d="M10.9047 50.8234C9.64777 53.2571 7.1644 54.4789 7.14813 54.4681C7.12806 54.4968 6.30349 51.0805 7.77849 48.5554C9.23168 46.0527 12.0249 45.5532 12.0079 45.5414C11.9909 45.5644 12.1443 48.4054 10.9047 50.8234Z" fill="#DCB25F"/>
<path d="M2.24831 52.1505C4.3824 54.551 7.26939 54.4299 7.25312 54.4449C7.22993 54.4268 6.49088 51.2029 4.61434 48.839C2.71564 46.4656 0.0193813 45.7919 0.00345785 45.8052C-0.0259659 45.7817 0.085147 49.7337 2.24831 52.1505Z" fill="#DCB25F"/>
<path d="M10.2536 44.1306C8.57815 46.326 5.92552 47.1179 5.91098 47.1048C5.88571 47.1303 5.69912 43.627 7.61062 41.3708C9.49721 39.1337 12.326 39.0978 12.3112 39.0837C12.29 39.1044 11.9079 41.9487 10.2536 44.1306Z" fill="#DCB25F"/>
<path d="M1.53621 44.009C3.18671 46.7305 6.03736 47.0863 6.01832 47.0991C5.99893 47.0781 5.85977 43.7783 4.46162 41.1278C3.0434 38.4648 0.53478 37.349 0.516087 37.3601C0.490818 37.3327 -0.140595 41.2676 1.53621 44.009Z" fill="#DCB25F"/>
<path d="M10.8659 37.3933C8.81109 39.2968 6.06913 39.6405 6.05701 39.6259C6.02655 39.6479 6.4994 36.1443 8.80934 34.2117C11.0905 32.2947 13.8709 32.721 13.8585 32.7053C13.8322 32.7229 12.8961 35.4999 10.8659 37.3933Z" fill="#DCB25F"/>
<path d="M2.36124 35.8318C3.45962 38.8063 6.18633 39.6281 6.16452 39.6383C6.14895 39.615 6.62873 36.3214 5.77682 33.4507C4.90727 30.5651 2.67764 29.0374 2.65583 29.046C2.63437 29.0151 1.23829 32.8343 2.36124 35.8318Z" fill="#DCB25F"/>
<path d="M12.7784 30.7786C10.3836 32.3442 7.63682 32.233 7.62678 32.2171C7.59112 32.2346 8.74524 28.8186 11.4141 27.2578C14.0505 25.7081 16.6959 26.5847 16.6852 26.5675C16.6533 26.5812 15.1447 29.22 12.7784 30.7786Z" fill="#DCB25F"/>
<path d="M4.76873 27.8222C5.24643 30.9732 7.75887 32.2394 7.73394 32.2464C7.72217 32.2212 8.83959 29.0154 8.60281 25.9992C8.35081 22.9655 6.49365 21.0673 6.46907 21.073C6.45107 21.0402 4.26887 24.6451 4.76873 27.8222Z" fill="#DCB25F"/>
<path d="M16.0398 24.4546C13.3464 25.6427 10.6795 25.0818 10.6716 25.0646C10.6304 25.0773 12.4875 21.8362 15.4746 20.6879C18.4249 19.5465 20.8463 20.849 20.838 20.8306C20.8013 20.8401 18.7011 23.2699 16.0398 24.4546Z" fill="#DCB25F"/>
<path d="M8.80372 20.1852C8.58945 23.4301 10.7955 25.1069 10.7678 25.1104C10.7599 25.084 12.534 22.048 12.9829 18.9668C13.4188 15.8665 12.0299 13.6507 12.0023 13.6533C11.9884 13.6189 8.99826 16.9119 8.80372 20.1852Z" fill="#DCB25F"/>
<path d="M20.6947 18.5903C17.745 19.3685 15.2458 18.3737 15.2399 18.3562C15.1935 18.3635 17.7758 15.3849 21.0384 14.6831C24.2605 13.9833 26.3673 15.677 26.361 15.6579C26.3188 15.6623 23.6083 17.8115 20.6947 18.5903Z" fill="#DCB25F"/>
<path d="M14.5299 13.1264C13.552 16.3752 15.3576 18.4173 15.3268 18.4173C15.3233 18.3906 17.7724 15.6059 18.9781 12.5483C20.1734 9.46995 19.3509 7.00129 19.3201 7.00033C19.3101 6.96434 15.4902 9.8471 14.5299 13.1264Z" fill="#DCB25F"/>
<path d="M46.5 86.5L47 86C41.638 86.4466 41.8755 86.0362 36.6952 84.5056C31.6481 83.0142 26.9749 80.6596 22.8061 77.5073C14.1545 70.9655 8.57538 61.6305 7.09588 51.2216C5.88466 42.6982 6.50602 35.1027 8.943 28.6459C11.56 21.7126 16.2204 16.2873 22.795 12.5209L22.4513 12.0135C15.7475 15.8541 10.9957 21.3842 8.32891 28.45C5.85836 34.9953 5.22661 42.6829 6.45133 51.2997C7.95229 61.8598 13.6138 71.3315 22.3935 77.9698C26.626 81.1702 31.3708 83.5608 36.4965 85.0755C41.7598 86.6302 41.0507 86.9539 46.5 86.5Z" fill="#DCB25F"/>
<path d="M224.029 8.09053C226.346 10.0349 226.763 13.0858 226.763 13.0858C226.763 13.0858 223.423 12.9842 221.106 11.0399C218.79 9.09551 218.373 6.04456 218.373 6.04456C218.373 6.04456 221.713 6.14586 224.029 8.09053Z" fill="#DCB25F"/>
<path d="M207.741 79.7375C205.747 82.0921 205.626 84.8726 205.653 84.8816C205.646 84.9169 209.838 83.8381 211.72 81.241C213.602 78.6768 212.685 76.0192 212.713 76.0269C212.702 76.052 209.733 77.4045 207.741 79.7375Z" fill="#DCB25F"/>
<path d="M210.675 87.8911C206.995 87.3161 205.623 84.7554 205.623 84.7784C205.667 84.7908 209.61 83.7434 213.008 84.1113C216.44 84.4955 218.455 86.4567 218.456 86.4777C218.504 86.4879 214.395 88.4798 210.675 87.8911Z" fill="#DCB25F"/>
<path d="M215.018 76.7963C213.647 79.3784 214.139 82.0779 214.165 82.0827C214.161 82.1184 217.847 80.4349 219.088 77.6321C220.333 74.8611 218.916 72.4317 218.942 72.4352C218.936 72.4616 216.389 74.2359 215.018 76.7963Z" fill="#DCB25F"/>
<path d="M219.508 84.2169C215.93 84.2274 214.11 81.9655 214.113 81.9878C214.153 81.9936 217.61 80.3783 220.908 80.2059C224.239 80.0447 226.572 81.6263 226.575 81.6467C226.62 81.6498 223.123 84.2144 219.508 84.2169Z" fill="#DCB25F"/>
<path d="M221.292 72.8183C220.515 75.5329 221.551 78.065 221.574 78.0659C221.575 78.1013 224.731 75.8989 225.363 72.9865C226.001 70.105 224.157 67.9714 224.181 67.9711C224.179 67.9982 222.074 70.1251 221.292 72.8183Z" fill="#DCB25F"/>
<path d="M227.117 79.2952C223.703 79.8644 221.51 77.9599 221.515 77.9816C221.552 77.9816 224.503 75.8802 227.642 75.1921C230.812 74.5105 233.384 75.6731 233.389 75.6925C233.432 75.689 230.568 78.7282 227.117 79.2952Z" fill="#DCB25F"/>
<path d="M226.541 67.9675C226.324 70.7264 227.833 73.0157 227.855 73.0132C227.861 73.0479 230.466 70.4126 230.52 67.4799C230.584 64.5767 228.386 62.7958 228.409 62.7919C228.411 62.8187 226.766 65.2291 226.541 67.9675Z" fill="#DCB25F"/>
<path d="M233.444 73.3263C230.254 74.4211 227.766 72.9208 227.774 72.9412C227.808 72.9358 230.234 70.4308 233.152 69.2586C236.099 68.0883 238.829 68.8043 238.837 68.8231C238.876 68.8136 236.668 72.2286 233.444 73.3263Z" fill="#DCB25F"/>
<path d="M230.693 62.4078C231.002 65.13 232.911 67.1122 232.932 67.1068C232.942 67.14 234.976 64.1578 234.485 61.2878C234.008 58.4452 231.533 57.0617 231.554 57.0551C231.561 57.0812 230.394 59.705 230.693 62.4078Z" fill="#DCB25F"/>
<path d="M238.436 66.5115C235.533 68.0915 232.83 67.0308 232.841 67.0499C232.871 67.0397 234.754 64.213 237.389 62.5955C240.052 60.9757 242.856 61.2293 242.867 61.2465C242.902 61.2315 241.372 64.9239 238.436 66.5115Z" fill="#DCB25F"/>
<path d="M233.735 56.3044C234.536 58.9158 236.772 60.5384 236.79 60.5301C236.805 60.5613 238.245 57.3189 237.244 54.5871C236.261 51.8802 233.587 50.9278 233.606 50.9182C233.617 50.9431 232.948 53.7105 233.735 56.3044Z" fill="#DCB25F"/>
<path d="M242.06 59.0521C239.509 61.0697 236.672 60.4725 236.685 60.4897C236.712 60.4753 238.033 57.4091 240.321 55.3921C242.634 53.3687 245.428 53.1553 245.441 53.1709C245.474 53.1508 244.642 57.0227 242.06 59.0521Z" fill="#DCB25F"/>
<path d="M235.595 49.8234C236.852 52.2571 239.336 53.4789 239.352 53.4681C239.372 53.4968 240.197 50.0805 238.722 47.5554C237.268 45.0527 234.475 44.5532 234.492 44.5414C234.509 44.5644 234.356 47.4054 235.595 49.8234Z" fill="#DCB25F"/>
<path d="M244.252 51.1505C242.118 53.551 239.231 53.4299 239.247 53.4449C239.27 53.4268 240.009 50.2029 241.886 47.839C243.784 45.4656 246.481 44.7919 246.497 44.8052C246.526 44.7817 246.415 48.7337 244.252 51.1505Z" fill="#DCB25F"/>
<path d="M236.246 43.1306C237.922 45.326 240.574 46.1179 240.589 46.1048C240.614 46.1303 240.801 42.627 238.889 40.3708C237.003 38.1337 234.174 38.0978 234.189 38.0837C234.21 38.1044 234.592 40.9487 236.246 43.1306Z" fill="#DCB25F"/>
<path d="M244.964 43.009C243.313 45.7305 240.463 46.0863 240.482 46.0991C240.501 46.0781 240.64 42.7783 242.038 40.1278C243.457 37.4648 245.965 36.349 245.984 36.3601C246.009 36.3327 246.641 40.2676 244.964 43.009Z" fill="#DCB25F"/>
<path d="M235.634 36.3933C237.689 38.2968 240.431 38.6405 240.443 38.6259C240.473 38.6479 240.001 35.1443 237.691 33.2117C235.409 31.2947 232.629 31.721 232.642 31.7053C232.668 31.7229 233.604 34.4999 235.634 36.3933Z" fill="#DCB25F"/>
<path d="M244.139 34.8318C243.04 37.8063 240.314 38.6281 240.335 38.6383C240.351 38.615 239.871 35.3214 240.723 32.4507C241.593 29.5651 243.822 28.0374 243.844 28.046C243.866 28.0151 245.262 31.8343 244.139 34.8318Z" fill="#DCB25F"/>
<path d="M233.722 29.7786C236.116 31.3442 238.863 31.233 238.873 31.2171C238.909 31.2346 237.755 27.8186 235.086 26.2578C232.449 24.7081 229.804 25.5847 229.815 25.5675C229.847 25.5812 231.355 28.22 233.722 29.7786Z" fill="#DCB25F"/>
<path d="M241.731 26.8222C241.254 29.9732 238.741 31.2394 238.766 31.2464C238.778 31.2212 237.66 28.0154 237.897 24.9992C238.149 21.9655 240.006 20.0673 240.031 20.073C240.049 20.0402 242.231 23.6451 241.731 26.8222Z" fill="#DCB25F"/>
<path d="M230.46 23.4546C233.154 24.6427 235.82 24.0818 235.828 24.0646C235.87 24.0773 234.012 20.8362 231.025 19.6879C228.075 18.5465 225.654 19.849 225.662 19.8306C225.699 19.8401 227.799 22.2699 230.46 23.4546Z" fill="#DCB25F"/>
<path d="M237.696 19.1852C237.911 22.4301 235.704 24.1069 235.732 24.1104C235.74 24.084 233.966 21.048 233.517 17.9668C233.081 14.8665 234.47 12.6507 234.498 12.6533C234.512 12.6189 237.502 15.9119 237.696 19.1852Z" fill="#DCB25F"/>
<path d="M225.805 17.5903C228.755 18.3685 231.254 17.3737 231.26 17.3562C231.307 17.3635 228.724 14.3849 225.462 13.6831C222.24 12.9833 220.133 14.677 220.139 14.6579C220.181 14.6623 222.892 16.8115 225.805 17.5903Z" fill="#DCB25F"/>
<path d="M231.97 12.1264C232.948 15.3752 231.142 17.4173 231.173 17.4173C231.177 17.3906 228.728 14.6059 227.522 11.5483C226.327 8.46995 227.149 6.00129 227.18 6.00033C227.19 5.96434 231.01 8.8471 231.97 12.1264Z" fill="#DCB25F"/>
<path d="M200 85.5L199.5 85C204.862 85.4466 204.625 85.0362 209.805 83.5056C214.852 82.0142 219.525 79.6596 223.694 76.5073C232.346 69.9655 237.925 60.6305 239.404 50.2216C240.615 41.6982 239.994 34.1027 237.557 27.6459C234.94 20.7126 230.28 15.2873 223.705 11.5209L224.049 11.0135C230.752 14.8541 235.504 20.3842 238.171 27.45C240.642 33.9953 241.273 41.6829 240.049 50.2997C238.548 60.8598 232.886 70.3315 224.107 76.9698C219.874 80.1702 215.129 82.5608 210.004 84.0755C204.74 85.6302 205.449 85.9539 200 85.5Z" fill="#DCB25F"/>
</svg>
