<svg width="150" height="150" viewBox="0 0 150 150" fill="none" xmlns="http://www.w3.org/2000/svg">
<g clip-path="url(#clip0_27_391)">
<path d="M128.032 21.9662C114.483 8.40703 95.6859 -0.00410006 75 1.49937e-06C54.3144 -0.00410006 35.5146 8.40703 21.9674 21.9662C8.40703 35.5146 -0.00410006 54.3144 1.49936e-06 75C-0.00410006 95.6859 8.40703 114.486 21.9674 128.034C35.5154 141.593 54.3144 150.004 75 150C95.6859 150.004 114.483 141.593 128.032 128.034C141.593 114.486 150.004 95.6859 150 75C150.004 54.3144 141.593 35.5146 128.032 21.9662ZM117.033 32.9666C127.802 43.7479 134.44 58.5592 134.444 75C134.44 91.4411 127.801 106.252 117.033 117.033C106.252 127.804 91.4388 134.44 75 134.444C58.5604 134.44 43.7479 127.804 32.9666 117.033C22.1971 106.252 15.5599 91.4411 15.5555 75C15.5599 58.5592 22.1971 43.7479 32.9666 32.9666C43.7479 22.1962 58.5601 15.5599 75 15.5555C91.4391 15.5602 106.252 22.1962 117.033 32.9666Z" fill="#4B4B4B"/>
<path d="M71.1182 96.4822C66.9557 96.4822 63.5801 99.8569 63.5801 104.019C63.5801 108.177 66.9557 111.554 71.1182 111.554C75.2771 111.554 78.6516 108.177 78.6516 104.019C78.6516 99.8569 75.2771 96.4822 71.1182 96.4822Z" fill="#005297"/>
<path d="M54.0129 50.9332L59.1443 55.0456C60.189 55.8812 61.6855 55.8507 62.6945 54.9718C62.6945 54.9718 63.3249 53.8325 65.3007 52.7039C67.2864 51.5819 69.8622 50.6792 73.7112 50.6661C77.0693 50.6596 79.9981 51.9118 81.9958 53.6242C82.9875 54.4749 83.7296 55.4209 84.1843 56.2931C84.6422 57.1679 84.8092 57.9337 84.8071 58.5153C84.7984 60.4814 84.4154 61.7684 83.8632 62.8621C83.4434 63.6824 82.8955 64.4072 82.1889 65.1103C81.1354 66.165 79.7039 67.1394 78.1005 68.0356C76.4944 68.9385 74.7639 69.7372 73.0149 70.7004C71.0203 71.8073 68.9069 73.394 67.3474 75.7764C66.5684 76.9527 65.9596 78.3024 65.5723 79.7215C65.1815 81.1474 65.0048 82.6383 65.0048 84.1594C65.0048 85.7828 65.0048 87.1172 65.0048 87.1172C65.0048 88.6451 66.2461 89.8887 67.7772 89.8887H74.4533C75.9832 89.8887 77.2236 88.6451 77.2236 87.1172C77.2236 87.1172 77.2236 85.7828 77.2236 84.1594C77.2236 83.5735 77.291 83.1938 77.3561 82.9571C77.4656 82.597 77.5275 82.5077 77.71 82.2885C77.8934 82.0802 78.2654 81.7635 78.9513 81.3838C79.9529 80.8216 81.5631 80.062 83.3871 79.0746C86.1182 77.5817 89.4363 75.557 92.236 72.2127C93.627 70.5419 94.8574 68.5342 95.7106 66.2209C96.5654 63.9053 97.0298 61.3014 97.0257 58.5147C97.0234 55.6913 96.2575 53.0069 95.0095 50.6262C93.1301 47.0499 90.1852 44.0725 86.5371 41.911C82.8902 39.7603 78.4893 38.4475 73.7118 38.4475C67.824 38.4323 62.9315 39.9686 59.2403 42.0932C55.5325 44.209 53.9344 46.672 53.9344 46.672C53.3115 47.2146 52.96 48.0003 52.974 48.8227C52.9919 49.6486 53.3704 50.4211 54.0129 50.9332Z" fill="#005297"/>
</g>
<defs>
<clipPath id="clip0_27_391">
<rect width="150" height="150" fill="white"/>
</clipPath>
</defs>
</svg>
