<svg width="150" height="150" viewBox="0 0 150 150" fill="none" xmlns="http://www.w3.org/2000/svg">
<g clip-path="url(#clip0_27_400)">
<path d="M138.442 99.7718C136.35 92.5117 134.262 85.247 132.175 77.9869C131.493 75.6247 130.811 73.2628 130.133 70.8962L124.466 76.5634C126.302 83.7915 128.137 91.0196 129.973 98.2521C130.879 101.813 128.503 104.981 124.599 103.764C118.204 101.109 111.154 99.2409 104.228 98.8794C96.3548 98.4765 88.2891 100.088 81.0334 103.114C80.214 103.452 74.7393 107.394 74.5196 104.597C74.4006 98.0599 74.277 91.5232 74.1581 84.9862C73.9064 71.4821 73.6591 57.9827 73.4072 44.4786C73.3934 43.7049 75.2611 43.3158 75.6458 43.1693C78.7038 42.0112 81.9033 41.2146 85.1259 40.6929C92.9766 39.4158 100.704 40.0703 108.38 42.0159C110.825 42.6385 113.388 43.3984 115.192 44.9731L118.836 41.3339C117.65 40.4365 116.327 39.6768 114.913 39.0496C108.399 36.1337 100.131 34.98 93.0636 34.8153C85.515 34.6369 77.8017 35.8179 70.6606 38.2715C69.269 38.7475 66.9938 37.484 65.5703 37.0996C63.8948 36.6464 62.2011 36.2664 60.4937 35.9459C56.7308 35.2501 52.9131 34.8701 49.0861 34.8106C41.7756 34.6961 34.3049 36.0971 27.3194 38.1982C25.7813 38.7751 26.8799 38.3676 27.2233 38.2395C22.8654 39.8875 18.0862 42.5793 16.713 47.3582C16.3697 48.5529 16.0219 49.7476 15.6786 50.9424C13.9389 56.9895 12.1996 63.032 10.4599 69.0789C8.07954 77.3462 5.70386 85.6088 3.32349 93.8714C1.94097 98.6825 -0.800926 104.862 0.224464 109.92C1.47866 116.183 7.60376 119.067 13.5226 117.863C15.6053 117.432 17.5143 116.471 19.5009 115.761C22.8197 114.571 26.2164 113.569 29.6725 112.85C37.9946 111.124 46.445 112.04 54.6252 114.15C56.4516 114.621 63.2954 115.803 63.4922 117.844C63.68 119.748 65.8679 119.231 67.246 119.231C68.6148 119.231 69.9836 119.231 71.3523 119.231C72.6065 119.231 74.7077 119.666 75.898 119.144C77.0927 118.627 76.1728 117.318 77.2987 116.828C78.8321 116.164 80.4206 115.615 82.0137 115.12C85.74 113.958 89.5667 113.092 93.4304 112.529C101.693 111.326 109.502 112.195 117.436 114.699C122.082 116.164 126.586 118.865 131.627 117.963C138.498 116.745 141.308 109.723 139.505 103.461C139.179 102.221 138.794 100.998 138.442 99.7718ZM66.3578 60.5321C66.083 75.0478 65.8175 89.5589 65.5474 104.075C65.529 105.045 65.2635 105.649 64.1833 105.622C58.3055 102.129 51.3293 100.11 44.582 99.2588C36.6534 98.2562 28.8944 99.3367 21.2957 101.694C18.9381 102.422 16.3014 104.024 13.8021 104.024C10.941 104.024 9.27925 101.479 9.9478 98.8193C11.6965 91.9483 13.4359 85.0726 15.1846 78.2016C17.2354 70.1222 19.2815 62.038 21.337 53.9585C21.8497 51.949 22.3577 49.9348 22.8704 47.9207C24.1202 42.995 31.0873 42.0613 35.2483 41.1962C43.0167 39.5895 50.8902 39.5986 58.631 41.4206C59.9678 41.7364 66.6877 42.7709 66.651 44.6889C66.55 49.9715 66.4539 55.2543 66.3578 60.5321Z" fill="#4B4B4B"/>
<path d="M89.2412 91.3533L109.616 87.032L150 46.6574L133.942 30.5989L93.5672 70.9738L89.2412 91.3533ZM142.255 46.6574L107.63 81.2781L104.055 77.703L138.68 43.0823L142.255 46.6574ZM133.942 38.3444L137.517 41.9195L102.892 76.5402L99.3167 72.9651L133.942 38.3444ZM98.5063 74.4756L106.119 82.0928L99.0281 83.6538L96.9407 81.571L98.5063 74.4756Z" fill="#005297"/>
</g>
<defs>
<clipPath id="clip0_27_400">
<rect width="150" height="150" fill="white"/>
</clipPath>
</defs>
</svg>
