<svg width="150" height="150" viewBox="0 0 150 150" fill="none" xmlns="http://www.w3.org/2000/svg">
<path d="M29.2922 5.64369C24.6656 2.98119 18.75 6.28119 18.75 11.7234L18.7969 109.223C18.7969 112.58 20.5781 115.669 23.475 117.356L23.4984 117.366L69.8109 143.897L69.8391 143.916C73.0734 145.744 77.0438 145.772 80.2922 143.892H80.3016L126.548 117.366L126.572 117.352C127.997 116.527 129.179 115.341 130 113.914C130.822 112.488 131.253 110.87 131.25 109.223V11.7187C131.25 6.28119 125.334 2.9765 120.708 5.639L75 32.0437L29.2969 5.64838L29.2922 5.64369ZM28.1719 109.219L28.125 15.7968L75 42.8718L75.0469 135.919C74.8387 135.909 74.6354 135.853 74.4516 135.755L74.4422 135.75L28.1766 109.247L28.1719 109.219Z" fill="#4B4B4B"/>
</svg>
